<svg width="1440" height="720" viewBox="0 0 1440 720" fill="none" xmlns="http://www.w3.org/2000/svg">
<rect x="0.5" y="0.5" width="1439" height="719" fill="#FF003D" stroke="black"/>
<mask id="mask0_1_1043" style="mask-type:alpha" maskUnits="userSpaceOnUse" x="0" y="1" width="1440" height="714">
<rect x="0.5" y="1.5" width="1439" height="713" fill="#FF003D" stroke="black"/>
</mask>
<g mask="url(#mask0_1_1043)">
<circle cx="168.463" cy="60.2634" r="52.1071" fill="#FF5F46"/>
<circle cx="319.263" cy="60.2634" r="52.1071" fill="#FF5F46"/>
<circle cx="470.068" cy="60.2634" r="52.1071" fill="#FF5F46"/>
<circle cx="620.869" cy="60.2634" r="52.1071" fill="#FF5F46"/>
<circle cx="771.674" cy="60.2634" r="52.1071" fill="#FF5F46"/>
<circle cx="922.478" cy="60.2634" r="52.1071" fill="#FF5F46"/>
<circle cx="1073.28" cy="60.2634" r="52.1071" fill="#FF5F46"/>
<circle cx="1224.09" cy="60.2634" r="52.1071" fill="#FF5F46"/>
<circle cx="1374.89" cy="60.2634" r="52.1071" fill="#FF5F46"/>
<circle cx="87.5407" cy="207.388" r="52.1071" fill="#FF5F46"/>
<circle cx="238.345" cy="207.388" r="52.1071" fill="#FF5F46"/>
<circle cx="389.15" cy="207.388" r="52.1071" fill="#FF5F46"/>
<circle cx="539.955" cy="207.388" r="52.1071" fill="#FF5F46"/>
<circle cx="690.756" cy="207.388" r="52.1071" fill="#FF5F46"/>
<circle cx="841.56" cy="207.388" r="52.1071" fill="#FF5F46"/>
<circle cx="992.365" cy="207.388" r="52.1071" fill="#FF5F46"/>
<circle cx="1143.17" cy="207.388" r="52.1071" fill="#FF5F46"/>
<circle cx="1293.97" cy="207.388" r="52.1071" fill="#FF5F46"/>
<circle cx="185.623" cy="354.515" r="52.1071" fill="#FF5F46"/>
<circle cx="336.427" cy="354.515" r="52.1071" fill="#FF5F46"/>
<circle cx="487.232" cy="354.515" r="52.1071" fill="#FF5F46"/>
<circle cx="638.037" cy="354.515" r="52.1071" fill="#FF5F46"/>
<circle cx="788.841" cy="354.515" r="52.1071" fill="#FF5F46"/>
<circle cx="939.646" cy="354.515" r="52.1071" fill="#FF5F46"/>
<circle cx="1090.45" cy="354.515" r="52.1071" fill="#FF5F46"/>
<circle cx="1241.25" cy="354.515" r="52.1071" fill="#FF5F46"/>
<circle cx="101.029" cy="501.64" r="52.1071" fill="#FF5F46"/>
<circle cx="251.83" cy="501.64" r="52.1071" fill="#FF5F46"/>
<circle cx="402.634" cy="501.64" r="52.1071" fill="#FF5F46"/>
<circle cx="553.435" cy="501.64" r="52.1071" fill="#FF5F46"/>
<circle cx="704.24" cy="501.64" r="52.1071" fill="#FF5F46"/>
<circle cx="855.045" cy="501.64" r="52.1071" fill="#FF5F46"/>
<circle cx="1005.85" cy="501.64" r="52.1071" fill="#FF5F46"/>
<circle cx="1156.65" cy="501.64" r="52.1071" fill="#FF5F46"/>
<circle cx="1307.46" cy="501.64" r="52.1071" fill="#FF5F46"/>
<circle cx="20.1071" cy="648.767" r="52.1071" fill="#FF5F46"/>
<circle cx="170.912" cy="648.767" r="52.1071" fill="#FF5F46"/>
<circle cx="321.716" cy="648.767" r="52.1071" fill="#FF5F46"/>
<circle cx="472.521" cy="648.767" r="52.1071" fill="#FF5F46"/>
<circle cx="623.326" cy="648.767" r="52.1071" fill="#FF5F46"/>
<circle cx="774.131" cy="648.767" r="52.1071" fill="#FF5F46"/>
<circle cx="924.931" cy="648.767" r="52.1071" fill="#FF5F46"/>
<circle cx="1075.74" cy="648.767" r="52.1071" fill="#FF5F46"/>
<circle cx="1226.54" cy="648.767" r="52.1071" fill="#FF5F46"/>
<circle cx="20.1071" cy="354.107" r="52.1071" fill="#FF5F46"/>
<circle cx="-2.89288" cy="61.1071" r="52.1071" fill="#FF5F46"/>
<circle cx="1388.11" cy="649.107" r="52.1071" fill="#FF5F46"/>
<circle cx="1407.11" cy="354.107" r="52.1071" fill="#FF5F46"/>
<circle cx="1445.11" cy="207.107" r="52.1071" fill="#FF5F46"/>
<circle cx="1440.11" cy="501.107" r="52.1071" fill="#FF5F46"/>
</g>
</svg>
