<svg width="720" height="720" viewBox="0 0 720 720" fill="none" xmlns="http://www.w3.org/2000/svg">
<rect x="0.498535" y="0.5" width="719" height="719" fill="#7A61E3" stroke="black"/>
<path d="M119.807 3V121.984H0L119.807 3Z" fill="#D2CCF4"/>
<path d="M239.588 3V121.984H119.781L239.588 3Z" fill="#D2CCF4"/>
<path d="M359.35 3V121.984H239.543L359.35 3Z" fill="#D2CCF4"/>
<path d="M119.83 121.5V240.484H0.0234375L119.83 121.5Z" fill="#D2CCF4"/>
<path d="M239.612 121.242V240.226H119.805L239.612 121.242Z" fill="#D2CCF4"/>
<path d="M359.373 121.242V240.226H239.566L359.373 121.242Z" fill="#D2CCF4"/>
<path d="M119.83 241.258V360.242H0.0234375L119.83 241.258Z" fill="#D2CCF4"/>
<path d="M239.612 241V359.984H119.805L239.612 241Z" fill="#D2CCF4"/>
<path d="M359.373 241V359.984H239.566L359.373 241Z" fill="#D2CCF4"/>
<path d="M479.104 3V121.984H359.297L479.104 3Z" fill="#D2CCF4"/>
<path d="M598.889 3V121.984H479.082L598.889 3Z" fill="#D2CCF4"/>
<path d="M718.647 3V121.984H598.84L718.647 3Z" fill="#D2CCF4"/>
<path d="M479.127 122.017V241H359.32L479.127 122.017Z" fill="#D2CCF4"/>
<path d="M598.909 121.758V240.742H479.102L598.909 121.758Z" fill="#D2CCF4"/>
<path d="M718.67 121.758V240.742H598.863L718.67 121.758Z" fill="#D2CCF4"/>
<path d="M479.127 241.774V360.758H359.32L479.127 241.774Z" fill="#D2CCF4"/>
<path d="M598.909 241.516V360.499H479.102L598.909 241.516Z" fill="#D2CCF4"/>
<path d="M718.67 241.516V360.499H598.863L718.67 241.516Z" fill="#D2CCF4"/>
<path d="M119.83 360.5V479.484H0.0234375L119.83 360.5Z" fill="#D2CCF4"/>
<path d="M239.612 360.242V479.226H119.805L239.612 360.242Z" fill="#D2CCF4"/>
<path d="M359.373 360.242V479.226H239.566L359.373 360.242Z" fill="#D2CCF4"/>
<path d="M119.858 479.742V598.726H0.0507812L119.858 479.742Z" fill="#D2CCF4"/>
<path d="M239.639 479.484V598.468H119.832L239.639 479.484Z" fill="#D2CCF4"/>
<path d="M359.393 479.484V598.468H239.586L359.393 479.484Z" fill="#D2CCF4"/>
<path d="M119.858 600.5V719.484H0.0507812L119.858 600.5Z" fill="#D2CCF4"/>
<path d="M239.639 600.242V719.226H119.832L239.639 600.242Z" fill="#D2CCF4"/>
<path d="M359.393 600.242V719.226H239.586L359.393 600.242Z" fill="#D2CCF4"/>
<path d="M479.127 361.016V479.999H359.32L479.127 361.016Z" fill="#D2CCF4"/>
<path d="M598.909 360.758V479.742H479.102L598.909 360.758Z" fill="#D2CCF4"/>
<path d="M718.67 360.758V479.742H598.863L718.67 360.758Z" fill="#D2CCF4"/>
<path d="M479.154 480.258V599.242H359.347L479.154 480.258Z" fill="#D2CCF4"/>
<path d="M598.936 480V598.984H479.129L598.936 480Z" fill="#D2CCF4"/>
<path d="M718.694 480V598.984H598.887L718.694 480Z" fill="#D2CCF4"/>
<path d="M479.154 600.016V718.999H359.347L479.154 600.016Z" fill="#D2CCF4"/>
<path d="M598.936 599.758V718.742H479.129L598.936 599.758Z" fill="#D2CCF4"/>
<path d="M718.694 599.758V718.742H598.887L718.694 599.758Z" fill="#D2CCF4"/>
</svg>
