<svg width="308" height="201" viewBox="0 0 308 201" fill="none" xmlns="http://www.w3.org/2000/svg">
<mask id="path-1-inside-1_7_3004" fill="white">
<path fill-rule="evenodd" clip-rule="evenodd" d="M102.591 48.5287C101.135 21.4824 78.7429 0 51.3333 0C22.9827 0 0 22.9827 0 51.3333C0 74.1106 14.8347 93.423 35.3695 100.136C14.8347 106.849 0 126.161 0 148.938C0 177.289 22.9827 200.272 51.3333 200.272C79.684 200.272 102.667 177.289 102.667 148.938C102.667 147.688 102.622 146.448 102.534 145.22C102.621 145.244 102.708 145.268 102.795 145.292C102.71 146.497 102.667 147.713 102.667 148.938C102.667 177.289 125.65 200.272 154.001 200.272C182.351 200.272 205.334 177.289 205.334 148.938C205.334 148.594 205.33 148.251 205.324 147.908C205.331 147.907 205.338 147.905 205.345 147.904C205.338 148.248 205.334 148.593 205.334 148.938C205.334 177.289 228.317 200.272 256.668 200.272C285.018 200.272 308.001 177.289 308.001 148.938C308.001 126.588 293.716 107.573 273.779 100.526C273.815 100.255 273.847 99.9837 273.875 99.7117C293.762 92.6376 308.001 73.6483 308.001 51.3333C308.001 22.9827 285.018 0 256.668 0C230.146 0 208.322 20.1133 205.617 45.9188C205.424 45.8776 205.232 45.8366 205.039 45.7959C202.277 20.0495 180.48 0 154.001 0C126.605 0 104.222 21.4598 102.745 48.4861C102.694 48.5003 102.642 48.5145 102.591 48.5287Z"/>
</mask>
<path fill-rule="evenodd" clip-rule="evenodd" d="M102.591 48.5287C101.135 21.4824 78.7429 0 51.3333 0C22.9827 0 0 22.9827 0 51.3333C0 74.1106 14.8347 93.423 35.3695 100.136C14.8347 106.849 0 126.161 0 148.938C0 177.289 22.9827 200.272 51.3333 200.272C79.684 200.272 102.667 177.289 102.667 148.938C102.667 147.688 102.622 146.448 102.534 145.22C102.621 145.244 102.708 145.268 102.795 145.292C102.71 146.497 102.667 147.713 102.667 148.938C102.667 177.289 125.65 200.272 154.001 200.272C182.351 200.272 205.334 177.289 205.334 148.938C205.334 148.594 205.33 148.251 205.324 147.908C205.331 147.907 205.338 147.905 205.345 147.904C205.338 148.248 205.334 148.593 205.334 148.938C205.334 177.289 228.317 200.272 256.668 200.272C285.018 200.272 308.001 177.289 308.001 148.938C308.001 126.588 293.716 107.573 273.779 100.526C273.815 100.255 273.847 99.9837 273.875 99.7117C293.762 92.6376 308.001 73.6483 308.001 51.3333C308.001 22.9827 285.018 0 256.668 0C230.146 0 208.322 20.1133 205.617 45.9188C205.424 45.8776 205.232 45.8366 205.039 45.7959C202.277 20.0495 180.48 0 154.001 0C126.605 0 104.222 21.4598 102.745 48.4861C102.694 48.5003 102.642 48.5145 102.591 48.5287Z" fill="#D4FF73"/>
<path d="M102.591 48.5287L101.121 48.6079L101.219 50.4384L102.986 49.9475L102.591 48.5287ZM35.3695 100.136L35.827 101.536L40.1087 100.136L35.827 98.7362L35.3695 100.136ZM102.534 145.22L102.929 143.801L100.916 143.241L101.065 145.325L102.534 145.22ZM102.795 145.292L104.264 145.395L104.348 144.194L103.187 143.873L102.795 145.292ZM205.324 147.908L205.017 146.468L203.827 146.721L203.851 147.937L205.324 147.908ZM205.345 147.904L206.817 147.933L206.854 146.077L205.038 146.464L205.345 147.904ZM273.779 100.526L272.319 100.332L272.161 101.516L273.288 101.915L273.779 100.526ZM273.875 99.7117L273.381 98.3242L272.505 98.6358L272.41 99.5608L273.875 99.7117ZM205.617 45.9188L205.308 47.3587L206.91 47.7019L207.081 46.0723L205.617 45.9188ZM205.039 45.7959L203.574 45.953L203.688 47.016L204.735 47.2368L205.039 45.7959ZM102.745 48.4861L103.138 49.9053L104.157 49.6228L104.215 48.5665L102.745 48.4861ZM104.062 48.4495C102.564 20.626 79.5297 -1.47259 51.3333 -1.47259V1.47259C77.9562 1.47259 99.7065 22.3387 101.121 48.6079L104.062 48.4495ZM51.3333 -1.47259C22.1694 -1.47259 -1.47259 22.1694 -1.47259 51.3333H1.47259C1.47259 23.796 23.796 1.47259 51.3333 1.47259V-1.47259ZM-1.47259 51.3333C-1.47259 74.7663 13.7896 94.6307 34.9119 101.536L35.827 98.7362C15.8798 92.2154 1.47259 73.4549 1.47259 51.3333H-1.47259ZM34.9119 98.7362C13.7896 105.641 -1.47259 125.506 -1.47259 148.938H1.47259C1.47259 126.817 15.8798 108.056 35.827 101.536L34.9119 98.7362ZM-1.47259 148.938C-1.47259 178.102 22.1694 201.744 51.3333 201.744V198.799C23.796 198.799 1.47259 176.476 1.47259 148.938H-1.47259ZM51.3333 201.744C80.4972 201.744 104.139 178.102 104.139 148.938H101.194C101.194 176.476 78.8707 198.799 51.3333 198.799V201.744ZM104.139 148.938C104.139 147.653 104.093 146.378 104.003 145.115L101.065 145.325C101.151 146.518 101.194 147.723 101.194 148.938H104.139ZM103.187 143.873C103.101 143.849 103.015 143.825 102.929 143.801L102.139 146.639C102.227 146.663 102.314 146.687 102.402 146.712L103.187 143.873ZM104.14 148.938C104.14 147.747 104.182 146.566 104.264 145.395L101.326 145.189C101.239 146.428 101.195 147.678 101.195 148.938H104.14ZM154.001 198.799C126.463 198.799 104.14 176.476 104.14 148.938H101.195C101.195 178.102 124.837 201.744 154.001 201.744V198.799ZM203.861 148.938C203.861 176.476 181.538 198.799 154.001 198.799V201.744C183.164 201.744 206.806 178.102 206.806 148.938H203.861ZM203.851 147.937C203.858 148.27 203.861 148.604 203.861 148.938H206.806C206.806 148.585 206.803 148.232 206.796 147.879L203.851 147.937ZM205.038 146.464C205.035 146.464 205.033 146.465 205.029 146.466C205.026 146.466 205.021 146.467 205.017 146.468L205.63 149.349C205.633 149.348 205.636 149.348 205.639 149.347C205.643 149.346 205.647 149.345 205.651 149.344L205.038 146.464ZM203.872 147.875C203.865 148.229 203.862 148.583 203.862 148.938H206.807C206.807 148.603 206.81 148.267 206.817 147.933L203.872 147.875ZM203.862 148.938C203.862 178.102 227.504 201.744 256.668 201.744V198.799C229.13 198.799 206.807 176.476 206.807 148.938H203.862ZM256.668 201.744C285.832 201.744 309.474 178.102 309.474 148.938H306.528C306.528 176.476 284.205 198.799 256.668 198.799V201.744ZM309.474 148.938C309.474 125.944 294.777 106.386 274.269 99.1377L273.288 101.915C292.656 108.76 306.528 127.231 306.528 148.938H309.474ZM272.41 99.5608C272.383 99.8183 272.353 100.075 272.319 100.332L275.238 100.72C275.276 100.435 275.31 100.149 275.34 99.8625L272.41 99.5608ZM274.368 101.099C294.824 93.8228 309.474 74.2907 309.474 51.3333H306.528C306.528 73.0058 292.7 91.4524 273.381 98.3242L274.368 101.099ZM309.474 51.3333C309.474 22.1694 285.832 -1.47259 256.668 -1.47259V1.47259C284.205 1.47259 306.528 23.796 306.528 51.3333H309.474ZM256.668 -1.47259C229.384 -1.47259 206.935 19.218 204.152 45.7653L207.081 46.0723C209.708 21.0087 230.908 1.47259 256.668 1.47259V-1.47259ZM204.735 47.2368C204.926 47.2772 205.117 47.3178 205.308 47.3587L205.925 44.4789C205.731 44.4374 205.537 44.3961 205.343 44.3551L204.735 47.2368ZM154.001 1.47259C179.72 1.47259 200.892 20.9467 203.574 45.953L206.503 45.6389C203.662 19.1523 181.241 -1.47259 154.001 -1.47259V1.47259ZM104.215 48.5665C105.65 22.3168 127.392 1.47259 154.001 1.47259V-1.47259C125.819 -1.47259 102.794 20.6028 101.274 48.4057L104.215 48.5665ZM102.986 49.9475C103.036 49.9334 103.087 49.9193 103.138 49.9053L102.352 47.067C102.3 47.0812 102.249 47.0956 102.197 47.1099L102.986 49.9475Z" fill="black" mask="url(#path-1-inside-1_7_3004)"/>
</svg>
