<svg width="437" height="89" viewBox="0 0 437 89" fill="none" xmlns="http://www.w3.org/2000/svg">
<path d="M392.5 88.5H1V0.5H392.5C416.801 0.5 436.5 20.1995 436.5 44.5C436.5 68.8005 416.801 88.5 392.5 88.5Z" fill="#D4FF73" stroke="black"/>
<mask id="path-2-outside-1_1_1126" maskUnits="userSpaceOnUse" x="38" y="32" width="346" height="35" fill="black">
<rect fill="white" x="38" y="32" width="346" height="35"/>
<path d="M64.616 33.6676V60H60.602V37.2401H43.9435V60H39.9294V33.6676H64.616ZM85.9239 60.4817C82.9 60.4817 80.2507 59.9331 77.9761 58.8359C75.7014 57.7387 73.9486 56.1866 72.7176 54.1796C71.4866 52.1725 70.8711 49.8176 70.8711 47.1148V46.5929C70.8711 43.8901 71.4866 41.5352 72.7176 39.5281C73.9486 37.4943 75.7014 35.9288 77.9761 34.8317C80.2507 33.7345 82.9 33.1859 85.9239 33.1859C88.9479 33.1859 91.5838 33.7345 93.8317 34.8317C96.1064 35.9288 97.8592 37.4943 99.0902 39.5281C100.321 41.5352 100.937 43.8901 100.937 46.5929V47.1148C100.937 49.8176 100.321 52.1725 99.0902 54.1796C97.8592 56.1866 96.1064 57.7387 93.8317 58.8359C91.5838 59.9331 88.9479 60.4817 85.9239 60.4817ZM85.9239 56.7486C89.3761 56.7486 92.0655 55.9056 93.9923 54.2197C95.919 52.5338 96.8824 50.1922 96.8824 47.1951V46.5528C96.8824 43.5289 95.919 41.1739 93.9923 39.488C92.0655 37.7753 89.3761 36.919 85.9239 36.919C82.4718 36.919 79.769 37.7753 77.8155 39.488C75.8887 41.1739 74.9253 43.5289 74.9253 46.5528V47.1951C74.9253 50.1922 75.8887 52.5338 77.8155 54.2197C79.769 55.9056 82.4718 56.7486 85.9239 56.7486ZM130.719 46.6331C132.138 47.1683 133.221 47.9042 133.971 48.8408C134.72 49.7775 135.095 50.8613 135.095 52.0922V52.5739C135.095 55.0894 133.877 57.043 131.442 58.4345C129.033 59.7993 125.595 60.4817 121.126 60.4817C116.282 60.4817 112.589 59.5718 110.047 57.7521C107.531 55.9056 106.273 53.2162 106.273 49.6838V49.3225H110.328V49.6838C110.328 52.119 111.197 53.912 112.937 55.0627C114.703 56.1866 117.459 56.7486 121.206 56.7486C124.551 56.7486 127.026 56.4007 128.632 55.7049C130.238 55.0091 131.04 53.9253 131.04 52.4535V52.012C131.04 50.781 130.438 49.9113 129.234 49.4028C128.03 48.8676 125.983 48.6 123.093 48.6H116.068V45.0274H122.812C125.488 45.0274 127.414 44.7465 128.592 44.1845C129.796 43.6225 130.398 42.7127 130.398 41.4549V41.0134C130.398 38.2838 127.227 36.919 120.885 36.919C117.352 36.919 114.73 37.5077 113.017 38.6852C111.304 39.8627 110.448 41.6422 110.448 44.0239V44.3451H106.434V44.0239C106.434 40.5183 107.678 37.8422 110.167 35.9957C112.683 34.1225 116.282 33.1859 120.965 33.1859C125.247 33.1859 128.565 33.8549 130.92 35.1929C133.275 36.531 134.452 38.4042 134.452 40.8127V41.3345C134.452 43.7162 133.208 45.4824 130.719 46.6331ZM170.138 56.4275V65.3387H166.124V60H141.879V65.3387H137.905V56.4275H141.317C142.896 53.9922 143.725 50.9282 143.806 47.2352L144.046 33.6676H166.003V56.4275H170.138ZM147.499 47.3556C147.418 51.0486 146.696 54.0725 145.331 56.4275H162.03V37.2401H147.739L147.499 47.3556ZM191.661 33.6676C194.605 33.6676 196.933 34.3767 198.646 35.795C200.358 37.1866 201.215 39.0732 201.215 41.4549V41.9366C201.215 44.3183 200.358 46.2183 198.646 47.6366C196.933 49.0282 194.605 49.7239 191.661 49.7239H179.458V60H175.444V33.6676H191.661ZM191.581 46.1514C193.347 46.1514 194.712 45.7901 195.675 45.0676C196.665 44.3183 197.16 43.2746 197.16 41.9366V41.4549C197.16 40.1169 196.665 39.0866 195.675 38.3641C194.712 37.6148 193.347 37.2401 191.581 37.2401H179.458V46.1514H191.581ZM229.885 59.3979V60H225.79L222.659 53.3366H207.807L204.676 60H200.582V59.3979L213.026 33.6676H217.441L229.885 59.3979ZM220.933 49.7239L215.233 37.6415L209.533 49.7239H220.933ZM255.315 46.5127C256.707 47.0479 257.764 47.8106 258.486 48.8007C259.236 49.7641 259.61 50.9282 259.61 52.293V52.7345C259.61 54.9556 258.754 56.7218 257.041 58.0331C255.355 59.3444 253.094 60 250.258 60H234.362V33.6676H249.415C252.358 33.6676 254.646 34.2563 256.279 35.4338C257.938 36.5845 258.767 38.2169 258.767 40.331V40.8127C258.767 42.0704 258.473 43.181 257.884 44.1444C257.296 45.1077 256.439 45.8972 255.315 46.5127ZM238.376 37.2401V44.907H249.374C252.934 44.907 254.713 43.7028 254.713 41.2943V40.8127C254.713 39.662 254.258 38.7789 253.348 38.1634C252.439 37.5479 251.127 37.2401 249.415 37.2401H238.376ZM255.556 52.1725C255.556 49.7373 253.763 48.5197 250.177 48.5197H238.376V56.4275H250.177C251.863 56.4275 253.174 56.093 254.111 55.4239C255.074 54.7282 255.556 53.7915 255.556 52.6141V52.1725ZM290.012 60H285.998V37.2401L271.948 37.2803L271.748 49.4831C271.694 53.1225 270.998 55.7852 269.66 57.4711C268.349 59.157 266.315 60 263.559 60H261.833V56.4275H262.836C264.094 56.4275 265.084 56.2 265.807 55.7451C266.556 55.2634 267.091 54.5007 267.412 53.457C267.76 52.4134 267.948 50.9951 267.974 49.2021L268.255 33.6676H290.012V60ZM322.363 33.6676V60H318.349V49.8444H311.686L301.49 60H296.713V59.3979L306.267 49.8444H306.186C303.243 49.8444 300.901 49.1486 299.162 47.757C297.449 46.3387 296.593 44.4253 296.593 42.0169V41.5753C296.593 39.1401 297.449 37.2134 299.162 35.795C300.901 34.3767 303.243 33.6676 306.186 33.6676H322.363ZM318.349 37.2401H306.267C304.474 37.2401 303.082 37.6281 302.092 38.4042C301.129 39.1535 300.647 40.2105 300.647 41.5753V42.0169C300.647 43.3817 301.129 44.4387 302.092 45.188C303.082 45.9373 304.474 46.312 306.267 46.312H318.349V37.2401ZM355.145 33.1859C358.142 33.1859 360.765 33.7345 363.012 34.8317C365.287 35.9288 367.027 37.4943 368.231 39.5281C369.462 41.5352 370.077 43.8901 370.077 46.5929V47.1148C370.077 49.8176 369.462 52.1725 368.231 54.1796C367.027 56.1866 365.287 57.7387 363.012 58.8359C360.765 59.9331 358.142 60.4817 355.145 60.4817C352.335 60.4817 349.846 60 347.679 59.0366C345.511 58.0732 343.785 56.7084 342.5 54.9422C341.216 53.1493 340.467 51.0486 340.253 48.6401H333.75V60H329.736V33.6676H333.75V45.0274H340.253C340.493 42.619 341.256 40.5317 342.541 38.7655C343.825 36.9725 345.538 35.5943 347.679 34.631C349.846 33.6676 352.335 33.1859 355.145 33.1859ZM366.023 46.5528C366.023 43.5289 365.06 41.1739 363.133 39.488C361.233 37.7753 358.57 36.919 355.145 36.919C351.719 36.919 349.043 37.7753 347.117 39.488C345.19 41.1739 344.226 43.5289 344.226 46.5528V47.1951C344.226 50.1922 345.19 52.5338 347.117 54.2197C349.043 55.9056 351.719 56.7486 355.145 56.7486C358.57 56.7486 361.233 55.9056 363.133 54.2197C365.06 52.5338 366.023 50.1922 366.023 47.1951V46.5528ZM381.723 33.6676L381.523 52.6944H377.91L377.709 33.6676H381.723ZM379.716 60.4817C378.994 60.4817 378.405 60.2676 377.95 59.8394C377.495 59.3845 377.268 58.7958 377.268 58.0732C377.268 57.3507 377.495 56.7753 377.95 56.3472C378.405 55.8922 378.994 55.6648 379.716 55.6648C380.439 55.6648 381.028 55.8922 381.483 56.3472C381.937 56.7753 382.165 57.3507 382.165 58.0732C382.165 58.7958 381.937 59.3845 381.483 59.8394C381.028 60.2676 380.439 60.4817 379.716 60.4817Z"/>
</mask>
<path d="M64.616 33.6676V60H60.602V37.2401H43.9435V60H39.9294V33.6676H64.616ZM85.9239 60.4817C82.9 60.4817 80.2507 59.9331 77.9761 58.8359C75.7014 57.7387 73.9486 56.1866 72.7176 54.1796C71.4866 52.1725 70.8711 49.8176 70.8711 47.1148V46.5929C70.8711 43.8901 71.4866 41.5352 72.7176 39.5281C73.9486 37.4943 75.7014 35.9288 77.9761 34.8317C80.2507 33.7345 82.9 33.1859 85.9239 33.1859C88.9479 33.1859 91.5838 33.7345 93.8317 34.8317C96.1064 35.9288 97.8592 37.4943 99.0902 39.5281C100.321 41.5352 100.937 43.8901 100.937 46.5929V47.1148C100.937 49.8176 100.321 52.1725 99.0902 54.1796C97.8592 56.1866 96.1064 57.7387 93.8317 58.8359C91.5838 59.9331 88.9479 60.4817 85.9239 60.4817ZM85.9239 56.7486C89.3761 56.7486 92.0655 55.9056 93.9923 54.2197C95.919 52.5338 96.8824 50.1922 96.8824 47.1951V46.5528C96.8824 43.5289 95.919 41.1739 93.9923 39.488C92.0655 37.7753 89.3761 36.919 85.9239 36.919C82.4718 36.919 79.769 37.7753 77.8155 39.488C75.8887 41.1739 74.9253 43.5289 74.9253 46.5528V47.1951C74.9253 50.1922 75.8887 52.5338 77.8155 54.2197C79.769 55.9056 82.4718 56.7486 85.9239 56.7486ZM130.719 46.6331C132.138 47.1683 133.221 47.9042 133.971 48.8408C134.72 49.7775 135.095 50.8613 135.095 52.0922V52.5739C135.095 55.0894 133.877 57.043 131.442 58.4345C129.033 59.7993 125.595 60.4817 121.126 60.4817C116.282 60.4817 112.589 59.5718 110.047 57.7521C107.531 55.9056 106.273 53.2162 106.273 49.6838V49.3225H110.328V49.6838C110.328 52.119 111.197 53.912 112.937 55.0627C114.703 56.1866 117.459 56.7486 121.206 56.7486C124.551 56.7486 127.026 56.4007 128.632 55.7049C130.238 55.0091 131.04 53.9253 131.04 52.4535V52.012C131.04 50.781 130.438 49.9113 129.234 49.4028C128.03 48.8676 125.983 48.6 123.093 48.6H116.068V45.0274H122.812C125.488 45.0274 127.414 44.7465 128.592 44.1845C129.796 43.6225 130.398 42.7127 130.398 41.4549V41.0134C130.398 38.2838 127.227 36.919 120.885 36.919C117.352 36.919 114.73 37.5077 113.017 38.6852C111.304 39.8627 110.448 41.6422 110.448 44.0239V44.3451H106.434V44.0239C106.434 40.5183 107.678 37.8422 110.167 35.9957C112.683 34.1225 116.282 33.1859 120.965 33.1859C125.247 33.1859 128.565 33.8549 130.92 35.1929C133.275 36.531 134.452 38.4042 134.452 40.8127V41.3345C134.452 43.7162 133.208 45.4824 130.719 46.6331ZM170.138 56.4275V65.3387H166.124V60H141.879V65.3387H137.905V56.4275H141.317C142.896 53.9922 143.725 50.9282 143.806 47.2352L144.046 33.6676H166.003V56.4275H170.138ZM147.499 47.3556C147.418 51.0486 146.696 54.0725 145.331 56.4275H162.03V37.2401H147.739L147.499 47.3556ZM191.661 33.6676C194.605 33.6676 196.933 34.3767 198.646 35.795C200.358 37.1866 201.215 39.0732 201.215 41.4549V41.9366C201.215 44.3183 200.358 46.2183 198.646 47.6366C196.933 49.0282 194.605 49.7239 191.661 49.7239H179.458V60H175.444V33.6676H191.661ZM191.581 46.1514C193.347 46.1514 194.712 45.7901 195.675 45.0676C196.665 44.3183 197.16 43.2746 197.16 41.9366V41.4549C197.16 40.1169 196.665 39.0866 195.675 38.3641C194.712 37.6148 193.347 37.2401 191.581 37.2401H179.458V46.1514H191.581ZM229.885 59.3979V60H225.79L222.659 53.3366H207.807L204.676 60H200.582V59.3979L213.026 33.6676H217.441L229.885 59.3979ZM220.933 49.7239L215.233 37.6415L209.533 49.7239H220.933ZM255.315 46.5127C256.707 47.0479 257.764 47.8106 258.486 48.8007C259.236 49.7641 259.61 50.9282 259.61 52.293V52.7345C259.61 54.9556 258.754 56.7218 257.041 58.0331C255.355 59.3444 253.094 60 250.258 60H234.362V33.6676H249.415C252.358 33.6676 254.646 34.2563 256.279 35.4338C257.938 36.5845 258.767 38.2169 258.767 40.331V40.8127C258.767 42.0704 258.473 43.181 257.884 44.1444C257.296 45.1077 256.439 45.8972 255.315 46.5127ZM238.376 37.2401V44.907H249.374C252.934 44.907 254.713 43.7028 254.713 41.2943V40.8127C254.713 39.662 254.258 38.7789 253.348 38.1634C252.439 37.5479 251.127 37.2401 249.415 37.2401H238.376ZM255.556 52.1725C255.556 49.7373 253.763 48.5197 250.177 48.5197H238.376V56.4275H250.177C251.863 56.4275 253.174 56.093 254.111 55.4239C255.074 54.7282 255.556 53.7915 255.556 52.6141V52.1725ZM290.012 60H285.998V37.2401L271.948 37.2803L271.748 49.4831C271.694 53.1225 270.998 55.7852 269.66 57.4711C268.349 59.157 266.315 60 263.559 60H261.833V56.4275H262.836C264.094 56.4275 265.084 56.2 265.807 55.7451C266.556 55.2634 267.091 54.5007 267.412 53.457C267.76 52.4134 267.948 50.9951 267.974 49.2021L268.255 33.6676H290.012V60ZM322.363 33.6676V60H318.349V49.8444H311.686L301.49 60H296.713V59.3979L306.267 49.8444H306.186C303.243 49.8444 300.901 49.1486 299.162 47.757C297.449 46.3387 296.593 44.4253 296.593 42.0169V41.5753C296.593 39.1401 297.449 37.2134 299.162 35.795C300.901 34.3767 303.243 33.6676 306.186 33.6676H322.363ZM318.349 37.2401H306.267C304.474 37.2401 303.082 37.6281 302.092 38.4042C301.129 39.1535 300.647 40.2105 300.647 41.5753V42.0169C300.647 43.3817 301.129 44.4387 302.092 45.188C303.082 45.9373 304.474 46.312 306.267 46.312H318.349V37.2401ZM355.145 33.1859C358.142 33.1859 360.765 33.7345 363.012 34.8317C365.287 35.9288 367.027 37.4943 368.231 39.5281C369.462 41.5352 370.077 43.8901 370.077 46.5929V47.1148C370.077 49.8176 369.462 52.1725 368.231 54.1796C367.027 56.1866 365.287 57.7387 363.012 58.8359C360.765 59.9331 358.142 60.4817 355.145 60.4817C352.335 60.4817 349.846 60 347.679 59.0366C345.511 58.0732 343.785 56.7084 342.5 54.9422C341.216 53.1493 340.467 51.0486 340.253 48.6401H333.75V60H329.736V33.6676H333.75V45.0274H340.253C340.493 42.619 341.256 40.5317 342.541 38.7655C343.825 36.9725 345.538 35.5943 347.679 34.631C349.846 33.6676 352.335 33.1859 355.145 33.1859ZM366.023 46.5528C366.023 43.5289 365.06 41.1739 363.133 39.488C361.233 37.7753 358.57 36.919 355.145 36.919C351.719 36.919 349.043 37.7753 347.117 39.488C345.19 41.1739 344.226 43.5289 344.226 46.5528V47.1951C344.226 50.1922 345.19 52.5338 347.117 54.2197C349.043 55.9056 351.719 56.7486 355.145 56.7486C358.57 56.7486 361.233 55.9056 363.133 54.2197C365.06 52.5338 366.023 50.1922 366.023 47.1951V46.5528ZM381.723 33.6676L381.523 52.6944H377.91L377.709 33.6676H381.723ZM379.716 60.4817C378.994 60.4817 378.405 60.2676 377.95 59.8394C377.495 59.3845 377.268 58.7958 377.268 58.0732C377.268 57.3507 377.495 56.7753 377.95 56.3472C378.405 55.8922 378.994 55.6648 379.716 55.6648C380.439 55.6648 381.028 55.8922 381.483 56.3472C381.937 56.7753 382.165 57.3507 382.165 58.0732C382.165 58.7958 381.937 59.3845 381.483 59.8394C381.028 60.2676 380.439 60.4817 379.716 60.4817Z" fill="#FF003D"/>
<path d="M64.616 33.6676H65.6196V32.6641H64.616V33.6676ZM64.616 60V61.0035H65.6196V60H64.616ZM60.602 60H59.5984V61.0035H60.602V60ZM60.602 37.2401H61.6055V36.2366H60.602V37.2401ZM43.9435 37.2401V36.2366H42.94V37.2401H43.9435ZM43.9435 60V61.0035H44.947V60H43.9435ZM39.9294 60H38.9259V61.0035H39.9294V60ZM39.9294 33.6676V32.6641H38.9259V33.6676H39.9294ZM63.6125 33.6676V60H65.6196V33.6676H63.6125ZM64.616 58.9965H60.602V61.0035H64.616V58.9965ZM61.6055 60V37.2401H59.5984V60H61.6055ZM60.602 36.2366H43.9435V38.2436H60.602V36.2366ZM42.94 37.2401V60H44.947V37.2401H42.94ZM43.9435 58.9965H39.9294V61.0035H43.9435V58.9965ZM40.9329 60V33.6676H38.9259V60H40.9329ZM39.9294 34.6711H64.616V32.6641H39.9294V34.6711ZM77.9761 58.8359L78.412 57.932L77.9761 58.8359ZM72.7176 54.1796L73.573 53.6549L72.7176 54.1796ZM72.7176 39.5281L73.5731 40.0528L73.5761 40.0478L72.7176 39.5281ZM77.9761 34.8317L78.412 35.7355L77.9761 34.8317ZM93.8317 34.8317L93.3915 35.7335L93.3957 35.7355L93.8317 34.8317ZM99.0902 39.5281L98.2316 40.0478L98.2347 40.0528L99.0902 39.5281ZM99.0902 54.1796L98.2347 53.6549L99.0902 54.1796ZM93.8317 58.8359L93.3957 57.932L93.3915 57.9341L93.8317 58.8359ZM93.9923 54.2197L94.6531 54.9749L93.9923 54.2197ZM93.9923 39.488L93.3255 40.2381L93.3314 40.2432L93.9923 39.488ZM77.8155 39.488L78.4763 40.2432L78.477 40.2426L77.8155 39.488ZM77.8155 54.2197L77.1547 54.975L77.1598 54.9794L77.8155 54.2197ZM85.924 59.4782C83.0215 59.4782 80.5265 58.952 78.412 57.932L77.5401 59.7398C79.9749 60.9142 82.7785 61.4852 85.924 61.4852V59.4782ZM78.412 57.932C76.2975 56.9121 74.6961 55.4859 73.573 53.6549L71.8622 54.7042C73.2011 56.8873 75.1053 58.5654 77.5401 59.7398L78.412 57.932ZM73.573 53.6549C72.4525 51.828 71.8746 49.6603 71.8746 47.1148H69.8676C69.8676 49.9748 70.5207 52.5171 71.8622 54.7042L73.573 53.6549ZM71.8746 47.1148V46.5929H69.8676V47.1148H71.8746ZM71.8746 46.5929C71.8746 44.0474 72.4525 41.8797 73.573 40.0528L71.8622 39.0035C70.5207 41.1906 69.8676 43.7329 69.8676 46.5929H71.8746ZM73.5761 40.0478C74.7001 38.1908 76.301 36.7538 78.412 35.7355L77.5401 33.9278C75.1018 35.1039 73.1971 36.7979 71.8591 39.0085L73.5761 40.0478ZM78.412 35.7355C80.5265 34.7156 83.0215 34.1894 85.924 34.1894V32.1824C82.7785 32.1824 79.9749 32.7533 77.5401 33.9278L78.412 35.7355ZM85.924 34.1894C88.8268 34.1894 91.3064 34.7158 93.3915 35.7335L94.2719 33.9298C91.8612 32.7532 89.069 32.1824 85.924 32.1824V34.1894ZM93.3957 35.7355C95.5067 36.7538 97.1077 38.1908 98.2316 40.0478L99.9487 39.0085C98.6106 36.7979 96.706 35.1039 94.2677 33.9278L93.3957 35.7355ZM98.2347 40.0528C99.3552 41.8797 99.9331 44.0474 99.9331 46.5929H101.94C101.94 43.7329 101.287 41.1906 99.9456 39.0035L98.2347 40.0528ZM99.9331 46.5929V47.1148H101.94V46.5929H99.9331ZM99.9331 47.1148C99.9331 49.6603 99.3552 51.828 98.2347 53.6549L99.9456 54.7042C101.287 52.5171 101.94 49.9748 101.94 47.1148H99.9331ZM98.2347 53.6549C97.1117 55.4859 95.5102 56.9121 93.3957 57.932L94.2677 59.7398C96.7025 58.5654 98.6067 56.8873 99.9456 54.7042L98.2347 53.6549ZM93.3915 57.9341C91.3064 58.9518 88.8268 59.4782 85.924 59.4782V61.4852C89.069 61.4852 91.8612 60.9144 94.2719 59.7377L93.3915 57.9341ZM85.924 57.7521C89.5337 57.7521 92.488 56.8694 94.6531 54.9749L93.3314 53.4645C91.643 54.9418 89.2184 55.7451 85.924 55.7451V57.7521ZM94.6531 54.9749C96.8355 53.0653 97.8859 50.4272 97.8859 47.1951H95.8789C95.8789 49.9573 95.0025 52.0023 93.3314 53.4645L94.6531 54.9749ZM97.8859 47.1951V46.5528H95.8789V47.1951H97.8859ZM97.8859 46.5528C97.8859 43.2971 96.8375 40.6442 94.6531 38.7328L93.3314 40.2432C95.0005 41.7037 95.8789 43.7606 95.8789 46.5528H97.8859ZM94.659 38.738C92.4939 36.8135 89.5374 35.9155 85.924 35.9155V37.9225C89.2148 37.9225 91.6371 38.7372 93.3256 40.238L94.659 38.738ZM85.924 35.9155C82.3096 35.9155 79.3435 36.8138 77.1539 38.7334L78.477 40.2426C80.1945 38.7368 82.6341 37.9225 85.924 37.9225V35.9155ZM77.1547 38.7328C74.9702 40.6442 73.9218 43.2971 73.9218 46.5528H75.9289C75.9289 43.7606 76.8072 41.7037 78.4763 40.2432L77.1547 38.7328ZM73.9218 46.5528V47.1951H75.9289V46.5528H73.9218ZM73.9218 47.1951C73.9218 50.4272 74.9722 53.0653 77.1547 54.9749L78.4763 53.4645C76.8052 52.0023 75.9289 49.9573 75.9289 47.1951H73.9218ZM77.1598 54.9794C79.3494 56.8691 82.3132 57.7521 85.924 57.7521V55.7451C82.6304 55.7451 80.1886 54.9422 78.4711 53.46L77.1598 54.9794ZM130.719 46.6331L130.298 45.7222L128.125 46.7268L130.365 47.572L130.719 46.6331ZM133.971 48.8408L134.754 48.2139L133.971 48.8408ZM131.442 58.4345L131.937 59.3076L131.94 59.3058L131.442 58.4345ZM110.047 57.7521L109.453 58.5611L109.463 58.5681L110.047 57.7521ZM106.273 49.3225V48.319H105.27V49.3225H106.273ZM110.328 49.3225H111.331V48.319H110.328V49.3225ZM112.937 55.0627L112.383 55.8996L112.391 55.9045L112.398 55.9093L112.937 55.0627ZM128.632 55.7049L128.233 54.7841L128.632 55.7049ZM129.234 49.4028L128.827 50.3198L128.835 50.3236L128.844 50.3273L129.234 49.4028ZM116.068 48.6H115.064V49.6035H116.068V48.6ZM116.068 45.0274V44.0239H115.064V45.0274H116.068ZM128.592 44.1845L128.167 43.2751L128.16 43.2788L128.592 44.1845ZM113.017 38.6852L113.586 39.5121L113.017 38.6852ZM110.448 44.3451V45.3486H111.452V44.3451H110.448ZM106.434 44.3451H105.431V45.3486H106.434V44.3451ZM110.167 35.9957L110.765 36.8017L110.767 36.8006L110.167 35.9957ZM130.365 47.572C131.659 48.0602 132.576 48.7043 133.187 49.4677L134.754 48.2139C133.866 47.1041 132.617 46.2764 131.074 45.6942L130.365 47.572ZM133.187 49.4677C133.79 50.2214 134.091 51.0826 134.091 52.0922H136.098C136.098 50.6399 135.65 49.3335 134.754 48.2139L133.187 49.4677ZM134.091 52.0922V52.5739H136.098V52.0922H134.091ZM134.091 52.5739C134.091 54.6818 133.11 56.3255 130.944 57.5632L131.94 59.3058C134.644 57.7604 136.098 55.497 136.098 52.5739H134.091ZM130.947 57.5614C128.755 58.8035 125.517 59.4782 121.126 59.4782V61.4852C125.672 61.4852 129.312 60.7951 131.937 59.3076L130.947 57.5614ZM121.126 59.4782C116.384 59.4782 112.932 58.5835 110.631 56.9361L109.463 58.5681C112.246 60.5602 116.18 61.4852 121.126 61.4852V59.4782ZM110.641 56.9431C108.419 55.3127 107.277 52.9452 107.277 49.6838H105.27C105.27 53.4872 106.643 56.4986 109.453 58.5611L110.641 56.9431ZM107.277 49.6838V49.3225H105.27V49.6838H107.277ZM106.273 50.326H110.328V48.319H106.273V50.326ZM109.324 49.3225V49.6838H111.331V49.3225H109.324ZM109.324 49.6838C109.324 52.3903 110.312 54.5296 112.383 55.8996L113.491 54.2257C112.083 53.2943 111.331 51.8477 111.331 49.6838H109.324ZM112.398 55.9093C114.408 57.1885 117.399 57.7521 121.206 57.7521V55.7451C117.52 55.7451 114.998 55.1847 113.476 54.216L112.398 55.9093ZM121.206 57.7521C124.586 57.7521 127.231 57.4058 129.031 56.6257L128.233 54.7841C126.822 55.3956 124.516 55.7451 121.206 55.7451V57.7521ZM129.031 56.6257C129.949 56.228 130.712 55.6874 131.245 54.9676C131.786 54.2369 132.044 53.3838 132.044 52.4535H130.037C130.037 52.9951 129.893 53.4198 129.632 53.7729C129.362 54.1369 128.921 54.486 128.233 54.7841L129.031 56.6257ZM132.044 52.4535V52.012H130.037V52.4535H132.044ZM132.044 52.012C132.044 51.2267 131.849 50.4941 131.414 49.8652C130.981 49.2405 130.361 48.7892 129.624 48.4783L128.844 50.3273C129.312 50.5249 129.594 50.7627 129.764 51.0076C129.93 51.2485 130.037 51.5662 130.037 52.012H132.044ZM129.642 48.4858C128.229 47.8578 125.995 47.5965 123.093 47.5965V49.6035C125.971 49.6035 127.831 49.8774 128.827 50.3198L129.642 48.4858ZM123.093 47.5965H116.068V49.6035H123.093V47.5965ZM117.071 48.6V45.0274H115.064V48.6H117.071ZM116.068 46.031H122.812V44.0239H116.068V46.031ZM122.812 46.031C125.512 46.031 127.632 45.7546 129.024 45.0902L128.16 43.2788C127.197 43.7383 125.463 44.0239 122.812 44.0239V46.031ZM129.016 45.0939C129.749 44.7517 130.36 44.2742 130.783 43.6344C131.209 42.9913 131.402 42.2498 131.402 41.4549H129.395C129.395 41.9177 129.286 42.2601 129.11 42.5268C128.931 42.7969 128.639 43.0553 128.167 43.2751L129.016 45.0939ZM131.402 41.4549V41.0134H129.395V41.4549H131.402ZM131.402 41.0134C131.402 40.1214 131.137 39.3052 130.597 38.6076C130.068 37.924 129.315 37.4076 128.417 37.0208C126.641 36.2565 124.097 35.9155 120.885 35.9155V37.9225C124.015 37.9225 126.228 38.2638 127.623 38.8644C128.31 39.1599 128.747 39.4965 129.01 39.8366C129.263 40.1625 129.395 40.5405 129.395 41.0134H131.402ZM120.885 35.9155C117.276 35.9155 114.409 36.5103 112.449 37.8582L113.586 39.5121C115.05 38.5051 117.428 37.9225 120.885 37.9225V35.9155ZM112.449 37.8582C110.421 39.2525 109.445 41.3677 109.445 44.0239H111.452C111.452 41.9168 112.188 40.4728 113.586 39.5121L112.449 37.8582ZM109.445 44.0239V44.3451H111.452V44.0239H109.445ZM110.448 43.3415H106.434V45.3486H110.448V43.3415ZM107.438 44.3451V44.0239H105.431V44.3451H107.438ZM107.438 44.0239C107.438 40.7882 108.568 38.4321 110.765 36.8017L109.569 35.1898C106.789 37.2524 105.431 40.2484 105.431 44.0239H107.438ZM110.767 36.8006C113.042 35.106 116.397 34.1894 120.965 34.1894V32.1824C116.167 32.1824 112.323 33.139 109.568 35.1909L110.767 36.8006ZM120.965 34.1894C125.164 34.1894 128.284 34.8493 130.424 36.0655L131.416 34.3204C128.846 32.8605 125.329 32.1824 120.965 32.1824V34.1894ZM130.424 36.0655C132.513 37.252 133.449 38.8165 133.449 40.8127H135.456C135.456 37.992 134.037 35.8099 131.416 34.3204L130.424 36.0655ZM133.449 40.8127V41.3345H135.456V40.8127H133.449ZM133.449 41.3345C133.449 42.3406 133.19 43.1708 132.699 43.8674C132.202 44.5726 131.425 45.2013 130.298 45.7222L131.14 47.544C132.502 46.9142 133.592 46.0844 134.339 45.0234C135.093 43.9538 135.456 42.7101 135.456 41.3345H133.449ZM170.138 56.4275H171.141V55.4239H170.138V56.4275ZM170.138 65.3387V66.3423H171.141V65.3387H170.138ZM166.124 65.3387H165.12V66.3423H166.124V65.3387ZM166.124 60H167.127V58.9965H166.124V60ZM141.879 60V58.9965H140.875V60H141.879ZM141.879 65.3387V66.3423H142.882V65.3387H141.879ZM137.905 65.3387H136.901V66.3423H137.905V65.3387ZM137.905 56.4275V55.4239H136.901V56.4275H137.905ZM141.317 56.4275V57.431H141.862L142.159 56.9734L141.317 56.4275ZM143.806 47.2352L144.809 47.257L144.809 47.253L143.806 47.2352ZM144.046 33.6676V32.6641H143.061L143.043 33.6498L144.046 33.6676ZM166.003 33.6676H167.007V32.6641H166.003V33.6676ZM166.003 56.4275H165V57.431H166.003V56.4275ZM147.499 47.3556L146.495 47.3317L146.495 47.3338L147.499 47.3556ZM145.331 56.4275L144.463 55.9243L143.589 57.431H145.331V56.4275ZM162.03 56.4275V57.431H163.033V56.4275H162.03ZM162.03 37.2401H163.033V36.2366H162.03V37.2401ZM147.739 37.2401V36.2366H146.759L146.736 37.2162L147.739 37.2401ZM169.134 56.4275V65.3387H171.141V56.4275H169.134ZM170.138 64.3352H166.124V66.3423H170.138V64.3352ZM167.127 65.3387V60H165.12V65.3387H167.127ZM166.124 58.9965H141.879V61.0035H166.124V58.9965ZM140.875 60V65.3387H142.882V60H140.875ZM141.879 64.3352H137.905V66.3423H141.879V64.3352ZM138.908 65.3387V56.4275H136.901V65.3387H138.908ZM137.905 57.431H141.317V55.4239H137.905V57.431ZM142.159 56.9734C143.863 54.3445 144.726 51.086 144.809 47.257L142.802 47.2134C142.725 50.7703 141.928 53.64 140.475 55.8815L142.159 56.9734ZM144.809 47.253L145.05 33.6854L143.043 33.6498L142.802 47.2174L144.809 47.253ZM144.046 34.6711H166.003V32.6641H144.046V34.6711ZM165 33.6676V56.4275H167.007V33.6676H165ZM166.003 57.431H170.138V55.4239H166.003V57.431ZM146.495 47.3338C146.417 50.9153 145.718 53.7589 144.463 55.9243L146.199 56.9307C147.674 54.3862 148.419 51.1818 148.502 47.3774L146.495 47.3338ZM145.331 57.431H162.03V55.4239H145.331V57.431ZM163.033 56.4275V37.2401H161.026V56.4275H163.033ZM162.03 36.2366H147.739V38.2436H162.03V36.2366ZM146.736 37.2162L146.495 47.3317L148.502 47.3795L148.743 37.264L146.736 37.2162ZM198.646 35.795L198.005 36.568L198.013 36.5739L198.646 35.795ZM198.646 47.6366L199.278 48.4155L199.286 48.4095L198.646 47.6366ZM179.458 49.7239V48.7204H178.455V49.7239H179.458ZM179.458 60V61.0035H180.462V60H179.458ZM175.444 60H174.441V61.0035H175.444V60ZM175.444 33.6676V32.6641H174.441V33.6676H175.444ZM195.675 45.0676L196.277 45.8704L196.281 45.8678L195.675 45.0676ZM195.675 38.3641L195.059 39.1562L195.071 39.1656L195.084 39.1747L195.675 38.3641ZM179.458 37.2401V36.2366H178.455V37.2401H179.458ZM179.458 46.1514H178.455V47.1549H179.458V46.1514ZM191.661 34.6711C194.447 34.6711 196.524 35.341 198.005 36.5679L199.286 35.0221C197.342 33.4125 194.762 32.6641 191.661 32.6641V34.6711ZM198.013 36.5739C199.47 37.7583 200.211 39.348 200.211 41.4549H202.218C202.218 38.7984 201.246 36.6149 199.278 35.0162L198.013 36.5739ZM200.211 41.4549V41.9366H202.218V41.4549H200.211ZM200.211 41.9366C200.211 44.0436 199.47 45.651 198.005 46.8637L199.286 48.4095C201.247 46.7856 202.218 44.5929 202.218 41.9366H200.211ZM198.013 46.8578C196.531 48.0618 194.451 48.7204 191.661 48.7204V50.7275C194.758 50.7275 197.335 49.9945 199.278 48.4155L198.013 46.8578ZM191.661 48.7204H179.458V50.7275H191.661V48.7204ZM178.455 49.7239V60H180.462V49.7239H178.455ZM179.458 58.9965H175.444V61.0035H179.458V58.9965ZM176.448 60V33.6676H174.441V60H176.448ZM175.444 34.6711H191.661V32.6641H175.444V34.6711ZM191.581 47.1549C193.467 47.1549 195.076 46.7715 196.277 45.8704L195.073 44.2648C194.348 44.8088 193.227 45.1479 191.581 45.1479V47.1549ZM196.281 45.8678C197.543 44.9124 198.164 43.5607 198.164 41.9366H196.157C196.157 42.9886 195.787 43.7242 195.07 44.2674L196.281 45.8678ZM198.164 41.9366V41.4549H196.157V41.9366H198.164ZM198.164 41.4549C198.164 39.8305 197.542 38.4841 196.267 37.5534L195.084 39.1747C195.788 39.6891 196.157 40.4032 196.157 41.4549H198.164ZM196.291 37.5719C195.088 36.6362 193.473 36.2366 191.581 36.2366V38.2436C193.22 38.2436 194.335 38.5933 195.059 39.1562L196.291 37.5719ZM191.581 36.2366H179.458V38.2436H191.581V36.2366ZM178.455 37.2401V46.1514H180.462V37.2401H178.455ZM179.458 47.1549H191.581V45.1479H179.458V47.1549ZM229.885 59.3979H230.888V59.168L230.788 58.961L229.885 59.3979ZM229.885 60V61.0035H230.888V60H229.885ZM225.79 60L224.882 60.4268L225.153 61.0035H225.79V60ZM222.659 53.3366L223.568 52.9098L223.297 52.3331H222.659V53.3366ZM207.807 53.3366V52.3331H207.17L206.899 52.9098L207.807 53.3366ZM204.676 60V61.0035H205.314L205.585 60.4268L204.676 60ZM200.582 60H199.578V61.0035H200.582V60ZM200.582 59.3979L199.679 58.961L199.578 59.168V59.3979H200.582ZM213.026 33.6676V32.6641H212.396L212.122 33.2307L213.026 33.6676ZM217.441 33.6676L218.345 33.2307L218.071 32.6641H217.441V33.6676ZM220.933 49.7239V50.7275H222.516L221.841 49.2958L220.933 49.7239ZM215.233 37.6415L216.141 37.2134L215.233 35.2895L214.326 37.2134L215.233 37.6415ZM209.533 49.7239L208.626 49.2958L207.95 50.7275H209.533V49.7239ZM228.881 59.3979V60H230.888V59.3979H228.881ZM229.885 58.9965H225.79V61.0035H229.885V58.9965ZM226.699 59.5732L223.568 52.9098L221.751 53.7634L224.882 60.4268L226.699 59.5732ZM222.659 52.3331H207.807V54.3401H222.659V52.3331ZM206.899 52.9098L203.768 59.5732L205.585 60.4268L208.716 53.7634L206.899 52.9098ZM204.676 58.9965H200.582V61.0035H204.676V58.9965ZM201.586 60V59.3979H199.578V60H201.586ZM201.485 59.8348L213.929 34.1045L212.122 33.2307L199.679 58.961L201.485 59.8348ZM213.026 34.6711H217.441V32.6641H213.026V34.6711ZM216.538 34.1045L228.981 59.8348L230.788 58.961L218.345 33.2307L216.538 34.1045ZM221.841 49.2958L216.141 37.2134L214.326 38.0697L220.026 50.1521L221.841 49.2958ZM214.326 37.2134L208.626 49.2958L210.441 50.1521L216.141 38.0697L214.326 37.2134ZM209.533 50.7275H220.933V48.7204H209.533V50.7275ZM255.315 46.5127L254.833 45.6325L252.935 46.6722L254.955 47.4493L255.315 46.5127ZM258.486 48.8007L257.676 49.3922L257.685 49.4047L257.694 49.4168L258.486 48.8007ZM257.041 58.0331L256.431 57.2363L256.425 57.241L257.041 58.0331ZM234.362 60H233.358V61.0035H234.362V60ZM234.362 33.6676V32.6641H233.358V33.6676H234.362ZM256.279 35.4338L255.692 36.2477L255.699 36.2531L255.707 36.2584L256.279 35.4338ZM257.884 44.1444L258.741 44.6676L257.884 44.1444ZM238.376 37.2401V36.2366H237.372V37.2401H238.376ZM238.376 44.907H237.372V45.9105H238.376V44.907ZM253.348 38.1634L252.786 38.9946H252.786L253.348 38.1634ZM238.376 48.5197V47.5162H237.372V48.5197H238.376ZM238.376 56.4275H237.372V57.431H238.376V56.4275ZM254.111 55.4239L254.694 56.2406L254.699 56.2375L254.111 55.4239ZM254.955 47.4493C256.206 47.9303 257.09 48.5889 257.676 49.3922L259.297 48.2091C258.438 47.0322 257.208 46.1654 255.676 45.576L254.955 47.4493ZM257.694 49.4168C258.29 50.1832 258.607 51.1235 258.607 52.2929H260.614C260.614 50.7328 260.181 49.3449 259.279 48.1846L257.694 49.4168ZM258.607 52.2929V52.7345H260.614V52.2929H258.607ZM258.607 52.7345C258.607 54.6541 257.887 56.1214 256.431 57.2363L257.651 58.8299C259.621 57.3222 260.614 55.2571 260.614 52.7345H258.607ZM256.425 57.241C254.966 58.3762 252.944 58.9965 250.258 58.9965V61.0035C253.244 61.0035 255.745 60.3125 257.658 58.8252L256.425 57.241ZM250.258 58.9965H234.362V61.0035H250.258V58.9965ZM235.365 60V33.6676H233.358V60H235.365ZM234.362 34.6711H249.415V32.6641H234.362V34.6711ZM249.415 34.6711C252.241 34.6711 254.293 35.2386 255.692 36.2477L256.866 34.6199C255 33.274 252.476 32.6641 249.415 32.6641V34.6711ZM255.707 36.2584C257.081 37.2114 257.764 38.5275 257.764 40.331H259.771C259.771 37.9062 258.795 35.9576 256.851 34.6092L255.707 36.2584ZM257.764 40.331V40.8127H259.771V40.331H257.764ZM257.764 40.8127C257.764 41.9074 257.51 42.8328 257.028 43.6211L258.741 44.6676C259.436 43.5292 259.771 42.2334 259.771 40.8127H257.764ZM257.028 43.6211C256.543 44.4155 255.825 45.0896 254.833 45.6325L255.797 47.3928C257.054 46.7047 258.049 45.7999 258.741 44.6676L257.028 43.6211ZM237.372 37.2401V44.907H239.379V37.2401H237.372ZM238.376 45.9105H249.374V43.9035H238.376V45.9105ZM249.374 45.9105C251.236 45.9105 252.808 45.6014 253.941 44.835C255.143 44.0213 255.717 42.7845 255.717 41.2943H253.71C253.71 42.2126 253.393 42.7822 252.816 43.1727C252.169 43.6106 251.072 43.9035 249.374 43.9035V45.9105ZM255.717 41.2943V40.8127H253.71V41.2943H255.717ZM255.717 40.8127C255.717 39.3477 255.112 38.1446 253.911 37.3322L252.786 38.9946C253.405 39.4131 253.71 39.9762 253.71 40.8127H255.717ZM253.911 37.3322C252.766 36.5577 251.224 36.2366 249.415 36.2366V38.2436C251.031 38.2436 252.111 38.538 252.786 38.9946L253.911 37.3322ZM249.415 36.2366H238.376V38.2436H249.415V36.2366ZM256.56 52.1725C256.56 50.6705 255.984 49.4238 254.775 48.6027C253.636 47.8288 252.052 47.5162 250.177 47.5162V49.5232C251.888 49.5232 252.994 49.8194 253.648 50.2631C254.232 50.6597 254.553 51.2394 254.553 52.1725H256.56ZM250.177 47.5162H238.376V49.5232H250.177V47.5162ZM237.372 48.5197V56.4275H239.379V48.5197H237.372ZM238.376 57.431H250.177V55.4239H238.376V57.431ZM250.177 57.431C251.98 57.431 253.525 57.0757 254.694 56.2405L253.528 54.6073C252.824 55.1102 251.747 55.4239 250.177 55.4239V57.431ZM254.699 56.2375C255.92 55.3551 256.56 54.1173 256.56 52.6141H254.553C254.553 53.4658 254.229 54.1012 253.524 54.6104L254.699 56.2375ZM256.56 52.6141V52.1725H254.553V52.6141H256.56ZM290.012 60V61.0035H291.015V60H290.012ZM285.998 60H284.994V61.0035H285.998V60ZM285.998 37.2401H287.001V36.2337L285.995 36.2366L285.998 37.2401ZM271.948 37.2803L271.946 36.2767L270.961 36.2796L270.945 37.2638L271.948 37.2803ZM271.748 49.4831L270.744 49.4666L270.744 49.4683L271.748 49.4831ZM269.66 57.4711L268.874 56.8472L268.868 56.855L269.66 57.4711ZM261.833 60H260.829V61.0035H261.833V60ZM261.833 56.4275V55.4239H260.829V56.4275H261.833ZM265.807 55.7451L266.342 56.5943L266.35 56.5892L265.807 55.7451ZM267.413 53.457L266.46 53.1397L266.457 53.1508L266.453 53.1619L267.413 53.457ZM267.974 49.2021L266.971 49.184L266.971 49.1871L267.974 49.2021ZM268.255 33.6676V32.6641H267.27L267.252 33.6494L268.255 33.6676ZM290.012 33.6676H291.015V32.6641H290.012V33.6676ZM290.012 58.9965H285.998V61.0035H290.012V58.9965ZM287.001 60V37.2401H284.994V60H287.001ZM285.995 36.2366L271.946 36.2767L271.951 38.2838L286.001 38.2436L285.995 36.2366ZM270.945 37.2638L270.744 49.4666L272.751 49.4996L272.952 37.2968L270.945 37.2638ZM270.744 49.4683C270.692 53.0252 270.008 55.4189 268.874 56.8473L270.446 58.095C271.989 56.1515 272.696 53.2199 272.751 49.4978L270.744 49.4683ZM268.868 56.855C267.8 58.2283 266.104 58.9965 263.559 58.9965V61.0035C266.527 61.0035 268.898 60.0858 270.453 58.0872L268.868 56.855ZM263.559 58.9965H261.833V61.0035H263.559V58.9965ZM262.836 60V56.4275H260.829V60H262.836ZM261.833 57.431H262.836V55.4239H261.833V57.431ZM262.836 57.431C264.199 57.431 265.4 57.187 266.342 56.5943L265.272 54.8959C264.769 55.213 263.989 55.4239 262.836 55.4239V57.431ZM266.35 56.5892C267.34 55.9523 267.997 54.9692 268.372 53.7522L266.453 53.1619C266.186 54.0322 265.772 54.5745 265.264 54.9009L266.35 56.5892ZM268.365 53.7744C268.759 52.5913 268.95 51.0568 268.978 49.2171L266.971 49.1871C266.945 50.9334 266.762 52.2354 266.46 53.1397L268.365 53.7744ZM268.978 49.2202L269.259 33.6857L267.252 33.6494L266.971 49.184L268.978 49.2202ZM268.255 34.6711H290.012V32.6641H268.255V34.6711ZM289.008 33.6676V60H291.015V33.6676H289.008ZM322.363 33.6676H323.367V32.6641H322.363V33.6676ZM322.363 60V61.0035H323.367V60H322.363ZM318.349 60H317.346V61.0035H318.349V60ZM318.349 49.8444H319.353V48.8408H318.349V49.8444ZM311.686 49.8444V48.8408H311.271L310.978 49.1334L311.686 49.8444ZM301.49 60V61.0035H301.904L302.198 60.711L301.49 60ZM296.713 60H295.71V61.0035H296.713V60ZM296.713 59.3979L296.004 58.6883L295.71 58.9822V59.3979H296.713ZM306.267 49.8444L306.976 50.554L308.689 48.8408H306.267V49.8444ZM299.162 47.757L298.522 48.5299L298.528 48.5353L298.535 48.5406L299.162 47.757ZM299.162 35.795L298.528 35.0173L298.522 35.0221L299.162 35.795ZM318.349 37.2401H319.353V36.2366H318.349V37.2401ZM302.092 38.4042L302.708 39.1963L302.711 39.194L302.092 38.4042ZM302.092 45.188L301.476 45.9802L301.486 45.9882L302.092 45.188ZM318.349 46.312V47.3155H319.353V46.312H318.349ZM321.36 33.6676V60H323.367V33.6676H321.36ZM322.363 58.9965H318.349V61.0035H322.363V58.9965ZM319.353 60V49.8444H317.346V60H319.353ZM318.349 48.8408H311.686V50.8479H318.349V48.8408ZM310.978 49.1334L300.782 59.289L302.198 60.711L312.394 50.5554L310.978 49.1334ZM301.49 58.9965H296.713V61.0035H301.49V58.9965ZM297.717 60V59.3979H295.71V60H297.717ZM297.423 60.1075L306.976 50.554L305.557 49.1348L296.004 58.6883L297.423 60.1075ZM306.267 48.8408H306.186V50.8479H306.267V48.8408ZM306.186 48.8408C303.397 48.8408 301.3 48.1826 299.789 46.9734L298.535 48.5406C300.502 50.1146 303.088 50.8479 306.186 50.8479V48.8408ZM299.802 46.9841C298.34 45.7738 297.596 44.1547 297.596 42.0169H295.589C295.589 44.696 296.558 46.9036 298.522 48.5299L299.802 46.9841ZM297.596 42.0169V41.5753H295.589V42.0169H297.596ZM297.596 41.5753C297.596 39.4068 298.343 37.7759 299.802 36.5679L298.522 35.0221C296.555 36.6508 295.589 38.8735 295.589 41.5753H297.596ZM299.796 36.5728C301.307 35.3406 303.401 34.6711 306.186 34.6711V32.6641C303.084 32.6641 300.495 33.4128 298.528 35.0173L299.796 36.5728ZM306.186 34.6711H322.363V32.6641H306.186V34.6711ZM318.349 36.2366H306.267V38.2436H318.349V36.2366ZM306.267 36.2366C304.342 36.2366 302.701 36.6517 301.473 37.6144L302.711 39.194C303.463 38.6046 304.605 38.2436 306.267 38.2436V36.2366ZM301.476 37.6121C300.237 38.5758 299.643 39.9427 299.643 41.5753H301.65C301.65 40.4784 302.02 39.7312 302.708 39.1963L301.476 37.6121ZM299.643 41.5753V42.0169H301.65V41.5753H299.643ZM299.643 42.0169C299.643 43.6496 300.237 45.0165 301.476 45.9801L302.708 44.3959C302.02 43.861 301.65 43.1138 301.65 42.0169H299.643ZM301.486 45.9882C302.713 46.9166 304.349 47.3155 306.267 47.3155V45.3084C304.599 45.3084 303.451 44.958 302.698 44.3878L301.486 45.9882ZM306.267 47.3155H318.349V45.3084H306.267V47.3155ZM319.353 46.312V37.2401H317.346V46.312H319.353ZM363.012 34.8317L362.572 35.7335L362.576 35.7355L363.012 34.8317ZM368.231 39.5281L367.367 40.0394L367.371 40.0462L367.375 40.0528L368.231 39.5281ZM368.231 54.1796L367.375 53.6549L367.37 53.6633L368.231 54.1796ZM363.012 58.8359L362.576 57.932L362.572 57.9341L363.012 58.8359ZM347.679 59.0366L348.086 58.1196L347.679 59.0366ZM342.5 54.9422L341.685 55.5267L341.689 55.5325L342.5 54.9422ZM340.253 48.6401L341.252 48.5513L341.171 47.6366H340.253V48.6401ZM333.75 48.6401V47.6366H332.746V48.6401H333.75ZM333.75 60V61.0035H334.753V60H333.75ZM329.736 60H328.732V61.0035H329.736V60ZM329.736 33.6676V32.6641H328.732V33.6676H329.736ZM333.75 33.6676H334.753V32.6641H333.75V33.6676ZM333.75 45.0274H332.746V46.031H333.75V45.0274ZM340.253 45.0274V46.031H341.161L341.251 45.1273L340.253 45.0274ZM342.541 38.7655L343.352 39.3557L343.356 39.3499L342.541 38.7655ZM347.679 34.631L347.271 33.7139L347.267 33.7158L347.679 34.631ZM363.133 39.488L362.461 40.2334L362.466 40.2384L362.472 40.2432L363.133 39.488ZM347.117 39.488L347.777 40.2433L347.783 40.238L347.117 39.488ZM347.117 54.2197L347.777 53.4645L347.117 54.2197ZM363.133 54.2197L362.472 53.4645L362.467 53.4691L363.133 54.2197ZM355.145 34.1894C358.019 34.1894 360.486 34.7152 362.572 35.7335L363.453 33.9298C361.043 32.7538 358.265 32.1824 355.145 32.1824V34.1894ZM362.576 35.7355C364.686 36.753 366.271 38.1876 367.367 40.0394L369.094 39.0169C367.782 36.8011 365.888 35.1047 363.448 33.9278L362.576 35.7355ZM367.375 40.0528C368.496 41.8797 369.074 44.0474 369.074 46.5929H371.081C371.081 43.7329 370.428 41.1906 369.086 39.0035L367.375 40.0528ZM369.074 46.5929V47.1148H371.081V46.5929H369.074ZM369.074 47.1148C369.074 49.6603 368.496 51.828 367.375 53.6549L369.086 54.7042C370.428 52.5171 371.081 49.9748 371.081 47.1148H369.074ZM367.37 53.6633C366.275 55.4892 364.689 56.9129 362.576 57.932L363.448 59.7398C365.885 58.5646 367.778 56.8841 369.091 54.6959L367.37 53.6633ZM362.572 57.9341C360.486 58.9524 358.019 59.4782 355.145 59.4782V61.4852C358.265 61.4852 361.043 60.9138 363.453 59.7377L362.572 57.9341ZM355.145 59.4782C352.45 59.4782 350.104 59.0164 348.086 58.1196L347.271 59.9536C349.588 60.9836 352.22 61.4852 355.145 61.4852V59.4782ZM348.086 58.1196C346.065 57.2214 344.484 55.9635 343.312 54.352L341.689 55.5325C343.086 57.4533 344.957 58.9251 347.271 59.9536L348.086 58.1196ZM343.316 54.3578C342.146 52.7245 341.452 50.7988 341.252 48.5513L339.253 48.729C339.481 51.2984 340.286 53.5741 341.685 55.5267L343.316 54.3578ZM340.253 47.6366H333.75V49.6437H340.253V47.6366ZM332.746 48.6401V60H334.753V48.6401H332.746ZM333.75 58.9965H329.736V61.0035H333.75V58.9965ZM330.739 60V33.6676H328.732V60H330.739ZM329.736 34.6711H333.75V32.6641H329.736V34.6711ZM332.746 33.6676V45.0274H334.753V33.6676H332.746ZM333.75 46.031H340.253V44.0239H333.75V46.031ZM341.251 45.1273C341.476 42.8763 342.183 40.9627 343.352 39.3557L341.729 38.1752C340.329 40.1006 339.511 42.3617 339.254 44.9276L341.251 45.1273ZM343.356 39.3499C344.531 37.7102 346.1 36.4417 348.09 35.5461L347.267 33.7158C344.975 34.747 343.119 36.2348 341.725 38.181L343.356 39.3499ZM348.086 35.548C350.104 34.6512 352.45 34.1894 355.145 34.1894V32.1824C352.22 32.1824 349.588 32.684 347.271 33.7139L348.086 35.548ZM367.027 46.5528C367.027 43.2971 365.978 40.6442 363.794 38.7328L362.472 40.2432C364.141 41.7037 365.019 43.7606 365.019 46.5528H367.027ZM363.805 38.7426C361.665 36.8143 358.733 35.9155 355.145 35.9155V37.9225C358.407 37.9225 360.8 38.7364 362.461 40.2334L363.805 38.7426ZM355.145 35.9155C351.556 35.9155 348.614 36.8146 346.45 38.738L347.783 40.238C349.473 38.736 351.883 37.9225 355.145 37.9225V35.9155ZM346.456 38.7328C344.271 40.6442 343.223 43.2971 343.223 46.5528H345.23C345.23 43.7606 346.108 41.7037 347.777 40.2432L346.456 38.7328ZM343.223 46.5528V47.1951H345.23V46.5528H343.223ZM343.223 47.1951C343.223 50.4272 344.273 53.0653 346.456 54.9749L347.777 53.4645C346.106 52.0023 345.23 49.9573 345.23 47.1951H343.223ZM346.456 54.9749C348.62 56.8683 351.559 57.7521 355.145 57.7521V55.7451C351.879 55.7451 349.467 54.943 347.777 53.4645L346.456 54.9749ZM355.145 57.7521C358.729 57.7521 361.66 56.8687 363.799 54.9703L362.467 53.4691C360.806 54.9426 358.411 55.7451 355.145 55.7451V57.7521ZM363.794 54.9749C365.976 53.0653 367.027 50.4272 367.027 47.1951H365.019C365.019 49.9573 364.143 52.0023 362.472 53.4645L363.794 54.9749ZM367.027 47.1951V46.5528H365.019V47.1951H367.027ZM381.723 33.6676L382.727 33.6782L382.738 32.6641H381.723V33.6676ZM381.523 52.6944V53.6979H382.516L382.526 52.7049L381.523 52.6944ZM377.91 52.6944L376.907 52.7049L376.917 53.6979H377.91V52.6944ZM377.709 33.6676V32.6641H376.695L376.706 33.6782L377.709 33.6676ZM377.95 59.8394L377.241 60.549L377.251 60.5598L377.262 60.5702L377.95 59.8394ZM377.95 56.3472L378.638 57.0779L378.649 57.0675L378.66 57.0568L377.95 56.3472ZM381.483 56.3472L380.773 57.0568L380.784 57.0675L380.795 57.0779L381.483 56.3472ZM381.483 59.8394L382.17 60.5702L382.181 60.5598L382.192 60.549L381.483 59.8394ZM380.72 33.657L380.519 52.6838L382.526 52.7049L382.727 33.6782L380.72 33.657ZM381.523 51.6908H377.91V53.6979H381.523V51.6908ZM378.913 52.6838L378.713 33.657L376.706 33.6782L376.907 52.7049L378.913 52.6838ZM377.709 34.6711H381.723V32.6641H377.709V34.6711ZM379.716 59.4782C379.207 59.4782 378.878 59.3343 378.638 59.1087L377.262 60.5702C377.933 61.2009 378.781 61.4852 379.716 61.4852V59.4782ZM378.66 59.1298C378.417 58.887 378.271 58.5654 378.271 58.0732H376.264C376.264 59.0262 376.574 59.882 377.241 60.549L378.66 59.1298ZM378.271 58.0732C378.271 57.58 378.417 57.2863 378.638 57.0779L377.262 55.6164C376.574 56.2644 376.264 57.1214 376.264 58.0732H378.271ZM378.66 57.0568C378.903 56.8139 379.224 56.6683 379.716 56.6683V54.6613C378.763 54.6613 377.908 54.9706 377.241 55.6376L378.66 57.0568ZM379.716 56.6683C380.208 56.6683 380.53 56.8139 380.773 57.0568L382.192 55.6376C381.525 54.9706 380.669 54.6613 379.716 54.6613V56.6683ZM380.795 57.0779C381.016 57.2863 381.161 57.58 381.161 58.0732H383.168C383.168 57.1214 382.859 56.2644 382.17 55.6164L380.795 57.0779ZM381.161 58.0732C381.161 58.5654 381.016 58.887 380.773 59.1298L382.192 60.549C382.859 59.882 383.168 59.0262 383.168 58.0732H381.161ZM380.795 59.1087C380.555 59.3343 380.226 59.4782 379.716 59.4782V61.4852C380.652 61.4852 381.5 61.2009 382.17 60.5702L380.795 59.1087Z" fill="black" mask="url(#path-2-outside-1_1_1126)"/>
</svg>
