<svg width="154" height="151" viewBox="0 0 154 151" fill="none" xmlns="http://www.w3.org/2000/svg">
<mask id="path-1-inside-1_121_278" fill="white">
<path fill-rule="evenodd" clip-rule="evenodd" d="M76.9466 113.746C75.8849 134.059 59.0778 150.204 38.4999 150.204C17.237 150.204 0 132.967 0 111.704C0 94.6207 11.126 80.1364 26.527 75.1018C11.126 70.0671 0 55.5828 0 38.4999C0 17.237 17.237 0 38.4999 0C59.1776 0 76.0479 16.3012 76.961 36.7536C76.987 36.7533 77.0131 36.7529 77.0392 36.7526C77.9528 16.3007 94.8229 2.29925e-05 115.5 2.29925e-05C136.763 2.29925e-05 154 17.237 154 38.5C154 55.5829 142.874 70.0671 127.473 75.1018C142.874 80.1365 154 94.6207 154 111.704C154 132.967 136.763 150.204 115.5 150.204C94.9228 150.204 78.1159 134.06 77.0536 113.747C77.0179 113.747 76.9823 113.746 76.9466 113.746Z"/>
</mask>
<path fill-rule="evenodd" clip-rule="evenodd" d="M76.9466 113.746C75.8849 134.059 59.0778 150.204 38.4999 150.204C17.237 150.204 0 132.967 0 111.704C0 94.6207 11.126 80.1364 26.527 75.1018C11.126 70.0671 0 55.5828 0 38.4999C0 17.237 17.237 0 38.4999 0C59.1776 0 76.0479 16.3012 76.961 36.7536C76.987 36.7533 77.0131 36.7529 77.0392 36.7526C77.9528 16.3007 94.8229 2.29925e-05 115.5 2.29925e-05C136.763 2.29925e-05 154 17.237 154 38.5C154 55.5829 142.874 70.0671 127.473 75.1018C142.874 80.1365 154 94.6207 154 111.704C154 132.967 136.763 150.204 115.5 150.204C94.9228 150.204 78.1159 134.06 77.0536 113.747C77.0179 113.747 76.9823 113.746 76.9466 113.746Z" fill="#FF003D"/>
<path d="M76.9466 113.746L76.9607 112.746L75.9982 112.732L75.948 113.694L76.9466 113.746ZM26.527 75.1018L26.8378 76.0523L29.7453 75.1018L26.8378 74.1513L26.527 75.1018ZM76.961 36.7536L75.9619 36.7982L76.0052 37.7669L76.9747 37.7535L76.961 36.7536ZM77.0392 36.7526L77.0509 37.7526L77.996 37.7415L78.0382 36.7973L77.0392 36.7526ZM127.473 75.1018L127.162 74.1513L124.255 75.1018L127.162 76.0523L127.473 75.1018ZM77.0536 113.747L78.0522 113.695L78.0032 112.758L77.0649 112.747L77.0536 113.747ZM75.948 113.694C74.9139 133.479 58.543 149.204 38.4999 149.204V151.204C59.6126 151.204 76.856 134.64 77.9453 113.798L75.948 113.694ZM38.4999 149.204C17.7893 149.204 1 132.414 1 111.704H-1C-1 133.519 16.6847 151.204 38.4999 151.204V149.204ZM1 111.704C1 95.066 11.8357 80.9565 26.8378 76.0523L26.2163 74.1513C10.4163 79.3164 -1 94.1755 -1 111.704H1ZM26.8378 74.1513C11.8357 69.2471 1 55.1376 1 38.4999H-1C-1 56.0281 10.4163 70.8872 26.2163 76.0523L26.8378 74.1513ZM1 38.4999C1 17.7893 17.7893 1 38.4999 1V-1C16.6847 -1 -1 16.6847 -1 38.4999H1ZM38.4999 1C58.6403 1 75.0727 16.8778 75.9619 36.7982L77.96 36.709C77.0232 15.7246 59.715 -1 38.4999 -1V1ZM76.9747 37.7535C77.0001 37.7532 77.0255 37.7529 77.0509 37.7526L77.0275 35.7527C77.0008 35.753 76.974 35.7534 76.9472 35.7537L76.9747 37.7535ZM115.5 -0.999977C94.2855 -0.999977 76.9775 15.7241 76.0402 36.708L78.0382 36.7973C78.928 16.8773 95.3602 1.00002 115.5 1.00002V-0.999977ZM155 38.5C155 16.6847 137.315 -0.999977 115.5 -0.999977V1.00002C136.211 1.00002 153 17.7893 153 38.5H155ZM127.784 76.0523C143.584 70.8872 155 56.0281 155 38.5H153C153 55.1376 142.164 69.2471 127.162 74.1513L127.784 76.0523ZM155 111.704C155 94.1755 143.584 79.3164 127.784 74.1513L127.162 76.0523C142.164 80.9565 153 95.066 153 111.704H155ZM115.5 151.204C137.315 151.204 155 133.519 155 111.704H153C153 132.414 136.211 149.204 115.5 149.204V151.204ZM76.0549 113.799C77.1449 134.641 94.388 151.204 115.5 151.204V149.204C95.4576 149.204 79.0869 133.479 78.0522 113.695L76.0549 113.799ZM77.0649 112.747C77.0301 112.747 76.9954 112.746 76.9607 112.746L76.9325 114.746C76.9691 114.746 77.0057 114.747 77.0422 114.747L77.0649 112.747Z" fill="black" mask="url(#path-1-inside-1_121_278)"/>
</svg>
