<svg width="642" height="642" viewBox="0 0 642 642" fill="none" xmlns="http://www.w3.org/2000/svg">
<mask id="path-1-inside-1_120_7" fill="white">
<path d="M642 321C642 498.283 498.283 642 321 642C143.717 642 0 498.283 0 321C0 143.717 143.717 0 321 0C498.283 0 642 143.717 642 321ZM36.3243 321C36.3243 478.222 163.778 605.676 321 605.676C478.222 605.676 605.676 478.222 605.676 321C605.676 163.778 478.222 36.3243 321 36.3243C163.778 36.3243 36.3243 163.778 36.3243 321Z"/>
</mask>
<path d="M642 321C642 498.283 498.283 642 321 642C143.717 642 0 498.283 0 321C0 143.717 143.717 0 321 0C498.283 0 642 143.717 642 321ZM36.3243 321C36.3243 478.222 163.778 605.676 321 605.676C478.222 605.676 605.676 478.222 605.676 321C605.676 163.778 478.222 36.3243 321 36.3243C163.778 36.3243 36.3243 163.778 36.3243 321Z" fill="#7A61E3" stroke="black" stroke-width="2" mask="url(#path-1-inside-1_120_7)"/>
</svg>
