<svg width="765" height="170" viewBox="0 0 765 170" fill="none" xmlns="http://www.w3.org/2000/svg">
<mask id="path-1-inside-1_245_209" fill="white">
<path d="M255 -3.71547e-06C277.543 -4.70087e-06 299.163 8.95532 315.104 24.8959C331.045 40.8365 340 62.4566 340 85C340 107.543 331.045 129.163 315.104 145.104C299.163 161.045 277.543 170 255 170L255 85L255 -3.71547e-06Z"/>
</mask>
<path d="M255 -3.71547e-06C277.543 -4.70087e-06 299.163 8.95532 315.104 24.8959C331.045 40.8365 340 62.4566 340 85C340 107.543 331.045 129.163 315.104 145.104C299.163 161.045 277.543 170 255 170L255 85L255 -3.71547e-06Z" fill="#D4FF73" stroke="black" stroke-width="2" mask="url(#path-1-inside-1_245_209)"/>
<mask id="path-2-inside-2_245_209" fill="white">
<path d="M340 -3.71547e-06C362.543 -4.70087e-06 384.163 8.95532 400.104 24.8959C416.045 40.8365 425 62.4566 425 85C425 107.543 416.045 129.163 400.104 145.104C384.163 161.045 362.543 170 340 170L340 85L340 -3.71547e-06Z"/>
</mask>
<path d="M340 -3.71547e-06C362.543 -4.70087e-06 384.163 8.95532 400.104 24.8959C416.045 40.8365 425 62.4566 425 85C425 107.543 416.045 129.163 400.104 145.104C384.163 161.045 362.543 170 340 170L340 85L340 -3.71547e-06Z" fill="#D4FF73" stroke="black" stroke-width="2" mask="url(#path-2-inside-2_245_209)"/>
<mask id="path-3-inside-3_245_209" fill="white">
<path d="M85 -3.71547e-06C107.543 -4.70087e-06 129.163 8.95532 145.104 24.8959C161.045 40.8365 170 62.4566 170 85C170 107.543 161.045 129.163 145.104 145.104C129.163 161.045 107.543 170 85 170L85 85L85 -3.71547e-06Z"/>
</mask>
<path d="M85 -3.71547e-06C107.543 -4.70087e-06 129.163 8.95532 145.104 24.8959C161.045 40.8365 170 62.4566 170 85C170 107.543 161.045 129.163 145.104 145.104C129.163 161.045 107.543 170 85 170L85 85L85 -3.71547e-06Z" fill="#D4FF73" stroke="black" stroke-width="2" mask="url(#path-3-inside-3_245_209)"/>
<mask id="path-4-inside-4_245_209" fill="white">
<path d="M170 -3.71547e-06C192.543 -4.70087e-06 214.163 8.95532 230.104 24.8959C246.045 40.8365 255 62.4566 255 85C255 107.543 246.045 129.163 230.104 145.104C214.163 161.045 192.543 170 170 170L170 85L170 -3.71547e-06Z"/>
</mask>
<path d="M170 -3.71547e-06C192.543 -4.70087e-06 214.163 8.95532 230.104 24.8959C246.045 40.8365 255 62.4566 255 85C255 107.543 246.045 129.163 230.104 145.104C214.163 161.045 192.543 170 170 170L170 85L170 -3.71547e-06Z" fill="#D4FF73" stroke="black" stroke-width="2" mask="url(#path-4-inside-4_245_209)"/>
<mask id="path-5-inside-5_245_209" fill="white">
<path d="M425 -3.71547e-06C447.543 -4.70087e-06 469.163 8.95532 485.104 24.8959C501.045 40.8365 510 62.4566 510 85C510 107.543 501.045 129.163 485.104 145.104C469.163 161.045 447.543 170 425 170L425 85L425 -3.71547e-06Z"/>
</mask>
<path d="M425 -3.71547e-06C447.543 -4.70087e-06 469.163 8.95532 485.104 24.8959C501.045 40.8365 510 62.4566 510 85C510 107.543 501.045 129.163 485.104 145.104C469.163 161.045 447.543 170 425 170L425 85L425 -3.71547e-06Z" fill="#D4FF73" stroke="black" stroke-width="2" mask="url(#path-5-inside-5_245_209)"/>
<mask id="path-6-inside-6_245_209" fill="white">
<path d="M510 -3.71547e-06C532.543 -4.70087e-06 554.163 8.95532 570.104 24.8959C586.045 40.8365 595 62.4566 595 85C595 107.543 586.045 129.163 570.104 145.104C554.163 161.045 532.543 170 510 170L510 85L510 -3.71547e-06Z"/>
</mask>
<path d="M510 -3.71547e-06C532.543 -4.70087e-06 554.163 8.95532 570.104 24.8959C586.045 40.8365 595 62.4566 595 85C595 107.543 586.045 129.163 570.104 145.104C554.163 161.045 532.543 170 510 170L510 85L510 -3.71547e-06Z" fill="#D4FF73" stroke="black" stroke-width="2" mask="url(#path-6-inside-6_245_209)"/>
<mask id="path-7-inside-7_245_209" fill="white">
<path d="M595 -3.71547e-06C617.543 -4.70087e-06 639.163 8.95532 655.104 24.8959C671.045 40.8365 680 62.4566 680 85C680 107.543 671.045 129.163 655.104 145.104C639.163 161.045 617.543 170 595 170L595 85L595 -3.71547e-06Z"/>
</mask>
<path d="M595 -3.71547e-06C617.543 -4.70087e-06 639.163 8.95532 655.104 24.8959C671.045 40.8365 680 62.4566 680 85C680 107.543 671.045 129.163 655.104 145.104C639.163 161.045 617.543 170 595 170L595 85L595 -3.71547e-06Z" fill="#D4FF73" stroke="black" stroke-width="2" mask="url(#path-7-inside-7_245_209)"/>
<mask id="path-8-inside-8_245_209" fill="white">
<path d="M680 -3.71547e-06C702.543 -4.70087e-06 724.163 8.95532 740.104 24.8959C756.045 40.8365 765 62.4566 765 85C765 107.543 756.045 129.163 740.104 145.104C724.163 161.045 702.543 170 680 170L680 85L680 -3.71547e-06Z"/>
</mask>
<path d="M680 -3.71547e-06C702.543 -4.70087e-06 724.163 8.95532 740.104 24.8959C756.045 40.8365 765 62.4566 765 85C765 107.543 756.045 129.163 740.104 145.104C724.163 161.045 702.543 170 680 170L680 85L680 -3.71547e-06Z" fill="#D4FF73" stroke="black" stroke-width="2" mask="url(#path-8-inside-8_245_209)"/>
</svg>
