<svg width="186" height="1181" viewBox="0 0 186 1181" fill="none" xmlns="http://www.w3.org/2000/svg">
<mask id="path-1-inside-1_15_4140" fill="white">
<path d="M-2.31268e-05 90C-2.41601e-05 78.181 2.32789 66.4778 6.85082 55.5585C11.3737 44.6392 18.0031 34.7177 26.3604 26.3604C34.7176 18.0031 44.6392 11.3738 55.5585 6.85084C66.4778 2.32791 78.181 -6.87412e-06 90 -7.39074e-06C101.819 -7.90736e-06 113.522 2.32791 124.441 6.85083C135.361 11.3738 145.282 18.0031 153.64 26.3604C161.997 34.7177 168.626 44.6392 173.149 55.5585C177.672 66.4778 180 78.181 180 90L90 90L-2.31268e-05 90Z"/>
</mask>
<path d="M-2.31268e-05 90C-2.41601e-05 78.181 2.32789 66.4778 6.85082 55.5585C11.3737 44.6392 18.0031 34.7177 26.3604 26.3604C34.7176 18.0031 44.6392 11.3738 55.5585 6.85084C66.4778 2.32791 78.181 -6.87412e-06 90 -7.39074e-06C101.819 -7.90736e-06 113.522 2.32791 124.441 6.85083C135.361 11.3738 145.282 18.0031 153.64 26.3604C161.997 34.7177 168.626 44.6392 173.149 55.5585C177.672 66.4778 180 78.181 180 90L90 90L-2.31268e-05 90Z" fill="#D4FF73" stroke="black" stroke-width="2" mask="url(#path-1-inside-1_15_4140)"/>
<mask id="path-2-inside-2_15_4140" fill="white">
<path d="M2.99998 181C2.99998 169.181 5.32789 157.478 9.85082 146.558C14.3737 135.639 21.0031 125.718 29.3604 117.36C37.7176 109.003 47.6392 102.374 58.5585 97.8508C69.4778 93.3279 81.181 91 93 91C104.819 91 116.522 93.3279 127.441 97.8508C138.361 102.374 148.282 109.003 156.64 117.36C164.997 125.718 171.626 135.639 176.149 146.558C180.672 157.478 183 169.181 183 181L93 181L2.99998 181Z"/>
</mask>
<path d="M2.99998 181C2.99998 169.181 5.32789 157.478 9.85082 146.558C14.3737 135.639 21.0031 125.718 29.3604 117.36C37.7176 109.003 47.6392 102.374 58.5585 97.8508C69.4778 93.3279 81.181 91 93 91C104.819 91 116.522 93.3279 127.441 97.8508C138.361 102.374 148.282 109.003 156.64 117.36C164.997 125.718 171.626 135.639 176.149 146.558C180.672 157.478 183 169.181 183 181L93 181L2.99998 181Z" fill="#D4FF73" stroke="black" stroke-width="2" mask="url(#path-2-inside-2_15_4140)"/>
<mask id="path-3-inside-3_15_4140" fill="white">
<path d="M2.99998 272C2.99998 260.181 5.32789 248.478 9.85082 237.558C14.3737 226.639 21.0031 216.718 29.3604 208.36C37.7176 200.003 47.6392 193.374 58.5585 188.851C69.4778 184.328 81.181 182 93 182C104.819 182 116.522 184.328 127.441 188.851C138.361 193.374 148.282 200.003 156.64 208.36C164.997 216.718 171.626 226.639 176.149 237.558C180.672 248.478 183 260.181 183 272L93 272L2.99998 272Z"/>
</mask>
<path d="M2.99998 272C2.99998 260.181 5.32789 248.478 9.85082 237.558C14.3737 226.639 21.0031 216.718 29.3604 208.36C37.7176 200.003 47.6392 193.374 58.5585 188.851C69.4778 184.328 81.181 182 93 182C104.819 182 116.522 184.328 127.441 188.851C138.361 193.374 148.282 200.003 156.64 208.36C164.997 216.718 171.626 226.639 176.149 237.558C180.672 248.478 183 260.181 183 272L93 272L2.99998 272Z" fill="#D4FF73" stroke="black" stroke-width="2" mask="url(#path-3-inside-3_15_4140)"/>
<mask id="path-4-inside-4_15_4140" fill="white">
<path d="M2.99998 363C2.99998 351.181 5.32789 339.478 9.85082 328.558C14.3737 317.639 21.0031 307.718 29.3604 299.36C37.7176 291.003 47.6392 284.374 58.5585 279.851C69.4778 275.328 81.181 273 93 273C104.819 273 116.522 275.328 127.441 279.851C138.361 284.374 148.282 291.003 156.64 299.36C164.997 307.718 171.626 317.639 176.149 328.558C180.672 339.478 183 351.181 183 363L93 363L2.99998 363Z"/>
</mask>
<path d="M2.99998 363C2.99998 351.181 5.32789 339.478 9.85082 328.558C14.3737 317.639 21.0031 307.718 29.3604 299.36C37.7176 291.003 47.6392 284.374 58.5585 279.851C69.4778 275.328 81.181 273 93 273C104.819 273 116.522 275.328 127.441 279.851C138.361 284.374 148.282 291.003 156.64 299.36C164.997 307.718 171.626 317.639 176.149 328.558C180.672 339.478 183 351.181 183 363L93 363L2.99998 363Z" fill="#D4FF73" stroke="black" stroke-width="2" mask="url(#path-4-inside-4_15_4140)"/>
<mask id="path-5-inside-5_15_4140" fill="white">
<path d="M2.99998 454C2.99998 442.181 5.32789 430.478 9.85082 419.558C14.3737 408.639 21.0031 398.718 29.3604 390.36C37.7176 382.003 47.6392 375.374 58.5585 370.851C69.4778 366.328 81.181 364 93 364C104.819 364 116.522 366.328 127.441 370.851C138.361 375.374 148.282 382.003 156.64 390.36C164.997 398.718 171.626 408.639 176.149 419.558C180.672 430.478 183 442.181 183 454L93 454L2.99998 454Z"/>
</mask>
<path d="M2.99998 454C2.99998 442.181 5.32789 430.478 9.85082 419.558C14.3737 408.639 21.0031 398.718 29.3604 390.36C37.7176 382.003 47.6392 375.374 58.5585 370.851C69.4778 366.328 81.181 364 93 364C104.819 364 116.522 366.328 127.441 370.851C138.361 375.374 148.282 382.003 156.64 390.36C164.997 398.718 171.626 408.639 176.149 419.558C180.672 430.478 183 442.181 183 454L93 454L2.99998 454Z" fill="#D4FF73" stroke="black" stroke-width="2" mask="url(#path-5-inside-5_15_4140)"/>
<mask id="path-6-inside-6_15_4140" fill="white">
<path d="M2.99998 545C2.99998 533.181 5.32789 521.478 9.85082 510.558C14.3737 499.639 21.0031 489.718 29.3604 481.36C37.7176 473.003 47.6392 466.374 58.5585 461.851C69.4778 457.328 81.181 455 93 455C104.819 455 116.522 457.328 127.441 461.851C138.361 466.374 148.282 473.003 156.64 481.36C164.997 489.718 171.626 499.639 176.149 510.558C180.672 521.478 183 533.181 183 545L93 545L2.99998 545Z"/>
</mask>
<path d="M2.99998 545C2.99998 533.181 5.32789 521.478 9.85082 510.558C14.3737 499.639 21.0031 489.718 29.3604 481.36C37.7176 473.003 47.6392 466.374 58.5585 461.851C69.4778 457.328 81.181 455 93 455C104.819 455 116.522 457.328 127.441 461.851C138.361 466.374 148.282 473.003 156.64 481.36C164.997 489.718 171.626 499.639 176.149 510.558C180.672 521.478 183 533.181 183 545L93 545L2.99998 545Z" fill="#D4FF73" stroke="black" stroke-width="2" mask="url(#path-6-inside-6_15_4140)"/>
<mask id="path-7-inside-7_15_4140" fill="white">
<path d="M2.99998 636C2.99998 624.181 5.32789 612.478 9.85082 601.558C14.3737 590.639 21.0031 580.718 29.3604 572.36C37.7176 564.003 47.6392 557.374 58.5585 552.851C69.4778 548.328 81.181 546 93 546C104.819 546 116.522 548.328 127.441 552.851C138.361 557.374 148.282 564.003 156.64 572.36C164.997 580.718 171.626 590.639 176.149 601.558C180.672 612.478 183 624.181 183 636L93 636L2.99998 636Z"/>
</mask>
<path d="M2.99998 636C2.99998 624.181 5.32789 612.478 9.85082 601.558C14.3737 590.639 21.0031 580.718 29.3604 572.36C37.7176 564.003 47.6392 557.374 58.5585 552.851C69.4778 548.328 81.181 546 93 546C104.819 546 116.522 548.328 127.441 552.851C138.361 557.374 148.282 564.003 156.64 572.36C164.997 580.718 171.626 590.639 176.149 601.558C180.672 612.478 183 624.181 183 636L93 636L2.99998 636Z" fill="#D4FF73" stroke="black" stroke-width="2" mask="url(#path-7-inside-7_15_4140)"/>
<mask id="path-8-inside-8_15_4140" fill="white">
<path d="M2.99998 727C2.99998 715.181 5.32789 703.478 9.85082 692.558C14.3737 681.639 21.0031 671.718 29.3604 663.36C37.7176 655.003 47.6392 648.374 58.5585 643.851C69.4778 639.328 81.181 637 93 637C104.819 637 116.522 639.328 127.441 643.851C138.361 648.374 148.282 655.003 156.64 663.36C164.997 671.718 171.626 681.639 176.149 692.558C180.672 703.478 183 715.181 183 727L93 727L2.99998 727Z"/>
</mask>
<path d="M2.99998 727C2.99998 715.181 5.32789 703.478 9.85082 692.558C14.3737 681.639 21.0031 671.718 29.3604 663.36C37.7176 655.003 47.6392 648.374 58.5585 643.851C69.4778 639.328 81.181 637 93 637C104.819 637 116.522 639.328 127.441 643.851C138.361 648.374 148.282 655.003 156.64 663.36C164.997 671.718 171.626 681.639 176.149 692.558C180.672 703.478 183 715.181 183 727L93 727L2.99998 727Z" fill="#D4FF73" stroke="black" stroke-width="2" mask="url(#path-8-inside-8_15_4140)"/>
<mask id="path-9-inside-9_15_4140" fill="white">
<path d="M2.99998 818C2.99998 806.181 5.32789 794.478 9.85082 783.558C14.3737 772.639 21.0031 762.718 29.3604 754.36C37.7176 746.003 47.6392 739.374 58.5585 734.851C69.4778 730.328 81.181 728 93 728C104.819 728 116.522 730.328 127.441 734.851C138.361 739.374 148.282 746.003 156.64 754.36C164.997 762.718 171.626 772.639 176.149 783.558C180.672 794.478 183 806.181 183 818L93 818L2.99998 818Z"/>
</mask>
<path d="M2.99998 818C2.99998 806.181 5.32789 794.478 9.85082 783.558C14.3737 772.639 21.0031 762.718 29.3604 754.36C37.7176 746.003 47.6392 739.374 58.5585 734.851C69.4778 730.328 81.181 728 93 728C104.819 728 116.522 730.328 127.441 734.851C138.361 739.374 148.282 746.003 156.64 754.36C164.997 762.718 171.626 772.639 176.149 783.558C180.672 794.478 183 806.181 183 818L93 818L2.99998 818Z" fill="#D4FF73" stroke="black" stroke-width="2" mask="url(#path-9-inside-9_15_4140)"/>
<mask id="path-10-inside-10_15_4140" fill="white">
<path d="M5.99998 909C5.99998 897.181 8.32789 885.478 12.8508 874.558C17.3737 863.639 24.0031 853.718 32.3604 845.36C40.7176 837.003 50.6392 830.374 61.5585 825.851C72.4778 821.328 84.181 819 96 819C107.819 819 119.522 821.328 130.441 825.851C141.361 830.374 151.282 837.003 159.64 845.36C167.997 853.718 174.626 863.639 179.149 874.558C183.672 885.478 186 897.181 186 909L96 909L5.99998 909Z"/>
</mask>
<path d="M5.99998 909C5.99998 897.181 8.32789 885.478 12.8508 874.558C17.3737 863.639 24.0031 853.718 32.3604 845.36C40.7176 837.003 50.6392 830.374 61.5585 825.851C72.4778 821.328 84.181 819 96 819C107.819 819 119.522 821.328 130.441 825.851C141.361 830.374 151.282 837.003 159.64 845.36C167.997 853.718 174.626 863.639 179.149 874.558C183.672 885.478 186 897.181 186 909L96 909L5.99998 909Z" fill="#D4FF73" stroke="black" stroke-width="2" mask="url(#path-10-inside-10_15_4140)"/>
<mask id="path-11-inside-11_15_4140" fill="white">
<path d="M5.99998 1000C5.99998 988.181 8.32789 976.478 12.8508 965.558C17.3737 954.639 24.0031 944.718 32.3604 936.36C40.7176 928.003 50.6392 921.374 61.5585 916.851C72.4778 912.328 84.181 910 96 910C107.819 910 119.522 912.328 130.441 916.851C141.361 921.374 151.282 928.003 159.64 936.36C167.997 944.718 174.626 954.639 179.149 965.558C183.672 976.478 186 988.181 186 1000L96 1000L5.99998 1000Z"/>
</mask>
<path d="M5.99998 1000C5.99998 988.181 8.32789 976.478 12.8508 965.558C17.3737 954.639 24.0031 944.718 32.3604 936.36C40.7176 928.003 50.6392 921.374 61.5585 916.851C72.4778 912.328 84.181 910 96 910C107.819 910 119.522 912.328 130.441 916.851C141.361 921.374 151.282 928.003 159.64 936.36C167.997 944.718 174.626 954.639 179.149 965.558C183.672 976.478 186 988.181 186 1000L96 1000L5.99998 1000Z" fill="#D4FF73" stroke="black" stroke-width="2" mask="url(#path-11-inside-11_15_4140)"/>
<mask id="path-12-inside-12_15_4140" fill="white">
<path d="M5.99998 1091C5.99998 1079.18 8.32789 1067.48 12.8508 1056.56C17.3737 1045.64 24.0031 1035.72 32.3604 1027.36C40.7176 1019 50.6392 1012.37 61.5585 1007.85C72.4778 1003.33 84.181 1001 96 1001C107.819 1001 119.522 1003.33 130.441 1007.85C141.361 1012.37 151.282 1019 159.64 1027.36C167.997 1035.72 174.626 1045.64 179.149 1056.56C183.672 1067.48 186 1079.18 186 1091L96 1091L5.99998 1091Z"/>
</mask>
<path d="M5.99998 1091C5.99998 1079.18 8.32789 1067.48 12.8508 1056.56C17.3737 1045.64 24.0031 1035.72 32.3604 1027.36C40.7176 1019 50.6392 1012.37 61.5585 1007.85C72.4778 1003.33 84.181 1001 96 1001C107.819 1001 119.522 1003.33 130.441 1007.85C141.361 1012.37 151.282 1019 159.64 1027.36C167.997 1035.72 174.626 1045.64 179.149 1056.56C183.672 1067.48 186 1079.18 186 1091L96 1091L5.99998 1091Z" fill="#D4FF73" stroke="black" stroke-width="2" mask="url(#path-12-inside-12_15_4140)"/>
</svg>
