<svg width="214" height="140" viewBox="0 0 214 140" fill="none" xmlns="http://www.w3.org/2000/svg">
<mask id="path-1-inside-1_121_279" fill="white">
<path fill-rule="evenodd" clip-rule="evenodd" d="M71.2808 33.7178C70.2689 14.926 54.7108 0 35.6666 0C15.9685 0 0 15.9685 0 35.6666C0 51.4922 10.3072 64.9106 24.5748 69.5747C10.3072 74.2388 0 87.6572 0 103.483C0 123.181 15.9685 139.149 35.6666 139.149C55.3646 139.149 71.3331 123.181 71.3331 103.483C71.3331 102.614 71.302 101.753 71.241 100.899C71.3013 100.916 71.3617 100.933 71.4221 100.95C71.3633 101.786 71.3335 102.631 71.3335 103.483C71.3335 123.181 87.302 139.149 107 139.149C126.698 139.149 142.667 123.181 142.667 103.483C142.667 103.244 142.664 103.005 142.66 102.767C142.664 102.766 142.669 102.765 142.674 102.764C142.669 103.003 142.667 103.243 142.667 103.483C142.667 123.181 158.635 139.149 178.333 139.149C198.031 139.149 214 123.181 214 103.483C214 87.9534 204.075 74.742 190.222 69.8458C190.247 69.6575 190.269 69.4689 190.289 69.28C204.107 64.3649 214 51.1711 214 35.6666C214 15.9685 198.031 0 178.333 0C159.906 0 144.742 13.9748 142.863 31.9045C142.729 31.8759 142.595 31.8474 142.462 31.8192C140.543 13.9305 125.398 0 107 0C87.9658 0 72.414 14.9103 71.3874 33.6882C71.3519 33.6981 71.3163 33.708 71.2808 33.7178Z"/>
</mask>
<path fill-rule="evenodd" clip-rule="evenodd" d="M71.2808 33.7178C70.2689 14.926 54.7108 0 35.6666 0C15.9685 0 0 15.9685 0 35.6666C0 51.4922 10.3072 64.9106 24.5748 69.5747C10.3072 74.2388 0 87.6572 0 103.483C0 123.181 15.9685 139.149 35.6666 139.149C55.3646 139.149 71.3331 123.181 71.3331 103.483C71.3331 102.614 71.302 101.753 71.241 100.899C71.3013 100.916 71.3617 100.933 71.4221 100.95C71.3633 101.786 71.3335 102.631 71.3335 103.483C71.3335 123.181 87.302 139.149 107 139.149C126.698 139.149 142.667 123.181 142.667 103.483C142.667 103.244 142.664 103.005 142.66 102.767C142.664 102.766 142.669 102.765 142.674 102.764C142.669 103.003 142.667 103.243 142.667 103.483C142.667 123.181 158.635 139.149 178.333 139.149C198.031 139.149 214 123.181 214 103.483C214 87.9534 204.075 74.742 190.222 69.8458C190.247 69.6575 190.269 69.4689 190.289 69.28C204.107 64.3649 214 51.1711 214 35.6666C214 15.9685 198.031 0 178.333 0C159.906 0 144.742 13.9748 142.863 31.9045C142.729 31.8759 142.595 31.8474 142.462 31.8192C140.543 13.9305 125.398 0 107 0C87.9658 0 72.414 14.9103 71.3874 33.6882C71.3519 33.6981 71.3163 33.708 71.2808 33.7178Z" fill="#D4FF73"/>
<path d="M71.2808 33.7178L69.8103 33.797L69.9089 35.6277L71.6752 35.1366L71.2808 33.7178ZM24.5748 69.5747L25.0323 70.9744L29.314 69.5747L25.0323 68.175L24.5748 69.5747ZM71.241 100.899L71.6359 99.4807L69.623 98.9203L69.7721 101.004L71.241 100.899ZM71.4221 100.95L72.8911 101.053L72.9753 99.8514L71.8148 99.5303L71.4221 100.95ZM142.66 102.767L142.354 101.326L141.163 101.579L141.187 102.796L142.66 102.767ZM142.674 102.764L144.146 102.793L144.183 100.936L142.367 101.324L142.674 102.764ZM190.222 69.8458L188.762 69.6516L188.605 70.836L189.731 71.2342L190.222 69.8458ZM190.289 69.28L189.795 67.8925L188.919 68.2041L188.824 69.129L190.289 69.28ZM142.863 31.9045L142.554 33.3444L144.157 33.6876L144.327 32.058L142.863 31.9045ZM142.462 31.8192L140.997 31.9762L141.111 33.0393L142.157 33.26L142.462 31.8192ZM71.3874 33.6882L71.7806 35.1074L72.8001 34.825L72.8578 33.7686L71.3874 33.6882ZM72.7512 33.6387C71.6976 14.0697 55.4976 -1.47259 35.6666 -1.47259V1.47259C53.9241 1.47259 68.8403 15.7823 69.8103 33.797L72.7512 33.6387ZM35.6666 -1.47259C15.1552 -1.47259 -1.47259 15.1552 -1.47259 35.6666H1.47259C1.47259 16.7817 16.7817 1.47259 35.6666 1.47259V-1.47259ZM-1.47259 35.6666C-1.47259 52.1479 9.2621 66.1182 24.1172 70.9744L25.0323 68.175C11.3523 63.7029 1.47259 50.8366 1.47259 35.6666H-1.47259ZM24.1172 68.175C9.2621 73.0312 -1.47259 87.0015 -1.47259 103.483H1.47259C1.47259 88.3128 11.3523 75.4465 25.0323 70.9744L24.1172 68.175ZM-1.47259 103.483C-1.47259 123.994 15.1552 140.622 35.6666 140.622V137.677C16.7817 137.677 1.47259 122.368 1.47259 103.483H-1.47259ZM35.6666 140.622C56.1779 140.622 72.8057 123.994 72.8057 103.483H69.8605C69.8605 122.368 54.5514 137.677 35.6666 137.677V140.622ZM72.8057 103.483C72.8057 102.579 72.7734 101.682 72.7098 100.794L69.7721 101.004C69.8307 101.823 69.8605 102.649 69.8605 103.483H72.8057ZM71.8148 99.5303C71.7551 99.5138 71.6955 99.4972 71.6359 99.4807L70.846 102.318C70.9071 102.335 70.9682 102.352 71.0294 102.369L71.8148 99.5303ZM72.8061 103.483C72.8061 102.666 72.8347 101.855 72.8911 101.053L69.9531 100.846C69.892 101.718 69.8609 102.597 69.8609 103.483H72.8061ZM107 137.677C88.1152 137.677 72.8061 122.368 72.8061 103.483H69.8609C69.8609 123.994 86.4887 140.622 107 140.622V137.677ZM141.194 103.483C141.194 122.368 125.885 137.677 107 137.677V140.622C127.511 140.622 144.139 123.994 144.139 103.483H141.194ZM141.187 102.796C141.192 103.024 141.194 103.253 141.194 103.483H144.139C144.139 103.234 144.137 102.986 144.132 102.738L141.187 102.796ZM142.367 101.324C142.361 101.325 142.358 101.326 142.354 101.326L142.965 104.208C142.971 104.206 142.978 104.205 142.981 104.204L142.367 101.324ZM141.202 102.735C141.197 102.984 141.194 103.233 141.194 103.483H144.139C144.139 103.252 144.142 103.022 144.146 102.793L141.202 102.735ZM141.194 103.483C141.194 123.994 157.822 140.622 178.333 140.622V137.677C159.449 137.677 144.139 122.368 144.139 103.483H141.194ZM178.333 140.622C198.845 140.622 215.473 123.994 215.473 103.483H212.527C212.527 122.368 197.218 137.677 178.333 137.677V140.622ZM215.473 103.483C215.473 87.3099 205.136 73.5551 190.713 68.4574L189.731 71.2342C203.014 75.929 212.527 88.5969 212.527 103.483H215.473ZM188.824 69.129C188.806 69.3035 188.786 69.4777 188.762 69.6516L191.682 70.04C191.709 69.8374 191.733 69.6343 191.754 69.4309L188.824 69.129ZM190.782 70.6674C205.169 65.5501 215.473 51.8135 215.473 35.6666H212.527C212.527 50.5286 203.045 63.1797 189.795 67.8925L190.782 70.6674ZM215.473 35.6666C215.473 15.1552 198.845 -1.47259 178.333 -1.47259V1.47259C197.218 1.47259 212.527 16.7817 212.527 35.6666H215.473ZM178.333 -1.47259C159.144 -1.47259 143.356 13.0794 141.398 31.751L144.327 32.058C146.129 14.8702 160.668 1.47259 178.333 1.47259V-1.47259ZM142.157 33.26C142.29 33.288 142.422 33.3161 142.554 33.3444L143.171 30.4646C143.036 30.4356 142.901 30.4069 142.766 30.3783L142.157 33.26ZM107 1.47259C124.638 1.47259 139.158 14.8277 140.997 31.9762L143.926 31.6621C141.928 13.0333 126.159 -1.47259 107 -1.47259V1.47259ZM72.8578 33.7686C73.8419 15.7673 88.7521 1.47259 107 1.47259V-1.47259C87.1794 -1.47259 70.9861 14.0533 69.917 33.6079L72.8578 33.7686ZM71.6752 35.1366C71.7103 35.1269 71.7454 35.1171 71.7806 35.1074L70.9943 32.2691C70.9583 32.2791 70.9224 32.289 70.8863 32.2991L71.6752 35.1366Z" fill="black" mask="url(#path-1-inside-1_121_279)"/>
</svg>
