<svg width="325" height="89" viewBox="0 0 325 89" fill="none" xmlns="http://www.w3.org/2000/svg">
<path d="M44.5 88.5H324.339V0.5H44.5C20.1995 0.5 0.5 20.1995 0.5 44.5C0.5 68.8005 20.1995 88.5 44.5 88.5Z" fill="#FF003D" stroke="black"/>
<mask id="path-2-outside-1_115_6" maskUnits="userSpaceOnUse" x="82" y="30" width="211" height="35" fill="black">
<rect fill="white" x="82" y="30" width="211" height="35"/>
<path d="M107.262 31.6676V35.2401H87.9948V42.626H99.7561C102.78 42.626 105.122 43.2817 106.781 44.5929C108.467 45.8775 109.31 47.6972 109.31 50.0521V50.5739C109.31 52.9021 108.467 54.7218 106.781 56.0331C105.095 57.3444 102.753 58 99.7561 58H83.9807V31.6676H107.262ZM99.716 54.4275C101.429 54.4275 102.78 54.0796 103.77 53.3838C104.787 52.688 105.296 51.7514 105.296 50.5739V50.0521C105.296 48.8479 104.8 47.9113 103.81 47.2422C102.82 46.5465 101.455 46.1986 99.716 46.1986H87.9948V54.4275H99.716ZM139.462 54.4275V58H115.016V54.7887L126.617 48.0852C128.891 46.7739 130.577 45.7169 131.674 44.9141C132.772 44.0845 133.507 43.3218 133.882 42.626C134.284 41.9303 134.484 41.1007 134.484 40.1373V39.7359C134.484 38.1838 133.829 36.9929 132.517 36.1634C131.233 35.3338 129.373 34.919 126.938 34.919C124.422 34.919 122.509 35.3605 121.198 36.2436C119.913 37.1267 119.271 38.4112 119.271 40.0972V40.9H115.257V40.057C115.257 37.1936 116.26 34.9993 118.267 33.4739C120.274 31.9486 123.138 31.1859 126.857 31.1859C130.497 31.1859 133.347 31.9352 135.407 33.4338C137.468 34.9324 138.498 36.9929 138.498 39.6155V40.0169C138.498 41.4352 138.217 42.6796 137.655 43.75C137.093 44.8204 136.117 45.9042 134.725 47.0014C133.36 48.0986 131.353 49.4099 128.704 50.9352L122.603 54.4275H139.462ZM159.447 42.1042C163.006 42.2113 165.723 42.9204 167.596 44.2317C169.496 45.5162 170.446 47.3091 170.446 49.6106V50.1324C170.446 52.8352 169.362 54.9092 167.194 56.3542C165.027 57.7725 161.869 58.4817 157.721 58.4817C153.68 58.4549 150.549 57.7458 148.328 56.3542C146.134 54.9627 145.037 52.9958 145.037 50.4535V50.1725H149.011V50.4535C149.011 51.7915 149.787 52.8486 151.339 53.6246C152.891 54.3739 155.032 54.7486 157.761 54.7486C160.625 54.7486 162.792 54.3739 164.264 53.6246C165.736 52.8486 166.472 51.7113 166.472 50.2127V49.731C166.472 46.9211 163.608 45.5162 157.882 45.5162H153.546V41.9838L163.461 35.2401H145.518V31.6676H169.804V35.2401L159.447 42.1042ZM207.016 54.4275V63.3387H203.002V58H178.756V63.3387H174.783V54.4275H178.195C179.773 51.9922 180.603 48.9282 180.683 45.2352L180.924 31.6676H202.881V54.4275H207.016ZM184.376 45.3556C184.296 49.0486 183.573 52.0725 182.209 54.4275H198.907V35.2401H184.617L184.376 45.3556ZM234.864 44.6331C236.283 45.1683 237.366 45.9042 238.116 46.8408C238.865 47.7775 239.24 48.8613 239.24 50.0922V50.5739C239.24 53.0894 238.022 55.043 235.587 56.4345C233.178 57.7993 229.74 58.4817 225.271 58.4817C220.427 58.4817 216.734 57.5718 214.192 55.7521C211.676 53.9056 210.419 51.2162 210.419 47.6838V47.3225H214.473V47.6838C214.473 50.119 215.343 51.912 217.082 53.0627C218.848 54.1866 221.604 54.7486 225.351 54.7486C228.696 54.7486 231.171 54.4007 232.777 53.7049C234.383 53.0091 235.185 51.9253 235.185 50.4535V50.012C235.185 48.781 234.583 47.9113 233.379 47.4028C232.175 46.8676 230.128 46.6 227.238 46.6H220.213V43.0274H226.957C229.633 43.0274 231.559 42.7465 232.737 42.1845C233.941 41.6225 234.543 40.7127 234.543 39.4549V39.0134C234.543 36.2838 231.372 34.919 225.03 34.919C221.497 34.919 218.875 35.5077 217.162 36.6852C215.45 37.8627 214.593 39.6422 214.593 42.0239V42.3451H210.579V42.0239C210.579 38.5183 211.823 35.8422 214.312 33.9957C216.828 32.1225 220.427 31.1859 225.11 31.1859C229.392 31.1859 232.71 31.8549 235.065 33.1929C237.42 34.531 238.597 36.4042 238.597 38.8127V39.3345C238.597 41.7162 237.353 43.4824 234.864 44.6331ZM256.3 58H252.366V37.6084C251.082 38.331 249.409 38.6922 247.348 38.6922H242.813V34.9591H247.027C248.847 34.9591 250.185 34.6915 251.041 34.1563C251.925 33.6211 252.366 32.7915 252.366 31.6676H256.3V58ZM278.36 58.4817C275.683 58.4817 273.315 58 271.255 57.0366C269.221 56.0732 267.629 54.7218 266.478 52.9824C265.354 51.243 264.792 49.2493 264.792 47.0014V42.7063C264.792 40.4317 265.354 38.4246 266.478 36.6852C267.629 34.9458 269.221 33.5943 271.255 32.631C273.315 31.6676 275.683 31.1859 278.36 31.1859C281.009 31.1859 283.35 31.6676 285.384 32.631C287.418 33.5943 288.997 34.9458 290.121 36.6852C291.245 38.4246 291.807 40.4317 291.807 42.7063V47.0014C291.807 49.276 291.245 51.2831 290.121 53.0225C288.997 54.7352 287.418 56.0732 285.384 57.0366C283.35 58 281.009 58.4817 278.36 58.4817ZM278.36 54.7486C281.303 54.7486 283.618 54.0662 285.304 52.7014C286.99 51.3366 287.833 49.45 287.833 47.0415V42.6662C287.833 40.2845 286.976 38.3979 285.264 37.0063C283.578 35.6148 281.263 34.919 278.319 34.919C275.349 34.919 273.007 35.6148 271.295 37.0063C269.609 38.3711 268.766 40.2577 268.766 42.6662V47.0415C268.766 49.45 269.609 51.3366 271.295 52.7014C273.007 54.0662 275.362 54.7486 278.36 54.7486Z"/>
</mask>
<path d="M107.262 31.6676V35.2401H87.9948V42.626H99.7561C102.78 42.626 105.122 43.2817 106.781 44.5929C108.467 45.8775 109.31 47.6972 109.31 50.0521V50.5739C109.31 52.9021 108.467 54.7218 106.781 56.0331C105.095 57.3444 102.753 58 99.7561 58H83.9807V31.6676H107.262ZM99.716 54.4275C101.429 54.4275 102.78 54.0796 103.77 53.3838C104.787 52.688 105.296 51.7514 105.296 50.5739V50.0521C105.296 48.8479 104.8 47.9113 103.81 47.2422C102.82 46.5465 101.455 46.1986 99.716 46.1986H87.9948V54.4275H99.716ZM139.462 54.4275V58H115.016V54.7887L126.617 48.0852C128.891 46.7739 130.577 45.7169 131.674 44.9141C132.772 44.0845 133.507 43.3218 133.882 42.626C134.284 41.9303 134.484 41.1007 134.484 40.1373V39.7359C134.484 38.1838 133.829 36.9929 132.517 36.1634C131.233 35.3338 129.373 34.919 126.938 34.919C124.422 34.919 122.509 35.3605 121.198 36.2436C119.913 37.1267 119.271 38.4112 119.271 40.0972V40.9H115.257V40.057C115.257 37.1936 116.26 34.9993 118.267 33.4739C120.274 31.9486 123.138 31.1859 126.857 31.1859C130.497 31.1859 133.347 31.9352 135.407 33.4338C137.468 34.9324 138.498 36.9929 138.498 39.6155V40.0169C138.498 41.4352 138.217 42.6796 137.655 43.75C137.093 44.8204 136.117 45.9042 134.725 47.0014C133.36 48.0986 131.353 49.4099 128.704 50.9352L122.603 54.4275H139.462ZM159.447 42.1042C163.006 42.2113 165.723 42.9204 167.596 44.2317C169.496 45.5162 170.446 47.3091 170.446 49.6106V50.1324C170.446 52.8352 169.362 54.9092 167.194 56.3542C165.027 57.7725 161.869 58.4817 157.721 58.4817C153.68 58.4549 150.549 57.7458 148.328 56.3542C146.134 54.9627 145.037 52.9958 145.037 50.4535V50.1725H149.011V50.4535C149.011 51.7915 149.787 52.8486 151.339 53.6246C152.891 54.3739 155.032 54.7486 157.761 54.7486C160.625 54.7486 162.792 54.3739 164.264 53.6246C165.736 52.8486 166.472 51.7113 166.472 50.2127V49.731C166.472 46.9211 163.608 45.5162 157.882 45.5162H153.546V41.9838L163.461 35.2401H145.518V31.6676H169.804V35.2401L159.447 42.1042ZM207.016 54.4275V63.3387H203.002V58H178.756V63.3387H174.783V54.4275H178.195C179.773 51.9922 180.603 48.9282 180.683 45.2352L180.924 31.6676H202.881V54.4275H207.016ZM184.376 45.3556C184.296 49.0486 183.573 52.0725 182.209 54.4275H198.907V35.2401H184.617L184.376 45.3556ZM234.864 44.6331C236.283 45.1683 237.366 45.9042 238.116 46.8408C238.865 47.7775 239.24 48.8613 239.24 50.0922V50.5739C239.24 53.0894 238.022 55.043 235.587 56.4345C233.178 57.7993 229.74 58.4817 225.271 58.4817C220.427 58.4817 216.734 57.5718 214.192 55.7521C211.676 53.9056 210.419 51.2162 210.419 47.6838V47.3225H214.473V47.6838C214.473 50.119 215.343 51.912 217.082 53.0627C218.848 54.1866 221.604 54.7486 225.351 54.7486C228.696 54.7486 231.171 54.4007 232.777 53.7049C234.383 53.0091 235.185 51.9253 235.185 50.4535V50.012C235.185 48.781 234.583 47.9113 233.379 47.4028C232.175 46.8676 230.128 46.6 227.238 46.6H220.213V43.0274H226.957C229.633 43.0274 231.559 42.7465 232.737 42.1845C233.941 41.6225 234.543 40.7127 234.543 39.4549V39.0134C234.543 36.2838 231.372 34.919 225.03 34.919C221.497 34.919 218.875 35.5077 217.162 36.6852C215.45 37.8627 214.593 39.6422 214.593 42.0239V42.3451H210.579V42.0239C210.579 38.5183 211.823 35.8422 214.312 33.9957C216.828 32.1225 220.427 31.1859 225.11 31.1859C229.392 31.1859 232.71 31.8549 235.065 33.1929C237.42 34.531 238.597 36.4042 238.597 38.8127V39.3345C238.597 41.7162 237.353 43.4824 234.864 44.6331ZM256.3 58H252.366V37.6084C251.082 38.331 249.409 38.6922 247.348 38.6922H242.813V34.9591H247.027C248.847 34.9591 250.185 34.6915 251.041 34.1563C251.925 33.6211 252.366 32.7915 252.366 31.6676H256.3V58ZM278.36 58.4817C275.683 58.4817 273.315 58 271.255 57.0366C269.221 56.0732 267.629 54.7218 266.478 52.9824C265.354 51.243 264.792 49.2493 264.792 47.0014V42.7063C264.792 40.4317 265.354 38.4246 266.478 36.6852C267.629 34.9458 269.221 33.5943 271.255 32.631C273.315 31.6676 275.683 31.1859 278.36 31.1859C281.009 31.1859 283.35 31.6676 285.384 32.631C287.418 33.5943 288.997 34.9458 290.121 36.6852C291.245 38.4246 291.807 40.4317 291.807 42.7063V47.0014C291.807 49.276 291.245 51.2831 290.121 53.0225C288.997 54.7352 287.418 56.0732 285.384 57.0366C283.35 58 281.009 58.4817 278.36 58.4817ZM278.36 54.7486C281.303 54.7486 283.618 54.0662 285.304 52.7014C286.99 51.3366 287.833 49.45 287.833 47.0415V42.6662C287.833 40.2845 286.976 38.3979 285.264 37.0063C283.578 35.6148 281.263 34.919 278.319 34.919C275.349 34.919 273.007 35.6148 271.295 37.0063C269.609 38.3711 268.766 40.2577 268.766 42.6662V47.0415C268.766 49.45 269.609 51.3366 271.295 52.7014C273.007 54.0662 275.362 54.7486 278.36 54.7486Z" fill="#D4FF73"/>
<path d="M107.262 31.6676H108.266V30.6641H107.262V31.6676ZM107.262 35.2401V36.2436H108.266V35.2401H107.262ZM87.9948 35.2401V34.2366H86.9913V35.2401H87.9948ZM87.9948 42.626H86.9913V43.6296H87.9948V42.626ZM106.781 44.5929L106.159 45.3803L106.166 45.3858L106.173 45.3912L106.781 44.5929ZM83.9807 58H82.9772V59.0035H83.9807V58ZM83.9807 31.6676V30.6641H82.9772V31.6676H83.9807ZM103.77 53.3838L103.203 52.5555L103.193 52.5627L103.77 53.3838ZM103.81 47.2422L103.233 48.0633L103.241 48.0686L103.249 48.0737L103.81 47.2422ZM87.9948 46.1986V45.1951H86.9913V46.1986H87.9948ZM87.9948 54.4275H86.9913V55.431H87.9948V54.4275ZM106.259 31.6676V35.2401H108.266V31.6676H106.259ZM107.262 34.2366H87.9948V36.2436H107.262V34.2366ZM86.9913 35.2401V42.626H88.9983V35.2401H86.9913ZM87.9948 43.6296H99.7561V41.6225H87.9948V43.6296ZM99.7561 43.6296C102.649 43.6296 104.739 44.2582 106.159 45.3803L107.403 43.8056C105.504 42.3052 102.911 41.6225 99.7561 41.6225V43.6296ZM106.173 45.3912C107.579 46.4629 108.306 47.9704 108.306 50.0521H110.313C110.313 47.4239 109.354 45.292 107.389 43.7947L106.173 45.3912ZM108.306 50.0521V50.5739H110.313V50.0521H108.306ZM108.306 50.5739C108.306 52.6245 107.582 54.1387 106.165 55.241L107.397 56.8252C109.351 55.305 110.313 53.1797 110.313 50.5739H108.306ZM106.165 55.241C104.714 56.3695 102.618 56.9965 99.7561 56.9965V59.0035C102.888 59.0035 105.476 58.3192 107.397 56.8252L106.165 55.241ZM99.7561 56.9965H83.9807V59.0035H99.7561V56.9965ZM84.9843 58V31.6676H82.9772V58H84.9843ZM83.9807 32.6711H107.262V30.6641H83.9807V32.6711ZM99.716 55.431C101.552 55.431 103.131 55.0594 104.347 54.2049L103.193 52.5627C102.429 53.0997 101.305 53.4239 99.716 53.4239V55.431ZM104.337 54.212C105.612 53.3395 106.299 52.1006 106.299 50.5739H104.292C104.292 51.4023 103.962 52.0365 103.204 52.5556L104.337 54.212ZM106.299 50.5739V50.0521H104.292V50.5739H106.299ZM106.299 50.0521C106.299 48.5177 105.641 47.2681 104.372 46.4107L103.249 48.0737C103.96 48.5544 104.292 49.1781 104.292 50.0521H106.299ZM104.387 46.4212C103.169 45.565 101.575 45.1951 99.716 45.1951V47.2021C101.336 47.2021 102.471 47.5279 103.233 48.0633L104.387 46.4212ZM99.716 45.1951H87.9948V47.2021H99.716V45.1951ZM86.9913 46.1986V54.4275H88.9983V46.1986H86.9913ZM87.9948 55.431H99.716V53.4239H87.9948V55.431ZM139.462 54.4275H140.465V53.4239H139.462V54.4275ZM139.462 58V59.0035H140.465V58H139.462ZM115.016 58H114.012V59.0035H115.016V58ZM115.016 54.7887L114.514 53.9198L114.012 54.2096V54.7887H115.016ZM126.617 48.0852L126.115 47.2158L126.115 47.2163L126.617 48.0852ZM131.674 44.9141L132.267 45.7239L132.273 45.7193L132.28 45.7145L131.674 44.9141ZM133.882 42.626L133.013 42.1246L133.006 42.1373L132.999 42.1503L133.882 42.626ZM132.517 36.1634L131.973 37.0064L131.981 37.0114L132.517 36.1634ZM121.198 36.2436L120.637 35.4112L120.629 35.4167L121.198 36.2436ZM119.271 40.9V41.9035H120.274V40.9H119.271ZM115.257 40.9H114.253V41.9035H115.257V40.9ZM118.267 33.4739L118.875 34.2729V34.2729L118.267 33.4739ZM135.407 33.4338L134.817 34.2454L135.407 33.4338ZM137.655 43.75L138.544 44.2165V44.2165L137.655 43.75ZM134.725 47.0014L134.104 46.2133L134.096 46.2193L134.725 47.0014ZM128.704 50.9352L129.202 51.8062L129.205 51.8049L128.704 50.9352ZM122.603 54.4275L122.104 53.5565L118.829 55.431H122.603V54.4275ZM138.458 54.4275V58H140.465V54.4275H138.458ZM139.462 56.9965H115.016V59.0035H139.462V56.9965ZM116.019 58V54.7887H114.012V58H116.019ZM115.518 55.6576L127.119 48.9541L126.115 47.2163L114.514 53.9198L115.518 55.6576ZM127.118 48.9546C129.401 47.6386 131.125 46.5598 132.267 45.7239L131.082 44.1042C130.03 44.874 128.382 45.9093 126.115 47.2158L127.118 48.9546ZM132.28 45.7145C133.419 44.8531 134.29 43.9859 134.766 43.1018L132.999 42.1503C132.725 42.6577 132.124 43.3158 131.069 44.1136L132.28 45.7145ZM134.751 43.1275C135.257 42.2515 135.488 41.2416 135.488 40.1373H133.481C133.481 40.9598 133.31 41.6091 133.013 42.1246L134.751 43.1275ZM135.488 40.1373V39.7359H133.481V40.1373H135.488ZM135.488 39.7359C135.488 37.8399 134.656 36.3289 133.054 35.3153L131.981 37.0114C133.001 37.657 133.481 38.5277 133.481 39.7359H135.488ZM133.062 35.3204C131.545 34.3409 129.462 33.9155 126.938 33.9155V35.9225C129.284 35.9225 130.92 36.3266 131.973 37.0064L133.062 35.3204ZM126.938 33.9155C124.331 33.9155 122.185 34.3685 120.637 35.4113L121.758 37.076C122.832 36.3526 124.514 35.9225 126.938 35.9225V33.9155ZM120.629 35.4167C119.047 36.5043 118.267 38.1126 118.267 40.0972H120.274C120.274 38.7099 120.779 37.7492 121.766 37.0706L120.629 35.4167ZM118.267 40.0972V40.9H120.274V40.0972H118.267ZM119.271 39.8965H115.257V41.9035H119.271V39.8965ZM116.26 40.9V40.057H114.253V40.9H116.26ZM116.26 40.057C116.26 37.4587 117.153 35.5809 118.875 34.2729L117.66 32.675C115.367 34.4177 114.253 36.9286 114.253 40.057H116.26ZM118.875 34.2729C120.641 32.9301 123.257 32.1894 126.857 32.1894V30.1824C123.018 30.1824 119.907 30.967 117.66 32.675L118.875 34.2729ZM126.857 32.1894C130.373 32.1894 132.988 32.9147 134.817 34.2454L135.998 32.6222C133.706 30.9556 130.621 30.1824 126.857 30.1824V32.1894ZM134.817 34.2454C136.609 35.5487 137.495 37.3029 137.495 39.6155H139.502C139.502 36.683 138.327 34.3161 135.998 32.6222L134.817 34.2454ZM137.495 39.6155V40.0169H139.502V39.6155H137.495ZM137.495 40.0169C137.495 41.3008 137.241 42.38 136.767 43.2835L138.544 44.2165C139.193 42.9791 139.502 41.5696 139.502 40.0169H137.495ZM136.767 43.2835C136.294 44.1851 135.432 45.1662 134.104 46.2134L135.346 47.7894C136.801 46.6423 137.893 45.4557 138.544 44.2165L136.767 43.2835ZM134.096 46.2193C132.791 47.2687 130.835 48.55 128.203 50.0655L129.205 51.8049C131.871 50.2697 133.93 48.9284 135.354 47.7835L134.096 46.2193ZM128.205 50.0643L122.104 53.5565L123.101 55.2984L129.202 51.8062L128.205 50.0643ZM122.603 55.431H139.462V53.4239H122.603V55.431ZM159.447 42.1042L158.893 41.2677L156.261 43.0123L159.417 43.1073L159.447 42.1042ZM167.596 44.2317L167.02 45.0538L167.027 45.0585L167.034 45.063L167.596 44.2317ZM167.194 56.3542L167.744 57.194L167.751 57.1892L167.194 56.3542ZM157.721 58.4817L157.714 59.4852H157.721V58.4817ZM148.328 56.3542L147.791 57.2017L147.795 57.2046L148.328 56.3542ZM145.037 50.1725V49.169H144.033V50.1725H145.037ZM149.011 50.1725H150.014V49.169H149.011V50.1725ZM151.339 53.6246L150.89 54.5223L150.902 54.5284L151.339 53.6246ZM164.264 53.6246L164.719 54.5189L164.726 54.5157L164.732 54.5123L164.264 53.6246ZM153.546 45.5162H152.543V46.5197H153.546V45.5162ZM153.546 41.9838L152.982 41.154L152.543 41.4527V41.9838H153.546ZM163.461 35.2401L164.026 36.0699L166.721 34.2366H163.461V35.2401ZM145.518 35.2401H144.515V36.2436H145.518V35.2401ZM145.518 31.6676V30.6641H144.515V31.6676H145.518ZM169.804 31.6676H170.807V30.6641H169.804V31.6676ZM169.804 35.2401L170.358 36.0766L170.807 35.7789V35.2401H169.804ZM159.417 43.1073C162.881 43.2115 165.374 43.9011 167.02 45.0538L168.171 43.4096C166.072 41.9397 163.131 41.211 159.477 41.1011L159.417 43.1073ZM167.034 45.063C168.657 46.1601 169.442 47.641 169.442 49.6106H171.449C171.449 46.9773 170.335 44.8722 168.158 43.4003L167.034 45.063ZM169.442 49.6106V50.1324H171.449V49.6106H169.442ZM169.442 50.1324C169.442 52.5148 168.514 54.2685 166.638 55.5192L167.751 57.1892C170.21 55.5498 171.449 53.1557 171.449 50.1324H169.442ZM166.645 55.5145C164.712 56.7794 161.781 57.4782 157.721 57.4782V59.4852C161.957 59.4852 165.342 58.7656 167.744 57.194L166.645 55.5145ZM157.728 57.4782C153.78 57.452 150.861 56.7567 148.861 55.5038L147.795 57.2046C150.238 58.7349 153.58 59.4578 157.714 59.4852L157.728 57.4782ZM148.866 55.5067C146.954 54.2943 146.04 52.643 146.04 50.4535H144.033C144.033 53.3486 145.314 55.631 147.791 57.2017L148.866 55.5067ZM146.04 50.4535V50.1725H144.033V50.4535H146.04ZM145.037 51.1761H149.011V49.169H145.037V51.1761ZM148.007 50.1725V50.4535H150.014V50.1725H148.007ZM148.007 50.4535C148.007 52.2888 149.117 53.6358 150.89 54.5222L151.787 52.7271C150.456 52.0614 150.014 51.2943 150.014 50.4535H148.007ZM150.902 54.5284C152.647 55.3707 154.959 55.7521 157.761 55.7521V53.7451C155.104 53.7451 153.134 53.3772 151.775 52.7209L150.902 54.5284ZM157.761 55.7521C160.683 55.7521 163.038 55.3748 164.719 54.5189L163.809 52.7303C162.546 53.3731 160.567 53.7451 157.761 53.7451V55.7521ZM164.732 54.5123C165.586 54.0622 166.282 53.4773 166.762 52.7348C167.246 51.9867 167.475 51.1341 167.475 50.2127H165.468C165.468 50.7898 165.329 51.2552 165.077 51.6444C164.822 52.0392 164.414 52.411 163.796 52.737L164.732 54.5123ZM167.475 50.2127V49.731H165.468V50.2127H167.475ZM167.475 49.731C167.475 48.849 167.248 48.0333 166.765 47.3231C166.287 46.6201 165.6 46.0779 164.766 45.669C163.127 44.8648 160.795 44.5127 157.882 44.5127V46.5197C160.695 46.5197 162.658 46.8701 163.882 47.4708C164.481 47.7644 164.867 48.1002 165.105 48.4509C165.338 48.7944 165.468 49.208 165.468 49.731H167.475ZM157.882 44.5127H153.546V46.5197H157.882V44.5127ZM154.55 45.5162V41.9838H152.543V45.5162H154.55ZM154.111 42.8136L164.026 36.0699L162.897 34.4103L152.982 41.154L154.111 42.8136ZM163.461 34.2366H145.518V36.2436H163.461V34.2366ZM146.522 35.2401V31.6676H144.515V35.2401H146.522ZM145.518 32.6711H169.804V30.6641H145.518V32.6711ZM168.8 31.6676V35.2401H170.807V31.6676H168.8ZM169.249 34.4036L158.893 41.2677L160.002 42.9407L170.358 36.0766L169.249 34.4036ZM207.016 54.4275H208.019V53.4239H207.016V54.4275ZM207.016 63.3387V64.3423H208.019V63.3387H207.016ZM203.002 63.3387H201.998V64.3423H203.002V63.3387ZM203.002 58H204.005V56.9965H203.002V58ZM178.757 58V56.9965H177.753V58H178.757ZM178.757 63.3387V64.3423H179.76V63.3387H178.757ZM174.783 63.3387H173.779V64.3423H174.783V63.3387ZM174.783 54.4275V53.4239H173.779V54.4275H174.783ZM178.195 54.4275V55.431H178.74L179.037 54.9734L178.195 54.4275ZM180.683 45.2352L181.687 45.257L181.687 45.253L180.683 45.2352ZM180.924 31.6676V30.6641H179.938L179.921 31.6498L180.924 31.6676ZM202.881 31.6676H203.885V30.6641H202.881V31.6676ZM202.881 54.4275H201.878V55.431H202.881V54.4275ZM184.376 45.3556L183.373 45.3317L183.373 45.3338L184.376 45.3556ZM182.209 54.4275L181.34 53.9243L180.467 55.431H182.209V54.4275ZM198.907 54.4275V55.431H199.911V54.4275H198.907ZM198.907 35.2401H199.911V34.2366H198.907V35.2401ZM184.617 35.2401V34.2366H183.637L183.614 35.2162L184.617 35.2401ZM206.012 54.4275V63.3387H208.019V54.4275H206.012ZM207.016 62.3352H203.002V64.3423H207.016V62.3352ZM204.005 63.3387V58H201.998V63.3387H204.005ZM203.002 56.9965H178.757V59.0035H203.002V56.9965ZM177.753 58V63.3387H179.76V58H177.753ZM178.757 62.3352H174.783V64.3423H178.757V62.3352ZM175.786 63.3387V54.4275H173.779V63.3387H175.786ZM174.783 55.431H178.195V53.4239H174.783V55.431ZM179.037 54.9734C180.741 52.3445 181.603 49.086 181.687 45.257L179.68 45.2134C179.603 48.7703 178.806 51.64 177.352 53.8815L179.037 54.9734ZM181.687 45.253L181.927 31.6854L179.921 31.6498L179.68 45.2174L181.687 45.253ZM180.924 32.6711H202.881V30.6641H180.924V32.6711ZM201.878 31.6676V54.4275H203.885V31.6676H201.878ZM202.881 55.431H207.016V53.4239H202.881V55.431ZM183.373 45.3338C183.295 48.9153 182.595 51.7589 181.34 53.9243L183.077 54.9307C184.551 52.3862 185.297 49.1818 185.38 45.3774L183.373 45.3338ZM182.209 55.431H198.907V53.4239H182.209V55.431ZM199.911 54.4275V35.2401H197.904V54.4275H199.911ZM198.907 34.2366H184.617V36.2436H198.907V34.2366ZM183.614 35.2162L183.373 45.3317L185.379 45.3795L185.62 35.264L183.614 35.2162ZM234.864 44.6331L234.443 43.7222L232.27 44.7268L234.51 45.572L234.864 44.6331ZM238.116 46.8408L238.899 46.2139L238.116 46.8408ZM235.587 56.4345L236.082 57.3076L236.085 57.3058L235.587 56.4345ZM214.192 55.7521L213.598 56.5611L213.608 56.5681L214.192 55.7521ZM210.419 47.3225V46.319H209.415V47.3225H210.419ZM214.473 47.3225H215.476V46.319H214.473V47.3225ZM217.082 53.0627L216.528 53.8996L216.536 53.9045L216.543 53.9093L217.082 53.0627ZM232.777 53.7049L232.378 52.7841L232.777 53.7049ZM233.379 47.4028L232.972 48.3198L232.98 48.3236L232.989 48.3273L233.379 47.4028ZM220.213 46.6H219.209V47.6035H220.213V46.6ZM220.213 43.0274V42.0239H219.209V43.0274H220.213ZM232.737 42.1845L232.312 41.2751L232.305 41.2788L232.737 42.1845ZM217.162 36.6852L217.731 37.5121L217.162 36.6852ZM214.593 42.3451V43.3486H215.597V42.3451H214.593ZM210.579 42.3451H209.576V43.3486H210.579V42.3451ZM214.312 33.9957L214.91 34.8017L214.912 34.8006L214.312 33.9957ZM234.51 45.572C235.804 46.0602 236.721 46.7043 237.332 47.4677L238.899 46.2139C238.012 45.1041 236.762 44.2764 235.219 43.6942L234.51 45.572ZM237.332 47.4677C237.935 48.2214 238.236 49.0826 238.236 50.0922H240.243C240.243 48.6399 239.795 47.3335 238.899 46.2139L237.332 47.4677ZM238.236 50.0922V50.5739H240.243V50.0922H238.236ZM238.236 50.5739C238.236 52.6818 237.255 54.3255 235.089 55.5632L236.085 57.3058C238.789 55.7604 240.243 53.497 240.243 50.5739H238.236ZM235.092 55.5614C232.9 56.8035 229.662 57.4782 225.271 57.4782V59.4852C229.818 59.4852 233.457 58.7951 236.082 57.3076L235.092 55.5614ZM225.271 57.4782C220.529 57.4782 217.077 56.5835 214.776 54.9361L213.608 56.5681C216.391 58.5602 220.325 59.4852 225.271 59.4852V57.4782ZM214.786 54.9431C212.564 53.3127 211.422 50.9452 211.422 47.6838H209.415C209.415 51.4872 210.788 54.4986 213.598 56.5611L214.786 54.9431ZM211.422 47.6838V47.3225H209.415V47.6838H211.422ZM210.419 48.326H214.473V46.319H210.419V48.326ZM213.469 47.3225V47.6838H215.476V47.3225H213.469ZM213.469 47.6838C213.469 50.3903 214.457 52.5296 216.528 53.8996L217.636 52.2257C216.228 51.2943 215.476 49.8477 215.476 47.6838H213.469ZM216.543 53.9093C218.553 55.1885 221.544 55.7521 225.351 55.7521V53.7451C221.665 53.7451 219.143 53.1847 217.621 52.216L216.543 53.9093ZM225.351 55.7521C228.731 55.7521 231.376 55.4058 233.176 54.6257L232.378 52.7841C230.967 53.3956 228.661 53.7451 225.351 53.7451V55.7521ZM233.176 54.6257C234.094 54.228 234.857 53.6874 235.39 52.9676C235.931 52.2369 236.189 51.3838 236.189 50.4535H234.182C234.182 50.9951 234.039 51.4198 233.777 51.7729C233.507 52.1369 233.066 52.486 232.378 52.7841L233.176 54.6257ZM236.189 50.4535V50.012H234.182V50.4535H236.189ZM236.189 50.012C236.189 49.2267 235.994 48.4941 235.559 47.8652C235.126 47.2405 234.506 46.7892 233.769 46.4783L232.989 48.3273C233.457 48.5249 233.739 48.7627 233.909 49.0076C234.076 49.2485 234.182 49.5662 234.182 50.012H236.189ZM233.787 46.4858C232.374 45.8578 230.14 45.5965 227.238 45.5965V47.6035C230.116 47.6035 231.976 47.8774 232.972 48.3198L233.787 46.4858ZM227.238 45.5965H220.213V47.6035H227.238V45.5965ZM221.216 46.6V43.0274H219.209V46.6H221.216ZM220.213 44.031H226.957V42.0239H220.213V44.031ZM226.957 44.031C229.657 44.031 231.777 43.7546 233.169 43.0902L232.305 41.2788C231.342 41.7383 229.608 42.0239 226.957 42.0239V44.031ZM233.161 43.0939C233.894 42.7517 234.505 42.2742 234.929 41.6344C235.354 40.9913 235.547 40.2498 235.547 39.4549H233.54C233.54 39.9177 233.431 40.2601 233.255 40.5268C233.076 40.7969 232.784 41.0553 232.313 41.2751L233.161 43.0939ZM235.547 39.4549V39.0134H233.54V39.4549H235.547ZM235.547 39.0134C235.547 38.1214 235.282 37.3052 234.742 36.6076C234.213 35.924 233.46 35.4076 232.562 35.0208C230.786 34.2565 228.242 33.9155 225.03 33.9155V35.9225C228.16 35.9225 230.373 36.2638 231.768 36.8644C232.455 37.1599 232.892 37.4965 233.155 37.8366C233.408 38.1625 233.54 38.5405 233.54 39.0134H235.547ZM225.03 33.9155C221.421 33.9155 218.554 34.5103 216.594 35.8582L217.731 37.5121C219.196 36.5051 221.574 35.9225 225.03 35.9225V33.9155ZM216.594 35.8582C214.566 37.2525 213.59 39.3677 213.59 42.0239H215.597C215.597 39.9168 216.333 38.4728 217.731 37.5121L216.594 35.8582ZM213.59 42.0239V42.3451H215.597V42.0239H213.59ZM214.593 41.3415H210.579V43.3486H214.593V41.3415ZM211.583 42.3451V42.0239H209.576V42.3451H211.583ZM211.583 42.0239C211.583 38.7882 212.713 36.4321 214.91 34.8017L213.714 33.1898C210.934 35.2524 209.576 38.2484 209.576 42.0239H211.583ZM214.912 34.8006C217.187 33.106 220.542 32.1894 225.11 32.1894V30.1824C220.312 30.1824 216.468 31.139 213.713 33.1909L214.912 34.8006ZM225.11 32.1894C229.309 32.1894 232.429 32.8493 234.569 34.0655L235.561 32.3204C232.991 30.8605 229.474 30.1824 225.11 30.1824V32.1894ZM234.569 34.0655C236.658 35.252 237.594 36.8165 237.594 38.8127H239.601C239.601 35.992 238.182 33.8099 235.561 32.3204L234.569 34.0655ZM237.594 38.8127V39.3345H239.601V38.8127H237.594ZM237.594 39.3345C237.594 40.3406 237.335 41.1708 236.844 41.8674C236.347 42.5726 235.57 43.2013 234.443 43.7222L235.286 45.544C236.648 44.9142 237.737 44.0844 238.485 43.0234C239.238 41.9538 239.601 40.7101 239.601 39.3345H237.594ZM256.3 58V59.0035H257.303V58H256.3ZM252.366 58H251.363V59.0035H252.366V58ZM252.366 37.6084H253.37V35.8926L251.874 36.7338L252.366 37.6084ZM242.813 38.6922H241.809V39.6958H242.813V38.6922ZM242.813 34.9591V33.9556H241.809V34.9591H242.813ZM251.041 34.1563L250.521 33.298L250.51 33.3053L251.041 34.1563ZM252.366 31.6676V30.6641H251.363V31.6676H252.366ZM256.3 31.6676H257.303V30.6641H256.3V31.6676ZM256.3 56.9965H252.366V59.0035H256.3V56.9965ZM253.37 58V37.6084H251.363V58H253.37ZM251.874 36.7338C250.788 37.3448 249.302 37.6887 247.348 37.6887V39.6958C249.516 39.6958 251.375 39.3171 252.858 38.4831L251.874 36.7338ZM247.348 37.6887H242.813V39.6958H247.348V37.6887ZM243.816 38.6922V34.9591H241.809V38.6922H243.816ZM242.813 35.9627H247.027V33.9556H242.813V35.9627ZM247.027 35.9627C248.905 35.9627 250.475 35.6939 251.573 35.0073L250.51 33.3053C249.896 33.6891 248.789 33.9556 247.027 33.9556V35.9627ZM251.562 35.0145C252.775 34.2789 253.37 33.105 253.37 31.6676H251.363C251.363 32.478 251.074 32.9633 250.521 33.2981L251.562 35.0145ZM252.366 32.6711H256.3V30.6641H252.366V32.6711ZM255.296 31.6676V58H257.303V31.6676H255.296ZM271.255 57.0366L270.825 57.9436L270.83 57.9457L271.255 57.0366ZM266.478 52.9824L265.635 53.527L265.641 53.5361L266.478 52.9824ZM266.478 36.6852L265.641 36.1315L265.635 36.1406L266.478 36.6852ZM271.255 32.631L270.83 31.7219L270.825 31.724L271.255 32.631ZM285.384 32.631L285.814 31.724L285.384 32.631ZM290.121 36.6852L289.278 37.2298L289.278 37.2298L290.121 36.6852ZM290.121 53.0225L290.96 53.5731L290.964 53.5672L290.121 53.0225ZM285.384 57.0366L285.814 57.9435L285.384 57.0366ZM285.304 52.7014L284.672 51.9214L285.304 52.7014ZM285.264 37.0063L284.625 37.7803L284.631 37.7852L285.264 37.0063ZM271.295 37.0063L271.926 37.7863L271.928 37.7852L271.295 37.0063ZM271.295 52.7014L270.663 53.4814L270.669 53.4862L271.295 52.7014ZM278.36 57.4782C275.805 57.4782 273.586 57.0187 271.68 56.1275L270.83 57.9457C273.045 58.9813 275.562 59.4852 278.36 59.4852V57.4782ZM271.684 56.1297C269.802 55.2383 268.356 54.0034 267.315 52.4287L265.641 53.5361C266.901 55.4403 268.639 56.9082 270.825 57.9435L271.684 56.1297ZM267.321 52.4378C266.311 50.8745 265.795 49.0733 265.795 47.0014H263.788C263.788 49.4253 264.397 51.6114 265.635 53.527L267.321 52.4378ZM265.795 47.0014V42.7063H263.788V47.0014H265.795ZM265.795 42.7063C265.795 40.6052 266.312 38.7911 267.321 37.2298L265.635 36.1406C264.396 38.0581 263.788 40.2582 263.788 42.7063H265.795ZM267.315 37.2389C268.356 35.6642 269.802 34.4293 271.684 33.5379L270.825 31.724C268.639 32.7594 266.901 34.2273 265.641 36.1315L267.315 37.2389ZM271.68 33.54C273.586 32.6489 275.805 32.1894 278.36 32.1894V30.1824C275.562 30.1824 273.045 30.6863 270.83 31.7219L271.68 33.54ZM278.36 32.1894C280.886 32.1894 283.077 32.6484 284.955 33.5379L285.814 31.724C283.624 30.6867 281.131 30.1824 278.36 30.1824V32.1894ZM284.955 33.5379C286.835 34.4285 288.264 35.6608 289.278 37.2298L290.964 36.1406C289.73 34.2307 288.001 32.7602 285.814 31.724L284.955 33.5379ZM289.278 37.2298C290.287 38.7911 290.803 40.6052 290.803 42.7063H292.81C292.81 40.2582 292.203 38.0581 290.964 36.1406L289.278 37.2298ZM290.803 42.7063V47.0014H292.81V42.7063H290.803ZM290.803 47.0014C290.803 49.1026 290.287 50.9166 289.278 52.4779L290.964 53.5672C292.203 51.6496 292.81 49.4495 292.81 47.0014H290.803ZM289.282 52.4719C288.269 54.0155 286.839 55.2372 284.955 56.1297L285.814 57.9435C287.997 56.9093 289.725 55.4549 290.96 53.5731L289.282 52.4719ZM284.955 56.1297C283.077 57.0192 280.886 57.4782 278.36 57.4782V59.4852C281.131 59.4852 283.624 58.9808 285.814 57.9435L284.955 56.1297ZM278.36 55.7521C281.451 55.7521 284.016 55.035 285.935 53.4814L284.672 51.9214C283.22 53.0974 281.155 53.7451 278.36 53.7451V55.7521ZM285.935 53.4814C287.885 51.9034 288.836 49.7149 288.836 47.0415H286.829C286.829 49.1851 286.095 50.7698 284.672 51.9214L285.935 53.4814ZM288.836 47.0415V42.6662H286.829V47.0415H288.836ZM288.836 42.6662C288.836 40.0097 287.864 37.8262 285.897 36.2275L284.631 37.7852C286.089 38.9695 286.829 40.5593 286.829 42.6662H288.836ZM285.903 36.2324C283.983 34.648 281.415 33.9155 278.319 33.9155V35.9225C281.111 35.9225 283.173 36.5815 284.625 37.7803L285.903 36.2324ZM278.319 33.9155C275.198 33.9155 272.607 34.6472 270.662 36.2275L271.928 37.7852C273.408 36.5823 275.5 35.9225 278.319 35.9225V33.9155ZM270.663 36.2263C268.714 37.8043 267.762 39.9928 267.762 42.6662H269.769C269.769 40.5226 270.504 38.9379 271.926 37.7863L270.663 36.2263ZM267.762 42.6662V47.0415H269.769V42.6662H267.762ZM267.762 47.0415C267.762 49.7149 268.714 51.9034 270.663 53.4814L271.926 51.9214C270.504 50.7698 269.769 49.1851 269.769 47.0415H267.762ZM270.669 53.4862C272.615 55.0369 275.218 55.7521 278.36 55.7521V53.7451C275.507 53.7451 273.4 53.0955 271.92 51.9166L270.669 53.4862Z" fill="black" mask="url(#path-2-outside-1_115_6)"/>
</svg>
