<svg width="360" height="360" viewBox="0 0 360 360" fill="none" xmlns="http://www.w3.org/2000/svg">
<rect x="0.5" y="0.5" width="359" height="359" fill="#D2CCF4" stroke="black"/>
<mask id="mask0_83_1001" style="mask-type:alpha" maskUnits="userSpaceOnUse" x="0" y="0" width="360" height="360">
<rect x="0.5" y="0.5" width="359" height="359" fill="#D2CCF4" stroke="black"/>
</mask>
<g mask="url(#mask0_83_1001)">
<path d="M34.4778 0H0V360H364.045V325.145H34.4778V0Z" fill="#7A61E3" stroke="black"/>
<path d="M86.0518 -50.9998H51.574V309H415.619V274.145H86.0518V-50.9998Z" fill="#7A61E3" stroke="black"/>
<path d="M141.67 -106H107.192V254H471.237V219.145H141.67V-106Z" fill="#7A61E3" stroke="black"/>
<path d="M197.286 -163H162.808V197H526.853V162.145H197.286V-163Z" fill="#7A61E3" stroke="black"/>
<path d="M256.95 -224H222.472V136H586.517V101.145H256.95V-224Z" fill="#7A61E3" stroke="black"/>
<path d="M323.691 -286H289.213V74.0002H653.258V39.1454H323.691V-286Z" fill="#7A61E3" stroke="black"/>
</g>
<mask id="path-9-inside-1_83_1001" fill="white">
<path fill-rule="evenodd" clip-rule="evenodd" d="M357.621 360L360 360L360 -1.57143e-05L-1.57579e-05 0L-1.56539e-05 2.3765C187.951 22.7715 337.227 172.048 357.621 360Z"/>
</mask>
<path fill-rule="evenodd" clip-rule="evenodd" d="M357.621 360L360 360L360 -1.57143e-05L-1.57579e-05 0L-1.56539e-05 2.3765C187.951 22.7715 337.227 172.048 357.621 360Z" fill="#D4FF73"/>
<path d="M360 360L360 361L361 361L361 360L360 360ZM357.621 360L356.627 360.108L356.724 361L357.621 361L357.621 360ZM360 -1.57143e-05L361 -1.5758e-05L361 -1.00002L360 -1.00002L360 -1.57143e-05ZM-1.57579e-05 0L-1.58017e-05 -1L-1.00002 -1L-1.00002 4.36506e-08L-1.57579e-05 0ZM-1.56539e-05 2.3765L-1.00002 2.3765L-1.00002 3.27385L-0.107894 3.37066L-1.56539e-05 2.3765ZM360 359L357.621 359L357.621 361L360 361L360 359ZM359 -1.56707e-05L359 360L361 360L361 -1.5758e-05L359 -1.56707e-05ZM-1.57142e-05 1L360 0.999984L360 -1.00002L-1.58017e-05 -1L-1.57142e-05 1ZM0.999984 2.3765L0.999984 -4.36507e-08L-1.00002 4.36506e-08L-1.00002 2.3765L0.999984 2.3765ZM-0.107894 3.37066C187.377 23.715 336.284 172.623 356.627 360.108L358.615 359.892C338.171 171.474 188.526 21.828 0.107863 1.38233L-0.107894 3.37066Z" fill="black" mask="url(#path-9-inside-1_83_1001)"/>
</svg>
