<svg width="360" height="360" viewBox="0 0 360 360" fill="none" xmlns="http://www.w3.org/2000/svg">
<rect x="0.5" y="0.5" width="359" height="359" fill="#D2CCF4" stroke="black"/>
<mask id="path-2-inside-1_83_1002" fill="white">
<path fill-rule="evenodd" clip-rule="evenodd" d="M0 357.623L0 360H360V0L357.623 0C337.229 187.952 187.952 337.229 0 357.623Z"/>
</mask>
<path fill-rule="evenodd" clip-rule="evenodd" d="M0 357.623L0 360H360V0L357.623 0C337.229 187.952 187.952 337.229 0 357.623Z" fill="#FF003D"/>
<path d="M0 360L-1 360L-1 361H0V360ZM0 357.623L-0.107874 356.629L-1 356.725L-1 357.623L0 357.623ZM360 360V361H361V360H360ZM360 0H361V-1L360 -1L360 0ZM357.623 0L357.623 -1L356.726 -1L356.629 -0.107875L357.623 0ZM1 360L1 357.623L-1 357.623L-1 360L1 360ZM360 359H0V361H360V359ZM359 0V360H361V0H359ZM357.623 1L360 1L360 -1L357.623 -1L357.623 1ZM356.629 -0.107875C336.285 187.377 187.377 336.285 -0.107874 356.629L0.107874 358.617C188.527 338.172 338.172 188.527 358.617 0.107875L356.629 -0.107875Z" fill="black" mask="url(#path-2-inside-1_83_1002)"/>
</svg>
