<svg width="720" height="180" viewBox="0 0 720 180" fill="none" xmlns="http://www.w3.org/2000/svg">
<rect x="0.5" y="0.5" width="719" height="179" fill="#D2CCF4" stroke="black"/>
<rect x="0.5" y="123.147" width="9.94097" height="719" transform="rotate(-90 0.5 123.147)" fill="#FF003D" stroke="black"/>
<rect x="0.5" y="104.363" width="9.94097" height="719" transform="rotate(-90 0.5 104.363)" fill="#FF003D" stroke="black"/>
<rect x="0.5" y="85.5783" width="9.94097" height="719" transform="rotate(-90 0.5 85.5783)" fill="#FF003D" stroke="black"/>
<rect x="0.5" y="66.794" width="9.94097" height="719" transform="rotate(-90 0.5 66.794)" fill="#FF003D" stroke="black"/>
<rect x="0.5" y="48.0096" width="9.94097" height="719" transform="rotate(-90 0.5 48.0096)" fill="#FF003D" stroke="black"/>
<rect x="0.5" y="29.2253" width="9.94097" height="719" transform="rotate(-90 0.5 29.2253)" fill="#FF003D" stroke="black"/>
<rect x="0.5" y="10.441" width="9.94097" height="719" transform="rotate(-90 0.5 10.441)" fill="#FF003D" stroke="black"/>
<rect x="0.5" y="179.5" width="9.94097" height="719" transform="rotate(-90 0.5 179.5)" fill="#FF003D" stroke="black"/>
<rect x="0.5" y="160.716" width="9.94097" height="719" transform="rotate(-90 0.5 160.716)" fill="#FF003D" stroke="black"/>
<rect x="0.5" y="141.931" width="9.94097" height="719" transform="rotate(-90 0.5 141.931)" fill="#FF003D" stroke="black"/>
</svg>
