<svg width="210" height="136" viewBox="0 0 210 136" fill="none" xmlns="http://www.w3.org/2000/svg">
<mask id="path-1-inside-1_1_605" fill="white">
<path fill-rule="evenodd" clip-rule="evenodd" d="M69.6673 32.9546C68.6783 14.5881 53.4724 0 34.8592 0C15.607 0 0 15.607 0 34.8592C0 50.3269 10.0741 63.4416 24.019 68C10.0741 72.5584 0 85.6731 0 101.141C0 120.393 15.607 136 34.8592 136C54.1114 136 69.7184 120.393 69.7184 101.141C69.7184 120.393 85.3254 136 104.578 136C123.83 136 139.437 120.393 139.437 101.141C139.437 120.393 155.044 136 174.296 136C193.548 136 209.155 120.393 209.155 101.141C209.155 85.9627 199.455 73.0503 185.915 68.265C185.94 68.081 185.962 67.8966 185.981 67.7118C199.486 62.9081 209.155 50.0129 209.155 34.8592C209.155 15.607 193.548 0 174.296 0C156.286 0 141.465 13.6586 139.628 31.1826C139.498 31.1546 139.367 31.1269 139.236 31.0992C137.361 13.6153 122.559 0 104.578 0C85.9742 0 70.7744 14.5728 69.7711 32.9258C69.7365 32.9354 69.7019 32.945 69.6673 32.9546ZM139.444 100.438C139.439 100.672 139.437 100.906 139.437 101.141C139.437 100.907 139.435 100.674 139.43 100.441C139.435 100.44 139.439 100.439 139.444 100.438ZM69.805 98.6648C69.7476 99.4827 69.7184 100.308 69.7184 101.141C69.7184 100.292 69.6881 99.4497 69.6284 98.6158C69.6872 98.6322 69.7461 98.6485 69.805 98.6648Z"/>
</mask>
<path fill-rule="evenodd" clip-rule="evenodd" d="M69.6673 32.9546C68.6783 14.5881 53.4724 0 34.8592 0C15.607 0 0 15.607 0 34.8592C0 50.3269 10.0741 63.4416 24.019 68C10.0741 72.5584 0 85.6731 0 101.141C0 120.393 15.607 136 34.8592 136C54.1114 136 69.7184 120.393 69.7184 101.141C69.7184 120.393 85.3254 136 104.578 136C123.83 136 139.437 120.393 139.437 101.141C139.437 120.393 155.044 136 174.296 136C193.548 136 209.155 120.393 209.155 101.141C209.155 85.9627 199.455 73.0503 185.915 68.265C185.94 68.081 185.962 67.8966 185.981 67.7118C199.486 62.9081 209.155 50.0129 209.155 34.8592C209.155 15.607 193.548 0 174.296 0C156.286 0 141.465 13.6586 139.628 31.1826C139.498 31.1546 139.367 31.1269 139.236 31.0992C137.361 13.6153 122.559 0 104.578 0C85.9742 0 70.7744 14.5728 69.7711 32.9258C69.7365 32.9354 69.7019 32.945 69.6673 32.9546ZM139.444 100.438C139.439 100.672 139.437 100.906 139.437 101.141C139.437 100.907 139.435 100.674 139.43 100.441C139.435 100.44 139.439 100.439 139.444 100.438ZM69.805 98.6648C69.7476 99.4827 69.7184 100.308 69.7184 101.141C69.7184 100.292 69.6881 99.4497 69.6284 98.6158C69.6872 98.6322 69.7461 98.6485 69.805 98.6648Z" fill="#D2CCF4"/>
<path d="M69.6673 32.9546L68.6687 33.0083L68.7356 34.2515L69.9351 33.918L69.6673 32.9546ZM24.019 68L24.3297 68.9505L27.2375 68L24.3297 67.0495L24.019 68ZM185.915 68.265L184.924 68.1332L184.817 68.9375L185.582 69.2079L185.915 68.265ZM185.981 67.7118L185.646 66.7697L185.051 66.9813L184.986 67.6094L185.981 67.7118ZM139.628 31.1826L139.419 32.1604L140.507 32.3935L140.623 31.2868L139.628 31.1826ZM139.236 31.0992L138.242 31.2059L138.32 31.9278L139.03 32.0777L139.236 31.0992ZM69.7711 32.9258L70.0381 33.8895L70.7304 33.6977L70.7696 32.9803L69.7711 32.9258ZM139.444 100.438L140.444 100.458L140.469 99.1966L139.235 99.4601L139.444 100.438ZM139.43 100.441L139.223 99.4627L138.414 99.6341L138.43 100.461L139.43 100.441ZM69.805 98.6648L70.8025 98.7348L70.8598 97.9191L70.0717 97.7011L69.805 98.6648ZM69.6284 98.6158L69.8965 97.6525L68.5296 97.272L68.6309 98.6872L69.6284 98.6158ZM34.8592 1C52.9381 1 67.7082 15.1696 68.6687 33.0083L70.6658 32.9008C69.6485 14.0066 54.0067 -1 34.8592 -1V1ZM1 34.8592C1 16.1593 16.1593 1 34.8592 1V-1C15.0547 -1 -1 15.0547 -1 34.8592H1ZM24.3297 67.0495C10.7838 62.6215 1 49.8816 1 34.8592H-1C-1 50.7721 9.36446 64.2617 23.7083 68.9505L24.3297 67.0495ZM1 101.141C1 86.1184 10.7838 73.3785 24.3297 68.9505L23.7083 67.0495C9.36446 71.7383 -1 85.2279 -1 101.141H1ZM34.8592 135C16.1593 135 1 119.841 1 101.141H-1C-1 120.945 15.0547 137 34.8592 137V135ZM68.7184 101.141C68.7184 119.841 53.5591 135 34.8592 135V137C54.6637 137 70.7184 120.945 70.7184 101.141H68.7184ZM104.578 135C85.8777 135 70.7184 119.841 70.7184 101.141H68.7184C68.7184 120.945 84.7731 137 104.578 137V135ZM138.437 101.141C138.437 119.841 123.278 135 104.578 135V137C124.382 137 140.437 120.945 140.437 101.141H138.437ZM174.296 135C155.596 135 140.437 119.841 140.437 101.141H138.437C138.437 120.945 154.492 137 174.296 137V135ZM208.155 101.141C208.155 119.841 192.996 135 174.296 135V137C194.101 137 210.155 120.945 210.155 101.141H208.155ZM185.582 69.2079C198.735 73.8564 208.155 86.3997 208.155 101.141H210.155C210.155 85.5258 200.175 72.2443 186.249 67.3222L185.582 69.2079ZM184.986 67.6094C184.968 67.7843 184.947 67.9589 184.924 68.1332L186.907 68.3968C186.932 68.2031 186.955 68.0089 186.975 67.8143L184.986 67.6094ZM208.155 34.8592C208.155 49.5766 198.765 62.1033 185.646 66.7697L186.316 68.654C200.207 63.713 210.155 50.4491 210.155 34.8592H208.155ZM174.296 1C192.996 1 208.155 16.1593 208.155 34.8592H210.155C210.155 15.0547 194.101 -1 174.296 -1V1ZM140.623 31.2868C142.407 14.2666 156.803 1 174.296 1V-1C155.768 -1 140.524 13.0506 138.634 31.0783L140.623 31.2868ZM139.03 32.0777C139.16 32.1051 139.289 32.1327 139.419 32.1604L139.838 30.2048C139.706 30.1766 139.575 30.1486 139.443 30.1208L139.03 32.0777ZM104.578 1C122.043 1 136.421 14.2246 138.242 31.2059L140.231 30.9926C138.302 13.0061 123.076 -1 104.578 -1V1ZM70.7696 32.9803C71.7441 15.1548 86.5082 1 104.578 1V-1C85.4402 -1 69.8047 13.9909 68.7726 32.8712L70.7696 32.9803ZM69.9351 33.918C69.9694 33.9085 70.0037 33.899 70.0381 33.8895L69.5042 31.962C69.4693 31.9717 69.4343 31.9814 69.3994 31.9911L69.9351 33.918ZM140.437 101.141C140.437 100.913 140.439 100.685 140.444 100.458L138.444 100.418C138.439 100.659 138.437 100.899 138.437 101.141H140.437ZM138.43 100.461C138.435 100.687 138.437 100.914 138.437 101.141H140.437C140.437 100.9 140.434 100.661 140.43 100.421L138.43 100.461ZM139.235 99.4601C139.231 99.4609 139.227 99.4617 139.223 99.4627L139.637 101.419C139.642 101.418 139.647 101.417 139.653 101.416L139.235 99.4601ZM68.8074 98.5948C68.7484 99.436 68.7184 100.285 68.7184 101.141H70.7184C70.7184 100.332 70.7468 99.5294 70.8025 98.7348L68.8074 98.5948ZM70.7184 101.141C70.7184 100.268 70.6872 99.4021 70.6258 98.5444L68.6309 98.6872C68.6889 99.4974 68.7184 100.316 68.7184 101.141H70.7184ZM70.0717 97.7011C70.0132 97.6849 69.9548 97.6687 69.8965 97.6525L69.3602 99.5792C69.4196 99.5957 69.4789 99.6122 69.5383 99.6286L70.0717 97.7011Z" fill="black" mask="url(#path-1-inside-1_1_605)"/>
</svg>
