<svg width="96" height="139" viewBox="0 0 96 139" fill="none" xmlns="http://www.w3.org/2000/svg">
<path fill-rule="evenodd" clip-rule="evenodd" d="M1 1V137.988H34.2439V78.378H70.3537L95 54.878V25.0732L70.3537 1H1ZM60.6098 26.2195H34.2439V51.439H60.6098V26.2195Z" fill="#FF003D"/>
<path d="M1 137.988H0.5V138.488H1V137.988ZM1 1V0.5H0.5V1H1ZM34.2439 137.988V138.488H34.7439V137.988H34.2439ZM34.2439 78.378V77.878H33.7439V78.378H34.2439ZM70.3537 78.378V78.878H70.5538L70.6987 78.7399L70.3537 78.378ZM95 54.878L95.345 55.2399L95.5 55.0922V54.878H95ZM95 25.0732H95.5V24.8626L95.3494 24.7155L95 25.0732ZM70.3537 1L70.703 0.642312L70.5573 0.5H70.3537V1ZM34.2439 26.2195V25.7195H33.7439V26.2195H34.2439ZM60.6098 26.2195H61.1098V25.7195H60.6098V26.2195ZM34.2439 51.439H33.7439V51.939H34.2439V51.439ZM60.6098 51.439V51.939H61.1098V51.439H60.6098ZM1.5 137.988V1H0.5V137.988H1.5ZM34.2439 137.488H1V138.488H34.2439V137.488ZM33.7439 78.378V137.988H34.7439V78.378H33.7439ZM70.3537 77.878H34.2439V78.878H70.3537V77.878ZM94.655 54.5162L70.0086 78.0162L70.6987 78.7399L95.345 55.2399L94.655 54.5162ZM94.5 25.0732V54.878H95.5V25.0732H94.5ZM70.0043 1.35769L94.6506 25.4309L95.3494 24.7155L70.703 0.642312L70.0043 1.35769ZM1 1.5H70.3537V0.5H1V1.5ZM34.2439 26.7195H60.6098V25.7195H34.2439V26.7195ZM34.7439 51.439V26.2195H33.7439V51.439H34.7439ZM60.6098 50.939H34.2439V51.939H60.6098V50.939ZM60.1098 26.2195V51.439H61.1098V26.2195H60.1098Z" fill="black"/>
</svg>
