<svg width="334" height="90" viewBox="0 0 334 90" fill="none" xmlns="http://www.w3.org/2000/svg">
<path d="M0.5 45.5C0.5 21.1995 20.1995 1.5 44.5 1.5H349.085V89.5H44.5C20.1995 89.5 0.5 69.8005 0.5 45.5Z" fill="#FF003D" stroke="black"/>
<mask id="path-2-outside-1_1_1144" maskUnits="userSpaceOnUse" x="40.4242" y="22" width="227" height="44" fill="black">
<rect fill="white" x="40.4242" y="22" width="227" height="44"/>
<path d="M47.3419 35.617V46.9021H67.0355V35.617H72.3461V63H67.0355V51.6043H47.3419V63H42.0312V35.617H47.3419ZM115.611 58.2979V63H111.96C110.153 63 108.641 62.6496 107.424 61.9489C106.207 61.2482 105.359 60.2525 104.879 58.9617C103.404 60.5475 101.634 61.7277 99.5688 62.5021C97.5035 63.2766 95.0695 63.6638 92.2667 63.6638C88.3206 63.6638 85.278 62.9816 83.139 61.617C81 60.2156 79.9305 58.2241 79.9305 55.6426C79.9305 53.4298 80.7603 51.6596 82.4198 50.3319C84.0794 49.0043 86.5135 48.1745 89.722 47.8426L104.492 46.2936C104.382 44.2284 103.515 42.661 101.892 41.5915C100.269 40.522 97.9461 39.9872 94.922 39.9872C92.0085 39.9872 89.6851 40.4851 87.9518 41.4808C86.2184 42.4766 85.3518 43.8043 85.3518 45.4638V45.6851H80.0964V45.4638C80.0964 43.3986 80.705 41.573 81.922 39.9872C83.1759 38.3645 84.9276 37.1291 87.1773 36.2808C89.4269 35.3957 92.0269 34.9532 94.9773 34.9532C99.661 34.9532 103.294 35.9858 105.875 38.0511C108.457 40.1163 109.748 43.0113 109.748 46.7362V55.2553C109.748 56.2142 110.043 56.9702 110.633 57.5234C111.223 58.0397 112.071 58.2979 113.177 58.2979H115.611ZM92.156 58.9617C95.1433 58.9617 97.7064 58.5007 99.8454 57.5787C101.984 56.6199 103.533 55.2738 104.492 53.5404V50.6085L90.8837 52.0468C88.9659 52.2312 87.5276 52.6184 86.5688 53.2085C85.6468 53.7986 85.1858 54.6099 85.1858 55.6426C85.1858 57.8553 87.5092 58.9617 92.156 58.9617ZM152.057 62.2255V63H146.027L133.967 51.4936H125.891V63H120.58V35.617H125.891V46.8468H133.801L145.197 35.617H151.338V36.3915L138.669 49.0596L152.057 62.2255ZM188.541 63H183.23V40.2638H166.469L166.247 50.166C166.137 54.5546 165.289 57.8 163.703 59.9021C162.154 61.9674 159.793 63 156.622 63H154.132V58.2979H155.46C157.415 58.2979 158.816 57.6525 159.664 56.3617C160.549 55.0709 161.029 52.9135 161.103 49.8894L161.435 35.617H188.541V63ZM227.758 51.0511H201.37C201.555 53.4482 202.587 55.3475 204.468 56.7489C206.349 58.1135 208.857 58.7957 211.992 58.7957C214.905 58.7957 217.265 58.3163 219.072 57.3574C220.916 56.3617 221.912 55.0525 222.06 53.4298H227.758C227.462 56.6383 225.914 59.1461 223.111 60.9532C220.345 62.7603 216.638 63.6638 211.992 63.6638C208.709 63.6638 205.851 63.1106 203.417 62.0043C200.983 60.861 199.102 59.2567 197.775 57.1915C196.484 55.1262 195.838 52.7106 195.838 49.9447V48.783C195.838 45.9801 196.484 43.5461 197.775 41.4808C199.102 39.3787 200.983 37.7745 203.417 36.6681C205.851 35.5248 208.709 34.9532 211.992 34.9532C216.897 34.9532 220.75 36.1702 223.553 38.6043C226.356 41.0014 227.758 44.3206 227.758 48.5617V51.0511ZM211.992 39.8213C209.041 39.8213 206.644 40.4298 204.8 41.6468C202.993 42.8269 201.887 44.4865 201.481 46.6255H222.115C221.783 44.4865 220.732 42.8269 218.962 41.6468C217.192 40.4298 214.868 39.8213 211.992 39.8213ZM240.143 35.617V56.5277L260.224 35.617H265.092V63H260.003V42.0894L239.922 63H235.054V35.617H240.143ZM250.101 31.8C246.265 31.8 243.352 31.1546 241.36 29.8638C239.369 28.573 238.373 26.6922 238.373 24.2213V23.834H243.241V24.2213C243.241 25.217 243.831 25.9915 245.011 26.5447C246.192 27.061 247.888 27.3191 250.101 27.3191C252.24 27.3191 253.863 27.061 254.969 26.5447C256.112 25.9915 256.684 25.217 256.684 24.2213V23.834H261.828V24.2213C261.828 26.7291 260.833 28.6284 258.841 29.9191C256.887 31.173 253.973 31.8 250.101 31.8Z"/>
</mask>
<path d="M47.3419 35.617V46.9021H67.0355V35.617H72.3461V63H67.0355V51.6043H47.3419V63H42.0312V35.617H47.3419ZM115.611 58.2979V63H111.96C110.153 63 108.641 62.6496 107.424 61.9489C106.207 61.2482 105.359 60.2525 104.879 58.9617C103.404 60.5475 101.634 61.7277 99.5688 62.5021C97.5035 63.2766 95.0695 63.6638 92.2667 63.6638C88.3206 63.6638 85.278 62.9816 83.139 61.617C81 60.2156 79.9305 58.2241 79.9305 55.6426C79.9305 53.4298 80.7603 51.6596 82.4198 50.3319C84.0794 49.0043 86.5135 48.1745 89.722 47.8426L104.492 46.2936C104.382 44.2284 103.515 42.661 101.892 41.5915C100.269 40.522 97.9461 39.9872 94.922 39.9872C92.0085 39.9872 89.6851 40.4851 87.9518 41.4808C86.2184 42.4766 85.3518 43.8043 85.3518 45.4638V45.6851H80.0964V45.4638C80.0964 43.3986 80.705 41.573 81.922 39.9872C83.1759 38.3645 84.9276 37.1291 87.1773 36.2808C89.4269 35.3957 92.0269 34.9532 94.9773 34.9532C99.661 34.9532 103.294 35.9858 105.875 38.0511C108.457 40.1163 109.748 43.0113 109.748 46.7362V55.2553C109.748 56.2142 110.043 56.9702 110.633 57.5234C111.223 58.0397 112.071 58.2979 113.177 58.2979H115.611ZM92.156 58.9617C95.1433 58.9617 97.7064 58.5007 99.8454 57.5787C101.984 56.6199 103.533 55.2738 104.492 53.5404V50.6085L90.8837 52.0468C88.9659 52.2312 87.5276 52.6184 86.5688 53.2085C85.6468 53.7986 85.1858 54.6099 85.1858 55.6426C85.1858 57.8553 87.5092 58.9617 92.156 58.9617ZM152.057 62.2255V63H146.027L133.967 51.4936H125.891V63H120.58V35.617H125.891V46.8468H133.801L145.197 35.617H151.338V36.3915L138.669 49.0596L152.057 62.2255ZM188.541 63H183.23V40.2638H166.469L166.247 50.166C166.137 54.5546 165.289 57.8 163.703 59.9021C162.154 61.9674 159.793 63 156.622 63H154.132V58.2979H155.46C157.415 58.2979 158.816 57.6525 159.664 56.3617C160.549 55.0709 161.029 52.9135 161.103 49.8894L161.435 35.617H188.541V63ZM227.758 51.0511H201.37C201.555 53.4482 202.587 55.3475 204.468 56.7489C206.349 58.1135 208.857 58.7957 211.992 58.7957C214.905 58.7957 217.265 58.3163 219.072 57.3574C220.916 56.3617 221.912 55.0525 222.06 53.4298H227.758C227.462 56.6383 225.914 59.1461 223.111 60.9532C220.345 62.7603 216.638 63.6638 211.992 63.6638C208.709 63.6638 205.851 63.1106 203.417 62.0043C200.983 60.861 199.102 59.2567 197.775 57.1915C196.484 55.1262 195.838 52.7106 195.838 49.9447V48.783C195.838 45.9801 196.484 43.5461 197.775 41.4808C199.102 39.3787 200.983 37.7745 203.417 36.6681C205.851 35.5248 208.709 34.9532 211.992 34.9532C216.897 34.9532 220.75 36.1702 223.553 38.6043C226.356 41.0014 227.758 44.3206 227.758 48.5617V51.0511ZM211.992 39.8213C209.041 39.8213 206.644 40.4298 204.8 41.6468C202.993 42.8269 201.887 44.4865 201.481 46.6255H222.115C221.783 44.4865 220.732 42.8269 218.962 41.6468C217.192 40.4298 214.868 39.8213 211.992 39.8213ZM240.143 35.617V56.5277L260.224 35.617H265.092V63H260.003V42.0894L239.922 63H235.054V35.617H240.143ZM250.101 31.8C246.265 31.8 243.352 31.1546 241.36 29.8638C239.369 28.573 238.373 26.6922 238.373 24.2213V23.834H243.241V24.2213C243.241 25.217 243.831 25.9915 245.011 26.5447C246.192 27.061 247.888 27.3191 250.101 27.3191C252.24 27.3191 253.863 27.061 254.969 26.5447C256.112 25.9915 256.684 25.217 256.684 24.2213V23.834H261.828V24.2213C261.828 26.7291 260.833 28.6284 258.841 29.9191C256.887 31.173 253.973 31.8 250.101 31.8Z" fill="#D4FF73"/>
<path d="M47.3419 35.617H48.7249V34.234H47.3419V35.617ZM47.3419 46.9021H45.9589V48.2851H47.3419V46.9021ZM67.0355 46.9021V48.2851H68.4185V46.9021H67.0355ZM67.0355 35.617V34.234H65.6525V35.617H67.0355ZM72.3461 35.617H73.7291V34.234H72.3461V35.617ZM72.3461 63V64.383H73.7291V63H72.3461ZM67.0355 63H65.6525V64.383H67.0355V63ZM67.0355 51.6043H68.4185V50.2213H67.0355V51.6043ZM47.3419 51.6043V50.2213H45.9589V51.6043H47.3419ZM47.3419 63V64.383H48.7249V63H47.3419ZM42.0312 63H40.6483V64.383H42.0312V63ZM42.0312 35.617V34.234H40.6483V35.617H42.0312ZM45.9589 35.617V46.9021H48.7249V35.617H45.9589ZM47.3419 48.2851H67.0355V45.5191H47.3419V48.2851ZM68.4185 46.9021V35.617H65.6525V46.9021H68.4185ZM67.0355 37H72.3461V34.234H67.0355V37ZM70.9632 35.617V63H73.7291V35.617H70.9632ZM72.3461 61.617H67.0355V64.383H72.3461V61.617ZM68.4185 63V51.6043H65.6525V63H68.4185ZM67.0355 50.2213H47.3419V52.9872H67.0355V50.2213ZM45.9589 51.6043V63H48.7249V51.6043H45.9589ZM47.3419 61.617H42.0312V64.383H47.3419V61.617ZM43.4142 63V35.617H40.6483V63H43.4142ZM42.0312 37H47.3419V34.234H42.0312V37ZM115.611 58.2979H116.994V56.9149H115.611V58.2979ZM115.611 63V64.383H116.994V63H115.611ZM104.879 58.9617L106.176 58.4802L105.395 56.3772L103.867 58.0197L104.879 58.9617ZM99.5688 62.5021L100.054 63.7971L99.5688 62.5021ZM83.139 61.617L82.3811 62.7738L82.3881 62.7784L82.3952 62.783L83.139 61.617ZM82.4198 50.3319L81.5559 49.252L82.4198 50.3319ZM89.722 47.8426L89.8643 49.2182L89.8662 49.218L89.722 47.8426ZM104.492 46.2936L104.636 47.6691L105.943 47.532L105.873 46.2196L104.492 46.2936ZM101.892 41.5915L102.653 40.4368V40.4368L101.892 41.5915ZM87.9518 41.4808L87.2629 40.2817L87.9518 41.4808ZM85.3518 45.6851V47.0681H86.7347V45.6851H85.3518ZM80.0964 45.6851H78.7135V47.0681H80.0964V45.6851ZM81.922 39.9872L80.8276 39.1416L80.8248 39.1452L81.922 39.9872ZM87.1773 36.2808L87.6652 37.5749L87.6744 37.5714L87.6836 37.5678L87.1773 36.2808ZM105.875 38.0511L106.739 36.9711L105.875 38.0511ZM110.633 57.5234L109.687 58.5323L109.704 58.5486L109.722 58.5642L110.633 57.5234ZM99.8454 57.5787L100.393 58.8487L100.402 58.8448L100.411 58.8407L99.8454 57.5787ZM104.492 53.5404L105.702 54.2099L105.875 53.8975V53.5404H104.492ZM104.492 50.6085H105.875V49.0717L104.347 49.2332L104.492 50.6085ZM90.8837 52.0468L91.0161 53.4235L91.029 53.4221L90.8837 52.0468ZM86.5688 53.2085L85.844 52.0307L85.8336 52.0371L85.8233 52.0437L86.5688 53.2085ZM114.228 58.2979V63H116.994V58.2979H114.228ZM115.611 61.617H111.96V64.383H115.611V61.617ZM111.96 61.617C110.327 61.617 109.069 61.3004 108.114 60.7504L106.734 63.1475C108.213 63.9989 109.979 64.383 111.96 64.383V61.617ZM108.114 60.7504C107.171 60.2072 106.541 59.462 106.176 58.4802L103.583 59.4432C104.177 61.0429 105.244 62.2893 106.734 63.1475L108.114 60.7504ZM103.867 58.0197C102.54 59.4457 100.952 60.5065 99.0832 61.2072L100.054 63.7971C102.316 62.9488 104.268 61.6493 105.892 59.9037L103.867 58.0197ZM99.0832 61.2072C97.2089 61.9101 94.9466 62.2808 92.2667 62.2808V65.0468C95.1924 65.0468 97.7982 64.6431 100.054 63.7971L99.0832 61.2072ZM92.2667 62.2808C88.4493 62.2808 85.7082 61.6156 83.8828 60.4511L82.3952 62.783C84.8478 64.3475 88.1918 65.0468 92.2667 65.0468V62.2808ZM83.8969 60.4602C82.1524 59.3173 81.3135 57.7632 81.3135 55.6426H78.5475C78.5475 58.6851 79.8475 61.1139 82.3811 62.7738L83.8969 60.4602ZM81.3135 55.6426C81.3135 53.8299 81.9676 52.4648 83.2838 51.4118L81.5559 49.252C79.5529 50.8544 78.5475 53.0297 78.5475 55.6426H81.3135ZM83.2838 51.4118C84.6549 50.3149 86.7925 49.536 89.8643 49.2182L89.5797 46.4669C86.2344 46.813 83.5039 47.6936 81.5559 49.252L83.2838 51.4118ZM89.8662 49.218L104.636 47.6691L104.348 44.9182L89.5777 46.4671L89.8662 49.218ZM105.873 46.2196C105.741 43.749 104.669 41.7653 102.653 40.4368L101.131 42.7462C102.361 43.5567 103.022 44.7077 103.111 46.3676L105.873 46.2196ZM102.653 40.4368C100.711 39.1569 98.0777 38.6043 94.922 38.6043V41.3702C97.8145 41.3702 99.8276 41.8871 101.131 42.7462L102.653 40.4368ZM94.922 38.6043C91.8702 38.6043 89.2803 39.1227 87.2629 40.2817L88.6407 42.68C90.0899 41.8475 92.1468 41.3702 94.922 41.3702V38.6043ZM87.2629 40.2817C85.2038 41.4645 83.9688 43.2001 83.9688 45.4638H86.7347C86.7347 44.4084 87.233 43.4887 88.6407 42.68L87.2629 40.2817ZM83.9688 45.4638V45.6851H86.7347V45.4638H83.9688ZM85.3518 44.3021H80.0964V47.0681H85.3518V44.3021ZM81.4794 45.6851V45.4638H78.7135V45.6851H81.4794ZM81.4794 45.4638C81.4794 43.6922 81.994 42.165 83.0191 40.8292L80.8248 39.1452C79.4159 40.9811 78.7135 43.105 78.7135 45.4638H81.4794ZM83.0163 40.8329C84.0882 39.4457 85.6134 38.3485 87.6652 37.5749L86.6894 34.9868C84.2419 35.9096 82.2635 37.2834 80.8276 39.1416L83.0163 40.8329ZM87.6836 37.5678C89.7408 36.7584 92.1632 36.3362 94.9773 36.3362V33.5702C91.8907 33.5702 89.1131 34.033 86.671 34.9939L87.6836 37.5678ZM94.9773 36.3362C99.4751 36.3362 102.759 37.3293 105.011 39.131L106.739 36.9711C103.828 34.6424 99.8469 33.5702 94.9773 33.5702V36.3362ZM105.011 39.131C107.22 40.8983 108.365 43.3712 108.365 46.7362H111.13C111.13 42.6515 109.693 39.3343 106.739 36.9711L105.011 39.131ZM108.365 46.7362V55.2553H111.13V46.7362H108.365ZM108.365 55.2553C108.365 56.5195 108.766 57.6693 109.687 58.5323L111.578 56.5145C111.319 56.2711 111.13 55.9089 111.13 55.2553H108.365ZM109.722 58.5642C110.651 59.377 111.873 59.6809 113.177 59.6809V56.9149C112.269 56.9149 111.795 56.7025 111.543 56.4826L109.722 58.5642ZM113.177 59.6809H115.611V56.9149H113.177V59.6809ZM92.156 60.3447C95.2805 60.3447 98.0395 59.8631 100.393 58.8487L99.298 56.3087C97.3732 57.1383 95.006 57.5787 92.156 57.5787V60.3447ZM100.411 58.8407C102.772 57.7825 104.573 56.2509 105.702 54.2099L103.282 52.871C102.493 54.2966 101.197 55.4572 99.2797 56.3167L100.411 58.8407ZM105.875 53.5404V50.6085H103.109V53.5404H105.875ZM104.347 49.2332L90.7383 50.6715L91.029 53.4221L104.638 51.9838L104.347 49.2332ZM90.7513 50.6702C88.7529 50.8623 87.0676 51.2777 85.844 52.0307L87.2936 54.3863C87.9877 53.9592 89.179 53.6001 91.016 53.4234L90.7513 50.6702ZM85.8233 52.0437C84.5328 52.8696 83.8028 54.1053 83.8028 55.6426H86.5688C86.5688 55.1145 86.7608 54.7276 87.3143 54.3734L85.8233 52.0437ZM83.8028 55.6426C83.8028 56.452 84.0202 57.2189 84.4885 57.8878C84.9482 58.5446 85.5943 59.0284 86.3338 59.3806C87.7759 60.0673 89.7668 60.3447 92.156 60.3447V57.5787C89.8984 57.5787 88.4043 57.3029 87.5229 56.8833C87.1007 56.6822 86.8755 56.4746 86.7544 56.3016C86.6418 56.1407 86.5688 55.9395 86.5688 55.6426H83.8028ZM152.057 62.2255H153.44V61.6459L153.026 61.2395L152.057 62.2255ZM152.057 63V64.383H153.44V63H152.057ZM146.027 63L145.072 64.0006L145.473 64.383H146.027V63ZM133.967 51.4936L134.922 50.493L134.521 50.1106H133.967V51.4936ZM125.891 51.4936V50.1106H124.508V51.4936H125.891ZM125.891 63V64.383H127.274V63H125.891ZM120.58 63H119.197V64.383H120.58V63ZM120.58 35.617V34.234H119.197V35.617H120.58ZM125.891 35.617H127.274V34.234H125.891V35.617ZM125.891 46.8468H124.508V48.2298H125.891V46.8468ZM133.801 46.8468V48.2298H134.368L134.772 47.8319L133.801 46.8468ZM145.197 35.617V34.234H144.63L144.226 34.632L145.197 35.617ZM151.338 35.617H152.721V34.234H151.338V35.617ZM151.338 36.3915L152.315 37.3694L152.721 36.9643V36.3915H151.338ZM138.669 49.0596L137.692 48.0817L136.705 49.0678L137.7 50.0456L138.669 49.0596ZM150.674 62.2255V63H153.44V62.2255H150.674ZM152.057 61.617H146.027V64.383H152.057V61.617ZM146.982 61.9994L134.922 50.493L133.013 52.4942L145.072 64.0006L146.982 61.9994ZM133.967 50.1106H125.891V52.8766H133.967V50.1106ZM124.508 51.4936V63H127.274V51.4936H124.508ZM125.891 61.617H120.58V64.383H125.891V61.617ZM121.963 63V35.617H119.197V63H121.963ZM120.58 37H125.891V34.234H120.58V37ZM124.508 35.617V46.8468H127.274V35.617H124.508ZM125.891 48.2298H133.801V45.4638H125.891V48.2298ZM134.772 47.8319L146.168 36.6021L144.226 34.632L132.831 45.8617L134.772 47.8319ZM145.197 37H151.338V34.234H145.197V37ZM149.955 35.617V36.3915H152.721V35.617H149.955ZM150.36 35.4136L137.692 48.0817L139.647 50.0375L152.315 37.3694L150.36 35.4136ZM137.7 50.0456L151.087 63.2116L153.026 61.2395L139.639 48.0735L137.7 50.0456ZM188.541 63V64.383H189.924V63H188.541ZM183.23 63H181.847V64.383H183.23V63ZM183.23 40.2638H184.613V38.8808H183.23V40.2638ZM166.469 40.2638V38.8808H165.116L165.086 40.2329L166.469 40.2638ZM166.247 50.166L167.63 50.2008L167.63 50.1969L166.247 50.166ZM163.703 59.9021L162.599 59.0692L162.596 59.0723L163.703 59.9021ZM154.132 63H152.749V64.383H154.132V63ZM154.132 58.2979V56.9149H152.749V58.2979H154.132ZM159.664 56.3617L158.524 55.5796L158.516 55.5908L158.509 55.6022L159.664 56.3617ZM161.103 49.8894L162.485 49.9231L162.485 49.9215L161.103 49.8894ZM161.435 35.617V34.234H160.083L160.052 35.5849L161.435 35.617ZM188.541 35.617H189.924V34.234H188.541V35.617ZM188.541 61.617H183.23V64.383H188.541V61.617ZM184.613 63V40.2638H181.847V63H184.613ZM183.23 38.8808H166.469V41.6468H183.23V38.8808ZM165.086 40.2329L164.865 50.1351L167.63 50.1969L167.851 40.2947L165.086 40.2329ZM164.865 50.1311C164.757 54.4055 163.929 57.3058 162.599 59.0692L164.807 60.735C166.648 58.2942 167.516 54.7037 167.63 50.2008L164.865 50.1311ZM162.596 59.0723C161.369 60.7092 159.469 61.617 156.622 61.617V64.383C160.118 64.383 162.939 63.2255 164.809 60.7319L162.596 59.0723ZM156.622 61.617H154.132V64.383H156.622V61.617ZM155.515 63V58.2979H152.749V63H155.515ZM154.132 59.6809H155.46V56.9149H154.132V59.6809ZM155.46 59.6809C157.74 59.6809 159.648 58.9051 160.82 57.1212L158.509 55.6022C157.984 56.3998 157.089 56.9149 155.46 56.9149V59.6809ZM160.805 57.1438C161.927 55.5069 162.41 53.0056 162.485 49.9231L159.72 49.8556C159.648 52.8214 159.172 54.6349 158.524 55.5796L160.805 57.1438ZM162.485 49.9215L162.817 35.6492L160.052 35.5849L159.72 49.8572L162.485 49.9215ZM161.435 37H188.541V34.234H161.435V37ZM187.158 35.617V63H189.924V35.617H187.158ZM227.758 51.0511V52.434H229.141V51.0511H227.758ZM201.37 51.0511V49.6681H199.877L199.991 51.1571L201.37 51.0511ZM204.468 56.7489L203.642 57.8579L203.649 57.8632L203.656 57.8683L204.468 56.7489ZM219.072 57.3574L219.721 58.5791L219.73 58.5743L219.072 57.3574ZM222.06 53.4298V52.0468H220.797L220.682 53.3046L222.06 53.4298ZM227.758 53.4298L229.135 53.5564L229.274 52.0468H227.758V53.4298ZM223.111 60.9532L222.361 59.7908L222.354 59.7954L223.111 60.9532ZM203.417 62.0043L202.829 63.256L202.837 63.2597L202.845 63.2633L203.417 62.0043ZM197.775 57.1915L196.602 57.9245L196.606 57.9319L196.611 57.9393L197.775 57.1915ZM197.775 41.4808L196.605 40.7423L196.602 40.7479L197.775 41.4808ZM203.417 36.6681L203.989 37.9271L203.997 37.9235L204.005 37.9199L203.417 36.6681ZM223.553 38.6043L222.646 39.6485L222.654 39.6553L223.553 38.6043ZM204.8 41.6468L205.556 42.8047L205.562 42.8011L204.8 41.6468ZM201.481 46.6255L200.122 46.3678L199.811 48.0085H201.481V46.6255ZM222.115 46.6255V48.0085H223.729L223.482 46.4135L222.115 46.6255ZM218.962 41.6468L218.178 42.7864L218.186 42.792L218.195 42.7975L218.962 41.6468ZM227.758 49.6681H201.37V52.434H227.758V49.6681ZM199.991 51.1571C200.206 53.9413 201.431 56.211 203.642 57.8579L205.294 55.6399C203.743 54.4841 202.904 52.9551 202.749 50.945L199.991 51.1571ZM203.656 57.8683C205.843 59.455 208.665 60.1787 211.992 60.1787V57.4128C209.048 57.4128 206.855 56.772 205.28 55.6295L203.656 57.8683ZM211.992 60.1787C215.041 60.1787 217.647 59.6793 219.721 58.5791L218.424 56.1358C216.883 56.9534 214.769 57.4128 211.992 57.4128V60.1787ZM219.73 58.5743C221.85 57.4292 223.236 55.7702 223.437 53.555L220.682 53.3046C220.589 54.3348 219.983 55.2942 218.415 56.1406L219.73 58.5743ZM222.06 54.8128H227.758V52.0468H222.06V54.8128ZM226.38 53.3032C226.126 56.0713 224.821 58.2048 222.361 59.7909L223.86 62.1155C227.006 60.0874 228.799 57.2053 229.135 53.5564L226.38 53.3032ZM222.354 59.7954C219.887 61.4072 216.474 62.2808 211.992 62.2808V65.0468C216.802 65.0468 220.802 64.1134 223.867 62.111L222.354 59.7954ZM211.992 62.2808C208.863 62.2808 206.208 61.7535 203.989 60.7452L202.845 63.2633C205.495 64.4677 208.556 65.0468 211.992 65.0468V62.2808ZM204.005 60.7525C201.783 59.7088 200.112 58.2695 198.938 56.4436L196.611 57.9393C198.093 60.244 200.183 62.0131 202.829 63.256L204.005 60.7525ZM198.947 56.4585C197.812 54.6418 197.221 52.4875 197.221 49.9447H194.455C194.455 52.9338 195.156 55.6107 196.602 57.9245L198.947 56.4585ZM197.221 49.9447V48.783H194.455V49.9447H197.221ZM197.221 48.783C197.221 46.1994 197.814 44.0277 198.947 42.2138L196.602 40.7479C195.154 43.0645 194.455 45.7609 194.455 48.783H197.221ZM198.944 42.2193C200.117 40.3626 201.781 38.9307 203.989 37.9271L202.845 35.4091C200.185 36.6182 198.088 38.3949 196.605 40.7423L198.944 42.2193ZM204.005 37.9199C206.219 36.8799 208.869 36.3362 211.992 36.3362V33.5702C208.55 33.5702 205.483 34.1697 202.829 35.4163L204.005 37.9199ZM211.992 36.3362C216.672 36.3362 220.167 37.4949 222.646 39.6484L224.46 37.5601C221.334 34.8455 217.121 33.5702 211.992 33.5702V36.3362ZM222.654 39.6553C225.102 41.7488 226.375 44.6574 226.375 48.5617H229.141C229.141 43.9838 227.61 40.254 224.452 37.5532L222.654 39.6553ZM226.375 48.5617V51.0511H229.141V48.5617H226.375ZM211.992 38.4383C208.859 38.4383 206.173 39.0839 204.038 40.4926L205.562 42.8011C207.116 41.7756 209.223 41.2043 211.992 41.2043V38.4383ZM204.044 40.4889C201.919 41.8767 200.597 43.8629 200.122 46.3678L202.84 46.8832C203.176 45.1101 204.067 43.7772 205.556 42.8047L204.044 40.4889ZM201.481 48.0085H222.115V45.2425H201.481V48.0085ZM223.482 46.4135C223.091 43.899 221.828 41.8955 219.729 40.4961L218.195 42.7975C219.636 43.7584 220.475 45.0741 220.748 46.8376L223.482 46.4135ZM219.745 40.5072C217.678 39.086 215.055 38.4383 211.992 38.4383V41.2043C214.682 41.2043 216.705 41.7736 218.178 42.7864L219.745 40.5072ZM240.143 35.617H241.526V34.234H240.143V35.617ZM240.143 56.5277H238.76V59.9644L241.141 57.4856L240.143 56.5277ZM260.224 35.617V34.234H259.635L259.227 34.6591L260.224 35.617ZM265.092 35.617H266.475V34.234H265.092V35.617ZM265.092 63V64.383H266.475V63H265.092ZM260.003 63H258.62V64.383H260.003V63ZM260.003 42.0894H261.386V38.6526L259.005 41.1314L260.003 42.0894ZM239.922 63V64.383H240.511L240.92 63.9579L239.922 63ZM235.054 63H233.671V64.383H235.054V63ZM235.054 35.617V34.234H233.671V35.617H235.054ZM241.36 29.8638L242.113 28.7033V28.7033L241.36 29.8638ZM238.373 23.834V22.4511H236.99V23.834H238.373ZM243.241 23.834H244.624V22.4511H243.241V23.834ZM245.011 26.5447L244.424 27.7969L244.441 27.8045L244.457 27.8117L245.011 26.5447ZM254.969 26.5447L255.554 27.7979L255.563 27.7938L255.571 27.7896L254.969 26.5447ZM256.684 23.834V22.4511H255.301V23.834H256.684ZM261.828 23.834H263.211V22.4511H261.828V23.834ZM258.841 29.9191L259.588 31.0832L259.593 31.0797L258.841 29.9191ZM238.76 35.617V56.5277H241.526V35.617H238.76ZM241.141 57.4856L261.222 36.5749L259.227 34.6591L239.146 55.5697L241.141 57.4856ZM260.224 37H265.092V34.234H260.224V37ZM263.709 35.617V63H266.475V35.617H263.709ZM265.092 61.617H260.003V64.383H265.092V61.617ZM261.386 63V42.0894H258.62V63H261.386ZM259.005 41.1314L238.925 62.0421L240.92 63.9579L261 43.0473L259.005 41.1314ZM239.922 61.617H235.054V64.383H239.922V61.617ZM236.437 63V35.617H233.671V63H236.437ZM235.054 37H240.143V34.234H235.054V37ZM250.101 30.417C246.383 30.417 243.781 29.7848 242.113 28.7033L240.608 31.0244C242.923 32.5244 246.148 33.183 250.101 33.183V30.417ZM242.113 28.7033C240.534 27.6799 239.756 26.2467 239.756 24.2213H236.99C236.99 27.1377 238.204 29.4662 240.608 31.0244L242.113 28.7033ZM239.756 24.2213V23.834H236.99V24.2213H239.756ZM238.373 25.217H243.241V22.4511H238.373V25.217ZM241.858 23.834V24.2213H244.624V23.834H241.858ZM241.858 24.2213C241.858 25.9263 242.937 27.0999 244.424 27.7969L245.598 25.2924C244.725 24.8831 244.624 24.5077 244.624 24.2213H241.858ZM244.457 27.8117C245.895 28.4406 247.815 28.7021 250.101 28.7021V25.9362C247.961 25.9362 246.488 25.6813 245.566 25.2776L244.457 27.8117ZM250.101 28.7021C252.312 28.7021 254.175 28.4414 255.554 27.7979L254.384 25.2914C253.55 25.6806 252.168 25.9362 250.101 25.9362V28.7021ZM255.571 27.7896C257.035 27.0815 258.067 25.9021 258.067 24.2213H255.301C255.301 24.5319 255.19 24.9015 254.367 25.2998L255.571 27.7896ZM258.067 24.2213V23.834H255.301V24.2213H258.067ZM256.684 25.217H261.828V22.4511H256.684V25.217ZM260.446 23.834V24.2213H263.211V23.834H260.446ZM260.446 24.2213C260.446 26.2922 259.661 27.7397 258.089 28.7586L259.593 31.0797C262.004 29.5171 263.211 27.1659 263.211 24.2213H260.446ZM258.095 28.7551C256.466 29.7996 253.867 30.417 250.101 30.417V33.183C254.08 33.183 257.307 32.5465 259.588 31.0832L258.095 28.7551Z" fill="black" mask="url(#path-2-outside-1_1_1144)"/>
<path d="M349.5 0.5H329C304.423 0.5 284.5 20.4233 284.5 45C284.5 69.5767 304.423 89.5 329 89.5H349.5V0.5Z" fill="#D4FF73" stroke="black"/>
<mask id="path-5-outside-2_1_1144" maskUnits="userSpaceOnUse" x="300" y="24" width="45" height="40" fill="black">
<rect fill="white" x="300" y="24" width="45" height="40"/>
<path d="M343.102 53.7574H333.366V62H327.889V53.7574H301.447V48.7787C304.249 44.4269 306.536 40.444 308.306 36.8298C310.076 33.1787 311.552 29.4723 312.732 25.7106H318.54V26.5404C316.18 33.695 312.603 41.1078 307.808 48.7787H327.889V32.1277H333.366V48.7787H343.102V53.7574Z"/>
</mask>
<path d="M343.102 53.7574H333.366V62H327.889V53.7574H301.447V48.7787C304.249 44.4269 306.536 40.444 308.306 36.8298C310.076 33.1787 311.552 29.4723 312.732 25.7106H318.54V26.5404C316.18 33.695 312.603 41.1078 307.808 48.7787H327.889V32.1277H333.366V48.7787H343.102V53.7574Z" fill="#FF003D"/>
<path d="M343.102 53.7574V55.1404H344.485V53.7574H343.102ZM333.366 53.7574V52.3745H331.983V53.7574H333.366ZM333.366 62V63.383H334.749V62H333.366ZM327.889 62H326.506V63.383H327.889V62ZM327.889 53.7574H329.272V52.3745H327.889V53.7574ZM301.447 53.7574H300.064V55.1404H301.447V53.7574ZM301.447 48.7787L300.284 48.0299L300.064 48.3719V48.7787H301.447ZM308.306 36.8298L309.548 37.4381L309.551 37.4331L308.306 36.8298ZM312.732 25.7106V24.3277H311.716L311.412 25.2967L312.732 25.7106ZM318.54 25.7106H319.923V24.3277H318.54V25.7106ZM318.54 26.5404L319.854 26.9737L319.923 26.7627V26.5404H318.54ZM307.808 48.7787L306.636 48.0457L305.313 50.1617H307.808V48.7787ZM327.889 48.7787V50.1617H329.272V48.7787H327.889ZM327.889 32.1277V30.7447H326.506V32.1277H327.889ZM333.366 32.1277H334.749V30.7447H333.366V32.1277ZM333.366 48.7787H331.983V50.1617H333.366V48.7787ZM343.102 48.7787H344.485V47.3957H343.102V48.7787ZM343.102 52.3745H333.366V55.1404H343.102V52.3745ZM331.983 53.7574V62H334.749V53.7574H331.983ZM333.366 60.617H327.889V63.383H333.366V60.617ZM329.272 62V53.7574H326.506V62H329.272ZM327.889 52.3745H301.447V55.1404H327.889V52.3745ZM302.83 53.7574V48.7787H300.064V53.7574H302.83ZM302.609 49.5276C305.434 45.1426 307.749 41.112 309.548 37.4381L307.064 36.2215C305.323 39.7759 303.065 43.7113 300.284 48.0299L302.609 49.5276ZM309.551 37.4331C311.35 33.7227 312.85 29.9531 314.051 26.1246L311.412 25.2967C310.253 28.9916 308.803 32.6348 307.062 36.2264L309.551 37.4331ZM312.732 27.0936H318.54V24.3277H312.732V27.0936ZM317.157 25.7106V26.5404H319.923V25.7106H317.157ZM317.227 26.1071C314.907 33.1381 311.382 40.4506 306.636 48.0457L308.981 49.5117C313.823 41.765 317.452 34.252 319.854 26.9737L317.227 26.1071ZM307.808 50.1617H327.889V47.3957H307.808V50.1617ZM329.272 48.7787V32.1277H326.506V48.7787H329.272ZM327.889 33.5106H333.366V30.7447H327.889V33.5106ZM331.983 32.1277V48.7787H334.749V32.1277H331.983ZM333.366 50.1617H343.102V47.3957H333.366V50.1617ZM341.719 48.7787V53.7574H344.485V48.7787H341.719Z" fill="black" mask="url(#path-5-outside-2_1_1144)"/>
</svg>
