<svg width="409" height="89" viewBox="0 0 409 89" fill="none" xmlns="http://www.w3.org/2000/svg">
<path d="M364.5 88.5H0.5V0.5H364.5C388.801 0.5 408.5 20.1995 408.5 44.5C408.5 68.8005 388.801 88.5 364.5 88.5Z" fill="#FF003D" stroke="black"/>
<mask id="path-2-outside-1_115_5" maskUnits="userSpaceOnUse" x="48" y="30" width="319" height="30" fill="black">
<rect fill="white" x="48" y="30" width="319" height="30"/>
<path d="M75.303 31.1859C78.3002 31.1859 80.9227 31.7345 83.1706 32.8317C85.4453 33.9288 87.1847 35.4943 88.3889 37.5281C89.6199 39.5352 90.2354 41.8901 90.2354 44.5929V45.1148C90.2354 47.8176 89.6199 50.1725 88.3889 52.1796C87.1847 54.1866 85.4453 55.7387 83.1706 56.8359C80.9227 57.9331 78.3002 58.4817 75.303 58.4817C72.4931 58.4817 70.0044 58 67.8368 57.0366C65.6692 56.0732 63.9431 54.7084 62.6586 52.9422C61.3741 51.1493 60.6248 49.0486 60.4107 46.6401H53.9079V58H49.8938V31.6676H53.9079V43.0274H60.4107C60.6516 40.619 61.4143 38.5317 62.6988 36.7655C63.9833 34.9725 65.696 33.5943 67.8368 32.631C70.0044 31.6676 72.4931 31.1859 75.303 31.1859ZM86.1812 44.5528C86.1812 41.5289 85.2178 39.1739 83.291 37.488C81.391 35.7753 78.7284 34.919 75.303 34.919C71.8777 34.919 69.2016 35.7753 67.2748 37.488C65.3481 39.1739 64.3847 41.5289 64.3847 44.5528V45.1951C64.3847 48.1922 65.3481 50.5338 67.2748 52.2197C69.2016 53.9056 71.8777 54.7486 75.303 54.7486C78.7284 54.7486 81.391 53.9056 83.291 52.2197C85.2178 50.5338 86.1812 48.1922 86.1812 45.1951V44.5528ZM120.44 58H116.426V35.2401L102.376 35.2803L102.176 47.4831C102.122 51.1225 101.426 53.7852 100.088 55.4711C98.7772 57.157 96.7434 58 93.987 58H92.261V54.4275H93.2645C94.5222 54.4275 95.5124 54.2 96.2349 53.7451C96.9842 53.2634 97.5194 52.5007 97.8405 51.457C98.1884 50.4134 98.3758 48.9951 98.4025 47.2021L98.6835 31.6676H120.44V58ZM154.076 31.6676V32.2697L142.555 52.9422C141.485 54.869 140.361 56.1937 139.183 56.9162C138.033 57.6387 136.467 58 134.487 58H129.79V54.4275H134.487C135.531 54.4275 136.32 54.2937 136.855 54.0261C137.417 53.7584 137.926 53.2634 138.381 52.5408L125.857 32.2697V31.6676H130.031L140.548 48.8077L149.941 31.6676H154.076ZM161.473 31.6676V43.0274H178.934V31.6676H182.948V58H178.934V46.6401H161.473V58H157.459V31.6676H161.473ZM220.068 31.1859C223.118 31.1859 225.781 31.7345 228.056 32.8317C230.357 33.9288 232.123 35.481 233.354 37.488C234.612 39.4951 235.241 41.8366 235.241 44.5127V45.1951C235.241 47.8711 234.612 50.2127 233.354 52.2197C232.123 54.2 230.357 55.7387 228.056 56.8359C225.781 57.9331 223.118 58.4817 220.068 58.4817C217.285 58.4817 214.769 58.0134 212.521 57.0768C210.273 56.1134 208.507 54.8155 207.223 53.1831C205.938 51.5239 205.296 49.6775 205.296 47.6437V47.3225H209.35V47.6437C209.35 49.0084 209.805 50.2394 210.715 51.3366C211.625 52.407 212.896 53.25 214.528 53.8655C216.161 54.4542 218.007 54.7486 220.068 54.7486C223.332 54.7486 225.915 54.0528 227.815 52.6613C229.715 51.2697 230.812 49.2627 231.106 46.6401H215.732V43.0274H231.106C230.812 40.4317 229.701 38.438 227.775 37.0465C225.875 35.6281 223.306 34.919 220.068 34.919C218.034 34.919 216.201 35.2267 214.568 35.8422C212.936 36.4577 211.651 37.3141 210.715 38.4112C209.805 39.4817 209.35 40.6993 209.35 42.0641V42.3451H205.296V42.0641C205.296 40.0303 205.938 38.1838 207.223 36.5246C208.507 34.8655 210.273 33.5676 212.521 32.631C214.769 31.6676 217.285 31.1859 220.068 31.1859ZM265.441 58H261.427V35.2401L247.378 35.2803L247.177 47.4831C247.123 51.1225 246.428 53.7852 245.09 55.4711C243.778 57.157 241.744 58 238.988 58H237.262V54.4275H238.266C239.523 54.4275 240.513 54.2 241.236 53.7451C241.985 53.2634 242.521 52.5007 242.842 51.457C243.19 50.4134 243.377 48.9951 243.404 47.2021L243.685 31.6676H265.441V58ZM276.839 31.6676V52.5408L294.3 31.6676H298.314V58H294.3V37.1267L276.839 58H272.825V31.6676H276.839ZM309.728 31.6676V43.0274H327.189V31.6676H331.203V58H327.189V46.6401H309.728V58H305.714V31.6676H309.728ZM365.015 57.3979V58H360.921L357.79 51.3366H342.938L339.807 58H335.712V57.3979L348.156 31.6676H352.571L365.015 57.3979ZM356.064 47.7239L350.364 35.6415L344.664 47.7239H356.064Z"/>
</mask>
<path d="M75.303 31.1859C78.3002 31.1859 80.9227 31.7345 83.1706 32.8317C85.4453 33.9288 87.1847 35.4943 88.3889 37.5281C89.6199 39.5352 90.2354 41.8901 90.2354 44.5929V45.1148C90.2354 47.8176 89.6199 50.1725 88.3889 52.1796C87.1847 54.1866 85.4453 55.7387 83.1706 56.8359C80.9227 57.9331 78.3002 58.4817 75.303 58.4817C72.4931 58.4817 70.0044 58 67.8368 57.0366C65.6692 56.0732 63.9431 54.7084 62.6586 52.9422C61.3741 51.1493 60.6248 49.0486 60.4107 46.6401H53.9079V58H49.8938V31.6676H53.9079V43.0274H60.4107C60.6516 40.619 61.4143 38.5317 62.6988 36.7655C63.9833 34.9725 65.696 33.5943 67.8368 32.631C70.0044 31.6676 72.4931 31.1859 75.303 31.1859ZM86.1812 44.5528C86.1812 41.5289 85.2178 39.1739 83.291 37.488C81.391 35.7753 78.7284 34.919 75.303 34.919C71.8777 34.919 69.2016 35.7753 67.2748 37.488C65.3481 39.1739 64.3847 41.5289 64.3847 44.5528V45.1951C64.3847 48.1922 65.3481 50.5338 67.2748 52.2197C69.2016 53.9056 71.8777 54.7486 75.303 54.7486C78.7284 54.7486 81.391 53.9056 83.291 52.2197C85.2178 50.5338 86.1812 48.1922 86.1812 45.1951V44.5528ZM120.44 58H116.426V35.2401L102.376 35.2803L102.176 47.4831C102.122 51.1225 101.426 53.7852 100.088 55.4711C98.7772 57.157 96.7434 58 93.987 58H92.261V54.4275H93.2645C94.5222 54.4275 95.5124 54.2 96.2349 53.7451C96.9842 53.2634 97.5194 52.5007 97.8405 51.457C98.1884 50.4134 98.3758 48.9951 98.4025 47.2021L98.6835 31.6676H120.44V58ZM154.076 31.6676V32.2697L142.555 52.9422C141.485 54.869 140.361 56.1937 139.183 56.9162C138.033 57.6387 136.467 58 134.487 58H129.79V54.4275H134.487C135.531 54.4275 136.32 54.2937 136.855 54.0261C137.417 53.7584 137.926 53.2634 138.381 52.5408L125.857 32.2697V31.6676H130.031L140.548 48.8077L149.941 31.6676H154.076ZM161.473 31.6676V43.0274H178.934V31.6676H182.948V58H178.934V46.6401H161.473V58H157.459V31.6676H161.473ZM220.068 31.1859C223.118 31.1859 225.781 31.7345 228.056 32.8317C230.357 33.9288 232.123 35.481 233.354 37.488C234.612 39.4951 235.241 41.8366 235.241 44.5127V45.1951C235.241 47.8711 234.612 50.2127 233.354 52.2197C232.123 54.2 230.357 55.7387 228.056 56.8359C225.781 57.9331 223.118 58.4817 220.068 58.4817C217.285 58.4817 214.769 58.0134 212.521 57.0768C210.273 56.1134 208.507 54.8155 207.223 53.1831C205.938 51.5239 205.296 49.6775 205.296 47.6437V47.3225H209.35V47.6437C209.35 49.0084 209.805 50.2394 210.715 51.3366C211.625 52.407 212.896 53.25 214.528 53.8655C216.161 54.4542 218.007 54.7486 220.068 54.7486C223.332 54.7486 225.915 54.0528 227.815 52.6613C229.715 51.2697 230.812 49.2627 231.106 46.6401H215.732V43.0274H231.106C230.812 40.4317 229.701 38.438 227.775 37.0465C225.875 35.6281 223.306 34.919 220.068 34.919C218.034 34.919 216.201 35.2267 214.568 35.8422C212.936 36.4577 211.651 37.3141 210.715 38.4112C209.805 39.4817 209.35 40.6993 209.35 42.0641V42.3451H205.296V42.0641C205.296 40.0303 205.938 38.1838 207.223 36.5246C208.507 34.8655 210.273 33.5676 212.521 32.631C214.769 31.6676 217.285 31.1859 220.068 31.1859ZM265.441 58H261.427V35.2401L247.378 35.2803L247.177 47.4831C247.123 51.1225 246.428 53.7852 245.09 55.4711C243.778 57.157 241.744 58 238.988 58H237.262V54.4275H238.266C239.523 54.4275 240.513 54.2 241.236 53.7451C241.985 53.2634 242.521 52.5007 242.842 51.457C243.19 50.4134 243.377 48.9951 243.404 47.2021L243.685 31.6676H265.441V58ZM276.839 31.6676V52.5408L294.3 31.6676H298.314V58H294.3V37.1267L276.839 58H272.825V31.6676H276.839ZM309.728 31.6676V43.0274H327.189V31.6676H331.203V58H327.189V46.6401H309.728V58H305.714V31.6676H309.728ZM365.015 57.3979V58H360.921L357.79 51.3366H342.938L339.807 58H335.712V57.3979L348.156 31.6676H352.571L365.015 57.3979ZM356.064 47.7239L350.364 35.6415L344.664 47.7239H356.064Z" fill="#D4FF73"/>
<path d="M83.1706 32.8317L82.7304 33.7335L82.7346 33.7355L83.1706 32.8317ZM88.3889 37.5281L87.5254 38.0394L87.5294 38.0462L87.5335 38.0528L88.3889 37.5281ZM88.3889 52.1796L87.5335 51.6549L87.5284 51.6633L88.3889 52.1796ZM83.1706 56.8359L82.7346 55.932L82.7304 55.9341L83.1706 56.8359ZM67.8368 57.0366L68.2444 56.1196L67.8368 57.0366ZM62.6586 52.9422L61.8428 53.5267L61.847 53.5325L62.6586 52.9422ZM60.4107 46.6401L61.4103 46.5513L61.329 45.6366H60.4107V46.6401ZM53.9079 46.6401V45.6366H52.9044V46.6401H53.9079ZM53.9079 58V59.0035H54.9114V58H53.9079ZM49.8938 58H48.8903V59.0035H49.8938V58ZM49.8938 31.6676V30.6641H48.8903V31.6676H49.8938ZM53.9079 31.6676H54.9114V30.6641H53.9079V31.6676ZM53.9079 43.0274H52.9044V44.031H53.9079V43.0274ZM60.4107 43.0274V44.031H61.3189L61.4093 43.1273L60.4107 43.0274ZM62.6988 36.7655L63.5104 37.3557L63.5145 37.3499L62.6988 36.7655ZM67.8368 32.631L67.4292 31.7139L67.425 31.7158L67.8368 32.631ZM83.291 37.488L82.6191 38.2334L82.6246 38.2384L82.6302 38.2432L83.291 37.488ZM67.2748 37.488L67.9357 38.2433L67.9415 38.238L67.2748 37.488ZM67.2748 52.2197L67.9357 51.4645H67.9357L67.2748 52.2197ZM83.291 52.2197L82.6302 51.4645L82.625 51.4691L83.291 52.2197ZM75.303 32.1894C78.1775 32.1894 80.6442 32.7152 82.7304 33.7335L83.6108 31.9298C81.2013 30.7538 78.4229 30.1824 75.303 30.1824V32.1894ZM82.7346 33.7355C84.844 34.753 86.4289 36.1876 87.5254 38.0394L89.2524 37.0169C87.9405 34.8011 86.0465 33.1047 83.6066 31.9278L82.7346 33.7355ZM87.5335 38.0528C88.654 39.8797 89.2319 42.0474 89.2319 44.5929H91.2389C91.2389 41.7329 90.5858 39.1906 89.2444 37.0035L87.5335 38.0528ZM89.2319 44.5929V45.1148H91.2389V44.5929H89.2319ZM89.2319 45.1148C89.2319 47.6603 88.654 49.828 87.5335 51.6549L89.2444 52.7042C90.5858 50.5171 91.2389 47.9748 91.2389 45.1148H89.2319ZM87.5284 51.6633C86.4329 53.4892 84.8476 54.9129 82.7346 55.932L83.6066 57.7398C86.043 56.5646 87.9365 54.8841 89.2495 52.6959L87.5284 51.6633ZM82.7304 55.9341C80.6442 56.9524 78.1775 57.4782 75.303 57.4782V59.4852C78.4229 59.4852 81.2013 58.9138 83.6108 57.7377L82.7304 55.9341ZM75.303 57.4782C72.608 57.4782 70.2622 57.0164 68.2444 56.1196L67.4292 57.9536C69.7466 58.9836 72.3783 59.4852 75.303 59.4852V57.4782ZM68.2444 56.1196C66.2235 55.2214 64.6422 53.9635 63.4702 52.352L61.847 53.5325C63.244 55.4533 65.1149 56.9251 67.4292 57.9536L68.2444 56.1196ZM63.4744 52.3578C62.3042 50.7245 61.6101 48.7988 61.4103 46.5513L59.4112 46.729C59.6395 49.2984 60.444 51.5741 61.8429 53.5267L63.4744 52.3578ZM60.4107 45.6366H53.9079V47.6437H60.4107V45.6366ZM52.9044 46.6401V58H54.9114V46.6401H52.9044ZM53.9079 56.9965H49.8938V59.0035H53.9079V56.9965ZM50.8974 58V31.6676H48.8903V58H50.8974ZM49.8938 32.6711H53.9079V30.6641H49.8938V32.6711ZM52.9044 31.6676V43.0274H54.9114V31.6676H52.9044ZM53.9079 44.031H60.4107V42.0239H53.9079V44.031ZM61.4093 43.1273C61.6344 40.8763 62.3416 38.9627 63.5104 37.3557L61.8872 36.1752C60.4869 38.1006 59.6688 40.3617 59.4122 42.9276L61.4093 43.1273ZM63.5145 37.3499C64.6893 35.7102 66.2585 34.4417 68.2486 33.5461L67.425 31.7158C65.1335 32.747 63.2773 34.2348 61.883 36.181L63.5145 37.3499ZM68.2444 33.548C70.2622 32.6512 72.608 32.1894 75.303 32.1894V30.1824C72.3783 30.1824 69.7466 30.684 67.4292 31.7139L68.2444 33.548ZM87.1847 44.5528C87.1847 41.2971 86.1363 38.6442 83.9519 36.7328L82.6302 38.2432C84.2993 39.7037 85.1777 41.7606 85.1777 44.5528H87.1847ZM83.9629 36.7426C81.8237 34.8143 78.8911 33.9155 75.303 33.9155V35.9225C78.5657 35.9225 80.9584 36.7364 82.6191 38.2334L83.9629 36.7426ZM75.303 33.9155C71.714 33.9155 68.7719 34.8146 66.6081 36.738L67.9415 38.238C69.6313 36.736 72.0413 35.9225 75.303 35.9225V33.9155ZM66.614 36.7328C64.4296 38.6442 63.3812 41.2971 63.3812 44.5528H65.3882C65.3882 41.7606 66.2666 39.7037 67.9357 38.2432L66.614 36.7328ZM63.3812 44.5528V45.1951H65.3882V44.5528H63.3812ZM63.3812 45.1951C63.3812 48.4272 64.4316 51.0653 66.614 52.9749L67.9357 51.4645C66.2646 50.0023 65.3882 47.9573 65.3882 45.1951H63.3812ZM66.614 52.9749C68.7778 54.8683 71.7177 55.7521 75.303 55.7521V53.7451C72.0376 53.7451 69.6254 52.943 67.9357 51.4645L66.614 52.9749ZM75.303 55.7521C78.8874 55.7521 81.8177 54.8687 83.9571 52.9703L82.625 51.4691C80.9644 52.9426 78.5694 53.7451 75.303 53.7451V55.7521ZM83.9519 52.9749C86.1343 51.0653 87.1847 48.4272 87.1847 45.1951H85.1777C85.1777 47.9573 84.3013 50.0023 82.6302 51.4645L83.9519 52.9749ZM87.1847 45.1951V44.5528H85.1777V45.1951H87.1847ZM120.44 58V59.0035H121.443V58H120.44ZM116.426 58H115.422V59.0035H116.426V58ZM116.426 35.2401H117.429V34.2337L116.423 34.2366L116.426 35.2401ZM102.376 35.2803L102.374 34.2767L101.389 34.2796L101.373 35.2638L102.376 35.2803ZM102.176 47.4831L101.172 47.4666L101.172 47.4683L102.176 47.4831ZM100.088 55.4711L99.3023 54.8472L99.2963 54.855L100.088 55.4711ZM92.261 58H91.2574V59.0035H92.261V58ZM92.261 54.4275V53.4239H91.2574V54.4275H92.261ZM96.2349 53.7451L96.7696 54.5943L96.7776 54.5892L96.2349 53.7451ZM97.8405 51.457L96.8885 51.1397L96.8848 51.1508L96.8814 51.1619L97.8405 51.457ZM98.4025 47.2021L97.3992 47.184L97.3991 47.1871L98.4025 47.2021ZM98.6835 31.6676V30.6641H97.698L97.6801 31.6494L98.6835 31.6676ZM120.44 31.6676H121.443V30.6641H120.44V31.6676ZM120.44 56.9965H116.426V59.0035H120.44V56.9965ZM117.429 58V35.2401H115.422V58H117.429ZM116.423 34.2366L102.374 34.2767L102.379 36.2838L116.429 36.2436L116.423 34.2366ZM101.373 35.2638L101.172 47.4666L103.179 47.4996L103.38 35.2968L101.373 35.2638ZM101.172 47.4683C101.12 51.0252 100.436 53.4189 99.3024 54.8473L100.874 56.095C102.417 54.1515 103.124 51.2199 103.179 47.4978L101.172 47.4683ZM99.2963 54.855C98.2282 56.2283 96.5317 56.9965 93.987 56.9965V59.0035C96.955 59.0035 99.3261 58.0858 100.881 56.0872L99.2963 54.855ZM93.987 56.9965H92.261V59.0035H93.987V56.9965ZM93.2645 58V54.4275H91.2574V58H93.2645ZM92.261 55.431H93.2645V53.4239H92.261V55.431ZM93.2645 55.431C94.6273 55.431 95.8282 55.187 96.7696 54.5943L95.7002 52.8959C95.1966 53.213 94.4171 53.4239 93.2645 53.4239V55.431ZM96.7776 54.5892C97.7683 53.9523 98.4252 52.9692 98.7997 51.7522L96.8814 51.1619C96.6136 52.0322 96.2001 52.5745 95.6922 52.9009L96.7776 54.5892ZM98.7926 51.7744C99.1869 50.5913 99.3785 49.0568 99.4059 47.2171L97.3991 47.1871C97.373 48.9334 97.1899 50.2354 96.8885 51.1397L98.7926 51.7744ZM99.4059 47.2202L99.6869 31.6857L97.6801 31.6494L97.3992 47.184L99.4059 47.2202ZM98.6835 32.6711H120.44V30.6641H98.6835V32.6711ZM119.436 31.6676V58H121.443V31.6676H119.436ZM154.076 31.6676H155.079V30.6641H154.076V31.6676ZM154.076 32.2697L154.952 32.7582L155.079 32.5304V32.2697H154.076ZM142.555 52.9422L141.679 52.4537L141.678 52.4549L142.555 52.9422ZM139.183 56.9162L138.659 56.0608L138.65 56.0663L139.183 56.9162ZM129.79 58H128.787V59.0035H129.79V58ZM129.79 54.4275V53.4239H128.787V54.4275H129.79ZM136.855 54.0261L136.424 53.12L136.415 53.1242L136.407 53.1285L136.855 54.0261ZM138.381 52.5408L139.23 53.0755L139.563 52.5459L139.234 52.0134L138.381 52.5408ZM125.857 32.2697H124.853V32.5547L125.003 32.7971L125.857 32.2697ZM125.857 31.6676V30.6641H124.853V31.6676H125.857ZM130.031 31.6676L130.887 31.1428L130.593 30.6641H130.031V31.6676ZM140.548 48.8077L139.693 49.3326L140.597 50.8065L141.428 49.29L140.548 48.8077ZM149.941 31.6676V30.6641H149.347L149.061 31.1853L149.941 31.6676ZM153.072 31.6676V32.2697H155.079V31.6676H153.072ZM153.199 31.7812L141.679 52.4537L143.432 53.4308L154.952 32.7582L153.199 31.7812ZM141.678 52.4549C140.646 54.3117 139.626 55.4671 138.659 56.0609L139.708 57.7715C141.096 56.9202 142.323 55.4263 143.433 53.4296L141.678 52.4549ZM138.65 56.0663C137.716 56.6525 136.36 56.9965 134.487 56.9965V59.0035C136.575 59.0035 138.349 58.6249 139.717 57.7661L138.65 56.0663ZM134.487 56.9965H129.79V59.0035H134.487V56.9965ZM130.794 58V54.4275H128.787V58H130.794ZM129.79 55.431H134.487V53.4239H129.79V55.431ZM134.487 55.431C135.587 55.431 136.562 55.2949 137.304 54.9236L136.407 53.1285C136.079 53.2924 135.475 53.4239 134.487 53.4239V55.431ZM137.287 54.9321C138.073 54.5577 138.71 53.9012 139.23 53.0755L137.531 52.0061C137.141 52.6256 136.762 52.9592 136.424 53.12L137.287 54.9321ZM139.234 52.0134L126.71 31.7422L125.003 32.7971L137.527 53.0683L139.234 52.0134ZM126.86 32.2697V31.6676H124.853V32.2697H126.86ZM125.857 32.6711H130.031V30.6641H125.857V32.6711ZM129.176 32.1924L139.693 49.3326L141.404 48.2829L130.887 31.1428L129.176 32.1924ZM141.428 49.29L150.821 32.1498L149.061 31.1853L139.668 48.3255L141.428 49.29ZM149.941 32.6711H154.076V30.6641H149.941V32.6711ZM161.473 31.6676H162.476V30.6641H161.473V31.6676ZM161.473 43.0274H160.469V44.031H161.473V43.0274ZM178.934 43.0274V44.031H179.938V43.0274H178.934ZM178.934 31.6676V30.6641H177.931V31.6676H178.934ZM182.948 31.6676H183.952V30.6641H182.948V31.6676ZM182.948 58V59.0035H183.952V58H182.948ZM178.934 58H177.931V59.0035H178.934V58ZM178.934 46.6401H179.938V45.6366H178.934V46.6401ZM161.473 46.6401V45.6366H160.469V46.6401H161.473ZM161.473 58V59.0035H162.476V58H161.473ZM157.459 58H156.455V59.0035H157.459V58ZM157.459 31.6676V30.6641H156.455V31.6676H157.459ZM160.469 31.6676V43.0274H162.476V31.6676H160.469ZM161.473 44.031H178.934V42.0239H161.473V44.031ZM179.938 43.0274V31.6676H177.931V43.0274H179.938ZM178.934 32.6711H182.948V30.6641H178.934V32.6711ZM181.945 31.6676V58H183.952V31.6676H181.945ZM182.948 56.9965H178.934V59.0035H182.948V56.9965ZM179.938 58V46.6401H177.931V58H179.938ZM178.934 45.6366H161.473V47.6437H178.934V45.6366ZM160.469 46.6401V58H162.476V46.6401H160.469ZM161.473 56.9965H157.459V59.0035H161.473V56.9965ZM158.462 58V31.6676H156.455V58H158.462ZM157.459 32.6711H161.473V30.6641H157.459V32.6711ZM228.056 32.8317L227.62 33.7355L227.624 33.7375L228.056 32.8317ZM233.354 37.488L232.499 38.0127L232.504 38.0209L233.354 37.488ZM233.354 52.2197L232.504 51.6868L232.502 51.6899L233.354 52.2197ZM228.056 56.8359L227.624 55.9301L227.62 55.932L228.056 56.8359ZM212.521 57.0768L212.126 57.9992L212.135 58.0031L212.521 57.0768ZM207.223 53.1831L206.429 53.7974L206.434 53.8037L207.223 53.1831ZM205.296 47.3225V46.319H204.292V47.3225H205.296ZM209.35 47.3225H210.354V46.319H209.35V47.3225ZM210.715 51.3366L209.942 51.9772L209.95 51.9865L210.715 51.3366ZM214.528 53.8655L214.174 54.8045L214.181 54.807L214.188 54.8095L214.528 53.8655ZM227.815 52.6613L227.222 51.8517L227.815 52.6613ZM231.106 46.6401L232.104 46.7521L232.229 45.6366H231.106V46.6401ZM215.732 46.6401H214.729V47.6437H215.732V46.6401ZM215.732 43.0274V42.0239H214.729V43.0274H215.732ZM231.106 43.0274V44.031H232.23L232.104 42.9144L231.106 43.0274ZM227.775 37.0465L227.174 37.8506L227.181 37.8554L227.187 37.86L227.775 37.0465ZM214.568 35.8422L214.922 36.7812V36.7812L214.568 35.8422ZM210.715 38.4112L209.952 37.7597L209.95 37.7613L210.715 38.4112ZM209.35 42.3451V43.3486H210.354V42.3451H209.35ZM205.296 42.3451H204.292V43.3486H205.296V42.3451ZM207.223 36.5246L206.429 35.9103L207.223 36.5246ZM212.521 32.631L212.907 33.5573L212.916 33.5533L212.521 32.631ZM220.068 32.1894C222.998 32.1894 225.506 32.7162 227.62 33.7355L228.492 31.9278C226.056 30.7528 223.238 30.1824 220.068 30.1824V32.1894ZM227.624 33.7375C229.765 34.7584 231.378 36.1847 232.499 38.0127L234.21 36.9633C232.869 34.7772 230.949 33.0992 228.488 31.9258L227.624 33.7375ZM232.504 38.0209C233.649 39.8482 234.237 42 234.237 44.5127H236.244C236.244 41.6732 235.575 39.1419 234.205 36.9551L232.504 38.0209ZM234.237 44.5127V45.1951H236.244V44.5127H234.237ZM234.237 45.1951C234.237 47.7078 233.649 49.8595 232.504 51.6868L234.205 52.7526C235.575 50.5658 236.244 48.0345 236.244 45.1951H234.237ZM232.502 51.6899C231.382 53.4921 229.769 54.9074 227.624 55.9301L228.488 57.7418C230.945 56.57 232.865 54.9079 234.207 52.7495L232.502 51.6899ZM227.62 55.932C225.506 56.9514 222.998 57.4782 220.068 57.4782V59.4852C223.238 59.4852 226.056 58.9148 228.492 57.7398L227.62 55.932ZM220.068 57.4782C217.398 57.4782 215.016 57.0293 212.907 56.1504L212.135 58.0031C214.522 58.9974 217.171 59.4852 220.068 59.4852V57.4782ZM212.916 56.1544C210.795 55.2454 209.175 54.0414 208.011 52.5625L206.434 53.8037C207.839 55.5896 209.751 56.9814 212.126 57.9991L212.916 56.1544ZM208.016 52.5688C206.863 51.0794 206.299 49.4476 206.299 47.6437H204.292C204.292 49.9073 205.013 51.9684 206.429 53.7974L208.016 52.5688ZM206.299 47.6437V47.3225H204.292V47.6437H206.299ZM205.296 48.326H209.35V46.319H205.296V48.326ZM208.347 47.3225V47.6437H210.354V47.3225H208.347ZM208.347 47.6437C208.347 49.2534 208.89 50.7086 209.942 51.9772L211.487 50.696C210.72 49.7702 210.354 48.7635 210.354 47.6437H208.347ZM209.95 51.9865C210.994 53.2143 212.421 54.1433 214.174 54.8045L214.882 52.9265C213.371 52.3567 212.256 51.5998 211.479 50.6867L209.95 51.9865ZM214.188 54.8095C215.948 55.4442 217.912 55.7521 220.068 55.7521V53.7451C218.102 53.7451 216.374 53.4642 214.869 52.9215L214.188 54.8095ZM220.068 55.7521C223.465 55.7521 226.281 55.0288 228.408 53.4709L227.222 51.8517C225.549 53.0768 223.2 53.7451 220.068 53.7451V55.7521ZM228.408 53.4709C230.563 51.8926 231.782 49.6162 232.104 46.7521L230.109 46.5282C229.842 48.9091 228.867 50.6468 227.222 51.8517L228.408 53.4709ZM231.106 45.6366H215.732V47.6437H231.106V45.6366ZM216.736 46.6401V43.0274H214.729V46.6401H216.736ZM215.732 44.031H231.106V42.0239H215.732V44.031ZM232.104 42.9144C231.781 40.0689 230.542 37.8074 228.362 36.2329L227.187 37.86C228.861 39.0687 229.843 40.7944 230.109 43.1405L232.104 42.9144ZM228.375 36.2423C226.248 34.6547 223.444 33.9155 220.068 33.9155V35.9225C223.167 35.9225 225.501 36.6016 227.174 37.8506L228.375 36.2423ZM220.068 33.9155C217.933 33.9155 215.977 34.2386 214.214 34.9032L214.922 36.7812C216.425 36.2148 218.135 35.9225 220.068 35.9225V33.9155ZM214.214 34.9032C212.456 35.566 211.019 36.5093 209.952 37.7597L211.478 39.0628C212.284 38.1188 213.415 37.3494 214.922 36.7812L214.214 34.9032ZM209.95 37.7613C208.891 39.0074 208.347 40.4536 208.347 42.0641H210.354C210.354 40.9449 210.719 39.956 211.479 39.0612L209.95 37.7613ZM208.347 42.0641V42.3451H210.354V42.0641H208.347ZM209.35 41.3415H205.296V43.3486H209.35V41.3415ZM206.299 42.3451V42.0641H204.292V42.3451H206.299ZM206.299 42.0641C206.299 40.2601 206.863 38.6283 208.016 37.139L206.429 35.9103C205.013 37.7393 204.292 39.8004 204.292 42.0641H206.299ZM208.016 37.139C209.178 35.6381 210.794 34.4378 212.907 33.5573L212.135 31.7046C209.753 32.6973 207.836 34.0929 206.429 35.9103L208.016 37.139ZM212.916 33.5533C215.023 32.6504 217.402 32.1894 220.068 32.1894V30.1824C217.167 30.1824 214.515 30.6848 212.126 31.7086L212.916 33.5533ZM265.441 58V59.0035H266.444V58H265.441ZM261.427 58H260.423V59.0035H261.427V58ZM261.427 35.2401H262.43V34.2337L261.424 34.2366L261.427 35.2401ZM247.378 35.2803L247.375 34.2767L246.39 34.2796L246.374 35.2638L247.378 35.2803ZM247.177 47.4831L246.173 47.4666L246.173 47.4683L247.177 47.4831ZM245.09 55.4711L244.303 54.8472L244.297 54.855L245.09 55.4711ZM237.262 58H236.259V59.0035H237.262V58ZM237.262 54.4275V53.4239H236.259V54.4275H237.262ZM241.236 53.7451L241.771 54.5943L241.779 54.5892L241.236 53.7451ZM242.842 51.457L241.89 51.1397L241.886 51.1508L241.883 51.1619L242.842 51.457ZM243.404 47.2021L242.4 47.184L242.4 47.1871L243.404 47.2021ZM243.685 31.6676V30.6641H242.699L242.681 31.6494L243.685 31.6676ZM265.441 31.6676H266.444V30.6641H265.441V31.6676ZM265.441 56.9965H261.427V59.0035H265.441V56.9965ZM262.43 58V35.2401H260.423V58H262.43ZM261.424 34.2366L247.375 34.2767L247.38 36.2838L261.43 36.2436L261.424 34.2366ZM246.374 35.2638L246.173 47.4666L248.18 47.4996L248.381 35.2968L246.374 35.2638ZM246.173 47.4683C246.121 51.0252 245.437 53.4189 244.303 54.8473L245.876 56.095C247.418 54.1515 248.126 51.2199 248.18 47.4978L246.173 47.4683ZM244.297 54.855C243.229 56.2283 241.533 56.9965 238.988 56.9965V59.0035C241.956 59.0035 244.327 58.0858 245.882 56.0872L244.297 54.855ZM238.988 56.9965H237.262V59.0035H238.988V56.9965ZM238.266 58V54.4275H236.259V58H238.266ZM237.262 55.431H238.266V53.4239H237.262V55.431ZM238.266 55.431C239.628 55.431 240.829 55.187 241.771 54.5943L240.701 52.8959C240.198 53.213 239.418 53.4239 238.266 53.4239V55.431ZM241.779 54.5892C242.769 53.9523 243.426 52.9692 243.801 51.7522L241.883 51.1619C241.615 52.0322 241.201 52.5745 240.693 52.9009L241.779 54.5892ZM243.794 51.7744C244.188 50.5913 244.38 49.0568 244.407 47.2171L242.4 47.1871C242.374 48.9334 242.191 50.2354 241.89 51.1397L243.794 51.7744ZM244.407 47.2202L244.688 31.6857L242.681 31.6494L242.4 47.184L244.407 47.2202ZM243.685 32.6711H265.441V30.6641H243.685V32.6711ZM264.437 31.6676V58H266.444V31.6676H264.437ZM276.839 31.6676H277.842V30.6641H276.839V31.6676ZM276.839 52.5408H275.835V55.3045L277.609 53.1847L276.839 52.5408ZM294.3 31.6676V30.6641H293.831L293.53 31.0237L294.3 31.6676ZM298.314 31.6676H299.318V30.6641H298.314V31.6676ZM298.314 58V59.0035H299.318V58H298.314ZM294.3 58H293.297V59.0035H294.3V58ZM294.3 37.1267H295.304V34.3631L293.53 36.4828L294.3 37.1267ZM276.839 58V59.0035H277.308L277.609 58.6439L276.839 58ZM272.825 58H271.821V59.0035H272.825V58ZM272.825 31.6676V30.6641H271.821V31.6676H272.825ZM275.835 31.6676V52.5408H277.842V31.6676H275.835ZM277.609 53.1847L295.07 32.3115L293.53 31.0237L276.069 51.8969L277.609 53.1847ZM294.3 32.6711H298.314V30.6641H294.3V32.6711ZM297.311 31.6676V58H299.318V31.6676H297.311ZM298.314 56.9965H294.3V59.0035H298.314V56.9965ZM295.304 58V37.1267H293.297V58H295.304ZM293.53 36.4828L276.069 57.3561L277.609 58.6439L295.07 37.7706L293.53 36.4828ZM276.839 56.9965H272.825V59.0035H276.839V56.9965ZM273.828 58V31.6676H271.821V58H273.828ZM272.825 32.6711H276.839V30.6641H272.825V32.6711ZM309.728 31.6676H310.731V30.6641H309.728V31.6676ZM309.728 43.0274H308.724V44.031H309.728V43.0274ZM327.189 43.0274V44.031H328.192V43.0274H327.189ZM327.189 31.6676V30.6641H326.185V31.6676H327.189ZM331.203 31.6676H332.207V30.6641H331.203V31.6676ZM331.203 58V59.0035H332.207V58H331.203ZM327.189 58H326.185V59.0035H327.189V58ZM327.189 46.6401H328.192V45.6366H327.189V46.6401ZM309.728 46.6401V45.6366H308.724V46.6401H309.728ZM309.728 58V59.0035H310.731V58H309.728ZM305.714 58H304.71V59.0035H305.714V58ZM305.714 31.6676V30.6641H304.71V31.6676H305.714ZM308.724 31.6676V43.0274H310.731V31.6676H308.724ZM309.728 44.031H327.189V42.0239H309.728V44.031ZM328.192 43.0274V31.6676H326.185V43.0274H328.192ZM327.189 32.6711H331.203V30.6641H327.189V32.6711ZM330.199 31.6676V58H332.207V31.6676H330.199ZM331.203 56.9965H327.189V59.0035H331.203V56.9965ZM328.192 58V46.6401H326.185V58H328.192ZM327.189 45.6366H309.728V47.6437H327.189V45.6366ZM308.724 46.6401V58H310.731V46.6401H308.724ZM309.728 56.9965H305.714V59.0035H309.728V56.9965ZM306.717 58V31.6676H304.71V58H306.717ZM305.714 32.6711H309.728V30.6641H305.714V32.6711ZM365.015 57.3979H366.019V57.168L365.919 56.961L365.015 57.3979ZM365.015 58V59.0035H366.019V58H365.015ZM360.921 58L360.013 58.4268L360.284 59.0035H360.921V58ZM357.79 51.3366L358.698 50.9098L358.427 50.3331H357.79V51.3366ZM342.938 51.3366V50.3331H342.3L342.029 50.9098L342.938 51.3366ZM339.807 58V59.0035H340.444L340.715 58.4268L339.807 58ZM335.712 58H334.709V59.0035H335.712V58ZM335.712 57.3979L334.809 56.961L334.709 57.168V57.3979H335.712ZM348.156 31.6676V30.6641H347.527L347.253 31.2307L348.156 31.6676ZM352.571 31.6676L353.475 31.2307L353.201 30.6641H352.571V31.6676ZM356.064 47.7239V48.7275H357.647L356.971 47.2958L356.064 47.7239ZM350.364 35.6415L351.271 35.2134L350.364 33.2895L349.456 35.2134L350.364 35.6415ZM344.664 47.7239L343.756 47.2958L343.081 48.7275H344.664V47.7239ZM364.012 57.3979V58H366.019V57.3979H364.012ZM365.015 56.9965H360.921V59.0035H365.015V56.9965ZM361.829 57.5732L358.698 50.9098L356.882 51.7634L360.013 58.4268L361.829 57.5732ZM357.79 50.3331H342.938V52.3401H357.79V50.3331ZM342.029 50.9098L338.898 57.5732L340.715 58.4268L343.846 51.7634L342.029 50.9098ZM339.807 56.9965H335.712V59.0035H339.807V56.9965ZM336.716 58V57.3979H334.709V58H336.716ZM336.616 57.8348L349.059 32.1045L347.253 31.2307L334.809 56.961L336.616 57.8348ZM348.156 32.6711H352.571V30.6641H348.156V32.6711ZM351.668 32.1045L364.112 57.8348L365.919 56.961L353.475 31.2307L351.668 32.1045ZM356.971 47.2958L351.271 35.2134L349.456 36.0697L355.156 48.1521L356.971 47.2958ZM349.456 35.2134L343.756 47.2958L345.571 48.1521L351.271 36.0697L349.456 35.2134ZM344.664 48.7275H356.064V46.7204H344.664V48.7275Z" fill="black" mask="url(#path-2-outside-1_115_5)"/>
</svg>
