<svg width="516" height="90" viewBox="0 0 516 90" fill="none" xmlns="http://www.w3.org/2000/svg">
<path d="M515.5 45C515.5 20.4233 495.577 0.5 471 0.5H119.011V89.5H471C495.577 89.5 515.5 69.5767 515.5 45Z" fill="#D2CCF4" stroke="black"/>
<mask id="path-2-outside-1_1_1139" maskUnits="userSpaceOnUse" x="242.48" y="32.1348" width="181" height="41" fill="black">
<rect fill="white" x="242.48" y="32.1348" width="181" height="41"/>
<path d="M275.447 61.3603V62.1348H269.417L257.358 50.6284H249.281V62.1348H243.971V34.7518H249.281V45.9816H257.192L268.588 34.7518H274.728V35.5263L262.06 48.1943L275.447 61.3603ZM297.604 34.088C300.886 34.088 303.763 34.6596 306.234 35.8028C308.705 36.9461 310.604 38.5688 311.932 40.6709C313.259 42.7362 313.923 45.1702 313.923 47.9731V48.8582C313.923 51.661 313.259 54.1135 311.932 56.2156C310.604 58.3177 308.705 59.9404 306.234 61.0837C303.763 62.227 300.886 62.7986 297.604 62.7986C295.575 62.7986 293.676 62.4851 291.906 61.8582C290.136 61.2312 288.587 60.3277 287.259 59.1475V71.539H281.949V34.7518H286.872L287.093 37.905C288.458 36.688 290.044 35.7475 291.851 35.0837C293.658 34.4199 295.575 34.088 297.604 34.088ZM308.446 47.9731C308.446 45.1702 307.469 42.9759 305.515 41.3901C303.597 39.7674 300.941 38.956 297.549 38.956C295.373 38.956 293.363 39.3433 291.519 40.1177C289.712 40.8922 288.292 41.9433 287.259 43.2709V53.5603C288.292 54.888 289.712 55.9575 291.519 56.7688C293.363 57.5433 295.373 57.9305 297.549 57.9305C300.941 57.9305 303.597 57.1192 305.515 55.4965C307.469 53.8738 308.446 51.661 308.446 48.8582V47.9731ZM351.681 34.7518V35.5263L336.081 65.1773C334.864 67.4638 333.444 69.0865 331.821 70.0454C330.236 71.0411 328.06 71.539 325.294 71.539H319.762V66.8369H325.294C326.843 66.8369 328.004 66.5972 328.779 66.1177C329.553 65.6752 330.291 64.7716 330.992 63.4071L331.489 62.522L317.217 35.5263V34.7518H322.86L334.477 57.322L346.038 34.7518H351.681ZM354.406 39.5092V34.7518H386.602V39.5092H373.27V62.1348H367.959V39.5092H354.406ZM397.082 34.7518V55.6624L417.163 34.7518H422.031V62.1348H416.942V41.2241L396.861 62.1348H391.993V34.7518H397.082Z"/>
</mask>
<path d="M275.447 61.3603V62.1348H269.417L257.358 50.6284H249.281V62.1348H243.971V34.7518H249.281V45.9816H257.192L268.588 34.7518H274.728V35.5263L262.06 48.1943L275.447 61.3603ZM297.604 34.088C300.886 34.088 303.763 34.6596 306.234 35.8028C308.705 36.9461 310.604 38.5688 311.932 40.6709C313.259 42.7362 313.923 45.1702 313.923 47.9731V48.8582C313.923 51.661 313.259 54.1135 311.932 56.2156C310.604 58.3177 308.705 59.9404 306.234 61.0837C303.763 62.227 300.886 62.7986 297.604 62.7986C295.575 62.7986 293.676 62.4851 291.906 61.8582C290.136 61.2312 288.587 60.3277 287.259 59.1475V71.539H281.949V34.7518H286.872L287.093 37.905C288.458 36.688 290.044 35.7475 291.851 35.0837C293.658 34.4199 295.575 34.088 297.604 34.088ZM308.446 47.9731C308.446 45.1702 307.469 42.9759 305.515 41.3901C303.597 39.7674 300.941 38.956 297.549 38.956C295.373 38.956 293.363 39.3433 291.519 40.1177C289.712 40.8922 288.292 41.9433 287.259 43.2709V53.5603C288.292 54.888 289.712 55.9575 291.519 56.7688C293.363 57.5433 295.373 57.9305 297.549 57.9305C300.941 57.9305 303.597 57.1192 305.515 55.4965C307.469 53.8738 308.446 51.661 308.446 48.8582V47.9731ZM351.681 34.7518V35.5263L336.081 65.1773C334.864 67.4638 333.444 69.0865 331.821 70.0454C330.236 71.0411 328.06 71.539 325.294 71.539H319.762V66.8369H325.294C326.843 66.8369 328.004 66.5972 328.779 66.1177C329.553 65.6752 330.291 64.7716 330.992 63.4071L331.489 62.522L317.217 35.5263V34.7518H322.86L334.477 57.322L346.038 34.7518H351.681ZM354.406 39.5092V34.7518H386.602V39.5092H373.27V62.1348H367.959V39.5092H354.406ZM397.082 34.7518V55.6624L417.163 34.7518H422.031V62.1348H416.942V41.2241L396.861 62.1348H391.993V34.7518H397.082Z" fill="#FF003D"/>
<path d="M275.447 61.3603H276.83V60.7807L276.417 60.3743L275.447 61.3603ZM275.447 62.1348V63.5177H276.83V62.1348H275.447ZM269.417 62.1348L268.463 63.1354L268.864 63.5177H269.417V62.1348ZM257.358 50.6284L258.313 49.6278L257.912 49.2454H257.358V50.6284ZM249.281 50.6284V49.2454H247.898V50.6284H249.281ZM249.281 62.1348V63.5177H250.664V62.1348H249.281ZM243.971 62.1348H242.588V63.5177H243.971V62.1348ZM243.971 34.7518V33.3688H242.588V34.7518H243.971ZM249.281 34.7518H250.664V33.3688H249.281V34.7518ZM249.281 45.9816H247.898V47.3646H249.281V45.9816ZM257.192 45.9816V47.3646H257.759L258.163 46.9666L257.192 45.9816ZM268.588 34.7518V33.3688H268.021L267.617 33.7667L268.588 34.7518ZM274.728 34.7518H276.111V33.3688H274.728V34.7518ZM274.728 35.5263L275.706 36.5042L276.111 36.0991V35.5263H274.728ZM262.06 48.1943L261.082 47.2164L260.096 48.2025L261.09 49.1804L262.06 48.1943ZM274.064 61.3603V62.1348H276.83V61.3603H274.064ZM275.447 60.7518H269.417V63.5177H275.447V60.7518ZM270.372 61.1342L258.313 49.6278L256.403 51.629L268.463 63.1354L270.372 61.1342ZM257.358 49.2454H249.281V52.0114H257.358V49.2454ZM247.898 50.6284V62.1348H250.664V50.6284H247.898ZM249.281 60.7518H243.971V63.5177H249.281V60.7518ZM245.354 62.1348V34.7518H242.588V62.1348H245.354ZM243.971 36.1348H249.281V33.3688H243.971V36.1348ZM247.898 34.7518V45.9816H250.664V34.7518H247.898ZM249.281 47.3646H257.192V44.5986H249.281V47.3646ZM258.163 46.9666L269.558 35.7368L267.617 33.7667L256.221 44.9965L258.163 46.9666ZM268.588 36.1348H274.728V33.3688H268.588V36.1348ZM273.345 34.7518V35.5263H276.111V34.7518H273.345ZM273.75 34.5483L261.082 47.2164L263.038 49.1723L275.706 36.5042L273.75 34.5483ZM261.09 49.1804L274.478 62.3463L276.417 60.3743L263.03 47.2083L261.09 49.1804ZM306.234 35.8028L305.653 37.058L305.653 37.058L306.234 35.8028ZM311.932 40.6709L310.762 41.4095L310.768 41.4188L311.932 40.6709ZM311.932 56.2156L310.762 55.4771L310.762 55.4771L311.932 56.2156ZM306.234 61.0837L306.814 62.3388L306.814 62.3388L306.234 61.0837ZM291.906 61.8582L291.444 63.1618L291.444 63.1618L291.906 61.8582ZM287.259 59.1475L288.178 58.1139L285.876 56.0679V59.1475H287.259ZM287.259 71.539V72.922H288.642V71.539H287.259ZM281.949 71.539H280.566V72.922H281.949V71.539ZM281.949 34.7518V33.3688H280.566V34.7518H281.949ZM286.872 34.7518L288.252 34.655L288.161 33.3688H286.872V34.7518ZM287.093 37.905L285.714 38.0018L285.911 40.8126L288.014 38.9371L287.093 37.905ZM291.851 35.0837L291.374 33.7855L291.374 33.7855L291.851 35.0837ZM305.515 41.3901L304.621 42.4458L304.632 42.4551L304.643 42.4641L305.515 41.3901ZM291.519 40.1177L290.983 38.8426L290.974 38.8466L291.519 40.1177ZM287.259 43.2709L286.168 42.4219L285.876 42.7964V43.2709H287.259ZM287.259 53.5603H285.876V54.0348L286.168 54.4094L287.259 53.5603ZM291.519 56.7688L290.952 58.0305L290.968 58.0374L290.983 58.0439L291.519 56.7688ZM305.515 55.4965L304.631 54.4323L304.621 54.4407L305.515 55.4965ZM297.604 35.4709C300.726 35.4709 303.398 36.0144 305.653 37.058L306.814 34.5477C304.128 33.3047 301.046 32.705 297.604 32.705V35.4709ZM305.653 37.058C307.906 38.1004 309.59 39.5539 310.762 41.4094L313.101 39.9324C311.617 37.5837 309.503 35.7918 306.814 34.5477L305.653 37.058ZM310.768 41.4188C311.933 43.2306 312.54 45.3969 312.54 47.9731H315.306C315.306 44.9436 314.585 42.2417 313.095 39.9231L310.768 41.4188ZM312.54 47.9731V48.8582H315.306V47.9731H312.54ZM312.54 48.8582C312.54 51.4338 311.933 53.6233 310.762 55.4771L313.101 56.9541C314.585 54.6037 315.306 51.8882 315.306 48.8582H312.54ZM310.762 55.4771C309.59 57.3326 307.906 58.7862 305.653 59.8286L306.814 62.3388C309.503 61.0947 311.617 59.3028 313.101 56.9541L310.762 55.4771ZM305.653 59.8286C303.398 60.8721 300.726 61.4156 297.604 61.4156V64.1816C301.046 64.1816 304.128 63.5818 306.814 62.3388L305.653 59.8286ZM297.604 61.4156C295.72 61.4156 293.978 61.1249 292.368 60.5545L291.444 63.1618C293.374 63.8453 295.431 64.1816 297.604 64.1816V61.4156ZM292.368 60.5545C290.756 59.9838 289.365 59.1687 288.178 58.1139L286.34 60.1812C287.809 61.4867 289.515 62.4787 291.444 63.1618L292.368 60.5545ZM285.876 59.1475V71.539H288.642V59.1475H285.876ZM287.259 70.156H281.949V72.922H287.259V70.156ZM283.332 71.539V34.7518H280.566V71.539H283.332ZM281.949 36.1348H286.872V33.3688H281.949V36.1348ZM285.492 34.8486L285.714 38.0018L288.473 37.8082L288.252 34.655L285.492 34.8486ZM288.014 38.9371C289.242 37.8419 290.675 36.9889 292.328 36.3819L291.374 33.7855C289.412 34.5061 287.674 35.534 286.173 36.8729L288.014 38.9371ZM292.328 36.3819C293.974 35.7771 295.729 35.4709 297.604 35.4709V32.705C295.422 32.705 293.342 33.0626 291.374 33.7855L292.328 36.3819ZM309.829 47.9731C309.829 44.8071 308.704 42.1966 306.386 40.3161L304.643 42.4641C306.235 43.7552 307.063 45.5334 307.063 47.9731H309.829ZM306.408 40.3343C304.165 38.4363 301.153 37.5731 297.549 37.5731V40.339C300.729 40.339 303.029 41.0985 304.621 42.4458L306.408 40.3343ZM297.549 37.5731C295.205 37.5731 293.011 37.9909 290.983 38.8427L292.054 41.3928C293.714 40.6956 295.54 40.339 297.549 40.339V37.5731ZM290.974 38.8466C288.988 39.6976 287.366 40.8805 286.168 42.4219L288.351 44.12C289.217 43.006 290.435 42.0869 292.064 41.3889L290.974 38.8466ZM285.876 43.2709V53.5603H288.642V43.2709H285.876ZM286.168 54.4094C287.362 55.9446 288.976 57.143 290.952 58.0305L292.085 55.5072C290.448 54.7719 289.222 53.8313 288.351 52.7112L286.168 54.4094ZM290.983 58.0439C293.011 58.8956 295.205 59.3135 297.549 59.3135V56.5475C295.54 56.5475 293.714 56.1909 292.054 55.4937L290.983 58.0439ZM297.549 59.3135C301.153 59.3135 304.165 58.4502 306.408 56.5522L304.621 54.4407C303.029 55.7881 300.729 56.5475 297.549 56.5475V59.3135ZM306.398 56.5605C308.704 54.6458 309.829 52.0242 309.829 48.8582H307.063C307.063 51.2978 306.234 53.1017 304.631 54.4324L306.398 56.5605ZM309.829 48.8582V47.9731H307.063V48.8582H309.829ZM351.681 34.7518H353.064V33.3688H351.681V34.7518ZM351.681 35.5263L352.905 36.1702L353.064 35.8679V35.5263H351.681ZM336.081 65.1773L337.302 65.8271L337.305 65.8212L336.081 65.1773ZM331.821 70.0454L331.118 68.8548L331.102 68.8643L331.086 68.8742L331.821 70.0454ZM319.762 71.539H318.379V72.922H319.762V71.539ZM319.762 66.8369V65.4539H318.379V66.8369H319.762ZM328.779 66.1177L328.093 64.917L328.072 64.929L328.051 64.9418L328.779 66.1177ZM330.992 63.4071L329.786 62.7291L329.773 62.752L329.761 62.7754L330.992 63.4071ZM331.489 62.522L332.695 63.2L333.065 62.5425L332.712 61.8756L331.489 62.522ZM317.217 35.5263H315.834V35.8693L315.994 36.1726L317.217 35.5263ZM317.217 34.7518V33.3688H315.834V34.7518H317.217ZM322.86 34.7518L324.089 34.1189L323.703 33.3688H322.86V34.7518ZM334.477 57.322L333.247 57.9549L334.48 60.3497L335.708 57.9525L334.477 57.322ZM346.038 34.7518V33.3688H345.193L344.807 34.1213L346.038 34.7518ZM350.298 34.7518V35.5263H353.064V34.7518H350.298ZM350.457 34.8823L334.857 64.5334L337.305 65.8212L352.905 36.1702L350.457 34.8823ZM334.86 64.5275C333.72 66.6704 332.454 68.0649 331.118 68.8548L332.525 71.236C334.434 70.1081 336.008 68.2573 337.302 65.8271L334.86 64.5275ZM331.086 68.8742C329.802 69.6805 327.916 70.156 325.294 70.156V72.922C328.203 72.922 330.669 72.4018 332.557 71.2166L331.086 68.8742ZM325.294 70.156H319.762V72.922H325.294V70.156ZM321.145 71.539V66.8369H318.379V71.539H321.145ZM319.762 68.2199H325.294V65.4539H319.762V68.2199ZM325.294 68.2199C326.94 68.2199 328.409 67.9731 329.507 67.2936L328.051 64.9418C327.599 65.2213 326.745 65.4539 325.294 65.4539V68.2199ZM329.465 67.3185C330.586 66.6781 331.477 65.49 332.222 64.0389L329.761 62.7754C329.105 64.0532 328.521 64.6723 328.093 64.917L329.465 67.3185ZM332.197 64.0851L332.695 63.2L330.284 61.844L329.786 62.7291L332.197 64.0851ZM332.712 61.8756L318.44 34.8799L315.994 36.1726L330.267 63.1684L332.712 61.8756ZM318.6 35.5263V34.7518H315.834V35.5263H318.6ZM317.217 36.1348H322.86V33.3688H317.217V36.1348ZM321.63 35.3847L333.247 57.9549L335.706 56.6891L324.089 34.1189L321.63 35.3847ZM335.708 57.9525L347.269 35.3823L344.807 34.1213L333.246 56.6915L335.708 57.9525ZM346.038 36.1348H351.681V33.3688H346.038V36.1348ZM354.406 39.5092H353.023V40.8922H354.406V39.5092ZM354.406 34.7518V33.3688H353.023V34.7518H354.406ZM386.602 34.7518H387.985V33.3688H386.602V34.7518ZM386.602 39.5092V40.8922H387.985V39.5092H386.602ZM373.27 39.5092V38.1263H371.887V39.5092H373.27ZM373.27 62.1348V63.5177H374.653V62.1348H373.27ZM367.959 62.1348H366.576V63.5177H367.959V62.1348ZM367.959 39.5092H369.342V38.1263H367.959V39.5092ZM355.789 39.5092V34.7518H353.023V39.5092H355.789ZM354.406 36.1348H386.602V33.3688H354.406V36.1348ZM385.219 34.7518V39.5092H387.985V34.7518H385.219ZM386.602 38.1263H373.27V40.8922H386.602V38.1263ZM371.887 39.5092V62.1348H374.653V39.5092H371.887ZM373.27 60.7518H367.959V63.5177H373.27V60.7518ZM369.342 62.1348V39.5092H366.576V62.1348H369.342ZM367.959 38.1263H354.406V40.8922H367.959V38.1263ZM397.082 34.7518H398.465V33.3688H397.082V34.7518ZM397.082 55.6624H395.699V59.0992L398.079 56.6203L397.082 55.6624ZM417.163 34.7518V33.3688H416.574L416.165 33.7939L417.163 34.7518ZM422.031 34.7518H423.414V33.3688H422.031V34.7518ZM422.031 62.1348V63.5177H423.414V62.1348H422.031ZM416.942 62.1348H415.559V63.5177H416.942V62.1348ZM416.942 41.2241H418.325V37.7874L415.944 40.2662L416.942 41.2241ZM396.861 62.1348V63.5177H397.45L397.858 63.0927L396.861 62.1348ZM391.993 62.1348H390.61V63.5177H391.993V62.1348ZM391.993 34.7518V33.3688H390.61V34.7518H391.993ZM395.699 34.7518V55.6624H398.465V34.7518H395.699ZM398.079 56.6203L418.16 35.7097L416.165 33.7939L396.084 54.7045L398.079 56.6203ZM417.163 36.1348H422.031V33.3688H417.163V36.1348ZM420.648 34.7518V62.1348H423.414V34.7518H420.648ZM422.031 60.7518H416.942V63.5177H422.031V60.7518ZM418.325 62.1348V41.2241H415.559V62.1348H418.325ZM415.944 40.2662L395.863 61.1768L397.858 63.0927L417.939 42.182L415.944 40.2662ZM396.861 60.7518H391.993V63.5177H396.861V60.7518ZM393.376 62.1348V34.7518H390.61V62.1348H393.376ZM391.993 36.1348H397.082V33.3688H391.993V36.1348Z" fill="black" mask="url(#path-2-outside-1_1_1139)"/>
<path d="M119.5 0.5H145C169.577 0.5 189.5 20.4233 189.5 45C189.5 69.5767 169.577 89.5 145 89.5H119.5V0.5Z" fill="#D4FF73" stroke="black"/>
<mask id="path-5-outside-2_1_1139" maskUnits="userSpaceOnUse" x="132" y="25" width="39" height="41" fill="black">
<rect fill="white" x="132" y="25" width="39" height="41"/>
<path d="M153.564 41.0936C158.469 41.2411 162.212 42.2184 164.794 44.0255C167.412 45.7957 168.721 48.2667 168.721 51.4383V52.1574C168.721 55.8823 167.228 58.7404 164.24 60.7319C161.253 62.6865 156.901 63.6638 151.185 63.6638C145.616 63.627 141.301 62.6496 138.24 60.7319C135.216 58.8142 133.704 56.1035 133.704 52.6V52.2128H139.181V52.6C139.181 54.444 140.25 55.9007 142.389 56.9702C144.528 58.0028 147.479 58.5191 151.24 58.5191C155.186 58.5191 158.174 58.0028 160.202 56.9702C162.23 55.9007 163.245 54.3333 163.245 52.2681V51.6043C163.245 47.7319 159.298 45.7957 151.406 45.7957H145.432V40.9277L159.096 31.634H134.368V26.7106H167.836V31.634L153.564 41.0936Z"/>
</mask>
<path d="M153.564 41.0936C158.469 41.2411 162.212 42.2184 164.794 44.0255C167.412 45.7957 168.721 48.2667 168.721 51.4383V52.1574C168.721 55.8823 167.228 58.7404 164.24 60.7319C161.253 62.6865 156.901 63.6638 151.185 63.6638C145.616 63.627 141.301 62.6496 138.24 60.7319C135.216 58.8142 133.704 56.1035 133.704 52.6V52.2128H139.181V52.6C139.181 54.444 140.25 55.9007 142.389 56.9702C144.528 58.0028 147.479 58.5191 151.24 58.5191C155.186 58.5191 158.174 58.0028 160.202 56.9702C162.23 55.9007 163.245 54.3333 163.245 52.2681V51.6043C163.245 47.7319 159.298 45.7957 151.406 45.7957H145.432V40.9277L159.096 31.634H134.368V26.7106H167.836V31.634L153.564 41.0936Z" fill="#FF003D"/>
<path d="M153.564 41.0936L152.8 39.9408L149.172 42.3451L153.522 42.476L153.564 41.0936ZM164.794 44.0255L164 45.1585L164.01 45.165L164.019 45.1712L164.794 44.0255ZM164.24 60.7319L164.998 61.8892L165.007 61.8826L164.24 60.7319ZM151.185 63.6638L151.176 65.0468H151.185V63.6638ZM138.24 60.7319L137.5 61.8999L137.506 61.9039L138.24 60.7319ZM133.704 52.2128V50.8298H132.321V52.2128H133.704ZM139.181 52.2128H140.564V50.8298H139.181V52.2128ZM142.389 56.9702L141.771 58.2072L141.779 58.2115L141.788 58.2157L142.389 56.9702ZM160.202 56.9702L160.829 58.2027L160.838 58.1982L160.847 58.1936L160.202 56.9702ZM145.432 45.7957H144.049V47.1787H145.432V45.7957ZM145.432 40.9277L144.654 39.7841L144.049 40.1957V40.9277H145.432ZM159.096 31.634L159.873 32.7776L163.588 30.2511H159.096V31.634ZM134.368 31.634H132.985V33.017H134.368V31.634ZM134.368 26.7106V25.3277H132.985V26.7106H134.368ZM167.836 26.7106H169.219V25.3277H167.836V26.7106ZM167.836 31.634L168.6 32.7868L169.219 32.3766V31.634H167.836ZM153.522 42.476C158.296 42.6195 161.731 43.5699 164 45.1585L165.587 42.8925C162.693 40.867 158.641 39.8627 153.605 39.7113L153.522 42.476ZM164.019 45.1712C166.255 46.6832 167.338 48.724 167.338 51.4383H170.104C170.104 47.8094 168.569 44.9083 165.568 42.8798L164.019 45.1712ZM167.338 51.4383V52.1574H170.104V51.4383H167.338ZM167.338 52.1574C167.338 55.4407 166.059 57.8575 163.473 59.5812L165.007 61.8826C168.396 59.6233 170.104 56.3239 170.104 52.1574H167.338ZM163.483 59.5747C160.819 61.3179 156.78 62.2808 151.185 62.2808V65.0468C157.023 65.0468 161.687 64.0551 164.998 61.8892L163.483 59.5747ZM151.194 62.2809C145.754 62.2449 141.73 61.2865 138.975 59.5599L137.506 61.9039C140.872 64.0127 145.479 65.009 151.176 65.0468L151.194 62.2809ZM138.981 59.564C136.346 57.8931 135.087 55.6174 135.087 52.6H132.321C132.321 56.5897 134.086 59.7353 137.5 61.8999L138.981 59.564ZM135.087 52.6V52.2128H132.321V52.6H135.087ZM133.704 53.5957H139.181V50.8298H133.704V53.5957ZM137.798 52.2128V52.6H140.564V52.2128H137.798ZM137.798 52.6C137.798 55.1293 139.328 56.9856 141.771 58.2072L143.008 55.7332C141.173 54.8158 140.564 53.7586 140.564 52.6H137.798ZM141.788 58.2157C144.193 59.3765 147.379 59.9021 151.24 59.9021V57.1362C147.578 57.1362 144.864 56.6292 142.991 55.7248L141.788 58.2157ZM151.24 59.9021C155.266 59.9021 158.513 59.3821 160.829 58.2027L159.575 55.7378C157.835 56.6236 155.107 57.1362 151.24 57.1362V59.9021ZM160.847 58.1936C162.023 57.5733 162.983 56.7671 163.645 55.7439C164.312 54.7129 164.628 53.5379 164.628 52.2681H161.862C161.862 53.0635 161.67 53.7048 161.323 54.2412C160.971 54.7853 160.409 55.2976 159.557 55.7469L160.847 58.1936ZM164.628 52.2681V51.6043H161.862V52.2681H164.628ZM164.628 51.6043C164.628 50.3888 164.314 49.2646 163.649 48.2859C162.99 47.3171 162.043 46.5698 160.894 46.0063C158.635 44.898 155.421 44.4128 151.406 44.4128V47.1787C155.284 47.1787 157.988 47.6615 159.676 48.4895C160.5 48.894 161.032 49.3569 161.361 49.8402C161.682 50.3136 161.862 50.8836 161.862 51.6043H164.628ZM151.406 44.4128H145.432V47.1787H151.406V44.4128ZM146.815 45.7957V40.9277H144.049V45.7957H146.815ZM146.21 42.0712L159.873 32.7776L158.318 30.4905L144.654 39.7841L146.21 42.0712ZM159.096 30.2511H134.368V33.017H159.096V30.2511ZM135.751 31.634V26.7106H132.985V31.634H135.751ZM134.368 28.0936H167.836V25.3277H134.368V28.0936ZM166.453 26.7106V31.634H169.219V26.7106H166.453ZM167.072 30.4813L152.8 39.9408L154.328 42.2464L168.6 32.7868L167.072 30.4813Z" fill="black" mask="url(#path-5-outside-2_1_1139)"/>
</svg>
