<svg width="115" height="300" viewBox="0 0 115 300" fill="none" xmlns="http://www.w3.org/2000/svg">
<mask id="path-1-inside-1_1_909" fill="white">
<path fill-rule="evenodd" clip-rule="evenodd" d="M115 0H83.1916V245.893C82.9114 248.222 82.3116 250.506 81.4052 252.682C80.1048 255.803 78.1989 258.638 75.7962 261.027C73.3935 263.415 70.541 265.31 67.4017 266.603C64.2625 267.896 60.8978 268.561 57.4998 268.561C54.1019 268.561 50.7372 267.896 47.5979 266.603C44.4586 265.31 41.6062 263.415 39.2035 261.027C36.8008 258.638 34.8949 255.803 33.5945 252.682C32.2942 249.561 31.6249 246.216 31.6249 242.838H0C0 250.345 1.48728 257.778 4.37691 264.713C7.26655 271.648 11.502 277.95 16.8413 283.258C22.1807 288.566 28.5194 292.776 35.4956 295.649C42.4718 298.521 49.9488 300 57.4998 300C65.0508 300 72.5279 298.521 79.5041 295.649C86.4803 292.776 92.819 288.566 98.1584 283.258C103.498 277.95 107.733 271.648 110.623 264.713C113.043 258.904 114.48 252.745 114.882 246.486H115V0Z"/>
</mask>
<path fill-rule="evenodd" clip-rule="evenodd" d="M115 0H83.1916V245.893C82.9114 248.222 82.3116 250.506 81.4052 252.682C80.1048 255.803 78.1989 258.638 75.7962 261.027C73.3935 263.415 70.541 265.31 67.4017 266.603C64.2625 267.896 60.8978 268.561 57.4998 268.561C54.1019 268.561 50.7372 267.896 47.5979 266.603C44.4586 265.31 41.6062 263.415 39.2035 261.027C36.8008 258.638 34.8949 255.803 33.5945 252.682C32.2942 249.561 31.6249 246.216 31.6249 242.838H0C0 250.345 1.48728 257.778 4.37691 264.713C7.26655 271.648 11.502 277.95 16.8413 283.258C22.1807 288.566 28.5194 292.776 35.4956 295.649C42.4718 298.521 49.9488 300 57.4998 300C65.0508 300 72.5279 298.521 79.5041 295.649C86.4803 292.776 92.819 288.566 98.1584 283.258C103.498 277.95 107.733 271.648 110.623 264.713C113.043 258.904 114.48 252.745 114.882 246.486H115V0Z" fill="#D4FF73"/>
<path d="M83.1916 0V-1H82.1916V0H83.1916ZM115 0H116V-1H115V0ZM83.1916 245.893L84.1844 246.013L84.1916 245.953V245.893H83.1916ZM81.4052 252.682L80.4821 252.297L80.4821 252.297L81.4052 252.682ZM75.7962 261.027L76.5012 261.736L76.5012 261.736L75.7962 261.027ZM47.5979 266.603L47.9787 265.678L47.9787 265.678L47.5979 266.603ZM39.2035 261.027L38.4985 261.736L38.4985 261.736L39.2035 261.027ZM33.5945 252.682L32.6714 253.066L32.6714 253.066L33.5945 252.682ZM31.6249 242.838H32.6249V241.838H31.6249V242.838ZM0 242.838V241.838H-1V242.838H0ZM4.37691 264.713L5.29999 264.328L5.29999 264.328L4.37691 264.713ZM16.8413 283.258L16.1363 283.967L16.1363 283.967L16.8413 283.258ZM35.4956 295.649L35.8764 294.724L35.8764 294.724L35.4956 295.649ZM57.4998 300L57.4998 299H57.4998V300ZM79.5041 295.649L79.1233 294.724L79.1233 294.724L79.5041 295.649ZM98.1584 283.258L97.4533 282.548L97.4533 282.548L98.1584 283.258ZM110.623 264.713L109.7 264.328L109.7 264.328L110.623 264.713ZM114.882 246.486V245.486H113.945L113.885 246.422L114.882 246.486ZM115 246.486V247.486H116V246.486H115ZM83.1916 1H115V-1H83.1916V1ZM84.1916 245.893V0H82.1916V245.893H84.1916ZM82.3282 253.066C83.27 250.806 83.8933 248.432 84.1844 246.013L82.1987 245.774C81.9295 248.011 81.3531 250.206 80.4821 252.297L82.3282 253.066ZM76.5012 261.736C78.997 259.255 80.9772 256.309 82.3282 253.066L80.4821 252.297C79.2325 255.296 77.4007 258.022 75.0912 260.318L76.5012 261.736ZM67.7825 267.527C71.0427 266.185 74.0054 264.217 76.5012 261.736L75.0912 260.318C72.7816 262.614 70.0394 264.435 67.021 265.678L67.7825 267.527ZM57.4998 269.561C61.0283 269.561 64.5223 268.87 67.7825 267.527L67.021 265.678C64.0026 266.921 60.7673 267.561 57.4998 267.561V269.561ZM47.2172 267.527C50.4773 268.87 53.9714 269.561 57.4998 269.561V267.561C54.2324 267.561 50.9971 266.921 47.9787 265.678L47.2172 267.527ZM38.4985 261.736C40.9943 264.217 43.957 266.185 47.2172 267.527L47.9787 265.678C44.9603 264.435 42.2181 262.614 39.9085 260.318L38.4985 261.736ZM32.6714 253.066C34.0225 256.309 36.0026 259.255 38.4985 261.736L39.9085 260.318C37.5989 258.022 35.7672 255.296 34.5176 252.297L32.6714 253.066ZM30.6249 242.838C30.6249 246.348 31.3204 249.824 32.6714 253.066L34.5176 252.297C33.268 249.298 32.6249 246.084 32.6249 242.838H30.6249ZM0 243.838H31.6249V241.838H0V243.838ZM5.29999 264.328C2.46109 257.515 1 250.212 1 242.838H-1C-1 250.477 0.513464 258.041 3.45383 265.098L5.29999 264.328ZM17.5463 282.548C12.3001 277.333 8.1389 271.142 5.29999 264.328L3.45383 265.098C6.3942 272.154 10.7038 278.566 16.1363 283.967L17.5463 282.548ZM35.8764 294.724C29.0211 291.901 22.7926 287.764 17.5463 282.548L16.1363 283.967C21.5688 289.367 28.0177 293.651 35.1148 296.573L35.8764 294.724ZM57.4998 299C50.0794 299 42.7317 297.547 35.8764 294.724L35.1148 296.573C42.2119 299.496 49.8183 301 57.4998 301V299ZM79.1233 294.724C72.268 297.547 64.9203 299 57.4998 299L57.4998 301C65.1813 301 72.7877 299.496 79.8848 296.573L79.1233 294.724ZM97.4533 282.548C92.2071 287.764 85.9786 291.901 79.1233 294.724L79.8848 296.573C86.9819 293.651 93.4309 289.367 98.8634 283.967L97.4533 282.548ZM109.7 264.328C106.861 271.142 102.7 277.333 97.4533 282.548L98.8634 283.967C104.296 278.566 108.605 272.154 111.546 265.098L109.7 264.328ZM113.885 246.422C113.489 252.571 112.078 258.621 109.7 264.328L111.546 265.098C114.009 259.186 115.471 252.919 115.88 246.55L113.885 246.422ZM115 245.486H114.882V247.486H115V245.486ZM114 0V246.486H116V0H114Z" fill="black" mask="url(#path-1-inside-1_1_909)"/>
<rect x="83.6916" y="24.8251" width="30.8084" height="22.5135" fill="#D2CCF4" stroke="black"/>
<rect x="83.6916" y="70.2297" width="30.8084" height="22.5135" fill="#D2CCF4" stroke="black"/>
<rect x="83.6916" y="115.635" width="30.8084" height="22.5135" fill="#D2CCF4" stroke="black"/>
<rect x="83.6916" y="161.041" width="30.8084" height="22.5135" fill="#D2CCF4" stroke="black"/>
<rect x="83.6916" y="206.447" width="30.8084" height="22.5135" fill="#D2CCF4" stroke="black"/>
<path d="M31.3084 244.055C31.3084 246.256 29.712 248.351 26.9056 249.925C24.1153 251.49 20.2267 252.473 15.9042 252.473C11.5817 252.473 7.69317 251.49 4.9028 249.925C2.09645 248.351 0.5 246.256 0.5 244.055C0.5 241.853 2.09645 239.758 4.9028 238.184C7.69317 236.619 11.5817 235.636 15.9042 235.636C20.2267 235.636 24.1153 236.619 26.9056 238.184C29.712 239.758 31.3084 241.853 31.3084 244.055Z" fill="#D2CCF4" stroke="black"/>
</svg>
