<svg width="116" height="300" viewBox="0 0 116 300" fill="none" xmlns="http://www.w3.org/2000/svg">
<mask id="path-1-inside-1_1_944" fill="white">
<path fill-rule="evenodd" clip-rule="evenodd" d="M115.275 0H83.467V245.893C83.1868 248.222 82.587 250.506 81.6806 252.682C80.3803 255.802 78.4743 258.638 76.0716 261.027C73.6689 263.415 70.8165 265.31 67.6772 266.603C64.5379 267.895 61.1732 268.561 57.7753 268.561C54.3773 268.561 51.0126 267.895 47.8734 266.603C44.7341 265.31 41.8816 263.415 39.4789 261.027C37.0762 258.638 35.1703 255.802 33.8699 252.682C32.5696 249.561 31.9003 246.216 31.9003 242.838L0.275391 242.838C0.275391 250.344 1.76267 257.778 4.65231 264.713C7.54194 271.648 11.7774 277.949 17.1167 283.257C22.4561 288.565 28.7948 292.776 35.771 295.649C42.7472 298.521 50.2243 300 57.7753 300C65.3263 300 72.8033 298.521 79.7795 295.649C86.7557 292.776 93.0945 288.565 98.4338 283.257C103.773 277.949 108.009 271.648 110.898 264.713C113.319 258.903 114.755 252.745 115.158 246.486H115.275V0Z"/>
</mask>
<path fill-rule="evenodd" clip-rule="evenodd" d="M115.275 0H83.467V245.893C83.1868 248.222 82.587 250.506 81.6806 252.682C80.3803 255.802 78.4743 258.638 76.0716 261.027C73.6689 263.415 70.8165 265.31 67.6772 266.603C64.5379 267.895 61.1732 268.561 57.7753 268.561C54.3773 268.561 51.0126 267.895 47.8734 266.603C44.7341 265.31 41.8816 263.415 39.4789 261.027C37.0762 258.638 35.1703 255.802 33.8699 252.682C32.5696 249.561 31.9003 246.216 31.9003 242.838L0.275391 242.838C0.275391 250.344 1.76267 257.778 4.65231 264.713C7.54194 271.648 11.7774 277.949 17.1167 283.257C22.4561 288.565 28.7948 292.776 35.771 295.649C42.7472 298.521 50.2243 300 57.7753 300C65.3263 300 72.8033 298.521 79.7795 295.649C86.7557 292.776 93.0945 288.565 98.4338 283.257C103.773 277.949 108.009 271.648 110.898 264.713C113.319 258.903 114.755 252.745 115.158 246.486H115.275V0Z" fill="#7B62E4"/>
<path d="M83.467 0V-1H82.467V0H83.467ZM115.275 0H116.275V-1H115.275V0ZM83.467 245.893L84.4599 246.013L84.467 245.953V245.893H83.467ZM81.6806 252.682L82.6037 253.066L82.6037 253.066L81.6806 252.682ZM76.0716 261.027L75.3666 260.317L75.3666 260.317L76.0716 261.027ZM67.6772 266.603L68.0579 267.527L68.0579 267.527L67.6772 266.603ZM39.4789 261.027L40.1839 260.317L40.1839 260.317L39.4789 261.027ZM31.9003 242.838H32.9003V241.838L31.9003 241.838L31.9003 242.838ZM0.275391 242.838L0.275391 241.838L-0.724609 241.838V242.838H0.275391ZM4.65231 264.713L3.72923 265.097L3.72923 265.097L4.65231 264.713ZM17.1167 283.257L16.4117 283.967L16.4117 283.967L17.1167 283.257ZM35.771 295.649L36.1518 294.724L36.1518 294.724L35.771 295.649ZM79.7795 295.649L80.1603 296.573L80.1603 296.573L79.7795 295.649ZM98.4338 283.257L97.7288 282.548L97.7288 282.548L98.4338 283.257ZM110.898 264.713L109.975 264.328L109.975 264.328L110.898 264.713ZM115.158 246.486V245.486H114.22L114.16 246.422L115.158 246.486ZM115.275 246.486V247.486H116.275V246.486H115.275ZM83.467 1H115.275V-1H83.467V1ZM84.467 245.893V0H82.467V245.893H84.467ZM82.6037 253.066C83.5455 250.806 84.1687 248.432 84.4599 246.013L82.4742 245.774C82.2049 248.011 81.6286 250.206 80.7575 252.297L82.6037 253.066ZM76.7766 261.736C79.2725 259.255 81.2526 256.309 82.6037 253.066L80.7575 252.297C79.5079 255.296 77.6762 258.021 75.3666 260.317L76.7766 261.736ZM68.0579 267.527C71.3181 266.185 74.2808 264.217 76.7766 261.736L75.3666 260.317C73.057 262.613 70.3148 264.435 67.2964 265.678L68.0579 267.527ZM57.7753 269.561C61.3037 269.561 64.7978 268.87 68.0579 267.527L67.2964 265.678C64.278 266.921 61.0427 267.561 57.7753 267.561V269.561ZM47.4926 267.527C50.7528 268.87 54.2468 269.561 57.7753 269.561V267.561C54.5078 267.561 51.2725 266.921 48.2541 265.678L47.4926 267.527ZM38.7739 261.736C41.2697 264.217 44.2324 266.185 47.4926 267.527L48.2541 265.678C45.2357 264.435 42.4935 262.613 40.1839 260.317L38.7739 261.736ZM32.9469 253.066C34.2979 256.309 36.278 259.255 38.7739 261.736L40.1839 260.317C37.8744 258.021 36.0426 255.296 34.793 252.297L32.9469 253.066ZM30.9003 242.838C30.9003 246.348 31.5958 249.824 32.9469 253.066L34.793 252.297C33.5434 249.298 32.9003 246.084 32.9003 242.838H30.9003ZM0.27539 243.838L31.9003 243.838L31.9003 241.838L0.275391 241.838L0.27539 243.838ZM5.57538 264.328C2.73648 257.515 1.27539 250.212 1.27539 242.838H-0.724609C-0.724609 250.477 0.788856 258.04 3.72923 265.097L5.57538 264.328ZM17.8217 282.548C12.5755 277.333 8.4143 271.142 5.57538 264.328L3.72923 265.097C6.66959 272.154 10.9792 278.566 16.4117 283.967L17.8217 282.548ZM36.1518 294.724C29.2965 291.901 23.068 287.764 17.8217 282.548L16.4117 283.967C21.8442 289.367 28.2931 293.651 35.3903 296.573L36.1518 294.724ZM57.7753 299C50.3548 299 43.0071 297.547 36.1518 294.724L35.3902 296.573C42.4873 299.496 50.0938 301 57.7753 301V299ZM79.3987 294.724C72.5434 297.547 65.1957 299 57.7753 299V301C65.4568 301 73.0632 299.496 80.1603 296.573L79.3987 294.724ZM97.7288 282.548C92.4826 287.764 86.2541 291.901 79.3987 294.724L80.1603 296.573C87.2574 293.651 93.7064 289.367 99.1388 283.967L97.7288 282.548ZM109.975 264.328C107.136 271.142 102.975 277.333 97.7288 282.548L99.1388 283.967C104.571 278.566 108.881 272.154 111.821 265.097L109.975 264.328ZM114.16 246.422C113.764 252.57 112.353 258.621 109.975 264.328L111.821 265.097C114.284 259.186 115.746 252.919 116.156 246.55L114.16 246.422ZM115.275 245.486H115.158V247.486H115.275V245.486ZM114.275 0V246.486H116.275V0H114.275Z" fill="black" mask="url(#path-1-inside-1_1_944)"/>
<path d="M31.5838 244.054C31.5838 246.256 29.9874 248.351 27.181 249.925C24.3907 251.49 20.5021 252.473 16.1796 252.473C11.8571 252.473 7.96856 251.49 5.17819 249.925C2.37184 248.351 0.775391 246.256 0.775391 244.054C0.775391 241.853 2.37184 239.758 5.17819 238.184C7.96856 236.619 11.8571 235.635 16.1796 235.635C20.5021 235.635 24.3907 236.619 27.181 238.184C29.9874 239.758 31.5838 241.853 31.5838 244.054Z" fill="#D4FF73" stroke="black"/>
<mask id="mask0_1_944" style="mask-type:alpha" maskUnits="userSpaceOnUse" x="0" y="0" width="116" height="300">
<mask id="path-4-inside-2_1_944" fill="white">
<path fill-rule="evenodd" clip-rule="evenodd" d="M115.275 0H83.467V245.893C83.1868 248.222 82.587 250.506 81.6806 252.682C80.3803 255.802 78.4743 258.638 76.0716 261.027C73.6689 263.415 70.8165 265.31 67.6772 266.603C64.5379 267.895 61.1732 268.561 57.7753 268.561C54.3773 268.561 51.0126 267.895 47.8734 266.603C44.7341 265.31 41.8816 263.415 39.4789 261.027C37.0762 258.638 35.1703 255.802 33.8699 252.682C32.5696 249.561 31.9003 246.216 31.9003 242.838L0.275391 242.838C0.275391 250.344 1.76267 257.778 4.65231 264.713C7.54194 271.648 11.7774 277.949 17.1167 283.257C22.4561 288.565 28.7948 292.776 35.771 295.649C42.7472 298.521 50.2243 300 57.7753 300C65.3263 300 72.8033 298.521 79.7795 295.649C86.7557 292.776 93.0945 288.565 98.4338 283.257C103.773 277.949 108.009 271.648 110.898 264.713C113.319 258.903 114.755 252.745 115.158 246.486H115.275V0Z"/>
</mask>
<path fill-rule="evenodd" clip-rule="evenodd" d="M115.275 0H83.467V245.893C83.1868 248.222 82.587 250.506 81.6806 252.682C80.3803 255.802 78.4743 258.638 76.0716 261.027C73.6689 263.415 70.8165 265.31 67.6772 266.603C64.5379 267.895 61.1732 268.561 57.7753 268.561C54.3773 268.561 51.0126 267.895 47.8734 266.603C44.7341 265.31 41.8816 263.415 39.4789 261.027C37.0762 258.638 35.1703 255.802 33.8699 252.682C32.5696 249.561 31.9003 246.216 31.9003 242.838L0.275391 242.838C0.275391 250.344 1.76267 257.778 4.65231 264.713C7.54194 271.648 11.7774 277.949 17.1167 283.257C22.4561 288.565 28.7948 292.776 35.771 295.649C42.7472 298.521 50.2243 300 57.7753 300C65.3263 300 72.8033 298.521 79.7795 295.649C86.7557 292.776 93.0945 288.565 98.4338 283.257C103.773 277.949 108.009 271.648 110.898 264.713C113.319 258.903 114.755 252.745 115.158 246.486H115.275V0Z" fill="#7B62E4"/>
<path d="M83.467 0V-1H82.467V0H83.467ZM115.275 0H116.275V-1H115.275V0ZM83.467 245.893L84.4599 246.013L84.467 245.953V245.893H83.467ZM81.6806 252.682L82.6037 253.066L82.6037 253.066L81.6806 252.682ZM76.0716 261.027L75.3666 260.317L75.3666 260.317L76.0716 261.027ZM67.6772 266.603L68.0579 267.527L68.0579 267.527L67.6772 266.603ZM39.4789 261.027L40.1839 260.317L40.1839 260.317L39.4789 261.027ZM31.9003 242.838H32.9003V241.838L31.9003 241.838L31.9003 242.838ZM0.275391 242.838L0.275391 241.838L-0.724609 241.838V242.838H0.275391ZM4.65231 264.713L3.72923 265.097L3.72923 265.097L4.65231 264.713ZM17.1167 283.257L16.4117 283.967L16.4117 283.967L17.1167 283.257ZM35.771 295.649L36.1518 294.724L36.1518 294.724L35.771 295.649ZM79.7795 295.649L80.1603 296.573L80.1603 296.573L79.7795 295.649ZM98.4338 283.257L97.7288 282.548L97.7288 282.548L98.4338 283.257ZM110.898 264.713L109.975 264.328L109.975 264.328L110.898 264.713ZM115.158 246.486V245.486H114.22L114.16 246.422L115.158 246.486ZM115.275 246.486V247.486H116.275V246.486H115.275ZM83.467 1H115.275V-1H83.467V1ZM84.467 245.893V0H82.467V245.893H84.467ZM82.6037 253.066C83.5455 250.806 84.1687 248.432 84.4599 246.013L82.4742 245.774C82.2049 248.011 81.6286 250.206 80.7575 252.297L82.6037 253.066ZM76.7766 261.736C79.2725 259.255 81.2526 256.309 82.6037 253.066L80.7575 252.297C79.5079 255.296 77.6762 258.021 75.3666 260.317L76.7766 261.736ZM68.0579 267.527C71.3181 266.185 74.2808 264.217 76.7766 261.736L75.3666 260.317C73.057 262.613 70.3148 264.435 67.2964 265.678L68.0579 267.527ZM57.7753 269.561C61.3037 269.561 64.7978 268.87 68.0579 267.527L67.2964 265.678C64.278 266.921 61.0427 267.561 57.7753 267.561V269.561ZM47.4926 267.527C50.7528 268.87 54.2468 269.561 57.7753 269.561V267.561C54.5078 267.561 51.2725 266.921 48.2541 265.678L47.4926 267.527ZM38.7739 261.736C41.2697 264.217 44.2324 266.185 47.4926 267.527L48.2541 265.678C45.2357 264.435 42.4935 262.613 40.1839 260.317L38.7739 261.736ZM32.9469 253.066C34.2979 256.309 36.278 259.255 38.7739 261.736L40.1839 260.317C37.8744 258.021 36.0426 255.296 34.793 252.297L32.9469 253.066ZM30.9003 242.838C30.9003 246.348 31.5958 249.824 32.9469 253.066L34.793 252.297C33.5434 249.298 32.9003 246.084 32.9003 242.838H30.9003ZM0.27539 243.838L31.9003 243.838L31.9003 241.838L0.275391 241.838L0.27539 243.838ZM5.57538 264.328C2.73648 257.515 1.27539 250.212 1.27539 242.838H-0.724609C-0.724609 250.477 0.788856 258.04 3.72923 265.097L5.57538 264.328ZM17.8217 282.548C12.5755 277.333 8.4143 271.142 5.57538 264.328L3.72923 265.097C6.66959 272.154 10.9792 278.566 16.4117 283.967L17.8217 282.548ZM36.1518 294.724C29.2965 291.901 23.068 287.764 17.8217 282.548L16.4117 283.967C21.8442 289.367 28.2931 293.651 35.3903 296.573L36.1518 294.724ZM57.7753 299C50.3548 299 43.0071 297.547 36.1518 294.724L35.3902 296.573C42.4873 299.496 50.0938 301 57.7753 301V299ZM79.3987 294.724C72.5434 297.547 65.1957 299 57.7753 299V301C65.4568 301 73.0632 299.496 80.1603 296.573L79.3987 294.724ZM97.7288 282.548C92.4826 287.764 86.2541 291.901 79.3987 294.724L80.1603 296.573C87.2574 293.651 93.7064 289.367 99.1388 283.967L97.7288 282.548ZM109.975 264.328C107.136 271.142 102.975 277.333 97.7288 282.548L99.1388 283.967C104.571 278.566 108.881 272.154 111.821 265.097L109.975 264.328ZM114.16 246.422C113.764 252.57 112.353 258.621 109.975 264.328L111.821 265.097C114.284 259.186 115.746 252.919 116.156 246.55L114.16 246.422ZM115.275 245.486H115.158V247.486H115.275V245.486ZM114.275 0V246.486H116.275V0H114.275Z" fill="black" mask="url(#path-4-inside-2_1_944)"/>
<path d="M31.5838 244.054C31.5838 246.256 29.9874 248.351 27.181 249.925C24.3907 251.49 20.5021 252.473 16.1796 252.473C11.8571 252.473 7.96856 251.49 5.17819 249.925C2.37184 248.351 0.775391 246.256 0.775391 244.054C0.775391 241.853 2.37184 239.758 5.17819 238.184C7.96856 236.619 11.8571 235.635 16.1796 235.635C20.5021 235.635 24.3907 236.619 27.181 238.184C29.9874 239.758 31.5838 241.853 31.5838 244.054Z" fill="#D4FF73" stroke="black"/>
</mask>
<g mask="url(#mask0_1_944)">
<path d="M107.435 35.6765C107.435 44.8014 99.9936 52.2035 90.8076 52.2035C81.6216 52.2035 74.18 44.8014 74.18 35.6765C74.18 26.5517 81.6216 19.1495 90.8076 19.1495C99.9936 19.1495 107.435 26.5517 107.435 35.6765Z" fill="#D4FF73" stroke="black"/>
<path d="M131.904 78.6493C131.904 87.7742 124.462 95.1763 115.276 95.1763C106.09 95.1763 98.6487 87.7742 98.6487 78.6493C98.6487 69.5245 106.09 62.1223 115.276 62.1223C124.462 62.1223 131.904 69.5245 131.904 78.6493Z" fill="#D4FF73" stroke="black"/>
<path d="M107.435 129.73C107.435 138.855 99.9936 146.257 90.8076 146.257C81.6216 146.257 74.18 138.855 74.18 129.73C74.18 120.606 81.6216 113.203 90.8076 113.203C99.9936 113.203 107.435 120.606 107.435 129.73Z" fill="#D4FF73" stroke="black"/>
<path d="M124.562 172.703C124.562 181.828 117.12 189.23 107.935 189.23C98.7485 189.23 91.3069 181.828 91.3069 172.703C91.3069 163.578 98.7485 156.176 107.935 156.176C117.12 156.176 124.562 163.578 124.562 172.703Z" fill="#D4FF73" stroke="black"/>
<path d="M97.648 215.676C97.648 224.801 90.2063 232.203 81.0204 232.203C71.8344 232.203 64.3927 224.801 64.3927 215.676C64.3927 206.551 71.8344 199.149 81.0204 199.149C90.2063 199.149 97.648 206.551 97.648 215.676Z" fill="#D4FF73" stroke="black"/>
<path d="M128.64 257.838C128.64 266.963 121.199 274.365 112.013 274.365C102.827 274.365 95.385 266.963 95.385 257.838C95.385 248.713 102.827 241.311 112.013 241.311C121.199 241.311 128.64 248.713 128.64 257.838Z" fill="#D4FF73" stroke="black"/>
<path d="M80.521 270.001C80.521 279.125 73.0793 286.528 63.8934 286.528C54.7074 286.528 47.2657 279.125 47.2657 270.001C47.2657 260.876 54.7074 253.474 63.8934 253.474C73.0793 253.474 80.521 260.876 80.521 270.001Z" fill="#D4FF73" stroke="black"/>
</g>
<path d="M83.8762 0.406738V234.325" stroke="black"/>
<path d="M114.868 61.6233V96.4881" stroke="black"/>
<path d="M114.868 241.217C115.276 247.703 113.645 263.109 105.489 274.055" stroke="black"/>
<path d="M47.1732 266.758C52.4746 269.055 65.932 270.974 77.3504 260.271" stroke="black"/>
<path d="M114.868 157.704V188.515" stroke="black"/>
</svg>
