<svg width="115" height="300" viewBox="0 0 115 300" fill="none" xmlns="http://www.w3.org/2000/svg">
<mask id="path-1-inside-1_1_995" fill="white">
<path fill-rule="evenodd" clip-rule="evenodd" d="M115 0H83.1916V244.712C82.9114 247.029 82.3116 249.302 81.4052 251.467C80.1048 254.573 78.1989 257.395 75.7962 259.772C73.3935 262.149 70.541 264.035 67.4017 265.321C64.2625 266.608 60.8978 267.27 57.4998 267.27C54.1019 267.27 50.7372 266.608 47.5979 265.321C44.4586 264.035 41.6062 262.149 39.2035 259.772C36.8008 257.395 34.8949 254.573 33.5945 251.467C32.2942 248.361 31.6249 245.032 31.6249 241.671H0C0 249.141 1.48728 256.539 4.37691 263.441C7.26655 270.342 11.502 276.614 16.8413 281.896C22.1807 287.179 28.5194 291.369 35.4956 294.228C42.4718 297.087 49.9488 298.558 57.4998 298.558C65.0508 298.558 72.5279 297.087 79.5041 294.228C86.4803 291.369 92.819 287.179 98.1584 281.896C103.498 276.614 107.733 270.342 110.623 263.441C113.043 257.659 114.48 251.53 114.882 245.302H115V0Z"/>
</mask>
<path fill-rule="evenodd" clip-rule="evenodd" d="M115 0H83.1916V244.712C82.9114 247.029 82.3116 249.302 81.4052 251.467C80.1048 254.573 78.1989 257.395 75.7962 259.772C73.3935 262.149 70.541 264.035 67.4017 265.321C64.2625 266.608 60.8978 267.27 57.4998 267.27C54.1019 267.27 50.7372 266.608 47.5979 265.321C44.4586 264.035 41.6062 262.149 39.2035 259.772C36.8008 257.395 34.8949 254.573 33.5945 251.467C32.2942 248.361 31.6249 245.032 31.6249 241.671H0C0 249.141 1.48728 256.539 4.37691 263.441C7.26655 270.342 11.502 276.614 16.8413 281.896C22.1807 287.179 28.5194 291.369 35.4956 294.228C42.4718 297.087 49.9488 298.558 57.4998 298.558C65.0508 298.558 72.5279 297.087 79.5041 294.228C86.4803 291.369 92.819 287.179 98.1584 281.896C103.498 276.614 107.733 270.342 110.623 263.441C113.043 257.659 114.48 251.53 114.882 245.302H115V0Z" fill="#D4FF73"/>
<path d="M83.1916 0V-1H82.1916V0H83.1916ZM115 0H116V-1H115V0ZM83.1916 244.712L84.1843 244.832L84.1916 244.772V244.712H83.1916ZM81.4052 251.467L82.3276 251.853L82.3276 251.853L81.4052 251.467ZM75.7962 259.772L76.4995 260.483L76.4995 260.483L75.7962 259.772ZM47.5979 265.321L47.9771 264.396L47.9771 264.396L47.5979 265.321ZM39.2035 259.772L38.5002 260.483L38.5002 260.483L39.2035 259.772ZM33.5945 251.467L32.6721 251.853L32.6721 251.853L33.5945 251.467ZM31.6249 241.671H32.6249V240.671H31.6249V241.671ZM0 241.671V240.671H-1V241.671H0ZM4.37691 263.441L3.45449 263.827L3.45449 263.827L4.37691 263.441ZM16.8413 281.896L16.138 282.607L16.138 282.607L16.8413 281.896ZM35.4956 294.228L35.1164 295.153L35.1164 295.153L35.4956 294.228ZM57.4998 298.558L57.4998 297.558H57.4998V298.558ZM79.5041 294.228L79.8833 295.153L79.8833 295.153L79.5041 294.228ZM98.1584 281.896L98.8617 282.607L98.8617 282.607L98.1584 281.896ZM110.623 263.441L109.7 263.054L109.7 263.054L110.623 263.441ZM114.882 245.302V244.302H113.945L113.885 245.237L114.882 245.302ZM115 245.302V246.302H116V245.302H115ZM83.1916 1H115V-1H83.1916V1ZM84.1916 244.712V0H82.1916V244.712H84.1916ZM82.3276 251.853C83.2696 249.603 83.8931 247.24 84.1843 244.832L82.1988 244.591C81.9297 246.817 81.3535 249.001 80.4827 251.081L82.3276 251.853ZM76.4995 260.483C78.9956 258.014 80.9761 255.081 82.3276 251.853L80.4827 251.081C79.2335 254.065 77.4022 256.777 75.0929 259.061L76.4995 260.483ZM67.7809 266.247C71.0408 264.911 74.0034 262.953 76.4995 260.483L75.0929 259.061C72.7835 261.346 70.0413 263.159 67.0225 264.396L67.7809 266.247ZM57.4998 268.27C61.0276 268.27 64.5211 267.583 67.7809 266.247L67.0225 264.396C64.0038 265.633 60.7679 266.27 57.4998 266.27V268.27ZM47.2187 266.247C50.4786 267.583 53.972 268.27 57.4998 268.27V266.27C54.2317 266.27 50.9959 265.633 47.9771 264.396L47.2187 266.247ZM38.5002 260.483C40.9962 262.953 43.9589 264.911 47.2187 266.247L47.9771 264.396C44.9584 263.159 42.2162 261.346 39.9068 259.061L38.5002 260.483ZM32.6721 251.853C34.0236 255.081 36.0041 258.014 38.5002 260.483L39.9068 259.061C37.5975 256.777 35.7662 254.065 34.5169 251.081L32.6721 251.853ZM30.6249 241.671C30.6249 245.165 31.3206 248.625 32.6721 251.853L34.5169 251.081C33.2677 248.097 32.6249 244.9 32.6249 241.671H30.6249ZM0 242.671H31.6249V240.671H0V242.671ZM5.29933 263.054C2.46082 256.275 1 249.008 1 241.671H-1C-1 249.274 0.513731 256.803 3.45449 263.827L5.29933 263.054ZM17.5446 281.185C12.2986 275.995 8.13785 269.834 5.29933 263.054L3.45449 263.827C6.39525 270.851 10.7053 277.232 16.138 282.607L17.5446 281.185ZM35.8748 293.302C29.0191 290.493 22.7906 286.375 17.5446 281.185L16.138 282.607C21.5707 287.982 28.0197 292.245 35.1164 295.153L35.8748 293.302ZM57.4998 297.558C50.0787 297.558 42.7305 296.112 35.8748 293.302L35.1164 295.153C42.2131 298.061 49.819 299.558 57.4998 299.558V297.558ZM79.1249 293.302C72.2692 296.112 64.921 297.558 57.4998 297.558L57.4998 299.558C65.1807 299.558 72.7865 298.061 79.8833 295.153L79.1249 293.302ZM97.455 281.185C92.209 286.375 85.9805 290.493 79.1249 293.302L79.8833 295.153C86.98 292.245 93.429 287.982 98.8617 282.607L97.455 281.185ZM109.7 263.054C106.862 269.834 102.701 275.995 97.455 281.185L98.8617 282.607C104.294 277.232 108.604 270.851 111.545 263.827L109.7 263.054ZM113.885 245.237C113.489 251.355 112.078 257.375 109.7 263.054L111.545 263.827C114.009 257.943 115.471 251.705 115.88 245.366L113.885 245.237ZM115 244.302H114.882V246.302H115V244.302ZM114 0V245.302H116V0H114Z" fill="black" mask="url(#path-1-inside-1_1_995)"/>
<path d="M31.3084 242.882C31.3084 245.07 29.7135 247.155 26.9065 248.721C24.116 250.279 20.2271 251.258 15.9042 251.258C11.5814 251.258 7.69245 250.279 4.9019 248.721C2.09489 247.155 0.5 245.07 0.5 242.882C0.5 240.693 2.09489 238.608 4.9019 237.042C7.69245 235.484 11.5814 234.505 15.9042 234.505C20.2271 234.505 24.116 235.484 26.9065 237.042C29.7135 238.608 31.3084 240.693 31.3084 242.882Z" fill="#FF003D" stroke="black"/>
<mask id="mask0_1_995" style="mask-type:alpha" maskUnits="userSpaceOnUse" x="4" y="1" width="111" height="299">
<mask id="path-4-inside-2_1_995" fill="white">
<path fill-rule="evenodd" clip-rule="evenodd" d="M114.278 1.44189H84.0487V243.113H83.6564C83.6564 246.397 83.035 249.649 81.8278 252.683C80.6205 255.717 78.8509 258.474 76.6202 260.796C74.3894 263.119 71.7412 264.961 68.8265 266.218C65.9119 267.475 62.7881 268.121 59.6333 268.121C56.4785 268.121 53.3547 267.475 50.4401 266.218C47.5254 264.961 44.8772 263.119 42.6464 260.796C40.4156 258.474 38.6461 255.717 37.4388 252.683C36.2316 249.649 35.6102 246.397 35.6102 243.113H4.98806C4.98806 250.583 6.4015 257.981 9.14768 264.882C11.8939 271.784 15.919 278.056 20.9933 283.338C26.0676 288.621 32.0916 292.811 38.7215 295.67C45.3513 298.529 52.4572 300 59.6333 300C66.8094 300 73.9153 298.529 80.5451 295.67C87.175 292.811 93.199 288.621 98.2733 283.338C103.348 278.056 107.373 271.784 110.119 264.882C112.419 259.101 113.784 252.972 114.167 246.743H114.278V243.359C114.278 243.277 114.279 243.195 114.279 243.113H114.278V1.44189Z"/>
</mask>
<path fill-rule="evenodd" clip-rule="evenodd" d="M114.278 1.44189H84.0487V243.113H83.6564C83.6564 246.397 83.035 249.649 81.8278 252.683C80.6205 255.717 78.8509 258.474 76.6202 260.796C74.3894 263.119 71.7412 264.961 68.8265 266.218C65.9119 267.475 62.7881 268.121 59.6333 268.121C56.4785 268.121 53.3547 267.475 50.4401 266.218C47.5254 264.961 44.8772 263.119 42.6464 260.796C40.4156 258.474 38.6461 255.717 37.4388 252.683C36.2316 249.649 35.6102 246.397 35.6102 243.113H4.98806C4.98806 250.583 6.4015 257.981 9.14768 264.882C11.8939 271.784 15.919 278.056 20.9933 283.338C26.0676 288.621 32.0916 292.811 38.7215 295.67C45.3513 298.529 52.4572 300 59.6333 300C66.8094 300 73.9153 298.529 80.5451 295.67C87.175 292.811 93.199 288.621 98.2733 283.338C103.348 278.056 107.373 271.784 110.119 264.882C112.419 259.101 113.784 252.972 114.167 246.743H114.278V243.359C114.278 243.277 114.279 243.195 114.279 243.113H114.278V1.44189Z" fill="#D4FF73"/>
<path d="M84.0487 1.44189V0.441895H83.0487V1.44189H84.0487ZM114.278 1.44189H115.278V0.441895H114.278V1.44189ZM84.0487 243.113V244.113H85.0487V243.113H84.0487ZM83.6564 243.113V242.113H82.6564V243.113H83.6564ZM76.6202 260.796L77.3414 261.489L77.3414 261.489L76.6202 260.796ZM68.8265 266.218L69.2225 267.136L69.2225 267.136L68.8265 266.218ZM50.4401 266.218L50.0441 267.136L50.0441 267.136L50.4401 266.218ZM42.6464 260.796L41.9252 261.489L41.9252 261.489L42.6464 260.796ZM37.4388 252.683L36.5097 253.053L36.5097 253.053L37.4388 252.683ZM35.6102 243.113H36.6102V242.113H35.6102V243.113ZM4.98806 243.113V242.113H3.98806V243.113H4.98806ZM9.14768 264.882L8.21853 265.252L8.21853 265.252L9.14768 264.882ZM20.9933 283.338L20.2721 284.031L20.2721 284.031L20.9933 283.338ZM38.7215 295.67L38.3255 296.588L38.3255 296.588L38.7215 295.67ZM59.6333 300L59.6333 299H59.6333V300ZM80.5451 295.67L80.9411 296.588L80.9411 296.588L80.5451 295.67ZM98.2733 283.338L98.9945 284.031L98.9945 284.031L98.2733 283.338ZM110.119 264.882L109.19 264.513L109.19 264.513L110.119 264.882ZM114.167 246.743V245.743H113.227L113.169 246.682L114.167 246.743ZM114.278 246.743V247.743H115.278V246.743H114.278ZM114.278 243.359L113.278 243.354V243.359H114.278ZM114.279 243.113H115.279V242.113H114.279V243.113ZM114.278 243.113H113.278V244.113H114.278V243.113ZM84.0487 2.44189H114.278V0.441895H84.0487V2.44189ZM85.0487 243.113V1.44189H83.0487V243.113H85.0487ZM83.6564 244.113H84.0487V242.113H83.6564V244.113ZM82.7569 253.053C84.0113 249.9 84.6564 246.523 84.6564 243.113H82.6564C82.6564 246.271 82.0588 249.397 80.8986 252.313L82.7569 253.053ZM77.3414 261.489C79.663 259.072 81.5025 256.205 82.7569 253.053L80.8986 252.313C79.7384 255.229 78.0389 257.876 75.899 260.104L77.3414 261.489ZM69.2225 267.136C72.2613 265.826 75.0197 263.906 77.3414 261.489L75.899 260.104C73.7592 262.331 71.221 264.096 68.4306 265.299L69.2225 267.136ZM59.6333 269.121C62.9251 269.121 66.1836 268.446 69.2225 267.136L68.4306 265.299C65.6402 266.503 62.651 267.121 59.6333 267.121V269.121ZM50.0441 267.136C53.083 268.446 56.3415 269.121 59.6333 269.121V267.121C56.6156 267.121 53.6264 266.503 50.836 265.299L50.0441 267.136ZM41.9252 261.489C44.2469 263.906 47.0053 265.826 50.0441 267.136L50.836 265.299C48.0456 264.096 45.5074 262.331 43.3676 260.104L41.9252 261.489ZM36.5097 253.053C37.7641 256.205 39.6036 259.072 41.9252 261.489L43.3676 260.104C41.2277 257.876 39.5282 255.229 38.368 252.313L36.5097 253.053ZM34.6102 243.113C34.6102 246.523 35.2553 249.9 36.5097 253.053L38.368 252.313C37.2078 249.397 36.6102 246.271 36.6102 243.113H34.6102ZM4.98806 244.113H35.6102V242.113H4.98806V244.113ZM10.0768 264.513C7.37773 257.729 5.98806 250.457 5.98806 243.113H3.98806C3.98806 250.709 5.42527 258.232 8.21853 265.252L10.0768 264.513ZM21.7145 282.645C16.731 277.457 12.7759 271.296 10.0768 264.513L8.21853 265.252C11.0118 272.272 15.107 278.654 20.2721 284.031L21.7145 282.645ZM39.1174 294.751C32.6117 291.946 26.6978 287.833 21.7145 282.645L20.2721 284.031C25.4373 289.408 31.5715 293.676 38.3255 296.588L39.1174 294.751ZM59.6333 299C52.5942 299 45.623 297.557 39.1174 294.751L38.3255 296.588C45.0796 299.5 52.3202 301 59.6333 301V299ZM80.1492 294.751C73.6436 297.557 66.6724 299 59.6333 299L59.6333 301C66.9464 301 74.187 299.5 80.9411 296.588L80.1492 294.751ZM97.5521 282.645C92.5688 287.833 86.6549 291.946 80.1492 294.751L80.9411 296.588C87.6951 293.676 93.8293 289.408 98.9945 284.031L97.5521 282.645ZM109.19 264.513C106.491 271.296 102.536 277.457 97.5521 282.645L98.9945 284.031C104.16 278.654 108.255 272.272 111.048 265.252L109.19 264.513ZM113.169 246.682C112.793 252.806 111.451 258.831 109.19 264.513L111.048 265.252C113.388 259.372 114.776 253.138 115.165 246.805L113.169 246.682ZM114.278 245.743H114.167V247.743H114.278V245.743ZM113.278 243.359V246.743H115.278V243.359H113.278ZM113.279 243.113C113.279 243.193 113.278 243.274 113.278 243.354L115.278 243.363C115.278 243.279 115.279 243.196 115.279 243.113H113.279ZM114.278 244.113H114.279V242.113H114.278V244.113ZM113.278 1.44189V243.113H115.278V1.44189H113.278Z" fill="black" mask="url(#path-4-inside-2_1_995)"/>
<path d="M34.7173 244.323C34.7173 246.524 33.1947 248.607 30.5372 250.168C27.8913 251.722 24.2033 252.699 20.1027 252.699C16.0021 252.699 12.3141 251.722 9.66823 250.168C7.01068 248.607 5.48806 246.524 5.48806 244.323C5.48806 242.122 7.01068 240.038 9.66823 238.478C12.3141 236.924 16.0021 235.947 20.1027 235.947C24.2033 235.947 27.8913 236.924 30.5372 238.478C33.1947 240.038 34.7173 242.122 34.7173 244.323Z" fill="#FF003D" stroke="black"/>
</mask>
<g mask="url(#mask0_1_995)">
<path d="M52.9496 9.28088L178.52 16.1396L52.9539 56.8887L52.9496 9.28088Z" fill="#FF003D"/>
<path d="M149.845 65.3608L24.2739 72.2196L149.84 112.969L149.845 65.3608Z" fill="#FF003D"/>
<path d="M84.0092 234.812L178.521 242.574L52.9574 188.012L84.0092 234.812Z" fill="#FF003D"/>
<path d="M149.843 176.715L24.275 167.531L149.838 112.969L149.843 176.715Z" fill="#FF003D"/>
</g>
</svg>
