<svg width="116" height="300" viewBox="0 0 116 300" fill="none" xmlns="http://www.w3.org/2000/svg">
<mask id="path-1-inside-1_1_968" fill="white">
<path fill-rule="evenodd" clip-rule="evenodd" d="M115.825 0H84.0165V245.893C83.7363 248.222 83.1366 250.506 82.2301 252.682C80.9298 255.803 79.0239 258.638 76.6213 261.027C74.2186 263.415 71.3662 265.31 68.2269 266.603C65.0877 267.896 61.7231 268.561 58.3252 268.561C54.9273 268.561 51.5627 267.896 48.4234 266.603C45.2842 265.31 42.4318 263.415 40.0291 261.027C37.6264 258.638 35.7205 255.803 34.4202 252.682C33.1199 249.561 32.4506 246.216 32.4506 242.838H0.826172C0.826172 250.345 2.31343 257.778 5.20302 264.713C8.09262 271.648 12.328 277.95 17.6672 283.258C23.0065 288.566 29.3452 292.776 36.3213 295.649C43.2974 298.521 50.7743 300 58.3252 300C65.8761 300 73.353 298.521 80.3291 295.649C87.3052 292.776 93.6438 288.566 98.9831 283.258C104.322 277.95 108.558 271.648 111.447 264.713C113.868 258.904 115.304 252.745 115.707 246.486H115.825V0Z"/>
</mask>
<path fill-rule="evenodd" clip-rule="evenodd" d="M115.825 0H84.0165V245.893C83.7363 248.222 83.1366 250.506 82.2301 252.682C80.9298 255.803 79.0239 258.638 76.6213 261.027C74.2186 263.415 71.3662 265.31 68.2269 266.603C65.0877 267.896 61.7231 268.561 58.3252 268.561C54.9273 268.561 51.5627 267.896 48.4234 266.603C45.2842 265.31 42.4318 263.415 40.0291 261.027C37.6264 258.638 35.7205 255.803 34.4202 252.682C33.1199 249.561 32.4506 246.216 32.4506 242.838H0.826172C0.826172 250.345 2.31343 257.778 5.20302 264.713C8.09262 271.648 12.328 277.95 17.6672 283.258C23.0065 288.566 29.3452 292.776 36.3213 295.649C43.2974 298.521 50.7743 300 58.3252 300C65.8761 300 73.353 298.521 80.3291 295.649C87.3052 292.776 93.6438 288.566 98.9831 283.258C104.322 277.95 108.558 271.648 111.447 264.713C113.868 258.904 115.304 252.745 115.707 246.486H115.825V0Z" fill="#D4FF73"/>
<path d="M84.0165 0V-1H83.0165V0H84.0165ZM115.825 0H116.825V-1H115.825V0ZM84.0165 245.893L85.0094 246.013L85.0165 245.953V245.893H84.0165ZM82.2301 252.682L81.3071 252.297L81.3071 252.297L82.2301 252.682ZM76.6213 261.027L77.3263 261.736L77.3263 261.736L76.6213 261.027ZM40.0291 261.027L39.3241 261.736L39.3241 261.736L40.0291 261.027ZM34.4202 252.682L33.4971 253.066L33.4971 253.066L34.4202 252.682ZM32.4506 242.838H33.4506V241.838H32.4506V242.838ZM0.826172 242.838V241.838H-0.173828V242.838H0.826172ZM5.20302 264.713L6.1261 264.328L6.1261 264.328L5.20302 264.713ZM17.6672 283.258L16.9622 283.967L16.9622 283.967L17.6672 283.258ZM36.3213 295.649L36.702 294.724L36.702 294.724L36.3213 295.649ZM58.3252 300L58.3252 299H58.3252V300ZM80.3291 295.649L79.9483 294.724L79.9483 294.724L80.3291 295.649ZM98.9831 283.258L98.2781 282.548L98.2781 282.548L98.9831 283.258ZM111.447 264.713L110.524 264.328L110.524 264.328L111.447 264.713ZM115.707 246.486V245.486H114.769L114.709 246.422L115.707 246.486ZM115.825 246.486V247.486H116.825V246.486H115.825ZM84.0165 1H115.825V-1H84.0165V1ZM85.0165 245.893V0H83.0165V245.893H85.0165ZM83.1532 253.066C84.095 250.806 84.7182 248.432 85.0094 246.013L83.0237 245.774C82.7545 248.011 82.1781 250.206 81.3071 252.297L83.1532 253.066ZM77.3263 261.736C79.8221 259.255 81.8022 256.309 83.1532 253.066L81.3071 252.297C80.0575 255.296 78.2258 258.022 75.9162 260.318L77.3263 261.736ZM68.6077 267.527C71.8679 266.185 74.8305 264.217 77.3263 261.736L75.9162 260.318C73.6067 262.614 70.8645 264.435 67.8462 265.678L68.6077 267.527ZM58.3252 269.561C61.8536 269.561 65.3476 268.87 68.6077 267.527L67.8462 265.678C64.8278 266.921 61.5926 267.561 58.3252 267.561V269.561ZM48.0427 267.527C51.3028 268.87 54.7968 269.561 58.3252 269.561V267.561C55.0578 267.561 51.8225 266.921 48.8042 265.678L48.0427 267.527ZM39.3241 261.736C41.8199 264.217 44.7825 266.185 48.0427 267.527L48.8042 265.678C45.7858 264.435 43.0437 262.614 40.7341 260.318L39.3241 261.736ZM33.4971 253.066C34.8482 256.309 36.8283 259.255 39.3241 261.736L40.7341 260.318C38.4246 258.022 36.5929 255.296 35.3433 252.297L33.4971 253.066ZM31.4506 242.838C31.4506 246.348 32.1461 249.824 33.4971 253.066L35.3433 252.297C34.0937 249.298 33.4506 246.084 33.4506 242.838H31.4506ZM0.826172 243.838H32.4506V241.838H0.826172V243.838ZM6.1261 264.328C3.28724 257.515 1.82617 250.212 1.82617 242.838H-0.173828C-0.173828 250.477 1.33961 258.041 4.27994 265.097L6.1261 264.328ZM18.3723 282.548C13.1261 277.333 8.96497 271.142 6.1261 264.328L4.27994 265.097C7.22026 272.154 11.5298 278.566 16.9622 283.967L18.3723 282.548ZM36.702 294.724C29.8468 291.901 23.6184 287.764 18.3723 282.548L16.9622 283.967C22.3946 289.367 28.8435 293.651 35.9405 296.573L36.702 294.724ZM58.3252 299C50.9048 299 43.5572 297.547 36.702 294.724L35.9405 296.573C43.0375 299.496 50.6438 301 58.3252 301V299ZM79.9483 294.724C73.0931 297.547 65.7455 299 58.3252 299L58.3252 301C66.0066 301 73.6129 299.496 80.7099 296.573L79.9483 294.724ZM98.2781 282.548C93.0319 287.764 86.8035 291.901 79.9483 294.724L80.7099 296.573C87.8069 293.651 94.2557 289.367 99.6881 283.967L98.2781 282.548ZM110.524 264.328C107.685 271.142 103.524 277.333 98.2781 282.548L99.6881 283.967C105.121 278.566 109.43 272.154 112.37 265.097L110.524 264.328ZM114.709 246.422C114.313 252.571 112.902 258.621 110.524 264.328L112.37 265.097C114.833 259.186 116.295 252.919 116.705 246.55L114.709 246.422ZM115.825 245.486H115.707V247.486H115.825V245.486ZM114.825 0V246.486H116.825V0H114.825Z" fill="black" mask="url(#path-1-inside-1_1_968)"/>
<path d="M32.1341 244.055C32.1341 246.256 30.5377 248.351 27.7314 249.925C24.9411 251.49 21.0526 252.473 16.7302 252.473C12.4078 252.473 8.51923 251.49 5.72891 249.925C2.9226 248.351 1.32617 246.256 1.32617 244.055C1.32617 241.853 2.9226 239.758 5.72891 238.184C8.51923 236.619 12.4078 235.636 16.7302 235.636C21.0526 235.636 24.9411 236.619 27.7314 238.184C30.5377 239.758 32.1341 241.853 32.1341 244.055Z" fill="#7A61E3" stroke="black"/>
<path d="M85.2243 0.501456L100.237 15.5035L114.651 0.501455L85.2243 0.501456Z" fill="#FF003D" stroke="black"/>
<path d="M85.2243 31.1233L100.237 16.1212L114.651 31.1233L85.2243 31.1233Z" fill="#FF003D" stroke="black"/>
<path d="M84.519 62.1685L99.6232 46.7774L84.519 32.0008L84.519 62.1685Z" fill="#7A61E3" stroke="black"/>
<path d="M115.326 62.1685L100.222 46.7774L115.326 32.0008L115.326 62.1685Z" fill="#7A61E3" stroke="black"/>
<path d="M85.2243 62.9336L100.237 77.9357L114.651 62.9336L85.2243 62.9336Z" fill="#FF003D" stroke="black"/>
<path d="M85.2243 93.5553L100.237 78.5532L114.651 93.5553L85.2243 93.5553Z" fill="#FF003D" stroke="black"/>
<path d="M84.519 124.601L99.6232 109.209L84.519 94.4328L84.519 124.601Z" fill="#7A61E3" stroke="black"/>
<path d="M115.326 124.601L100.222 109.209L115.326 94.4328L115.326 124.601Z" fill="#7A61E3" stroke="black"/>
<path d="M85.2243 126.177L100.237 141.179L114.651 126.177L85.2243 126.177Z" fill="#FF003D" stroke="black"/>
<path d="M85.2243 156.799L100.237 141.797L114.651 156.799L85.2243 156.799Z" fill="#FF003D" stroke="black"/>
<path d="M84.519 187.843L99.6232 172.452L84.519 157.675L84.519 187.843Z" fill="#7A61E3" stroke="black"/>
<path d="M115.326 187.843L100.222 172.452L115.326 157.675L115.326 187.843Z" fill="#7A61E3" stroke="black"/>
<path d="M85.2243 188.609L100.237 203.611L114.651 188.609L85.2243 188.609Z" fill="#FF003D" stroke="black"/>
<path d="M85.2243 219.231L100.237 204.229L114.651 219.231L85.2243 219.231Z" fill="#FF003D" stroke="black"/>
</svg>
