<svg width="116" height="300" viewBox="0 0 116 300" fill="none" xmlns="http://www.w3.org/2000/svg">
<mask id="path-1-inside-1_1_919" fill="white">
<path fill-rule="evenodd" clip-rule="evenodd" d="M115.104 0H83.2951V245.893C83.0149 248.222 82.4151 250.506 81.5087 252.682C80.2083 255.803 78.3024 258.638 75.8997 261.027C73.497 263.415 70.6445 265.31 67.5053 266.603C64.366 267.896 61.0013 268.561 57.6034 268.561C54.2054 268.561 50.8407 267.896 47.7014 266.603C44.5622 265.31 41.7097 263.415 39.307 261.027C36.9043 258.638 34.9984 255.803 33.698 252.682C32.3977 249.561 31.7284 246.216 31.7284 242.838H0.103516C0.103516 250.345 1.59079 257.778 4.48043 264.713C7.37007 271.648 11.6055 277.95 16.9448 283.258C22.2842 288.566 28.6229 292.776 35.5991 295.649C42.5753 298.521 50.0524 300 57.6033 300C65.1543 300 72.6314 298.521 79.6076 295.649C86.5838 292.776 92.9225 288.566 98.2619 283.258C103.601 277.95 107.837 271.648 110.726 264.713C113.147 258.904 114.583 252.745 114.986 246.486H115.104V0Z"/>
</mask>
<path fill-rule="evenodd" clip-rule="evenodd" d="M115.104 0H83.2951V245.893C83.0149 248.222 82.4151 250.506 81.5087 252.682C80.2083 255.803 78.3024 258.638 75.8997 261.027C73.497 263.415 70.6445 265.31 67.5053 266.603C64.366 267.896 61.0013 268.561 57.6034 268.561C54.2054 268.561 50.8407 267.896 47.7014 266.603C44.5622 265.31 41.7097 263.415 39.307 261.027C36.9043 258.638 34.9984 255.803 33.698 252.682C32.3977 249.561 31.7284 246.216 31.7284 242.838H0.103516C0.103516 250.345 1.59079 257.778 4.48043 264.713C7.37007 271.648 11.6055 277.95 16.9448 283.258C22.2842 288.566 28.6229 292.776 35.5991 295.649C42.5753 298.521 50.0524 300 57.6033 300C65.1543 300 72.6314 298.521 79.6076 295.649C86.5838 292.776 92.9225 288.566 98.2619 283.258C103.601 277.95 107.837 271.648 110.726 264.713C113.147 258.904 114.583 252.745 114.986 246.486H115.104V0Z" fill="#7B62E4"/>
<path d="M83.2951 0V-1H82.2951V0H83.2951ZM115.104 0H116.104V-1H115.104V0ZM83.2951 245.893L84.2879 246.013L84.2951 245.953V245.893H83.2951ZM81.5087 252.682L80.5856 252.297L80.5856 252.297L81.5087 252.682ZM75.8997 261.027L76.6047 261.736L76.6047 261.736L75.8997 261.027ZM47.7014 266.603L48.0822 265.678L48.0822 265.678L47.7014 266.603ZM39.307 261.027L38.602 261.736L38.602 261.736L39.307 261.027ZM33.698 252.682L32.775 253.066L32.775 253.066L33.698 252.682ZM31.7284 242.838H32.7284V241.838H31.7284V242.838ZM0.103516 242.838V241.838H-0.896484V242.838H0.103516ZM4.48043 264.713L5.40351 264.328L5.40351 264.328L4.48043 264.713ZM16.9448 283.258L16.2398 283.967L16.2398 283.967L16.9448 283.258ZM35.5991 295.649L35.9799 294.724L35.9799 294.724L35.5991 295.649ZM57.6033 300L57.6034 299H57.6033V300ZM79.6076 295.649L79.2268 294.724L79.2268 294.724L79.6076 295.649ZM98.2619 283.258L97.5569 282.548L97.5569 282.548L98.2619 283.258ZM110.726 264.713L109.803 264.328L109.803 264.328L110.726 264.713ZM114.986 246.486V245.486H114.048L113.988 246.422L114.986 246.486ZM115.104 246.486V247.486H116.104V246.486H115.104ZM83.2951 1H115.104V-1H83.2951V1ZM84.2951 245.893V0H82.2951V245.893H84.2951ZM82.4317 253.066C83.3735 250.806 83.9968 248.432 84.2879 246.013L82.3023 245.774C82.033 248.011 81.4567 250.206 80.5856 252.297L82.4317 253.066ZM76.6047 261.736C79.1006 259.255 81.0807 256.309 82.4317 253.066L80.5856 252.297C79.336 255.296 77.5042 258.022 75.1947 260.318L76.6047 261.736ZM67.886 267.527C71.1462 266.185 74.1089 264.217 76.6047 261.736L75.1947 260.318C72.8851 262.614 70.1429 264.435 67.1245 265.678L67.886 267.527ZM57.6034 269.561C61.1318 269.561 64.6258 268.87 67.886 267.527L67.1245 265.678C64.1061 266.921 60.8708 267.561 57.6034 267.561V269.561ZM47.3207 267.527C50.5809 268.87 54.0749 269.561 57.6034 269.561V267.561C54.3359 267.561 51.1006 266.921 48.0822 265.678L47.3207 267.527ZM38.602 261.736C41.0978 264.217 44.0605 266.185 47.3207 267.527L48.0822 265.678C45.0638 264.435 42.3216 262.614 40.012 260.318L38.602 261.736ZM32.775 253.066C34.126 256.309 36.1061 259.255 38.602 261.736L40.012 260.318C37.7025 258.022 35.8707 255.296 34.6211 252.297L32.775 253.066ZM30.7284 242.838C30.7284 246.348 31.4239 249.824 32.775 253.066L34.6211 252.297C33.3715 249.298 32.7284 246.084 32.7284 242.838H30.7284ZM0.103516 243.838H31.7284V241.838H0.103516V243.838ZM5.40351 264.328C2.5646 257.515 1.10352 250.212 1.10352 242.838H-0.896484C-0.896484 250.477 0.61698 258.041 3.55735 265.098L5.40351 264.328ZM17.6498 282.548C12.4036 277.333 8.24242 271.142 5.40351 264.328L3.55735 265.098C6.49771 272.154 10.8073 278.566 16.2398 283.967L17.6498 282.548ZM35.9799 294.724C29.1246 291.901 22.8961 287.764 17.6498 282.548L16.2398 283.967C21.6723 289.367 28.1213 293.651 35.2184 296.573L35.9799 294.724ZM57.6033 299C50.1829 299 42.8352 297.547 35.9799 294.724L35.2183 296.573C42.3154 299.496 49.9219 301 57.6033 301V299ZM79.2268 294.724C72.3715 297.547 65.0238 299 57.6034 299L57.6033 301C65.2848 301 72.8913 299.496 79.9883 296.573L79.2268 294.724ZM97.5569 282.548C92.3106 287.764 86.0821 291.901 79.2268 294.724L79.9883 296.573C87.0854 293.651 93.5344 289.367 98.9669 283.967L97.5569 282.548ZM109.803 264.328C106.964 271.142 102.803 277.333 97.5569 282.548L98.9669 283.967C104.399 278.566 108.709 272.154 111.649 265.098L109.803 264.328ZM113.988 246.422C113.592 252.571 112.181 258.621 109.803 264.328L111.649 265.098C114.112 259.186 115.574 252.919 115.984 246.55L113.988 246.422ZM115.104 245.486H114.986V247.486H115.104V245.486ZM114.104 0V246.486H116.104V0H114.104Z" fill="black" mask="url(#path-1-inside-1_1_919)"/>
<rect x="83.7951" y="35.3644" width="30.8084" height="7.1081" fill="#D2CCF4"/>
<rect x="83.7951" y="35.3644" width="30.8084" height="7.1081" fill="#D2CCF4"/>
<rect x="83.7951" y="35.3644" width="30.8084" height="7.1081" fill="#D2CCF4"/>
<rect x="83.7951" y="35.3644" width="30.8084" height="7.1081" fill="#D2CCF4"/>
<rect x="83.7951" y="35.3644" width="30.8084" height="7.1081" stroke="black"/>
<rect x="83.7951" y="47.527" width="30.8084" height="7.1081" fill="#D2CCF4"/>
<rect x="83.7951" y="47.527" width="30.8084" height="7.1081" fill="#D2CCF4"/>
<rect x="83.7951" y="47.527" width="30.8084" height="7.1081" fill="#D2CCF4"/>
<rect x="83.7951" y="47.527" width="30.8084" height="7.1081" fill="#D2CCF4"/>
<rect x="83.7951" y="47.527" width="30.8084" height="7.1081" stroke="black"/>
<rect x="83.7951" y="59.6895" width="30.8084" height="7.1081" fill="#D2CCF4"/>
<rect x="83.7951" y="59.6895" width="30.8084" height="7.1081" fill="#D2CCF4"/>
<rect x="83.7951" y="59.6895" width="30.8084" height="7.1081" fill="#D2CCF4"/>
<rect x="83.7951" y="59.6895" width="30.8084" height="7.1081" fill="#D2CCF4"/>
<rect x="83.7951" y="59.6895" width="30.8084" height="7.1081" stroke="black"/>
<rect x="83.7951" y="71.8511" width="30.8084" height="7.1081" fill="#D2CCF4"/>
<rect x="83.7951" y="71.8511" width="30.8084" height="7.1081" fill="#D2CCF4"/>
<rect x="83.7951" y="71.8511" width="30.8084" height="7.1081" fill="#D2CCF4"/>
<rect x="83.7951" y="71.8511" width="30.8084" height="7.1081" fill="#D2CCF4"/>
<rect x="83.7951" y="71.8511" width="30.8084" height="7.1081" stroke="black"/>
<rect x="83.7951" y="11.0403" width="30.8084" height="7.1081" fill="#D2CCF4"/>
<rect x="83.7951" y="11.0403" width="30.8084" height="7.1081" fill="#D2CCF4"/>
<rect x="83.7951" y="11.0403" width="30.8084" height="7.1081" fill="#D2CCF4"/>
<rect x="83.7951" y="11.0403" width="30.8084" height="7.1081" fill="#D2CCF4"/>
<rect x="83.7951" y="11.0403" width="30.8084" height="7.1081" stroke="black"/>
<rect x="83.7951" y="23.2029" width="30.8084" height="7.1081" fill="#D2CCF4"/>
<rect x="83.7951" y="23.2029" width="30.8084" height="7.1081" fill="#D2CCF4"/>
<rect x="83.7951" y="23.2029" width="30.8084" height="7.1081" fill="#D2CCF4"/>
<rect x="83.7951" y="23.2029" width="30.8084" height="7.1081" fill="#D2CCF4"/>
<rect x="83.7951" y="23.2029" width="30.8084" height="7.1081" stroke="black"/>
<rect x="83.7951" y="84.0135" width="30.8084" height="7.1081" fill="#D2CCF4"/>
<rect x="83.7951" y="84.0135" width="30.8084" height="7.1081" fill="#D2CCF4"/>
<rect x="83.7951" y="84.0135" width="30.8084" height="7.1081" fill="#D2CCF4"/>
<rect x="83.7951" y="84.0135" width="30.8084" height="7.1081" fill="#D2CCF4"/>
<rect x="83.7951" y="84.0135" width="30.8084" height="7.1081" stroke="black"/>
<rect x="83.7951" y="96.1752" width="30.8084" height="7.1081" fill="#D2CCF4"/>
<rect x="83.7951" y="96.1752" width="30.8084" height="7.1081" fill="#D2CCF4"/>
<rect x="83.7951" y="96.1752" width="30.8084" height="7.1081" fill="#D2CCF4"/>
<rect x="83.7951" y="96.1752" width="30.8084" height="7.1081" fill="#D2CCF4"/>
<rect x="83.7951" y="96.1752" width="30.8084" height="7.1081" stroke="black"/>
<rect x="83.7951" y="108.338" width="30.8084" height="7.1081" fill="#D2CCF4"/>
<rect x="83.7951" y="108.338" width="30.8084" height="7.1081" fill="#D2CCF4"/>
<rect x="83.7951" y="108.338" width="30.8084" height="7.1081" fill="#D2CCF4"/>
<rect x="83.7951" y="108.338" width="30.8084" height="7.1081" fill="#D2CCF4"/>
<rect x="83.7951" y="108.338" width="30.8084" height="7.1081" stroke="black"/>
<rect x="83.7951" y="120.5" width="30.8084" height="7.1081" fill="#D2CCF4"/>
<rect x="83.7951" y="120.5" width="30.8084" height="7.1081" fill="#D2CCF4"/>
<rect x="83.7951" y="120.5" width="30.8084" height="7.1081" fill="#D2CCF4"/>
<rect x="83.7951" y="120.5" width="30.8084" height="7.1081" fill="#D2CCF4"/>
<rect x="83.7951" y="120.5" width="30.8084" height="7.1081" stroke="black"/>
<rect x="83.7951" y="132.662" width="30.8084" height="7.1081" fill="#D2CCF4"/>
<rect x="83.7951" y="132.662" width="30.8084" height="7.1081" fill="#D2CCF4"/>
<rect x="83.7951" y="132.662" width="30.8084" height="7.1081" fill="#D2CCF4"/>
<rect x="83.7951" y="132.662" width="30.8084" height="7.1081" fill="#D2CCF4"/>
<rect x="83.7951" y="132.662" width="30.8084" height="7.1081" stroke="black"/>
<rect x="83.7951" y="144.824" width="30.8084" height="7.1081" fill="#D2CCF4"/>
<rect x="83.7951" y="144.824" width="30.8084" height="7.1081" fill="#D2CCF4"/>
<rect x="83.7951" y="144.824" width="30.8084" height="7.1081" fill="#D2CCF4"/>
<rect x="83.7951" y="144.824" width="30.8084" height="7.1081" fill="#D2CCF4"/>
<rect x="83.7951" y="144.824" width="30.8084" height="7.1081" stroke="black"/>
<rect x="83.7951" y="156.986" width="30.8084" height="7.1081" fill="#D2CCF4"/>
<rect x="83.7951" y="156.986" width="30.8084" height="7.1081" fill="#D2CCF4"/>
<rect x="83.7951" y="156.986" width="30.8084" height="7.1081" fill="#D2CCF4"/>
<rect x="83.7951" y="156.986" width="30.8084" height="7.1081" fill="#D2CCF4"/>
<rect x="83.7951" y="156.986" width="30.8084" height="7.1081" stroke="black"/>
<rect x="83.7951" y="169.148" width="30.8084" height="7.1081" fill="#D2CCF4"/>
<rect x="83.7951" y="169.148" width="30.8084" height="7.1081" fill="#D2CCF4"/>
<rect x="83.7951" y="169.148" width="30.8084" height="7.1081" fill="#D2CCF4"/>
<rect x="83.7951" y="169.148" width="30.8084" height="7.1081" fill="#D2CCF4"/>
<rect x="83.7951" y="169.148" width="30.8084" height="7.1081" stroke="black"/>
<rect x="83.7951" y="181.311" width="30.8084" height="7.1081" fill="#D2CCF4"/>
<rect x="83.7951" y="181.311" width="30.8084" height="7.1081" fill="#D2CCF4"/>
<rect x="83.7951" y="181.311" width="30.8084" height="7.1081" fill="#D2CCF4"/>
<rect x="83.7951" y="181.311" width="30.8084" height="7.1081" fill="#D2CCF4"/>
<rect x="83.7951" y="181.311" width="30.8084" height="7.1081" stroke="black"/>
<rect x="83.7951" y="193.473" width="30.8084" height="7.1081" fill="#D2CCF4"/>
<rect x="83.7951" y="193.473" width="30.8084" height="7.1081" fill="#D2CCF4"/>
<rect x="83.7951" y="193.473" width="30.8084" height="7.1081" fill="#D2CCF4"/>
<rect x="83.7951" y="193.473" width="30.8084" height="7.1081" fill="#D2CCF4"/>
<rect x="83.7951" y="193.473" width="30.8084" height="7.1081" stroke="black"/>
<rect x="83.7951" y="205.635" width="30.8084" height="7.1081" fill="#D2CCF4"/>
<rect x="83.7951" y="205.635" width="30.8084" height="7.1081" fill="#D2CCF4"/>
<rect x="83.7951" y="205.635" width="30.8084" height="7.1081" fill="#D2CCF4"/>
<rect x="83.7951" y="205.635" width="30.8084" height="7.1081" fill="#D2CCF4"/>
<rect x="83.7951" y="205.635" width="30.8084" height="7.1081" stroke="black"/>
<rect x="83.7951" y="217.797" width="30.8084" height="7.1081" fill="#D2CCF4"/>
<rect x="83.7951" y="217.797" width="30.8084" height="7.1081" fill="#D2CCF4"/>
<rect x="83.7951" y="217.797" width="30.8084" height="7.1081" fill="#D2CCF4"/>
<rect x="83.7951" y="217.797" width="30.8084" height="7.1081" fill="#D2CCF4"/>
<rect x="83.7951" y="217.797" width="30.8084" height="7.1081" stroke="black"/>
<rect x="83.7951" y="229.959" width="30.8084" height="7.1081" fill="#D2CCF4"/>
<rect x="83.7951" y="229.959" width="30.8084" height="7.1081" fill="#D2CCF4"/>
<rect x="83.7951" y="229.959" width="30.8084" height="7.1081" fill="#D2CCF4"/>
<rect x="83.7951" y="229.959" width="30.8084" height="7.1081" fill="#D2CCF4"/>
<rect x="83.7951" y="229.959" width="30.8084" height="7.1081" stroke="black"/>
<path d="M31.4119 244.054C31.4119 246.255 29.8155 248.351 27.0091 249.924C24.2188 251.489 20.3302 252.473 16.0077 252.473C11.6853 252.473 7.79668 251.489 5.00631 249.924C2.19997 248.351 0.603516 246.255 0.603516 244.054C0.603516 241.853 2.19997 239.757 5.00631 238.183C7.79668 236.618 11.6853 235.635 16.0077 235.635C20.3302 235.635 24.2188 236.618 27.0091 238.183C29.8155 239.757 31.4119 241.853 31.4119 244.054Z" fill="#D2CCF4" stroke="black"/>
</svg>
