<svg width="505" height="90" viewBox="0 0 505 90" fill="none" xmlns="http://www.w3.org/2000/svg">
<path d="M460 0.5H0.5V89.5H460C484.577 89.5 504.5 69.5767 504.5 45C504.5 20.4233 484.577 0.5 460 0.5Z" fill="#FF003D" stroke="black"/>
<mask id="path-2-outside-1_267_1670" maskUnits="userSpaceOnUse" x="84" y="22" width="392" height="51" fill="black">
<rect fill="white" x="84" y="22" width="392" height="51"/>
<path d="M112.918 48.1149C114.43 48.5943 115.573 49.3319 116.348 50.3277C117.159 51.2865 117.565 52.4667 117.565 53.8681V54.4213C117.565 56.8184 116.624 58.6809 114.743 60.0085C112.899 61.3362 110.281 62 106.888 62H86.088V34.617H106.169C109.562 34.617 112.18 35.2624 114.024 36.5532C115.905 37.8071 116.845 39.6142 116.845 41.9745V42.5277C116.845 45.0723 115.536 46.9347 112.918 48.1149ZM91.3986 38.7106V46.1234H105.948C107.681 46.1234 109.009 45.8284 109.931 45.2383C110.889 44.6113 111.369 43.7262 111.369 42.583V42.0298C111.369 40.9603 110.908 40.1489 109.986 39.5957C109.064 39.0057 107.718 38.7106 105.948 38.7106H91.3986ZM112.088 53.7574C112.088 52.6511 111.627 51.8028 110.705 51.2128C109.783 50.6227 108.455 50.3277 106.722 50.3277H91.3986V57.8511H106.722C108.455 57.8511 109.783 57.556 110.705 56.966C111.627 56.339 112.088 55.4539 112.088 54.3106V53.7574ZM145.111 42.8596C148.615 42.8596 151.326 43.6894 153.243 45.3489C155.198 47.0085 156.175 49.2766 156.175 52.1532V52.8723C156.175 55.6383 155.198 57.8511 153.243 59.5106C151.326 61.1702 148.615 62 145.111 62H125.805V34.617H131.116V42.8596H145.111ZM165.414 34.617V62H160.103V34.617H165.414ZM150.699 52.1532C150.699 49.0922 148.707 47.5617 144.724 47.5617H131.116V57.2979H144.724C146.753 57.2979 148.246 56.9106 149.205 56.1362C150.201 55.3617 150.699 54.2738 150.699 52.8723V52.1532ZM191.764 35.9447C194.789 35.9447 197.444 36.4794 199.73 37.5489C202.017 38.5816 203.787 40.0752 205.041 42.0298C206.295 43.9475 206.922 46.1787 206.922 48.7234V50.0511C206.922 52.5589 206.24 54.7716 204.875 56.6894C203.547 58.5702 201.667 60.0454 199.233 61.1149C196.798 62.1475 193.959 62.6638 190.713 62.6638C185.366 62.6638 181.254 61.2624 178.377 58.4596C175.501 55.6199 174.062 51.5816 174.062 46.3447V42.583C174.062 37.4199 175.408 33.4738 178.101 30.7447C180.793 27.9787 184.868 26.3929 190.326 25.9872L197.573 25.434C198.274 25.3972 198.772 25.2681 199.067 25.0468C199.398 24.7886 199.564 24.4383 199.564 23.9957V23.4979H205.262V24.1617C205.262 26.0057 204.728 27.444 203.658 28.4766C202.625 29.4723 201.04 30.044 198.901 30.1915L190.437 30.8553C186.601 31.1504 183.762 32.0723 181.918 33.6213C180.111 35.1702 179.189 37.4199 179.152 40.3702C180.664 38.9688 182.508 37.8808 184.684 37.1064C186.859 36.3319 189.22 35.9447 191.764 35.9447ZM201.445 48.834C201.445 46.3262 200.486 44.3532 198.569 42.9149C196.651 41.4766 193.996 40.7574 190.603 40.7574C185.735 40.7574 181.991 42.3248 179.373 45.4596V47.6723C179.373 51.0284 180.313 53.573 182.194 55.3064C184.112 57.0028 186.915 57.8511 190.603 57.8511C193.959 57.8511 196.596 57.1504 198.513 55.7489C200.468 54.3475 201.445 52.4298 201.445 49.9957V48.834ZM244.047 50.0511H217.659C217.844 52.4482 218.876 54.3475 220.757 55.7489C222.638 57.1135 225.146 57.7957 228.281 57.7957C231.194 57.7957 233.554 57.3163 235.362 56.3574C237.206 55.3617 238.201 54.0525 238.349 52.4298H244.047C243.752 55.6383 242.203 58.1461 239.4 59.9532C236.634 61.7603 232.928 62.6638 228.281 62.6638C224.998 62.6638 222.14 62.1106 219.706 61.0043C217.272 59.861 215.391 58.2567 214.064 56.1915C212.773 54.1262 212.128 51.7106 212.128 48.9447V47.783C212.128 44.9801 212.773 42.5461 214.064 40.4808C215.391 38.3787 217.272 36.7745 219.706 35.6681C222.14 34.5248 224.998 33.9532 228.281 33.9532C233.186 33.9532 237.04 35.1702 239.842 37.6043C242.645 40.0014 244.047 43.3206 244.047 47.5617V50.0511ZM228.281 38.8213C225.33 38.8213 222.933 39.4298 221.089 40.6468C219.282 41.8269 218.176 43.4865 217.77 45.6255H238.404C238.072 43.4865 237.021 41.8269 235.251 40.6468C233.481 39.4298 231.157 38.8213 228.281 38.8213ZM266.998 33.9532C270.281 33.9532 273.157 34.5248 275.628 35.6681C278.099 36.8113 279.998 38.434 281.326 40.5362C282.654 42.6014 283.318 45.0355 283.318 47.8383V48.7234C283.318 51.5262 282.654 53.9787 281.326 56.0809C279.998 58.183 278.099 59.8057 275.628 60.9489C273.157 62.0922 270.281 62.6638 266.998 62.6638C264.97 62.6638 263.071 62.3504 261.301 61.7234C259.53 61.0965 257.981 60.1929 256.654 59.0128V71.4043H251.343V34.617H256.267L256.488 37.7702C257.852 36.5532 259.438 35.6128 261.245 34.9489C263.052 34.2851 264.97 33.9532 266.998 33.9532ZM277.841 47.8383C277.841 45.0355 276.864 42.8411 274.909 41.2553C272.991 39.6326 270.336 38.8213 266.943 38.8213C264.767 38.8213 262.757 39.2085 260.913 39.983C259.106 40.7574 257.686 41.8085 256.654 43.1362V53.4255C257.686 54.7532 259.106 55.8227 260.913 56.634C262.757 57.4085 264.767 57.7957 266.943 57.7957C270.336 57.7957 272.991 56.9844 274.909 55.3617C276.864 53.739 277.841 51.5262 277.841 48.7234V47.8383ZM295.707 34.617V55.5277L315.788 34.617H320.656V62H315.567V41.0894L295.486 62H290.618V34.617H295.707ZM381.357 34.617C386.741 34.617 390.908 35.7787 393.859 38.1021C396.809 40.4255 398.284 43.7078 398.284 47.9489V48.7234C398.284 52.8908 396.791 56.1546 393.803 58.5149C390.853 60.8383 386.704 62 381.357 62H376.931V71.4043H371.62V62H367.195C361.847 62 357.68 60.8383 354.693 58.5149C351.742 56.1546 350.267 52.8908 350.267 48.7234V47.9489C350.267 43.7078 351.742 40.4255 354.693 38.1021C357.643 35.7787 361.811 34.617 367.195 34.617H371.62V23.4979H376.931V34.617H381.357ZM371.62 57.2979V39.2638H366.918C363.341 39.2638 360.575 40.0199 358.62 41.5319C356.666 43.044 355.689 45.2014 355.689 48.0043V48.6681C355.689 51.434 356.647 53.573 358.565 55.0851C360.52 56.5603 363.304 57.2979 366.918 57.2979H371.62ZM392.863 48.0043C392.863 45.2014 391.886 43.044 389.931 41.5319C387.976 40.0199 385.211 39.2638 381.633 39.2638H376.931V57.2979H381.633C385.247 57.2979 388.013 56.5603 389.931 55.0851C391.886 53.573 392.863 51.434 392.863 48.6681V48.0043ZM420.067 62.6638C416.711 62.6638 413.798 62.1106 411.327 61.0043C408.856 59.861 406.957 58.2567 405.629 56.1915C404.301 54.0894 403.638 51.6369 403.638 48.834V47.8936C403.638 45.0539 404.301 42.583 405.629 40.4808C406.957 38.3787 408.856 36.7745 411.327 35.6681C413.798 34.5248 416.711 33.9532 420.067 33.9532C423.387 33.9532 426.263 34.5248 428.697 35.6681C431.168 36.7745 433.049 38.3787 434.34 40.4808C435.667 42.583 436.331 45.0539 436.331 47.8936V48.834C436.331 51.6369 435.667 54.0894 434.34 56.1915C433.049 58.2567 431.168 59.861 428.697 61.0043C426.263 62.1106 423.387 62.6638 420.067 62.6638ZM420.012 57.7957C423.405 57.7957 426.06 57.0028 427.978 55.417C429.896 53.8312 430.855 51.6369 430.855 48.834V47.8936C430.855 45.0539 429.896 42.8411 427.978 41.2553C426.06 39.6326 423.405 38.8213 420.012 38.8213C416.545 38.8213 413.853 39.6142 411.936 41.2C410.055 42.7858 409.114 45.017 409.114 47.8936V48.834C409.114 51.6369 410.073 53.8312 411.991 55.417C413.945 57.0028 416.619 57.7957 420.012 57.7957ZM448.92 34.617V45.9021H468.614V34.617H473.925V62H468.614V50.6043H448.92V62H443.61V34.617H448.92Z"/>
</mask>
<path d="M112.918 48.1149C114.43 48.5943 115.573 49.3319 116.348 50.3277C117.159 51.2865 117.565 52.4667 117.565 53.8681V54.4213C117.565 56.8184 116.624 58.6809 114.743 60.0085C112.899 61.3362 110.281 62 106.888 62H86.088V34.617H106.169C109.562 34.617 112.18 35.2624 114.024 36.5532C115.905 37.8071 116.845 39.6142 116.845 41.9745V42.5277C116.845 45.0723 115.536 46.9347 112.918 48.1149ZM91.3986 38.7106V46.1234H105.948C107.681 46.1234 109.009 45.8284 109.931 45.2383C110.889 44.6113 111.369 43.7262 111.369 42.583V42.0298C111.369 40.9603 110.908 40.1489 109.986 39.5957C109.064 39.0057 107.718 38.7106 105.948 38.7106H91.3986ZM112.088 53.7574C112.088 52.6511 111.627 51.8028 110.705 51.2128C109.783 50.6227 108.455 50.3277 106.722 50.3277H91.3986V57.8511H106.722C108.455 57.8511 109.783 57.556 110.705 56.966C111.627 56.339 112.088 55.4539 112.088 54.3106V53.7574ZM145.111 42.8596C148.615 42.8596 151.326 43.6894 153.243 45.3489C155.198 47.0085 156.175 49.2766 156.175 52.1532V52.8723C156.175 55.6383 155.198 57.8511 153.243 59.5106C151.326 61.1702 148.615 62 145.111 62H125.805V34.617H131.116V42.8596H145.111ZM165.414 34.617V62H160.103V34.617H165.414ZM150.699 52.1532C150.699 49.0922 148.707 47.5617 144.724 47.5617H131.116V57.2979H144.724C146.753 57.2979 148.246 56.9106 149.205 56.1362C150.201 55.3617 150.699 54.2738 150.699 52.8723V52.1532ZM191.764 35.9447C194.789 35.9447 197.444 36.4794 199.73 37.5489C202.017 38.5816 203.787 40.0752 205.041 42.0298C206.295 43.9475 206.922 46.1787 206.922 48.7234V50.0511C206.922 52.5589 206.24 54.7716 204.875 56.6894C203.547 58.5702 201.667 60.0454 199.233 61.1149C196.798 62.1475 193.959 62.6638 190.713 62.6638C185.366 62.6638 181.254 61.2624 178.377 58.4596C175.501 55.6199 174.062 51.5816 174.062 46.3447V42.583C174.062 37.4199 175.408 33.4738 178.101 30.7447C180.793 27.9787 184.868 26.3929 190.326 25.9872L197.573 25.434C198.274 25.3972 198.772 25.2681 199.067 25.0468C199.398 24.7886 199.564 24.4383 199.564 23.9957V23.4979H205.262V24.1617C205.262 26.0057 204.728 27.444 203.658 28.4766C202.625 29.4723 201.04 30.044 198.901 30.1915L190.437 30.8553C186.601 31.1504 183.762 32.0723 181.918 33.6213C180.111 35.1702 179.189 37.4199 179.152 40.3702C180.664 38.9688 182.508 37.8808 184.684 37.1064C186.859 36.3319 189.22 35.9447 191.764 35.9447ZM201.445 48.834C201.445 46.3262 200.486 44.3532 198.569 42.9149C196.651 41.4766 193.996 40.7574 190.603 40.7574C185.735 40.7574 181.991 42.3248 179.373 45.4596V47.6723C179.373 51.0284 180.313 53.573 182.194 55.3064C184.112 57.0028 186.915 57.8511 190.603 57.8511C193.959 57.8511 196.596 57.1504 198.513 55.7489C200.468 54.3475 201.445 52.4298 201.445 49.9957V48.834ZM244.047 50.0511H217.659C217.844 52.4482 218.876 54.3475 220.757 55.7489C222.638 57.1135 225.146 57.7957 228.281 57.7957C231.194 57.7957 233.554 57.3163 235.362 56.3574C237.206 55.3617 238.201 54.0525 238.349 52.4298H244.047C243.752 55.6383 242.203 58.1461 239.4 59.9532C236.634 61.7603 232.928 62.6638 228.281 62.6638C224.998 62.6638 222.14 62.1106 219.706 61.0043C217.272 59.861 215.391 58.2567 214.064 56.1915C212.773 54.1262 212.128 51.7106 212.128 48.9447V47.783C212.128 44.9801 212.773 42.5461 214.064 40.4808C215.391 38.3787 217.272 36.7745 219.706 35.6681C222.14 34.5248 224.998 33.9532 228.281 33.9532C233.186 33.9532 237.04 35.1702 239.842 37.6043C242.645 40.0014 244.047 43.3206 244.047 47.5617V50.0511ZM228.281 38.8213C225.33 38.8213 222.933 39.4298 221.089 40.6468C219.282 41.8269 218.176 43.4865 217.77 45.6255H238.404C238.072 43.4865 237.021 41.8269 235.251 40.6468C233.481 39.4298 231.157 38.8213 228.281 38.8213ZM266.998 33.9532C270.281 33.9532 273.157 34.5248 275.628 35.6681C278.099 36.8113 279.998 38.434 281.326 40.5362C282.654 42.6014 283.318 45.0355 283.318 47.8383V48.7234C283.318 51.5262 282.654 53.9787 281.326 56.0809C279.998 58.183 278.099 59.8057 275.628 60.9489C273.157 62.0922 270.281 62.6638 266.998 62.6638C264.97 62.6638 263.071 62.3504 261.301 61.7234C259.53 61.0965 257.981 60.1929 256.654 59.0128V71.4043H251.343V34.617H256.267L256.488 37.7702C257.852 36.5532 259.438 35.6128 261.245 34.9489C263.052 34.2851 264.97 33.9532 266.998 33.9532ZM277.841 47.8383C277.841 45.0355 276.864 42.8411 274.909 41.2553C272.991 39.6326 270.336 38.8213 266.943 38.8213C264.767 38.8213 262.757 39.2085 260.913 39.983C259.106 40.7574 257.686 41.8085 256.654 43.1362V53.4255C257.686 54.7532 259.106 55.8227 260.913 56.634C262.757 57.4085 264.767 57.7957 266.943 57.7957C270.336 57.7957 272.991 56.9844 274.909 55.3617C276.864 53.739 277.841 51.5262 277.841 48.7234V47.8383ZM295.707 34.617V55.5277L315.788 34.617H320.656V62H315.567V41.0894L295.486 62H290.618V34.617H295.707ZM381.357 34.617C386.741 34.617 390.908 35.7787 393.859 38.1021C396.809 40.4255 398.284 43.7078 398.284 47.9489V48.7234C398.284 52.8908 396.791 56.1546 393.803 58.5149C390.853 60.8383 386.704 62 381.357 62H376.931V71.4043H371.62V62H367.195C361.847 62 357.68 60.8383 354.693 58.5149C351.742 56.1546 350.267 52.8908 350.267 48.7234V47.9489C350.267 43.7078 351.742 40.4255 354.693 38.1021C357.643 35.7787 361.811 34.617 367.195 34.617H371.62V23.4979H376.931V34.617H381.357ZM371.62 57.2979V39.2638H366.918C363.341 39.2638 360.575 40.0199 358.62 41.5319C356.666 43.044 355.689 45.2014 355.689 48.0043V48.6681C355.689 51.434 356.647 53.573 358.565 55.0851C360.52 56.5603 363.304 57.2979 366.918 57.2979H371.62ZM392.863 48.0043C392.863 45.2014 391.886 43.044 389.931 41.5319C387.976 40.0199 385.211 39.2638 381.633 39.2638H376.931V57.2979H381.633C385.247 57.2979 388.013 56.5603 389.931 55.0851C391.886 53.573 392.863 51.434 392.863 48.6681V48.0043ZM420.067 62.6638C416.711 62.6638 413.798 62.1106 411.327 61.0043C408.856 59.861 406.957 58.2567 405.629 56.1915C404.301 54.0894 403.638 51.6369 403.638 48.834V47.8936C403.638 45.0539 404.301 42.583 405.629 40.4808C406.957 38.3787 408.856 36.7745 411.327 35.6681C413.798 34.5248 416.711 33.9532 420.067 33.9532C423.387 33.9532 426.263 34.5248 428.697 35.6681C431.168 36.7745 433.049 38.3787 434.34 40.4808C435.667 42.583 436.331 45.0539 436.331 47.8936V48.834C436.331 51.6369 435.667 54.0894 434.34 56.1915C433.049 58.2567 431.168 59.861 428.697 61.0043C426.263 62.1106 423.387 62.6638 420.067 62.6638ZM420.012 57.7957C423.405 57.7957 426.06 57.0028 427.978 55.417C429.896 53.8312 430.855 51.6369 430.855 48.834V47.8936C430.855 45.0539 429.896 42.8411 427.978 41.2553C426.06 39.6326 423.405 38.8213 420.012 38.8213C416.545 38.8213 413.853 39.6142 411.936 41.2C410.055 42.7858 409.114 45.017 409.114 47.8936V48.834C409.114 51.6369 410.073 53.8312 411.991 55.417C413.945 57.0028 416.619 57.7957 420.012 57.7957ZM448.92 34.617V45.9021H468.614V34.617H473.925V62H468.614V50.6043H448.92V62H443.61V34.617H448.92Z" fill="#D4FF73"/>
<path d="M112.918 48.1149L112.35 46.8541L109.052 48.3401L112.5 49.4332L112.918 48.1149ZM116.348 50.3277L115.256 51.1767L115.273 51.1992L115.292 51.221L116.348 50.3277ZM114.743 60.0085L113.946 58.8786L113.935 58.8862L114.743 60.0085ZM86.088 62H84.705V63.383H86.088V62ZM86.088 34.617V33.234H84.705V34.617H86.088ZM114.024 36.5532L113.231 37.6862L113.244 37.6952L113.257 37.7039L114.024 36.5532ZM91.3986 38.7106V37.3277H90.0157V38.7106H91.3986ZM91.3986 46.1234H90.0157V47.5064H91.3986V46.1234ZM109.931 45.2383L110.676 46.4032L110.687 46.3958L109.931 45.2383ZM109.986 39.5957L109.24 40.7606L109.257 40.7714L109.274 40.7816L109.986 39.5957ZM110.705 51.2128L111.451 50.0479L111.451 50.0479L110.705 51.2128ZM91.3986 50.3277V48.9447H90.0157V50.3277H91.3986ZM91.3986 57.8511H90.0157V59.234H91.3986V57.8511ZM110.705 56.966L111.451 58.1308L111.467 58.1204L111.483 58.1096L110.705 56.966ZM112.5 49.4332C113.814 49.8499 114.693 50.4529 115.256 51.1767L117.439 49.4786C116.453 48.2109 115.046 47.3388 113.336 46.7966L112.5 49.4332ZM115.292 51.221C115.867 51.9009 116.182 52.7534 116.182 53.8681H118.948C118.948 52.18 118.451 50.6721 117.403 49.4343L115.292 51.221ZM116.182 53.8681V54.4213H118.948V53.8681H116.182ZM116.182 54.4213C116.182 56.391 115.442 57.8225 113.946 58.8787L115.541 61.1384C117.806 59.5392 118.948 57.2458 118.948 54.4213H116.182ZM113.935 58.8862C112.417 59.9794 110.126 60.617 106.888 60.617V63.383C110.435 63.383 113.382 62.6929 115.551 61.1308L113.935 58.8862ZM106.888 60.617H86.088V63.383H106.888V60.617ZM87.471 62V34.617H84.705V62H87.471ZM86.088 36H106.169V33.234H86.088V36ZM106.169 36C109.414 36 111.71 36.6216 113.231 37.6862L114.817 35.4202C112.65 33.9033 109.71 33.234 106.169 33.234V36ZM113.257 37.7039C114.733 38.688 115.462 40.0522 115.462 41.9745H118.228C118.228 39.1762 117.077 36.9261 114.791 35.4025L113.257 37.7039ZM115.462 41.9745V42.5277H118.228V41.9745H115.462ZM115.462 42.5277C115.462 43.5503 115.204 44.3664 114.732 45.0376C114.253 45.7193 113.491 46.3396 112.35 46.8541L113.486 49.3757C114.963 48.7101 116.165 47.809 116.995 46.6283C117.832 45.4372 118.228 44.0497 118.228 42.5277H115.462ZM90.0157 38.7106V46.1234H92.7816V38.7106H90.0157ZM91.3986 47.5064H105.948V44.7404H91.3986V47.5064ZM105.948 47.5064C107.804 47.5064 109.437 47.1962 110.676 46.4031L109.185 44.0735C108.58 44.4605 107.558 44.7404 105.948 44.7404V47.5064ZM110.687 46.3958C112.036 45.5141 112.752 44.1942 112.752 42.583H109.986C109.986 43.2583 109.743 43.7086 109.174 44.0808L110.687 46.3958ZM112.752 42.583V42.0298H109.986V42.583H112.752ZM112.752 42.0298C112.752 40.4713 112.033 39.2113 110.697 38.4098L109.274 40.7816C109.783 41.0865 109.986 41.4493 109.986 42.0298H112.752ZM110.731 38.4309C109.489 37.6355 107.834 37.3277 105.948 37.3277V40.0936C107.601 40.0936 108.639 40.3758 109.24 40.7606L110.731 38.4309ZM105.948 37.3277H91.3986V40.0936H105.948V37.3277ZM113.471 53.7574C113.471 52.1856 112.775 50.8955 111.451 50.0479L109.96 52.3776C110.479 52.7102 110.705 53.1165 110.705 53.7574H113.471ZM111.451 50.0479C110.211 49.2548 108.579 48.9447 106.722 48.9447V51.7106C108.332 51.7106 109.355 51.9906 109.96 52.3776L111.451 50.0479ZM106.722 48.9447H91.3986V51.7106H106.722V48.9447ZM90.0157 50.3277V57.8511H92.7816V50.3277H90.0157ZM91.3986 59.234H106.722V56.4681H91.3986V59.234ZM106.722 59.234C108.579 59.234 110.211 58.9239 111.451 58.1308L109.96 55.8011C109.355 56.1882 108.332 56.4681 106.722 56.4681V59.234ZM111.483 58.1096C112.795 57.2174 113.471 55.8979 113.471 54.3106H110.705C110.705 55.0099 110.459 55.4606 109.927 55.8223L111.483 58.1096ZM113.471 54.3106V53.7574H110.705V54.3106H113.471ZM153.243 45.3489L152.338 46.3947L152.348 46.4032L153.243 45.3489ZM153.243 59.5106L152.348 58.4564L152.338 58.4649L153.243 59.5106ZM125.805 62H124.422V63.383H125.805V62ZM125.805 34.617V33.234H124.422V34.617H125.805ZM131.116 34.617H132.499V33.234H131.116V34.617ZM131.116 42.8596H129.733V44.2426H131.116V42.8596ZM165.414 34.617H166.796V33.234H165.414V34.617ZM165.414 62V63.383H166.796V62H165.414ZM160.103 62H158.72V63.383H160.103V62ZM160.103 34.617V33.234H158.72V34.617H160.103ZM131.116 47.5617V46.1787H129.733V47.5617H131.116ZM131.116 57.2979H129.733V58.6809H131.116V57.2979ZM149.205 56.1362L148.356 55.0445L148.346 55.0523L148.336 55.0603L149.205 56.1362ZM145.111 44.2426C148.409 44.2426 150.753 45.0232 152.338 46.3947L154.148 44.3032C151.898 42.3555 148.821 41.4766 145.111 41.4766V44.2426ZM152.348 46.4032C153.953 47.766 154.792 49.627 154.792 52.1532H157.558C157.558 48.9261 156.442 46.251 154.138 44.2947L152.348 46.4032ZM154.792 52.1532V52.8723H157.558V52.1532H154.792ZM154.792 52.8723C154.792 55.2686 153.967 57.0822 152.348 58.4564L154.138 60.5649C156.429 58.6199 157.558 56.008 157.558 52.8723H154.792ZM152.338 58.4649C150.753 59.8364 148.409 60.617 145.111 60.617V63.383C148.821 63.383 151.898 62.5041 154.148 60.5564L152.338 58.4649ZM145.111 60.617H125.805V63.383H145.111V60.617ZM127.188 62V34.617H124.422V62H127.188ZM125.805 36H131.116V33.234H125.805V36ZM129.733 34.617V42.8596H132.499V34.617H129.733ZM131.116 44.2426H145.111V41.4766H131.116V44.2426ZM164.031 34.617V62H166.796V34.617H164.031ZM165.414 60.617H160.103V63.383H165.414V60.617ZM161.486 62V34.617H158.72V62H161.486ZM160.103 36H165.414V33.234H160.103V36ZM152.082 52.1532C152.082 50.2977 151.459 48.6978 150.048 47.613C148.705 46.5812 146.854 46.1787 144.724 46.1787V48.9447C146.577 48.9447 147.713 49.3074 148.362 49.8061C148.942 50.2518 149.316 50.9477 149.316 52.1532H152.082ZM144.724 46.1787H131.116V48.9447H144.724V46.1787ZM129.733 47.5617V57.2979H132.499V47.5617H129.733ZM131.116 58.6809H144.724V55.9149H131.116V58.6809ZM144.724 58.6809C146.88 58.6809 148.754 58.278 150.074 57.212L148.336 55.0603C147.738 55.5433 146.625 55.9149 144.724 55.9149V58.6809ZM150.054 57.2278C151.427 56.1598 152.082 54.6464 152.082 52.8723H149.316C149.316 53.9011 148.974 54.5636 148.356 55.0445L150.054 57.2278ZM152.082 52.8723V52.1532H149.316V52.8723H152.082ZM199.73 37.5489L199.144 38.8016L199.153 38.8055L199.161 38.8093L199.73 37.5489ZM205.041 42.0298L203.877 42.7766L203.884 42.7866L205.041 42.0298ZM204.875 56.6894L203.748 55.8876L203.745 55.8918L204.875 56.6894ZM199.233 61.1149L199.773 62.388L199.781 62.3846L199.789 62.381L199.233 61.1149ZM178.377 58.4596L177.406 59.4438L177.412 59.4501L178.377 58.4596ZM178.101 30.7447L179.085 31.7159L179.092 31.7093L178.101 30.7447ZM190.326 25.9872L190.429 27.3664L190.431 27.3662L190.326 25.9872ZM197.573 25.434L197.5 24.053L197.484 24.0538L197.468 24.0551L197.573 25.434ZM199.067 25.0468L199.896 26.1532L199.906 26.1459L199.916 26.1385L199.067 25.0468ZM199.564 23.4979V22.1149H198.181V23.4979H199.564ZM205.262 23.4979H206.645V22.1149H205.262V23.4979ZM203.658 28.4766L204.618 29.4721L204.619 29.4715L203.658 28.4766ZM198.901 30.1915L198.805 28.8117L198.792 28.8127L198.901 30.1915ZM190.437 30.8553L190.543 32.2342L190.545 32.2341L190.437 30.8553ZM181.918 33.6213L181.028 32.5623L181.018 32.5712L181.918 33.6213ZM179.152 40.3702L177.769 40.3529L177.729 43.5749L180.092 41.3845L179.152 40.3702ZM184.684 37.1064L185.147 38.4093L185.147 38.4093L184.684 37.1064ZM198.569 42.9149L199.398 41.8085L199.398 41.8085L198.569 42.9149ZM179.373 45.4596L178.312 44.573L177.99 44.958V45.4596H179.373ZM182.194 55.3064L181.257 56.3234L181.267 56.3329L181.278 56.3422L182.194 55.3064ZM198.513 55.7489L197.708 54.6249L197.697 54.6323L198.513 55.7489ZM191.764 37.3277C194.626 37.3277 197.074 37.8332 199.144 38.8016L200.316 36.2962C197.814 35.1256 194.952 34.5617 191.764 34.5617V37.3277ZM199.161 38.8093C201.224 39.7411 202.779 41.0652 203.877 42.7765L206.205 41.283C204.795 39.0851 202.809 37.422 200.3 36.2885L199.161 38.8093ZM203.884 42.7866C204.974 44.4549 205.539 46.4167 205.539 48.7234H208.305C208.305 45.9407 207.616 43.4402 206.199 41.273L203.884 42.7866ZM205.539 48.7234V50.0511H208.305V48.7234H205.539ZM205.539 50.0511C205.539 52.2914 204.935 54.2197 203.748 55.8876L206.002 57.4912C207.544 55.3235 208.305 52.8263 208.305 50.0511H205.539ZM203.745 55.8918C202.584 57.5371 200.916 58.8645 198.676 59.8487L199.789 62.381C202.417 61.2263 204.511 59.6033 206.005 57.4869L203.745 55.8918ZM198.692 59.8417C196.463 60.7874 193.814 61.2809 190.713 61.2809V64.0468C194.103 64.0468 197.134 63.5076 199.773 62.388L198.692 59.8417ZM190.713 61.2809C185.603 61.2809 181.884 59.9458 179.342 57.469L177.412 59.4501C180.623 62.579 185.128 64.0468 190.713 64.0468V61.2809ZM179.349 57.4754C176.807 54.9661 175.445 51.326 175.445 46.3447H172.679C172.679 51.8371 174.194 56.2736 177.406 59.4438L179.349 57.4754ZM175.445 46.3447V42.583H172.679V46.3447H175.445ZM175.445 42.583C175.445 37.6539 176.727 34.1067 179.085 31.7159L177.116 29.7734C174.09 32.8408 172.679 37.1858 172.679 42.583H175.445ZM179.092 31.7093C181.466 29.2698 185.168 27.7574 190.429 27.3664L190.224 24.6081C184.568 25.0284 180.12 26.6876 177.11 29.7801L179.092 31.7093ZM190.431 27.3662L197.678 26.813L197.468 24.0551L190.221 24.6083L190.431 27.3662ZM197.646 26.8151C198.411 26.7748 199.259 26.6312 199.896 26.1532L198.237 23.9404C198.278 23.9092 198.263 23.935 198.125 23.9709C197.991 24.0054 197.789 24.0378 197.5 24.053L197.646 26.8151ZM199.916 26.1385C200.604 25.6027 200.947 24.8391 200.947 23.9957H198.181C198.181 24.0199 198.179 24.0292 198.18 24.027C198.18 24.0243 198.183 24.0136 198.19 23.9984C198.197 23.983 198.206 23.9698 198.214 23.9601C198.222 23.9509 198.225 23.9497 198.218 23.9551L199.916 26.1385ZM200.947 23.9957V23.4979H198.181V23.9957H200.947ZM199.564 24.8808H205.262V22.1149H199.564V24.8808ZM203.879 23.4979V24.1617H206.645V23.4979H203.879ZM203.879 24.1617C203.879 25.7265 203.435 26.7696 202.697 27.4817L204.619 29.4715C206.02 28.1184 206.645 26.2848 206.645 24.1617H203.879ZM202.698 27.4811C201.991 28.1627 200.775 28.676 198.805 28.8118L198.996 31.5712C201.304 31.412 203.26 30.782 204.618 29.4721L202.698 27.4811ZM198.792 28.8127L190.329 29.4766L190.545 32.2341L199.009 31.5702L198.792 28.8127ZM190.331 29.4764C186.366 29.7814 183.19 30.7462 181.028 32.5623L182.807 34.6802C184.333 33.3985 186.837 32.5193 190.543 32.2342L190.331 29.4764ZM181.018 32.5712C178.838 34.4393 177.809 37.108 177.769 40.3529L180.535 40.3875C180.568 37.7317 181.383 35.9011 182.818 34.6713L181.018 32.5712ZM180.092 41.3845C181.451 40.1251 183.127 39.1284 185.147 38.4093L184.22 35.8035C181.889 36.6333 179.877 37.8125 178.212 39.3559L180.092 41.3845ZM185.147 38.4093C187.16 37.6929 189.362 37.3277 191.764 37.3277V34.5617C189.078 34.5617 186.559 34.9709 184.22 35.8035L185.147 38.4093ZM202.828 48.834C202.828 45.9144 201.683 43.5218 199.398 41.8085L197.739 44.0213C199.29 45.1846 200.062 46.738 200.062 48.834H202.828ZM199.398 41.8085C197.16 40.1297 194.174 39.3745 190.603 39.3745V42.1404C193.817 42.1404 196.142 42.8235 197.739 44.0213L199.398 41.8085ZM190.603 39.3745C185.412 39.3745 181.244 41.0626 178.312 44.573L180.434 46.3462C182.739 43.5871 186.058 42.1404 190.603 42.1404V39.3745ZM177.99 45.4596V47.6723H180.756V45.4596H177.99ZM177.99 47.6723C177.99 51.2878 179.01 54.253 181.257 56.3234L183.131 54.2894C181.616 52.8931 180.756 50.7689 180.756 47.6723H177.99ZM181.278 56.3422C183.54 58.3434 186.724 59.234 190.603 59.234V56.4681C187.106 56.4681 184.684 55.6622 183.111 54.2705L181.278 56.3422ZM190.603 59.234C194.135 59.234 197.095 58.4984 199.329 56.8655L197.697 54.6323C196.096 55.8023 193.783 56.4681 190.603 56.4681V59.234ZM199.319 56.8729C201.641 55.208 202.828 52.8692 202.828 49.9957H200.062C200.062 51.9904 199.295 53.487 197.708 54.625L199.319 56.8729ZM202.828 49.9957V48.834H200.062V49.9957H202.828ZM244.047 50.0511V51.434H245.43V50.0511H244.047ZM217.659 50.0511V48.6681H216.166L216.281 50.1571L217.659 50.0511ZM220.757 55.7489L219.931 56.8579L219.938 56.8632L219.945 56.8683L220.757 55.7489ZM235.362 56.3574L236.01 57.5791L236.019 57.5743L235.362 56.3574ZM238.349 52.4298V51.0468H237.086L236.971 52.3046L238.349 52.4298ZM244.047 52.4298L245.424 52.5564L245.563 51.0468H244.047V52.4298ZM239.4 59.9532L238.65 58.7908L238.643 58.7954L239.4 59.9532ZM219.706 61.0043L219.118 62.256L219.126 62.2597L219.134 62.2633L219.706 61.0043ZM214.064 56.1915L212.891 56.9245L212.896 56.9319L212.9 56.9393L214.064 56.1915ZM214.064 40.4808L212.894 39.7423L212.891 39.7479L214.064 40.4808ZM219.706 35.6681L220.279 36.9271L220.286 36.9235L220.294 36.9199L219.706 35.6681ZM239.842 37.6043L238.936 38.6485L238.944 38.6553L239.842 37.6043ZM221.089 40.6468L221.845 41.8047L221.851 41.8011L221.089 40.6468ZM217.77 45.6255L216.411 45.3678L216.1 47.0085H217.77V45.6255ZM238.404 45.6255V47.0085H240.018L239.771 45.4135L238.404 45.6255ZM235.251 40.6468L234.467 41.7864L234.476 41.792L234.484 41.7975L235.251 40.6468ZM244.047 48.6681H217.659V51.434H244.047V48.6681ZM216.281 50.1571C216.495 52.9413 217.721 55.211 219.931 56.8579L221.584 54.6399C220.032 53.4841 219.193 51.9551 219.038 49.945L216.281 50.1571ZM219.945 56.8683C222.132 58.455 224.955 59.1787 228.281 59.1787V56.4128C225.337 56.4128 223.144 55.772 221.569 54.6295L219.945 56.8683ZM228.281 59.1787C231.33 59.1787 233.936 58.6793 236.01 57.5791L234.713 55.1358C233.173 55.9534 231.058 56.4128 228.281 56.4128V59.1787ZM236.019 57.5743C238.139 56.4292 239.525 54.7702 239.726 52.555L236.971 52.3046C236.878 53.3348 236.272 54.2942 234.704 55.1406L236.019 57.5743ZM238.349 53.8128H244.047V51.0468H238.349V53.8128ZM242.669 52.3032C242.415 55.0713 241.111 57.2048 238.65 58.7909L240.149 61.1155C243.295 59.0874 245.088 56.2053 245.424 52.5564L242.669 52.3032ZM238.643 58.7954C236.176 60.4072 232.764 61.2809 228.281 61.2809V64.0468C233.091 64.0468 237.091 63.1134 240.156 61.111L238.643 58.7954ZM228.281 61.2809C225.152 61.2809 222.497 60.7535 220.279 59.7452L219.134 62.2633C221.784 63.4677 224.845 64.0468 228.281 64.0468V61.2809ZM220.294 59.7525C218.072 58.7088 216.401 57.2695 215.227 55.4436L212.9 56.9393C214.382 59.244 216.472 61.0131 219.118 62.256L220.294 59.7525ZM215.236 55.4585C214.101 53.6418 213.51 51.4875 213.51 48.9447H210.745C210.745 51.9338 211.445 54.6107 212.891 56.9245L215.236 55.4585ZM213.51 48.9447V47.783H210.745V48.9447H213.51ZM213.51 47.783C213.51 45.1994 214.103 43.0277 215.236 41.2138L212.891 39.7479C211.443 42.0645 210.745 44.7609 210.745 47.783H213.51ZM215.233 41.2193C216.406 39.3626 218.071 37.9307 220.279 36.9271L219.134 34.4091C216.474 35.6182 214.377 37.3949 212.894 39.7423L215.233 41.2193ZM220.294 36.9199C222.508 35.8799 225.158 35.3362 228.281 35.3362V32.5702C224.839 32.5702 221.772 33.1697 219.118 34.4163L220.294 36.9199ZM228.281 35.3362C232.961 35.3362 236.456 36.4949 238.936 38.6484L240.749 36.5601C237.623 33.8455 233.41 32.5702 228.281 32.5702V35.3362ZM238.944 38.6553C241.391 40.7488 242.664 43.6574 242.664 47.5617H245.43C245.43 42.9838 243.899 39.254 240.741 36.5532L238.944 38.6553ZM242.664 47.5617V50.0511H245.43V47.5617H242.664ZM228.281 37.4383C225.148 37.4383 222.462 38.0839 220.327 39.4926L221.851 41.8011C223.405 40.7756 225.512 40.2043 228.281 40.2043V37.4383ZM220.333 39.4889C218.208 40.8767 216.886 42.8629 216.411 45.3678L219.129 45.8832C219.465 44.1101 220.356 42.7772 221.845 41.8047L220.333 39.4889ZM217.77 47.0085H238.404V44.2426H217.77V47.0085ZM239.771 45.4135C239.381 42.899 238.117 40.8955 236.018 39.4961L234.484 41.7975C235.925 42.7584 236.764 44.0741 237.037 45.8376L239.771 45.4135ZM236.034 39.5072C233.967 38.086 231.344 37.4383 228.281 37.4383V40.2043C230.971 40.2043 232.994 40.7735 234.467 41.7864L236.034 39.5072ZM275.628 35.6681L275.048 36.9232L275.048 36.9232L275.628 35.6681ZM281.326 40.5362L280.157 41.2747L280.163 41.284L281.326 40.5362ZM281.326 56.0809L280.157 55.3423L280.157 55.3423L281.326 56.0809ZM275.628 60.9489L276.209 62.2041L276.209 62.2041L275.628 60.9489ZM261.301 61.7234L260.839 63.027L260.839 63.027L261.301 61.7234ZM256.654 59.0128L257.573 57.9791L255.271 55.9331V59.0128H256.654ZM256.654 71.4043V72.7872H258.037V71.4043H256.654ZM251.343 71.4043H249.96V72.7872H251.343V71.4043ZM251.343 34.617V33.234H249.96V34.617H251.343ZM256.267 34.617L257.646 34.5202L257.556 33.234H256.267V34.617ZM256.488 37.7702L255.108 37.867L255.306 40.6778L257.408 38.8023L256.488 37.7702ZM261.245 34.9489L260.768 33.6508L260.768 33.6508L261.245 34.9489ZM274.909 41.2553L274.016 42.3111L274.027 42.3203L274.038 42.3293L274.909 41.2553ZM260.913 39.983L260.378 38.7079L260.369 38.7118L260.913 39.983ZM256.654 43.1362L255.562 42.2871L255.271 42.6617V43.1362H256.654ZM256.654 53.4255H255.271V53.9L255.562 54.2746L256.654 53.4255ZM260.913 56.634L260.347 57.8957L260.362 57.9026L260.378 57.9091L260.913 56.634ZM274.909 55.3617L274.026 54.2976L274.016 54.306L274.909 55.3617ZM266.998 35.3362C270.121 35.3362 272.792 35.8797 275.048 36.9232L276.209 34.4129C273.523 33.17 270.441 32.5702 266.998 32.5702V35.3362ZM275.048 36.9232C277.3 37.9656 278.985 39.4191 280.157 41.2747L282.495 39.7977C281.012 37.4489 278.898 35.6571 276.209 34.4129L275.048 36.9232ZM280.163 41.284C281.328 43.0959 281.935 45.2621 281.935 47.8383H284.701C284.701 44.8088 283.98 42.107 282.489 39.7883L280.163 41.284ZM281.935 47.8383V48.7234H284.701V47.8383H281.935ZM281.935 48.7234C281.935 51.2991 281.328 53.4885 280.157 55.3423L282.495 56.8194C283.98 54.4689 284.701 51.7534 284.701 48.7234H281.935ZM280.157 55.3423C278.985 57.1979 277.3 58.6514 275.048 59.6938L276.209 62.2041C278.898 60.96 281.012 59.1681 282.495 56.8194L280.157 55.3423ZM275.048 59.6938C272.792 60.7373 270.121 61.2809 266.998 61.2809V64.0468C270.441 64.0468 273.523 63.4471 276.209 62.2041L275.048 59.6938ZM266.998 61.2809C265.115 61.2809 263.373 60.9902 261.762 60.4198L260.839 63.027C262.769 63.7106 264.825 64.0468 266.998 64.0468V61.2809ZM261.762 60.4198C260.151 59.849 258.759 59.0339 257.573 57.9791L255.735 60.0464C257.204 61.3519 258.91 62.3439 260.839 63.027L261.762 60.4198ZM255.271 59.0128V71.4043H258.037V59.0128H255.271ZM256.654 70.0213H251.343V72.7872H256.654V70.0213ZM252.726 71.4043V34.617H249.96V71.4043H252.726ZM251.343 36H256.267V33.234H251.343V36ZM254.887 34.7138L255.108 37.867L257.867 37.6734L257.646 34.5202L254.887 34.7138ZM257.408 38.8023C258.636 37.7072 260.07 36.8542 261.722 36.2471L260.768 33.6508C258.807 34.3714 257.068 35.3992 255.567 36.7381L257.408 38.8023ZM261.722 36.2471C263.368 35.6423 265.124 35.3362 266.998 35.3362V32.5702C264.816 32.5702 262.736 32.9279 260.768 33.6508L261.722 36.2471ZM279.224 47.8383C279.224 44.6723 278.098 42.0618 275.78 40.1813L274.038 42.3293C275.629 43.6205 276.458 45.3986 276.458 47.8383H279.224ZM275.802 40.1996C273.559 38.3015 270.548 37.4383 266.943 37.4383V40.2043C270.124 40.2043 272.423 40.9637 274.016 42.3111L275.802 40.1996ZM266.943 37.4383C264.6 37.4383 262.406 37.8562 260.378 38.7079L261.449 41.2581C263.109 40.5609 264.935 40.2043 266.943 40.2043V37.4383ZM260.369 38.7118C258.383 39.5628 256.761 40.7457 255.562 42.2871L257.745 43.9852C258.612 42.8713 259.83 41.9521 261.458 41.2541L260.369 38.7118ZM255.271 43.1362V53.4255H258.037V43.1362H255.271ZM255.562 54.2746C256.756 55.8098 258.37 57.0082 260.347 57.8957L261.48 55.3724C259.842 54.6372 258.617 53.6965 257.745 52.5765L255.562 54.2746ZM260.378 57.9091C262.406 58.7609 264.6 59.1787 266.943 59.1787V56.4128C264.935 56.4128 263.109 56.0562 261.449 55.359L260.378 57.9091ZM266.943 59.1787C270.548 59.1787 273.559 58.3155 275.802 56.4174L274.016 54.306C272.423 55.6533 270.124 56.4128 266.943 56.4128V59.1787ZM275.793 56.4258C278.099 54.5111 279.224 51.8895 279.224 48.7234H276.458C276.458 51.163 275.629 52.9669 274.026 54.2976L275.793 56.4258ZM279.224 48.7234V47.8383H276.458V48.7234H279.224ZM295.707 34.617H297.09V33.234H295.707V34.617ZM295.707 55.5277H294.324V58.9644L296.704 56.4856L295.707 55.5277ZM315.788 34.617V33.234H315.199L314.79 33.6591L315.788 34.617ZM320.656 34.617H322.039V33.234H320.656V34.617ZM320.656 62V63.383H322.039V62H320.656ZM315.567 62H314.184V63.383H315.567V62ZM315.567 41.0894H316.95V37.6526L314.569 40.1314L315.567 41.0894ZM295.486 62V63.383H296.075L296.483 62.9579L295.486 62ZM290.618 62H289.235V63.383H290.618V62ZM290.618 34.617V33.234H289.235V34.617H290.618ZM294.324 34.617V55.5277H297.09V34.617H294.324ZM296.704 56.4856L316.785 35.5749L314.79 33.6591L294.709 54.5697L296.704 56.4856ZM315.788 36H320.656V33.234H315.788V36ZM319.273 34.617V62H322.039V34.617H319.273ZM320.656 60.617H315.567V63.383H320.656V60.617ZM316.95 62V41.0894H314.184V62H316.95ZM314.569 40.1314L294.488 61.0421L296.483 62.9579L316.564 42.0473L314.569 40.1314ZM295.486 60.617H290.618V63.383H295.486V60.617ZM292.001 62V34.617H289.235V62H292.001ZM290.618 36H295.707V33.234H290.618V36ZM393.859 38.1021L394.714 37.0156L394.714 37.0156L393.859 38.1021ZM393.803 58.5149L394.659 59.6014L394.661 59.6L393.803 58.5149ZM376.931 62V60.617H375.548V62H376.931ZM376.931 71.4043V72.7872H378.314V71.4043H376.931ZM371.62 71.4043H370.237V72.7872H371.62V71.4043ZM371.62 62H373.003V60.617H371.62V62ZM354.693 58.5149L353.829 59.5948L353.836 59.6007L353.844 59.6066L354.693 58.5149ZM354.693 38.1021L355.548 39.1886L355.548 39.1886L354.693 38.1021ZM371.62 34.617V36H373.003V34.617H371.62ZM371.62 23.4979V22.1149H370.237V23.4979H371.62ZM376.931 23.4979H378.314V22.1149H376.931V23.4979ZM376.931 34.617H375.548V36H376.931V34.617ZM371.62 57.2979V58.6809H373.003V57.2979H371.62ZM371.62 39.2638H373.003V37.8808H371.62V39.2638ZM358.62 41.5319L359.467 42.6258L359.467 42.6258L358.62 41.5319ZM358.565 55.0851L357.709 56.1711L357.72 56.1802L357.732 56.189L358.565 55.0851ZM389.931 41.5319L389.085 42.6258L389.085 42.6258L389.931 41.5319ZM376.931 39.2638V37.8808H375.548V39.2638H376.931ZM376.931 57.2979H375.548V58.6809H376.931V57.2979ZM389.931 55.0851L390.774 56.1813L390.777 56.179L389.931 55.0851ZM381.357 36C386.562 36 390.383 37.1251 393.003 39.1886L394.714 37.0156C391.434 34.4324 386.92 33.234 381.357 33.234V36ZM393.003 39.1886C395.574 41.2136 396.901 44.0694 396.901 47.9489H399.667C399.667 43.3462 398.044 39.6375 394.714 37.0156L393.003 39.1886ZM396.901 47.9489V48.7234H399.667V47.9489H396.901ZM396.901 48.7234C396.901 52.5135 395.567 55.3589 392.946 57.4298L394.661 59.6C398.014 56.9503 399.667 53.268 399.667 48.7234H396.901ZM392.948 57.4284C390.326 59.4931 386.522 60.617 381.357 60.617V63.383C386.886 63.383 391.38 62.1835 394.659 59.6014L392.948 57.4284ZM381.357 60.617H376.931V63.383H381.357V60.617ZM375.548 62V71.4043H378.314V62H375.548ZM376.931 70.0213H371.62V72.7872H376.931V70.0213ZM373.003 71.4043V62H370.237V71.4043H373.003ZM371.62 60.617H367.195V63.383H371.62V60.617ZM367.195 60.617C362.031 60.617 358.204 59.4937 355.542 57.4232L353.844 59.6066C357.156 62.1829 361.664 63.383 367.195 63.383V60.617ZM355.557 57.435C352.971 55.3665 351.65 52.52 351.65 48.7234H348.884C348.884 53.2616 350.514 56.9427 353.829 59.5948L355.557 57.435ZM351.65 48.7234V47.9489H348.884V48.7234H351.65ZM351.65 47.9489C351.65 44.0694 352.977 41.2136 355.548 39.1886L353.837 37.0156C350.508 39.6375 348.884 43.3462 348.884 47.9489H351.65ZM355.548 39.1886C358.169 37.1251 361.99 36 367.195 36V33.234C361.631 33.234 357.117 34.4324 353.837 37.0156L355.548 39.1886ZM367.195 36H371.62V33.234H367.195V36ZM373.003 34.617V23.4979H370.237V34.617H373.003ZM371.62 24.8808H376.931V22.1149H371.62V24.8808ZM375.548 23.4979V34.617H378.314V23.4979H375.548ZM376.931 36H381.357V33.234H376.931V36ZM373.003 57.2979V39.2638H370.237V57.2979H373.003ZM371.62 37.8808H366.918V40.6468H371.62V37.8808ZM366.918 37.8808C363.167 37.8808 360.058 38.671 357.774 40.438L359.467 42.6258C361.092 41.3687 363.515 40.6468 366.918 40.6468V37.8808ZM357.774 40.438C355.433 42.2495 354.306 44.8387 354.306 48.0043H357.071C357.071 45.5641 357.899 43.8384 359.467 42.6258L357.774 40.438ZM354.306 48.0043V48.6681H357.071V48.0043H354.306ZM354.306 48.6681C354.306 51.7939 355.411 54.3598 357.709 56.1711L359.421 53.9991C357.883 52.7863 357.071 51.0742 357.071 48.6681H354.306ZM357.732 56.189C360.017 57.9133 363.14 58.6809 366.918 58.6809V55.9149C363.468 55.9149 361.023 55.2072 359.398 53.9812L357.732 56.189ZM366.918 58.6809H371.62V55.9149H366.918V58.6809ZM394.246 48.0043C394.246 44.8387 393.119 42.2495 390.777 40.438L389.085 42.6258C390.652 43.8384 391.48 45.5641 391.48 48.0043H394.246ZM390.777 40.438C388.493 38.671 385.384 37.8808 381.633 37.8808V40.6468C385.037 40.6468 387.46 41.3687 389.085 42.6258L390.777 40.438ZM381.633 37.8808H376.931V40.6468H381.633V37.8808ZM375.548 39.2638V57.2979H378.314V39.2638H375.548ZM376.931 58.6809H381.633V55.9149H376.931V58.6809ZM381.633 58.6809C385.409 58.6809 388.521 57.9143 390.774 56.1813L389.088 53.9889C387.505 55.2062 385.086 55.9149 381.633 55.9149V58.6809ZM390.777 56.179C393.114 54.3713 394.246 51.8038 394.246 48.6681H391.48C391.48 51.0643 390.657 52.7748 389.085 53.9912L390.777 56.179ZM394.246 48.6681V48.0043H391.48V48.6681H394.246ZM411.327 61.0043L410.746 62.2594L410.754 62.263L410.762 62.2665L411.327 61.0043ZM405.629 56.1915L404.46 56.93L404.466 56.9393L405.629 56.1915ZM405.629 40.4808L404.46 39.7423L404.46 39.7423L405.629 40.4808ZM411.327 35.6681L411.892 36.9303L411.9 36.9268L411.908 36.9232L411.327 35.6681ZM428.697 35.6681L428.109 36.9199L428.121 36.9252L428.132 36.9303L428.697 35.6681ZM434.34 40.4808L433.161 41.2045L433.166 41.212L433.17 41.2193L434.34 40.4808ZM434.34 56.1915L433.17 55.453L433.167 55.4585L434.34 56.1915ZM428.697 61.0043L429.27 62.2633L429.278 62.2594L428.697 61.0043ZM427.978 55.417L427.097 54.3512L427.097 54.3512L427.978 55.417ZM427.978 41.2553L427.085 42.3111L427.091 42.3161L427.097 42.3211L427.978 41.2553ZM411.936 41.2L411.054 40.1342L411.044 40.1427L411.936 41.2ZM411.991 55.417L411.109 56.4829L411.12 56.491L411.991 55.417ZM420.067 61.2809C416.861 61.2809 414.148 60.7521 411.892 59.742L410.762 62.2665C413.448 63.4691 416.562 64.0468 420.067 64.0468V61.2809ZM411.908 59.7491C409.648 58.7038 407.963 57.2642 406.792 55.4436L404.466 56.9393C405.951 59.2492 408.064 61.0182 410.746 62.2594L411.908 59.7491ZM406.798 55.453C405.628 53.5991 405.021 51.4097 405.021 48.834H402.255C402.255 51.8641 402.975 54.5796 404.46 56.93L406.798 55.453ZM405.021 48.834V47.8936H402.255V48.834H405.021ZM405.021 47.8936C405.021 45.2772 405.629 43.0703 406.798 41.2193L404.46 39.7423C402.974 42.0956 402.255 44.8306 402.255 47.8936H405.021ZM406.798 41.2193C407.968 39.3679 409.647 37.9357 411.892 36.9303L410.762 34.4059C408.065 35.6132 405.946 37.3895 404.46 39.7423L406.798 41.2193ZM411.908 36.9232C414.159 35.8814 416.866 35.3362 420.067 35.3362V32.5702C416.556 32.5702 413.436 33.1682 410.746 34.4129L411.908 36.9232ZM420.067 35.3362C423.23 35.3362 425.897 35.8808 428.109 36.9199L429.285 34.4163C426.629 33.1688 423.543 32.5702 420.067 32.5702V35.3362ZM428.132 36.9303C430.375 37.9346 432.03 39.3626 433.161 41.2045L435.518 39.7572C434.068 37.3949 431.961 35.6144 429.262 34.4059L428.132 36.9303ZM433.17 41.2193C434.34 43.0703 434.948 45.2772 434.948 47.8936H437.714C437.714 44.8306 436.995 42.0956 435.509 39.7423L433.17 41.2193ZM434.948 47.8936V48.834H437.714V47.8936H434.948ZM434.948 48.834C434.948 51.4097 434.341 53.5991 433.17 55.453L435.509 56.93C436.994 54.5796 437.714 51.8641 437.714 48.834H434.948ZM433.167 55.4585C432.035 57.2696 430.373 58.7049 428.116 59.7491L429.278 62.2594C431.963 61.0171 434.063 59.2439 435.513 56.9245L433.167 55.4585ZM428.125 59.7452C425.909 60.7527 423.236 61.2809 420.067 61.2809V64.0468C423.538 64.0468 426.618 63.4686 429.27 62.2633L428.125 59.7452ZM420.012 59.1787C423.61 59.1787 426.617 58.3374 428.859 56.4828L427.097 54.3512C425.504 55.6683 423.2 56.4128 420.012 56.4128V59.1787ZM428.859 56.4828C431.137 54.599 432.238 51.9905 432.238 48.834H429.472C429.472 51.2833 428.654 53.0634 427.097 54.3512L428.859 56.4828ZM432.238 48.834V47.8936H429.472V48.834H432.238ZM432.238 47.8936C432.238 44.7069 431.142 42.077 428.859 40.1895L427.097 42.3211C428.65 43.6052 429.472 45.4009 429.472 47.8936H432.238ZM428.871 40.1996C426.628 38.3015 423.617 37.4383 420.012 37.4383V40.2043C423.193 40.2043 425.492 40.9637 427.085 42.3111L428.871 40.1996ZM420.012 37.4383C416.349 37.4383 413.302 38.2757 411.054 40.1342L412.817 42.2658C414.405 40.9526 416.742 40.2043 420.012 40.2043V37.4383ZM411.044 40.1427C408.797 42.0369 407.731 44.686 407.731 47.8936H410.497C410.497 45.3481 411.312 43.5347 412.827 42.2573L411.044 40.1427ZM407.731 47.8936V48.834H410.497V47.8936H407.731ZM407.731 48.834C407.731 51.9905 408.831 54.599 411.11 56.4828L412.872 54.3512C411.315 53.0634 410.497 51.2833 410.497 48.834H407.731ZM411.12 56.491C413.394 58.3366 416.412 59.1787 420.012 59.1787V56.4128C416.826 56.4128 414.497 55.6691 412.862 54.3431L411.12 56.491ZM448.92 34.617H450.303V33.234H448.92V34.617ZM448.92 45.9021H447.537V47.2851H448.92V45.9021ZM468.614 45.9021V47.2851H469.997V45.9021H468.614ZM468.614 34.617V33.234H467.231V34.617H468.614ZM473.925 34.617H475.308V33.234H473.925V34.617ZM473.925 62V63.383H475.308V62H473.925ZM468.614 62H467.231V63.383H468.614V62ZM468.614 50.6043H469.997V49.2213H468.614V50.6043ZM448.92 50.6043V49.2213H447.537V50.6043H448.92ZM448.92 62V63.383H450.303V62H448.92ZM443.61 62H442.227V63.383H443.61V62ZM443.61 34.617V33.234H442.227V34.617H443.61ZM447.537 34.617V45.9021H450.303V34.617H447.537ZM448.92 47.2851H468.614V44.5191H448.92V47.2851ZM469.997 45.9021V34.617H467.231V45.9021H469.997ZM468.614 36H473.925V33.234H468.614V36ZM472.542 34.617V62H475.308V34.617H472.542ZM473.925 60.617H468.614V63.383H473.925V60.617ZM469.997 62V50.6043H467.231V62H469.997ZM468.614 49.2213H448.92V51.9872H468.614V49.2213ZM447.537 50.6043V62H450.303V50.6043H447.537ZM448.92 60.617H443.61V63.383H448.92V60.617ZM444.993 62V34.617H442.227V62H444.993ZM443.61 36H448.92V33.234H443.61V36Z" fill="black" mask="url(#path-2-outside-1_267_1670)"/>
<path d="M0.5 0.5H26C50.5767 0.5 70.5 20.4233 70.5 45C70.5 69.5767 50.5767 89.5 26 89.5H0.5V0.5Z" fill="#D4FF73" stroke="black"/>
<mask id="path-5-outside-2_267_1670" maskUnits="userSpaceOnUse" x="12" y="25" width="23" height="40" fill="black">
<rect fill="white" x="12" y="25" width="23" height="40"/>
<path d="M32.623 63H27.2017V34.8979C25.4315 35.8936 23.1265 36.3915 20.2868 36.3915H14.0357V31.2468H19.8442C22.352 31.2468 24.196 30.878 25.3761 30.1404C26.5932 29.4028 27.2017 28.2596 27.2017 26.7106H32.623V63Z"/>
</mask>
<path d="M32.623 63H27.2017V34.8979C25.4315 35.8936 23.1265 36.3915 20.2868 36.3915H14.0357V31.2468H19.8442C22.352 31.2468 24.196 30.878 25.3761 30.1404C26.5932 29.4028 27.2017 28.2596 27.2017 26.7106H32.623V63Z" fill="#FF003D"/>
<path d="M32.623 63V64.383H34.0059V63H32.623ZM27.2017 63H25.8187V64.383H27.2017V63ZM27.2017 34.8979H28.5847V32.5332L26.5237 33.6925L27.2017 34.8979ZM14.0357 36.3915H12.6527V37.7745H14.0357V36.3915ZM14.0357 31.2468V29.8638H12.6527V31.2468H14.0357ZM25.3761 30.1404L24.6593 28.9577L24.6512 28.9626L24.6432 28.9677L25.3761 30.1404ZM27.2017 26.7106V25.3277H25.8187V26.7106H27.2017ZM32.623 26.7106H34.0059V25.3277H32.623V26.7106ZM32.623 61.617H27.2017V64.383H32.623V61.617ZM28.5847 63V34.8979H25.8187V63H28.5847ZM26.5237 33.6925C25.0266 34.5346 22.9787 35.0085 20.2868 35.0085V37.7745C23.2743 37.7745 25.8363 37.2527 27.8797 36.1032L26.5237 33.6925ZM20.2868 35.0085H14.0357V37.7745H20.2868V35.0085ZM15.4187 36.3915V31.2468H12.6527V36.3915H15.4187ZM14.0357 32.6298H19.8442V29.8638H14.0357V32.6298ZM19.8442 32.6298C22.4319 32.6298 24.5951 32.2594 26.1091 31.3132L24.6432 28.9677C23.7969 29.4966 22.2722 29.8638 19.8442 29.8638V32.6298ZM26.0929 31.3231C27.7658 30.3093 28.5847 28.6916 28.5847 26.7106H25.8187C25.8187 27.8275 25.4206 28.4964 24.6593 28.9577L26.0929 31.3231ZM27.2017 28.0936H32.623V25.3277H27.2017V28.0936ZM31.24 26.7106V63H34.0059V26.7106H31.24Z" fill="black" mask="url(#path-5-outside-2_267_1670)"/>
</svg>
