<svg width="798" height="798" viewBox="0 0 798 798" fill="none" xmlns="http://www.w3.org/2000/svg">
<path d="M603.055 603.307L194.701 194.953" stroke="black"/>
<path d="M603.055 194.954L194.701 603.308" stroke="black"/>
<path d="M192.787 192.788L398.88 107.422L604.972 192.788L690.338 398.88L604.972 604.973L398.88 690.339L192.787 604.973L107.421 398.88L192.787 192.788Z" fill="#D4FF73" stroke="black"/>
<path d="M398.88 110.38V687.88" stroke="black"/>
<path d="M687.63 399.13L110.13 399.13" stroke="black"/>
<path d="M107.587 398.88L398.88 107.587L690.173 398.88L398.88 690.173L107.587 398.88Z" fill="#C3A4E3" stroke="black"/>
<path d="M398.879 689.879L146.866 253.379L650.893 253.379L398.879 689.879Z" fill="#FF5F46" stroke="black"/>
<path d="M146.865 544.38L398.879 107.88L650.892 544.38H146.865Z" fill="#FF003D" stroke="black"/>
<path d="M399.111 249.707L548.515 399.111L399.111 548.515L249.707 399.111L399.111 249.707Z" fill="#D4FF73" stroke="black"/>
<path d="M603.055 194.954L194.701 603.308" stroke="black"/>
<path d="M687.63 399.13L110.13 399.13" stroke="black"/>
<path d="M603.055 603.307L194.701 194.953" stroke="black"/>
<path d="M398.88 110.38V687.88" stroke="black"/>
</svg>
