<svg width="614" height="90" viewBox="0 0 614 90" fill="none" xmlns="http://www.w3.org/2000/svg">
<path d="M0.5 44.5C0.5 20.1995 20.1995 0.5 44.5 0.5H612.5V88.5H44.5C20.1995 88.5 0.5 68.8005 0.5 44.5Z" fill="#FF003D" stroke="black"/>
<mask id="path-2-outside-1_53_3" maskUnits="userSpaceOnUse" x="51" y="21" width="483" height="51" fill="black">
<rect fill="white" x="51" y="21" width="483" height="51"/>
<path d="M79.5922 47.1149C81.1043 47.5943 82.2476 48.3319 83.022 49.3277C83.8334 50.2865 84.239 51.4667 84.239 52.8681V53.4213C84.239 55.8184 83.2986 57.6809 81.4178 59.0085C79.5738 60.3362 76.9554 61 73.5624 61H52.7624V33.617H72.8433C76.2362 33.617 78.8546 34.2624 80.6986 35.5532C82.5795 36.8071 83.5199 38.6142 83.5199 40.9745V41.5277C83.5199 44.0723 82.2107 45.9347 79.5922 47.1149ZM58.0731 37.7106V45.1234H72.622C74.3554 45.1234 75.683 44.8284 76.605 44.2383C77.5639 43.6113 78.0433 42.7262 78.0433 41.583V41.0298C78.0433 39.9603 77.5823 39.1489 76.6603 38.5957C75.7383 38.0057 74.3922 37.7106 72.622 37.7106H58.0731ZM78.7624 52.7574C78.7624 51.6511 78.3015 50.8028 77.3795 50.2128C76.4575 49.6227 75.1298 49.3277 73.3965 49.3277H58.0731V56.8511H73.3965C75.1298 56.8511 76.4575 56.556 77.3795 55.966C78.3015 55.339 78.7624 54.4539 78.7624 53.3106V52.7574ZM111.786 41.8596C115.289 41.8596 118 42.6894 119.918 44.3489C121.872 46.0085 122.85 48.2766 122.85 51.1532V51.8723C122.85 54.6383 121.872 56.8511 119.918 58.5106C118 60.1702 115.289 61 111.786 61H92.4794V33.617H97.7901V41.8596H111.786ZM132.088 33.617V61H126.777V33.617H132.088ZM117.373 51.1532C117.373 48.0922 115.382 46.5617 111.399 46.5617H97.7901V56.2979H111.399C113.427 56.2979 114.921 55.9106 115.879 55.1362C116.875 54.3617 117.373 53.2738 117.373 51.8723V51.1532ZM158.439 34.9447C161.463 34.9447 164.118 35.4794 166.405 36.5489C168.691 37.5816 170.462 39.0752 171.715 41.0298C172.969 42.9475 173.596 45.1787 173.596 47.7234V49.0511C173.596 51.5589 172.914 53.7716 171.55 55.6894C170.222 57.5702 168.341 59.0454 165.907 60.1149C163.473 61.1475 160.633 61.6638 157.388 61.6638C152.04 61.6638 147.928 60.2624 145.052 57.4596C142.175 54.6199 140.737 50.5816 140.737 45.3447V41.583C140.737 36.4199 142.083 32.4738 144.775 29.7447C147.467 26.9787 151.542 25.3929 157.001 24.9872L164.247 24.434C164.948 24.3972 165.446 24.2681 165.741 24.0468C166.073 23.7886 166.239 23.4383 166.239 22.9957V22.4979H171.937V23.1617C171.937 25.0057 171.402 26.444 170.333 27.4766C169.3 28.4723 167.714 29.044 165.575 29.1915L157.111 29.8553C153.276 30.1504 150.436 31.0723 148.592 32.6213C146.785 34.1702 145.863 36.4199 145.826 39.3702C147.338 37.9688 149.182 36.8808 151.358 36.1064C153.534 35.3319 155.894 34.9447 158.439 34.9447ZM168.12 47.834C168.12 45.3262 167.161 43.3532 165.243 41.9149C163.325 40.4766 160.67 39.7574 157.277 39.7574C152.409 39.7574 148.666 41.3248 146.047 44.4596V46.6723C146.047 50.0284 146.988 52.573 148.869 54.3064C150.786 56.0028 153.589 56.8511 157.277 56.8511C160.633 56.8511 163.27 56.1504 165.188 54.7489C167.142 53.3475 168.12 51.4298 168.12 48.9957V47.834ZM210.721 49.0511H184.334C184.518 51.4482 185.551 53.3475 187.432 54.7489C189.313 56.1135 191.82 56.7957 194.955 56.7957C197.869 56.7957 200.229 56.3163 202.036 55.3574C203.88 54.3617 204.876 53.0525 205.023 51.4298H210.721C210.426 54.6383 208.877 57.1461 206.074 58.9532C203.308 60.7603 199.602 61.6638 194.955 61.6638C191.673 61.6638 188.815 61.1106 186.381 60.0043C183.947 58.861 182.066 57.2567 180.738 55.1915C179.447 53.1262 178.802 50.7106 178.802 47.9447V46.783C178.802 43.9801 179.447 41.5461 180.738 39.4808C182.066 37.3787 183.947 35.7745 186.381 34.6681C188.815 33.5248 191.673 32.9532 194.955 32.9532C199.86 32.9532 203.714 34.1702 206.517 36.6043C209.32 39.0014 210.721 42.3206 210.721 46.5617V49.0511ZM194.955 37.8213C192.005 37.8213 189.608 38.4298 187.764 39.6468C185.957 40.8269 184.85 42.4865 184.445 44.6255H205.079C204.747 42.4865 203.696 40.8269 201.925 39.6468C200.155 38.4298 197.832 37.8213 194.955 37.8213ZM233.673 32.9532C236.955 32.9532 239.832 33.5248 242.303 34.6681C244.774 35.8113 246.673 37.434 248.001 39.5362C249.328 41.6014 249.992 44.0355 249.992 46.8383V47.7234C249.992 50.5262 249.328 52.9787 248.001 55.0809C246.673 57.183 244.774 58.8057 242.303 59.9489C239.832 61.0922 236.955 61.6638 233.673 61.6638C231.645 61.6638 229.745 61.3504 227.975 60.7234C226.205 60.0965 224.656 59.1929 223.328 58.0128V70.4043H218.018V33.617H222.941L223.162 36.7702C224.527 35.5532 226.113 34.6128 227.92 33.9489C229.727 33.2851 231.645 32.9532 233.673 32.9532ZM244.515 46.8383C244.515 44.0355 243.538 41.8411 241.584 40.2553C239.666 38.6326 237.011 37.8213 233.618 37.8213C231.442 37.8213 229.432 38.2085 227.588 38.983C225.781 39.7574 224.361 40.8085 223.328 42.1362V52.4255C224.361 53.7532 225.781 54.8227 227.588 55.634C229.432 56.4085 231.442 56.7957 233.618 56.7957C237.011 56.7957 239.666 55.9844 241.584 54.3617C243.538 52.739 244.515 50.5262 244.515 47.7234V46.8383ZM262.381 33.617V54.5277L282.462 33.617H287.33V61H282.241V40.0894L262.16 61H257.292V33.617H262.381ZM348.031 33.617C353.415 33.617 357.583 34.7787 360.533 37.1021C363.484 39.4255 364.959 42.7078 364.959 46.9489V47.7234C364.959 51.8908 363.465 55.1546 360.478 57.5149C357.527 59.8383 353.379 61 348.031 61H343.606V70.4043H338.295V61H333.869C328.522 61 324.354 59.8383 321.367 57.5149C318.417 55.1546 316.942 51.8908 316.942 47.7234V46.9489C316.942 42.7078 318.417 39.4255 321.367 37.1021C324.318 34.7787 328.485 33.617 333.869 33.617H338.295V22.4979H343.606V33.617H348.031ZM338.295 56.2979V38.2638H333.593C330.015 38.2638 327.249 39.0199 325.295 40.5319C323.34 42.044 322.363 44.2014 322.363 47.0043V47.6681C322.363 50.434 323.322 52.573 325.24 54.0851C327.194 55.5603 329.979 56.2979 333.593 56.2979H338.295ZM359.537 47.0043C359.537 44.2014 358.56 42.044 356.606 40.5319C354.651 39.0199 351.885 38.2638 348.308 38.2638H343.606V56.2979H348.308C351.922 56.2979 354.688 55.5603 356.606 54.0851C358.56 52.573 359.537 50.434 359.537 47.6681V47.0043ZM386.742 61.6638C383.386 61.6638 380.472 61.1106 378.001 60.0043C375.531 58.861 373.631 57.2567 372.304 55.1915C370.976 53.0894 370.312 50.6369 370.312 47.834V46.8936C370.312 44.0539 370.976 41.583 372.304 39.4808C373.631 37.3787 375.531 35.7745 378.001 34.6681C380.472 33.5248 383.386 32.9532 386.742 32.9532C390.061 32.9532 392.938 33.5248 395.372 34.6681C397.843 35.7745 399.723 37.3787 401.014 39.4808C402.342 41.583 403.006 44.0539 403.006 46.8936V47.834C403.006 50.6369 402.342 53.0894 401.014 55.1915C399.723 57.2567 397.843 58.861 395.372 60.0043C392.938 61.1106 390.061 61.6638 386.742 61.6638ZM386.687 56.7957C390.079 56.7957 392.735 56.0028 394.653 54.417C396.57 52.8312 397.529 50.6369 397.529 47.834V46.8936C397.529 44.0539 396.57 41.8411 394.653 40.2553C392.735 38.6326 390.079 37.8213 386.687 37.8213C383.22 37.8213 380.528 38.6142 378.61 40.2C376.729 41.7858 375.789 44.017 375.789 46.8936V47.834C375.789 50.6369 376.748 52.8312 378.665 54.417C380.62 56.0028 383.294 56.7957 386.687 56.7957ZM425.939 32.9532C429.222 32.9532 432.098 33.5248 434.569 34.6681C437.04 35.8113 438.939 37.434 440.267 39.5362C441.595 41.6014 442.259 44.0355 442.259 46.8383V47.7234C442.259 50.5262 441.595 52.9787 440.267 55.0809C438.939 57.183 437.04 58.8057 434.569 59.9489C432.098 61.0922 429.222 61.6638 425.939 61.6638C423.911 61.6638 422.012 61.3504 420.242 60.7234C418.471 60.0965 416.922 59.1929 415.595 58.0128V70.4043H410.284V33.617H415.208L415.429 36.7702C416.793 35.5532 418.379 34.6128 420.186 33.9489C421.993 33.2851 423.911 32.9532 425.939 32.9532ZM436.782 46.8383C436.782 44.0355 435.805 41.8411 433.85 40.2553C431.932 38.6326 429.277 37.8213 425.884 37.8213C423.708 37.8213 421.698 38.2085 419.854 38.983C418.047 39.7574 416.627 40.8085 415.595 42.1362V52.4255C416.627 53.7532 418.047 54.8227 419.854 55.634C421.698 56.4085 423.708 56.7957 425.884 56.7957C429.277 56.7957 431.932 55.9844 433.85 54.3617C435.805 52.739 436.782 50.5262 436.782 47.7234V46.8383ZM490.661 33.617V61H485.571V39.0936L484.299 41.3617L472.461 61H467.759L455.92 41.3617L454.648 39.0936V61H449.559V33.617H457.082L470.137 55.4681L483.137 33.617H490.661ZM531.878 33.617V34.3915L516.278 64.0426C515.061 66.3291 513.641 67.9518 512.019 68.9106C510.433 69.9064 508.257 70.4043 505.491 70.4043H499.959V65.7021H505.491C507.04 65.7021 508.202 65.4624 508.976 64.983C509.751 64.5404 510.488 63.6369 511.189 62.2723L511.687 61.3872L497.414 34.3915V33.617H503.057L514.674 56.1872L526.236 33.617H531.878Z"/>
</mask>
<path d="M79.5922 47.1149C81.1043 47.5943 82.2476 48.3319 83.022 49.3277C83.8334 50.2865 84.239 51.4667 84.239 52.8681V53.4213C84.239 55.8184 83.2986 57.6809 81.4178 59.0085C79.5738 60.3362 76.9554 61 73.5624 61H52.7624V33.617H72.8433C76.2362 33.617 78.8546 34.2624 80.6986 35.5532C82.5795 36.8071 83.5199 38.6142 83.5199 40.9745V41.5277C83.5199 44.0723 82.2107 45.9347 79.5922 47.1149ZM58.0731 37.7106V45.1234H72.622C74.3554 45.1234 75.683 44.8284 76.605 44.2383C77.5639 43.6113 78.0433 42.7262 78.0433 41.583V41.0298C78.0433 39.9603 77.5823 39.1489 76.6603 38.5957C75.7383 38.0057 74.3922 37.7106 72.622 37.7106H58.0731ZM78.7624 52.7574C78.7624 51.6511 78.3015 50.8028 77.3795 50.2128C76.4575 49.6227 75.1298 49.3277 73.3965 49.3277H58.0731V56.8511H73.3965C75.1298 56.8511 76.4575 56.556 77.3795 55.966C78.3015 55.339 78.7624 54.4539 78.7624 53.3106V52.7574ZM111.786 41.8596C115.289 41.8596 118 42.6894 119.918 44.3489C121.872 46.0085 122.85 48.2766 122.85 51.1532V51.8723C122.85 54.6383 121.872 56.8511 119.918 58.5106C118 60.1702 115.289 61 111.786 61H92.4794V33.617H97.7901V41.8596H111.786ZM132.088 33.617V61H126.777V33.617H132.088ZM117.373 51.1532C117.373 48.0922 115.382 46.5617 111.399 46.5617H97.7901V56.2979H111.399C113.427 56.2979 114.921 55.9106 115.879 55.1362C116.875 54.3617 117.373 53.2738 117.373 51.8723V51.1532ZM158.439 34.9447C161.463 34.9447 164.118 35.4794 166.405 36.5489C168.691 37.5816 170.462 39.0752 171.715 41.0298C172.969 42.9475 173.596 45.1787 173.596 47.7234V49.0511C173.596 51.5589 172.914 53.7716 171.55 55.6894C170.222 57.5702 168.341 59.0454 165.907 60.1149C163.473 61.1475 160.633 61.6638 157.388 61.6638C152.04 61.6638 147.928 60.2624 145.052 57.4596C142.175 54.6199 140.737 50.5816 140.737 45.3447V41.583C140.737 36.4199 142.083 32.4738 144.775 29.7447C147.467 26.9787 151.542 25.3929 157.001 24.9872L164.247 24.434C164.948 24.3972 165.446 24.2681 165.741 24.0468C166.073 23.7886 166.239 23.4383 166.239 22.9957V22.4979H171.937V23.1617C171.937 25.0057 171.402 26.444 170.333 27.4766C169.3 28.4723 167.714 29.044 165.575 29.1915L157.111 29.8553C153.276 30.1504 150.436 31.0723 148.592 32.6213C146.785 34.1702 145.863 36.4199 145.826 39.3702C147.338 37.9688 149.182 36.8808 151.358 36.1064C153.534 35.3319 155.894 34.9447 158.439 34.9447ZM168.12 47.834C168.12 45.3262 167.161 43.3532 165.243 41.9149C163.325 40.4766 160.67 39.7574 157.277 39.7574C152.409 39.7574 148.666 41.3248 146.047 44.4596V46.6723C146.047 50.0284 146.988 52.573 148.869 54.3064C150.786 56.0028 153.589 56.8511 157.277 56.8511C160.633 56.8511 163.27 56.1504 165.188 54.7489C167.142 53.3475 168.12 51.4298 168.12 48.9957V47.834ZM210.721 49.0511H184.334C184.518 51.4482 185.551 53.3475 187.432 54.7489C189.313 56.1135 191.82 56.7957 194.955 56.7957C197.869 56.7957 200.229 56.3163 202.036 55.3574C203.88 54.3617 204.876 53.0525 205.023 51.4298H210.721C210.426 54.6383 208.877 57.1461 206.074 58.9532C203.308 60.7603 199.602 61.6638 194.955 61.6638C191.673 61.6638 188.815 61.1106 186.381 60.0043C183.947 58.861 182.066 57.2567 180.738 55.1915C179.447 53.1262 178.802 50.7106 178.802 47.9447V46.783C178.802 43.9801 179.447 41.5461 180.738 39.4808C182.066 37.3787 183.947 35.7745 186.381 34.6681C188.815 33.5248 191.673 32.9532 194.955 32.9532C199.86 32.9532 203.714 34.1702 206.517 36.6043C209.32 39.0014 210.721 42.3206 210.721 46.5617V49.0511ZM194.955 37.8213C192.005 37.8213 189.608 38.4298 187.764 39.6468C185.957 40.8269 184.85 42.4865 184.445 44.6255H205.079C204.747 42.4865 203.696 40.8269 201.925 39.6468C200.155 38.4298 197.832 37.8213 194.955 37.8213ZM233.673 32.9532C236.955 32.9532 239.832 33.5248 242.303 34.6681C244.774 35.8113 246.673 37.434 248.001 39.5362C249.328 41.6014 249.992 44.0355 249.992 46.8383V47.7234C249.992 50.5262 249.328 52.9787 248.001 55.0809C246.673 57.183 244.774 58.8057 242.303 59.9489C239.832 61.0922 236.955 61.6638 233.673 61.6638C231.645 61.6638 229.745 61.3504 227.975 60.7234C226.205 60.0965 224.656 59.1929 223.328 58.0128V70.4043H218.018V33.617H222.941L223.162 36.7702C224.527 35.5532 226.113 34.6128 227.92 33.9489C229.727 33.2851 231.645 32.9532 233.673 32.9532ZM244.515 46.8383C244.515 44.0355 243.538 41.8411 241.584 40.2553C239.666 38.6326 237.011 37.8213 233.618 37.8213C231.442 37.8213 229.432 38.2085 227.588 38.983C225.781 39.7574 224.361 40.8085 223.328 42.1362V52.4255C224.361 53.7532 225.781 54.8227 227.588 55.634C229.432 56.4085 231.442 56.7957 233.618 56.7957C237.011 56.7957 239.666 55.9844 241.584 54.3617C243.538 52.739 244.515 50.5262 244.515 47.7234V46.8383ZM262.381 33.617V54.5277L282.462 33.617H287.33V61H282.241V40.0894L262.16 61H257.292V33.617H262.381ZM348.031 33.617C353.415 33.617 357.583 34.7787 360.533 37.1021C363.484 39.4255 364.959 42.7078 364.959 46.9489V47.7234C364.959 51.8908 363.465 55.1546 360.478 57.5149C357.527 59.8383 353.379 61 348.031 61H343.606V70.4043H338.295V61H333.869C328.522 61 324.354 59.8383 321.367 57.5149C318.417 55.1546 316.942 51.8908 316.942 47.7234V46.9489C316.942 42.7078 318.417 39.4255 321.367 37.1021C324.318 34.7787 328.485 33.617 333.869 33.617H338.295V22.4979H343.606V33.617H348.031ZM338.295 56.2979V38.2638H333.593C330.015 38.2638 327.249 39.0199 325.295 40.5319C323.34 42.044 322.363 44.2014 322.363 47.0043V47.6681C322.363 50.434 323.322 52.573 325.24 54.0851C327.194 55.5603 329.979 56.2979 333.593 56.2979H338.295ZM359.537 47.0043C359.537 44.2014 358.56 42.044 356.606 40.5319C354.651 39.0199 351.885 38.2638 348.308 38.2638H343.606V56.2979H348.308C351.922 56.2979 354.688 55.5603 356.606 54.0851C358.56 52.573 359.537 50.434 359.537 47.6681V47.0043ZM386.742 61.6638C383.386 61.6638 380.472 61.1106 378.001 60.0043C375.531 58.861 373.631 57.2567 372.304 55.1915C370.976 53.0894 370.312 50.6369 370.312 47.834V46.8936C370.312 44.0539 370.976 41.583 372.304 39.4808C373.631 37.3787 375.531 35.7745 378.001 34.6681C380.472 33.5248 383.386 32.9532 386.742 32.9532C390.061 32.9532 392.938 33.5248 395.372 34.6681C397.843 35.7745 399.723 37.3787 401.014 39.4808C402.342 41.583 403.006 44.0539 403.006 46.8936V47.834C403.006 50.6369 402.342 53.0894 401.014 55.1915C399.723 57.2567 397.843 58.861 395.372 60.0043C392.938 61.1106 390.061 61.6638 386.742 61.6638ZM386.687 56.7957C390.079 56.7957 392.735 56.0028 394.653 54.417C396.57 52.8312 397.529 50.6369 397.529 47.834V46.8936C397.529 44.0539 396.57 41.8411 394.653 40.2553C392.735 38.6326 390.079 37.8213 386.687 37.8213C383.22 37.8213 380.528 38.6142 378.61 40.2C376.729 41.7858 375.789 44.017 375.789 46.8936V47.834C375.789 50.6369 376.748 52.8312 378.665 54.417C380.62 56.0028 383.294 56.7957 386.687 56.7957ZM425.939 32.9532C429.222 32.9532 432.098 33.5248 434.569 34.6681C437.04 35.8113 438.939 37.434 440.267 39.5362C441.595 41.6014 442.259 44.0355 442.259 46.8383V47.7234C442.259 50.5262 441.595 52.9787 440.267 55.0809C438.939 57.183 437.04 58.8057 434.569 59.9489C432.098 61.0922 429.222 61.6638 425.939 61.6638C423.911 61.6638 422.012 61.3504 420.242 60.7234C418.471 60.0965 416.922 59.1929 415.595 58.0128V70.4043H410.284V33.617H415.208L415.429 36.7702C416.793 35.5532 418.379 34.6128 420.186 33.9489C421.993 33.2851 423.911 32.9532 425.939 32.9532ZM436.782 46.8383C436.782 44.0355 435.805 41.8411 433.85 40.2553C431.932 38.6326 429.277 37.8213 425.884 37.8213C423.708 37.8213 421.698 38.2085 419.854 38.983C418.047 39.7574 416.627 40.8085 415.595 42.1362V52.4255C416.627 53.7532 418.047 54.8227 419.854 55.634C421.698 56.4085 423.708 56.7957 425.884 56.7957C429.277 56.7957 431.932 55.9844 433.85 54.3617C435.805 52.739 436.782 50.5262 436.782 47.7234V46.8383ZM490.661 33.617V61H485.571V39.0936L484.299 41.3617L472.461 61H467.759L455.92 41.3617L454.648 39.0936V61H449.559V33.617H457.082L470.137 55.4681L483.137 33.617H490.661ZM531.878 33.617V34.3915L516.278 64.0426C515.061 66.3291 513.641 67.9518 512.019 68.9106C510.433 69.9064 508.257 70.4043 505.491 70.4043H499.959V65.7021H505.491C507.04 65.7021 508.202 65.4624 508.976 64.983C509.751 64.5404 510.488 63.6369 511.189 62.2723L511.687 61.3872L497.414 34.3915V33.617H503.057L514.674 56.1872L526.236 33.617H531.878Z" fill="#D4FF73"/>
<path d="M79.5922 47.1149L79.024 45.8541L75.7268 47.3401L79.1742 48.4332L79.5922 47.1149ZM83.022 49.3277L81.9304 50.1767L81.9479 50.1992L81.9663 50.221L83.022 49.3277ZM81.4178 59.0085L80.6202 57.8786L80.6097 57.8862L81.4178 59.0085ZM52.7624 61H51.3795V62.383H52.7624V61ZM52.7624 33.617V32.234H51.3795V33.617H52.7624ZM80.6986 35.5532L79.9055 36.6862L79.9184 36.6952L79.9315 36.7039L80.6986 35.5532ZM58.0731 37.7106V36.3277H56.6901V37.7106H58.0731ZM58.0731 45.1234H56.6901V46.5064H58.0731V45.1234ZM76.605 44.2383L77.3505 45.4032L77.3618 45.3958L76.605 44.2383ZM76.6603 38.5957L75.9148 39.7606L75.9317 39.7714L75.9488 39.7816L76.6603 38.5957ZM77.3795 50.2128L78.125 49.0479H78.125L77.3795 50.2128ZM58.0731 49.3277V47.9447H56.6901V49.3277H58.0731ZM58.0731 56.8511H56.6901V58.234H58.0731V56.8511ZM77.3795 55.966L78.125 57.1308L78.1412 57.1204L78.1571 57.1096L77.3795 55.966ZM79.1742 48.4332C80.4883 48.8499 81.3674 49.4529 81.9304 50.1767L84.1137 48.4786C83.1277 47.2109 81.7202 46.3388 80.0102 45.7966L79.1742 48.4332ZM81.9663 50.221C82.5416 50.9009 82.8561 51.7534 82.8561 52.8681H85.622C85.622 51.18 85.1251 49.6721 84.0778 48.4343L81.9663 50.221ZM82.8561 52.8681V53.4213H85.622V52.8681H82.8561ZM82.8561 53.4213C82.8561 55.391 82.1164 56.8225 80.6202 57.8787L82.2153 60.1384C84.4809 58.5392 85.622 56.2458 85.622 53.4213H82.8561ZM80.6097 57.8862C79.0913 58.9794 76.8009 59.617 73.5624 59.617V62.383C77.1098 62.383 80.0563 61.6929 82.2258 60.1308L80.6097 57.8862ZM73.5624 59.617H52.7624V62.383H73.5624V59.617ZM54.1454 61V33.617H51.3795V61H54.1454ZM52.7624 35H72.8433V32.234H52.7624V35ZM72.8433 35C76.088 35 78.3847 35.6216 79.9055 36.6862L81.4917 34.4202C79.3246 32.9033 76.3844 32.234 72.8433 32.234V35ZM79.9315 36.7039C81.4077 37.688 82.1369 39.0522 82.1369 40.9745H84.9029C84.9029 38.1762 83.7512 35.9261 81.4658 34.4025L79.9315 36.7039ZM82.1369 40.9745V41.5277H84.9029V40.9745H82.1369ZM82.1369 41.5277C82.1369 42.5503 81.8785 43.3664 81.4066 44.0376C80.9274 44.7193 80.1655 45.3396 79.024 45.8541L80.1605 48.3757C81.6374 47.7101 82.8394 46.809 83.6694 45.6283C84.5067 44.4372 84.9029 43.0497 84.9029 41.5277H82.1369ZM56.6901 37.7106V45.1234H59.4561V37.7106H56.6901ZM58.0731 46.5064H72.622V43.7404H58.0731V46.5064ZM72.622 46.5064C74.4786 46.5064 76.1113 46.1962 77.3505 45.4031L75.8595 43.0735C75.2547 43.4605 74.2321 43.7404 72.622 43.7404V46.5064ZM77.3618 45.3958C78.7104 44.5141 79.4263 43.1942 79.4263 41.583H76.6603C76.6603 42.2583 76.4173 42.7086 75.8482 43.0808L77.3618 45.3958ZM79.4263 41.583V41.0298H76.6603V41.583H79.4263ZM79.4263 41.0298C79.4263 39.4713 78.7077 38.2113 77.3719 37.4098L75.9488 39.7816C76.457 40.0865 76.6603 40.4493 76.6603 41.0298H79.4263ZM77.4058 37.4309C76.163 36.6355 74.5086 36.3277 72.622 36.3277V39.0936C74.2758 39.0936 75.3137 39.3758 75.9148 39.7606L77.4058 37.4309ZM72.622 36.3277H58.0731V39.0936H72.622V36.3277ZM80.1454 52.7574C80.1454 51.1856 79.4493 49.8955 78.125 49.0479L76.634 51.3776C77.1536 51.7102 77.3795 52.1165 77.3795 52.7574H80.1454ZM78.125 49.0479C76.8858 48.2548 75.2531 47.9447 73.3965 47.9447V50.7106C75.0066 50.7106 76.0292 50.9906 76.634 51.3776L78.125 49.0479ZM73.3965 47.9447H58.0731V50.7106H73.3965V47.9447ZM56.6901 49.3277V56.8511H59.4561V49.3277H56.6901ZM58.0731 58.234H73.3965V55.4681H58.0731V58.234ZM73.3965 58.234C75.2531 58.234 76.8858 57.9239 78.125 57.1308L76.634 54.8011C76.0292 55.1882 75.0066 55.4681 73.3965 55.4681V58.234ZM78.1571 57.1096C79.4692 56.2174 80.1454 54.8979 80.1454 53.3106H77.3795C77.3795 54.0099 77.1338 54.4606 76.6018 54.8223L78.1571 57.1096ZM80.1454 53.3106V52.7574H77.3795V53.3106H80.1454ZM119.918 44.3489L119.013 45.3947L119.023 45.4032L119.918 44.3489ZM119.918 58.5106L119.023 57.4564L119.013 57.4649L119.918 58.5106ZM92.4794 61H91.0965V62.383H92.4794V61ZM92.4794 33.617V32.234H91.0965V33.617H92.4794ZM97.7901 33.617H99.1731V32.234H97.7901V33.617ZM97.7901 41.8596H96.4071V43.2425H97.7901V41.8596ZM132.088 33.617H133.471V32.234H132.088V33.617ZM132.088 61V62.383H133.471V61H132.088ZM126.777 61H125.394V62.383H126.777V61ZM126.777 33.617V32.234H125.394V33.617H126.777ZM97.7901 46.5617V45.1787H96.4071V46.5617H97.7901ZM97.7901 56.2979H96.4071V57.6809H97.7901V56.2979ZM115.879 55.1362L115.03 54.0445L115.02 54.0523L115.01 54.0603L115.879 55.1362ZM111.786 43.2425C115.084 43.2425 117.428 44.0232 119.013 45.3947L120.823 43.3032C118.572 41.3555 115.495 40.4766 111.786 40.4766V43.2425ZM119.023 45.4032C120.628 46.766 121.467 48.627 121.467 51.1532H124.233C124.233 47.9261 123.117 45.251 120.813 43.2947L119.023 45.4032ZM121.467 51.1532V51.8723H124.233V51.1532H121.467ZM121.467 51.8723C121.467 54.2686 120.641 56.0822 119.023 57.4564L120.813 59.5649C123.104 57.6199 124.233 55.008 124.233 51.8723H121.467ZM119.013 57.4649C117.428 58.8364 115.084 59.617 111.786 59.617V62.383C115.495 62.383 118.572 61.5041 120.823 59.5564L119.013 57.4649ZM111.786 59.617H92.4794V62.383H111.786V59.617ZM93.8624 61V33.617H91.0965V61H93.8624ZM92.4794 35H97.7901V32.234H92.4794V35ZM96.4071 33.617V41.8596H99.1731V33.617H96.4071ZM97.7901 43.2425H111.786V40.4766H97.7901V43.2425ZM130.705 33.617V61H133.471V33.617H130.705ZM132.088 59.617H126.777V62.383H132.088V59.617ZM128.16 61V33.617H125.394V61H128.16ZM126.777 35H132.088V32.234H126.777V35ZM118.756 51.1532C118.756 49.2977 118.134 47.6978 116.722 46.613C115.38 45.5812 113.528 45.1787 111.399 45.1787V47.9447C113.252 47.9447 114.388 48.3074 115.037 48.8061C115.617 49.2518 115.99 49.9477 115.99 51.1532H118.756ZM111.399 45.1787H97.7901V47.9447H111.399V45.1787ZM96.4071 46.5617V56.2979H99.1731V46.5617H96.4071ZM97.7901 57.6809H111.399V54.9149H97.7901V57.6809ZM111.399 57.6809C113.555 57.6809 115.429 57.278 116.748 56.212L115.01 54.0603C114.412 54.5433 113.299 54.9149 111.399 54.9149V57.6809ZM116.729 56.2278C118.102 55.1598 118.756 53.6464 118.756 51.8723H115.99C115.99 52.9011 115.649 53.5636 115.03 54.0445L116.729 56.2278ZM118.756 51.8723V51.1532H115.99V51.8723H118.756ZM166.405 36.5489L165.819 37.8016L165.827 37.8055L165.836 37.8093L166.405 36.5489ZM171.715 41.0298L170.551 41.7766L170.558 41.7866L171.715 41.0298ZM171.55 55.6894L170.423 54.8876L170.42 54.8918L171.55 55.6894ZM165.907 60.1149L166.447 61.388L166.455 61.3846L166.463 61.381L165.907 60.1149ZM145.052 57.4596L144.08 58.4438L144.087 58.4501L145.052 57.4596ZM144.775 29.7447L145.76 30.7159L145.766 30.7093L144.775 29.7447ZM157.001 24.9872L157.103 26.3664L157.106 26.3662L157.001 24.9872ZM164.247 24.434L164.175 23.053L164.158 23.0538L164.142 23.0551L164.247 24.434ZM165.741 24.0468L166.571 25.1532L166.581 25.1459L166.59 25.1385L165.741 24.0468ZM166.239 22.4979V21.1149H164.856V22.4979H166.239ZM171.937 22.4979H173.32V21.1149H171.937V22.4979ZM170.333 27.4766L171.292 28.4721L171.293 28.4715L170.333 27.4766ZM165.575 29.1915L165.48 27.8117L165.467 27.8127L165.575 29.1915ZM157.111 29.8553L157.217 31.2342L157.219 31.2341L157.111 29.8553ZM148.592 32.6213L147.703 31.5623L147.692 31.5712L148.592 32.6213ZM145.826 39.3702L144.443 39.3529L144.403 42.5749L146.766 40.3845L145.826 39.3702ZM151.358 36.1064L151.822 37.4093L151.358 36.1064ZM165.243 41.9149L166.073 40.8085L165.243 41.9149ZM146.047 44.4596L144.986 43.573L144.664 43.958V44.4596H146.047ZM148.869 54.3064L147.931 55.3234L147.942 55.3329L147.952 55.3422L148.869 54.3064ZM165.188 54.7489L164.382 53.6249L164.372 53.6323L165.188 54.7489ZM158.439 36.3277C161.3 36.3277 163.749 36.8332 165.819 37.8016L166.991 35.2962C164.488 34.1256 161.626 33.5617 158.439 33.5617V36.3277ZM165.836 37.8093C167.899 38.7411 169.454 40.0652 170.551 41.7765L172.88 40.283C171.47 38.0851 169.484 36.422 166.974 35.2885L165.836 37.8093ZM170.558 41.7866C171.649 43.4549 172.213 45.4167 172.213 47.7234H174.979C174.979 44.9407 174.29 42.4402 172.873 40.273L170.558 41.7866ZM172.213 47.7234V49.0511H174.979V47.7234H172.213ZM172.213 49.0511C172.213 51.2914 171.609 53.2197 170.423 54.8876L172.676 56.4911C174.219 54.3235 174.979 51.8263 174.979 49.0511H172.213ZM170.42 54.8918C169.258 56.5371 167.591 57.8645 165.351 58.8488L166.463 61.381C169.091 60.2263 171.185 58.6033 172.679 56.4869L170.42 54.8918ZM165.367 58.8417C163.138 59.7874 160.489 60.2808 157.388 60.2808V63.0468C160.778 63.0468 163.808 62.5076 166.447 61.388L165.367 58.8417ZM157.388 60.2808C152.278 60.2808 148.559 58.9458 146.017 56.469L144.087 58.4501C147.298 61.579 151.803 63.0468 157.388 63.0468V60.2808ZM146.023 56.4754C143.481 53.9661 142.12 50.326 142.12 45.3447H139.354C139.354 50.8371 140.869 55.2736 144.08 58.4438L146.023 56.4754ZM142.12 45.3447V41.583H139.354V45.3447H142.12ZM142.12 41.583C142.12 36.6539 143.401 33.1067 145.76 30.7159L143.791 28.7734C140.765 31.8408 139.354 36.1858 139.354 41.583H142.12ZM145.766 30.7093C148.141 28.2698 151.842 26.7574 157.103 26.3664L156.898 23.6081C151.243 24.0284 146.794 25.6876 143.784 28.7801L145.766 30.7093ZM157.106 26.3662L164.353 25.813L164.142 23.0551L156.895 23.6083L157.106 26.3662ZM164.32 25.8151C165.085 25.7748 165.933 25.6312 166.571 25.1532L164.911 22.9404C164.953 22.9092 164.938 22.935 164.799 22.9709C164.666 23.0054 164.463 23.0378 164.175 23.053L164.32 25.8151ZM166.59 25.1385C167.279 24.6027 167.622 23.8391 167.622 22.9957H164.856C164.856 23.0199 164.854 23.0292 164.854 23.027C164.855 23.0243 164.857 23.0136 164.865 22.9984C164.872 22.983 164.881 22.9698 164.888 22.9601C164.896 22.9509 164.899 22.9497 164.892 22.9551L166.59 25.1385ZM167.622 22.9957V22.4979H164.856V22.9957H167.622ZM166.239 23.8808H171.937V21.1149H166.239V23.8808ZM170.554 22.4979V23.1617H173.32V22.4979H170.554ZM170.554 23.1617C170.554 24.7265 170.109 25.7696 169.372 26.4817L171.293 28.4715C172.695 27.1184 173.32 25.2848 173.32 23.1617H170.554ZM169.373 26.4811C168.666 27.1627 167.449 27.676 165.48 27.8118L165.67 30.5712C167.979 30.412 169.934 29.782 171.292 28.4721L169.373 26.4811ZM165.467 27.8127L157.003 28.4766L157.219 31.2341L165.683 30.5702L165.467 27.8127ZM157.005 28.4764C153.04 28.7814 149.865 29.7462 147.703 31.5623L149.482 33.6802C151.007 32.3985 153.511 31.5193 157.217 31.2342L157.005 28.4764ZM147.692 31.5712C145.513 33.4393 144.484 36.108 144.443 39.3529L147.209 39.3875C147.242 36.7317 148.057 34.9011 149.492 33.6713L147.692 31.5712ZM146.766 40.3845C148.125 39.1251 149.801 38.1284 151.822 37.4093L150.894 34.8035C148.563 35.6333 146.551 36.8125 144.886 38.3559L146.766 40.3845ZM151.822 37.4093C153.834 36.6929 156.036 36.3277 158.439 36.3277V33.5617C155.752 33.5617 153.233 33.9709 150.894 34.8035L151.822 37.4093ZM169.503 47.834C169.503 44.9144 168.357 42.5218 166.073 40.8085L164.413 43.0213C165.964 44.1846 166.737 45.738 166.737 47.834H169.503ZM166.073 40.8085C163.834 39.1297 160.849 38.3745 157.277 38.3745V41.1404C160.492 41.1404 162.816 41.8235 164.413 43.0213L166.073 40.8085ZM157.277 38.3745C152.086 38.3745 147.918 40.0626 144.986 43.573L147.109 45.3462C149.413 42.5871 152.732 41.1404 157.277 41.1404V38.3745ZM144.664 44.4596V46.6723H147.43V44.4596H144.664ZM144.664 46.6723C144.664 50.2878 145.685 53.253 147.931 55.3234L149.806 53.2894C148.291 51.8931 147.43 49.7689 147.43 46.6723H144.664ZM147.952 55.3422C150.215 57.3434 153.398 58.234 157.277 58.234V55.4681C153.78 55.4681 151.358 54.6622 149.785 53.2705L147.952 55.3422ZM157.277 58.234C160.809 58.234 163.769 57.4984 166.004 55.8655L164.372 53.6323C162.771 54.8023 160.457 55.4681 157.277 55.4681V58.234ZM165.994 55.8729C168.316 54.208 169.503 51.8692 169.503 48.9957H166.737C166.737 50.9904 165.969 52.487 164.382 53.625L165.994 55.8729ZM169.503 48.9957V47.834H166.737V48.9957H169.503ZM210.721 49.0511V50.434H212.104V49.0511H210.721ZM184.334 49.0511V47.6681H182.84L182.955 49.1571L184.334 49.0511ZM187.432 54.7489L186.605 55.8579L186.612 55.8632L186.62 55.8683L187.432 54.7489ZM202.036 55.3574L202.684 56.5791L202.693 56.5743L202.036 55.3574ZM205.023 51.4298V50.0468H203.76L203.646 51.3046L205.023 51.4298ZM210.721 51.4298L212.098 51.5564L212.237 50.0468H210.721V51.4298ZM206.074 58.9532L205.325 57.7908L205.318 57.7954L206.074 58.9532ZM186.381 60.0043L185.793 61.256L185.801 61.2597L185.808 61.2633L186.381 60.0043ZM180.738 55.1915L179.565 55.9245L179.57 55.9319L179.575 55.9393L180.738 55.1915ZM180.738 39.4808L179.569 38.7423L179.565 38.7479L180.738 39.4808ZM186.381 34.6681L186.953 35.9271L186.961 35.9235L186.969 35.9199L186.381 34.6681ZM206.517 36.6043L205.61 37.6485L205.618 37.6553L206.517 36.6043ZM187.764 39.6468L188.52 40.8047L188.525 40.8011L187.764 39.6468ZM184.445 44.6255L183.086 44.3678L182.775 46.0085H184.445V44.6255ZM205.079 44.6255V46.0085H206.693L206.445 44.4135L205.079 44.6255ZM201.925 39.6468L201.142 40.7864L201.15 40.792L201.158 40.7975L201.925 39.6468ZM210.721 47.6681H184.334V50.434H210.721V47.6681ZM182.955 49.1571C183.169 51.9413 184.395 54.211 186.605 55.8579L188.258 53.6399C186.707 52.4841 185.867 50.9551 185.713 48.945L182.955 49.1571ZM186.62 55.8683C188.807 57.455 191.629 58.1787 194.955 58.1787V55.4128C192.012 55.4128 189.819 54.772 188.244 53.6295L186.62 55.8683ZM194.955 58.1787C198.005 58.1787 200.611 57.6793 202.684 56.5791L201.388 54.1358C199.847 54.9534 197.733 55.4128 194.955 55.4128V58.1787ZM202.693 56.5743C204.814 55.4292 206.199 53.7702 206.401 51.555L203.646 51.3046C203.552 52.3348 202.946 53.2942 201.379 54.1406L202.693 56.5743ZM205.023 52.8128H210.721V50.0468H205.023V52.8128ZM209.344 51.3032C209.089 54.0713 207.785 56.2048 205.325 57.7909L206.824 60.1155C209.969 58.0874 211.763 55.2053 212.098 51.5564L209.344 51.3032ZM205.318 57.7954C202.851 59.4072 199.438 60.2808 194.955 60.2808V63.0468C199.766 63.0468 203.766 62.1134 206.831 60.111L205.318 57.7954ZM194.955 60.2808C191.826 60.2808 189.171 59.7535 186.953 58.7452L185.808 61.2633C188.458 62.4677 191.519 63.0468 194.955 63.0468V60.2808ZM186.969 58.7525C184.747 57.7088 183.075 56.2695 181.901 54.4436L179.575 55.9393C181.056 58.244 183.147 60.0131 185.793 61.256L186.969 58.7525ZM181.911 54.4585C180.775 52.6418 180.185 50.4875 180.185 47.9447H177.419C177.419 50.9338 178.119 53.6107 179.565 55.9245L181.911 54.4585ZM180.185 47.9447V46.783H177.419V47.9447H180.185ZM180.185 46.783C180.185 44.1994 180.777 42.0277 181.911 40.2138L179.565 38.7479C178.117 41.0645 177.419 43.7609 177.419 46.783H180.185ZM181.907 40.2193C183.08 38.3626 184.745 36.9307 186.953 35.9271L185.808 33.4091C183.148 34.6182 181.051 36.3949 179.569 38.7423L181.907 40.2193ZM186.969 35.9199C189.183 34.8799 191.832 34.3362 194.955 34.3362V31.5702C191.514 31.5702 188.447 32.1697 185.793 33.4163L186.969 35.9199ZM194.955 34.3362C199.636 34.3362 203.13 35.4949 205.61 37.6484L207.424 35.5601C204.298 32.8455 200.085 31.5702 194.955 31.5702V34.3362ZM205.618 37.6553C208.066 39.7488 209.338 42.6574 209.338 46.5617H212.104C212.104 41.9838 210.574 38.254 207.416 35.5532L205.618 37.6553ZM209.338 46.5617V49.0511H212.104V46.5617H209.338ZM194.955 36.4383C191.823 36.4383 189.136 37.0839 187.002 38.4926L188.525 40.8011C190.079 39.7756 192.187 39.2043 194.955 39.2043V36.4383ZM187.007 38.4889C184.882 39.8767 183.561 41.8629 183.086 44.3678L185.803 44.8832C186.14 43.1101 187.031 41.7772 188.52 40.8047L187.007 38.4889ZM184.445 46.0085H205.079V43.2425H184.445V46.0085ZM206.445 44.4135C206.055 41.899 204.792 39.8955 202.692 38.4961L201.158 40.7975C202.6 41.7584 203.438 43.0741 203.712 44.8376L206.445 44.4135ZM202.709 38.5072C200.642 37.086 198.018 36.4383 194.955 36.4383V39.2043C197.645 39.2043 199.669 39.7736 201.142 40.7864L202.709 38.5072ZM242.303 34.6681L241.722 35.9232L242.303 34.6681ZM248.001 39.5362L246.831 40.2747L246.837 40.284L248.001 39.5362ZM248.001 55.0808L246.831 54.3424L248.001 55.0808ZM242.303 59.9489L242.883 61.2041L242.303 59.9489ZM227.975 60.7234L227.513 62.027L227.975 60.7234ZM223.328 58.0128L224.247 56.9791L221.945 54.9331V58.0128H223.328ZM223.328 70.4043V71.7872H224.711V70.4043H223.328ZM218.018 70.4043H216.635V71.7872H218.018V70.4043ZM218.018 33.617V32.234H216.635V33.617H218.018ZM222.941 33.617L224.321 33.5202L224.23 32.234H222.941V33.617ZM223.162 36.7702L221.783 36.867L221.98 39.6778L224.083 37.8023L223.162 36.7702ZM227.92 33.9489L227.443 32.6508L227.92 33.9489ZM241.584 40.2553L240.69 41.3111L240.701 41.3203L240.712 41.3293L241.584 40.2553ZM227.588 38.983L227.052 37.7079L227.043 37.7118L227.588 38.983ZM223.328 42.1362L222.237 41.2871L221.945 41.6617V42.1362H223.328ZM223.328 52.4255H221.945V52.9L222.237 53.2746L223.328 52.4255ZM227.588 55.634L227.021 56.8957L227.037 56.9026L227.052 56.9091L227.588 55.634ZM241.584 54.3617L240.7 53.2976L240.69 53.306L241.584 54.3617ZM233.673 34.3362C236.795 34.3362 239.467 34.8797 241.722 35.9232L242.883 33.4129C240.197 32.17 237.115 31.5702 233.673 31.5702V34.3362ZM241.722 35.9232C243.975 36.9656 245.659 38.4191 246.831 40.2747L249.17 38.7977C247.686 36.4489 245.572 34.6571 242.883 33.4129L241.722 35.9232ZM246.837 40.284C248.002 42.0959 248.609 44.2621 248.609 46.8383H251.375C251.375 43.8088 250.654 41.107 249.164 38.7883L246.837 40.284ZM248.609 46.8383V47.7234H251.375V46.8383H248.609ZM248.609 47.7234C248.609 50.2991 248.002 52.4885 246.831 54.3424L249.17 55.8194C250.654 53.4689 251.375 50.7534 251.375 47.7234H248.609ZM246.831 54.3424C245.659 56.1979 243.975 57.6514 241.722 58.6938L242.883 61.2041C245.572 59.96 247.686 58.1681 249.17 55.8194L246.831 54.3424ZM241.722 58.6938C239.467 59.7373 236.795 60.2808 233.673 60.2808V63.0468C237.115 63.0468 240.197 62.4471 242.883 61.2041L241.722 58.6938ZM233.673 60.2808C231.789 60.2808 230.047 59.9902 228.437 59.4198L227.513 62.027C229.443 62.7106 231.5 63.0468 233.673 63.0468V60.2808ZM228.437 59.4198C226.825 58.849 225.434 58.0339 224.247 56.9791L222.409 59.0464C223.878 60.3519 225.585 61.3439 227.513 62.027L228.437 59.4198ZM221.945 58.0128V70.4043H224.711V58.0128H221.945ZM223.328 69.0213H218.018V71.7872H223.328V69.0213ZM219.401 70.4043V33.617H216.635V70.4043H219.401ZM218.018 35H222.941V32.234H218.018V35ZM221.561 33.7138L221.783 36.867L224.542 36.6734L224.321 33.5202L221.561 33.7138ZM224.083 37.8023C225.311 36.7071 226.744 35.8542 228.397 35.2471L227.443 32.6508C225.481 33.3714 223.743 34.3992 222.242 35.7381L224.083 37.8023ZM228.397 35.2471C230.043 34.6423 231.798 34.3362 233.673 34.3362V31.5702C231.491 31.5702 229.411 31.9279 227.443 32.6508L228.397 35.2471ZM245.898 46.8383C245.898 43.6723 244.773 41.0618 242.455 39.1813L240.712 41.3293C242.304 42.6205 243.132 44.3986 243.132 46.8383H245.898ZM242.477 39.1996C240.234 37.3015 237.223 36.4383 233.618 36.4383V39.2043C236.799 39.2043 239.098 39.9637 240.69 41.3111L242.477 39.1996ZM233.618 36.4383C231.274 36.4383 229.08 36.8562 227.052 37.7079L228.123 40.2581C229.783 39.5609 231.609 39.2043 233.618 39.2043V36.4383ZM227.043 37.7118C225.057 38.5628 223.435 39.7457 222.237 41.2871L224.42 42.9852C225.286 41.8713 226.504 40.9521 228.133 40.2541L227.043 37.7118ZM221.945 42.1362V52.4255H224.711V42.1362H221.945ZM222.237 53.2746C223.431 54.8098 225.045 56.0082 227.021 56.8957L228.154 54.3724C226.517 53.6372 225.291 52.6965 224.42 51.5765L222.237 53.2746ZM227.052 56.9091C229.08 57.7609 231.274 58.1787 233.618 58.1787V55.4128C231.609 55.4128 229.783 55.0562 228.123 54.359L227.052 56.9091ZM233.618 58.1787C237.223 58.1787 240.234 57.3155 242.477 55.4174L240.69 53.306C239.098 54.6533 236.799 55.4128 233.618 55.4128V58.1787ZM242.467 55.4258C244.773 53.5111 245.898 50.8895 245.898 47.7234H243.132C243.132 50.163 242.303 51.9669 240.7 53.2976L242.467 55.4258ZM245.898 47.7234V46.8383H243.132V47.7234H245.898ZM262.381 33.617H263.764V32.234H262.381V33.617ZM262.381 54.5277H260.998V57.9644L263.379 55.4856L262.381 54.5277ZM282.462 33.617V32.234H281.873L281.465 32.6591L282.462 33.617ZM287.33 33.617H288.713V32.234H287.33V33.617ZM287.33 61V62.383H288.713V61H287.33ZM282.241 61H280.858V62.383H282.241V61ZM282.241 40.0894H283.624V36.6526L281.243 39.1314L282.241 40.0894ZM262.16 61V62.383H262.749L263.158 61.9579L262.16 61ZM257.292 61H255.909V62.383H257.292V61ZM257.292 33.617V32.234H255.909V33.617H257.292ZM260.998 33.617V54.5277H263.764V33.617H260.998ZM263.379 55.4856L283.46 34.5749L281.465 32.6591L261.384 53.5697L263.379 55.4856ZM282.462 35H287.33V32.234H282.462V35ZM285.947 33.617V61H288.713V33.617H285.947ZM287.33 59.617H282.241V62.383H287.33V59.617ZM283.624 61V40.0894H280.858V61H283.624ZM281.243 39.1314L261.163 60.0421L263.158 61.9579L283.238 41.0473L281.243 39.1314ZM262.16 59.617H257.292V62.383H262.16V59.617ZM258.675 61V33.617H255.909V61H258.675ZM257.292 35H262.381V32.234H257.292V35ZM360.533 37.1021L361.389 36.0156L360.533 37.1021ZM360.478 57.5149L361.333 58.6014L361.335 58.6L360.478 57.5149ZM343.605 61V59.617H342.223V61H343.605ZM343.605 70.4043V71.7872H344.988V70.4043H343.605ZM338.295 70.4043H336.912V71.7872H338.295V70.4043ZM338.295 61H339.678V59.617H338.295V61ZM321.367 57.5149L320.503 58.5948L320.511 58.6007L320.518 58.6066L321.367 57.5149ZM321.367 37.1021L322.223 38.1886L321.367 37.1021ZM338.295 33.617V35H339.678V33.617H338.295ZM338.295 22.4979V21.1149H336.912V22.4979H338.295ZM343.605 22.4979H344.988V21.1149H343.605V22.4979ZM343.605 33.617H342.223V35H343.605V33.617ZM338.295 56.2979V57.6809H339.678V56.2979H338.295ZM338.295 38.2638H339.678V36.8808H338.295V38.2638ZM325.295 40.5319L326.141 41.6258L325.295 40.5319ZM325.24 54.0851L324.383 55.1711L324.395 55.1802L324.406 55.189L325.24 54.0851ZM356.605 40.5319L355.759 41.6258L356.605 40.5319ZM343.605 38.2638V36.8808H342.223V38.2638H343.605ZM343.605 56.2979H342.223V57.6809H343.605V56.2979ZM356.605 54.0851L357.449 55.1813L357.452 55.179L356.605 54.0851ZM348.031 35C353.236 35 357.057 36.1251 359.678 38.1886L361.389 36.0156C358.108 33.4324 353.595 32.234 348.031 32.234V35ZM359.678 38.1886C362.249 40.2136 363.576 43.0694 363.576 46.9489H366.342C366.342 42.3462 364.718 38.6375 361.389 36.0156L359.678 38.1886ZM363.576 46.9489V47.7234H366.342V46.9489H363.576ZM363.576 47.7234C363.576 51.5135 362.241 54.3589 359.62 56.4298L361.335 58.6C364.689 55.9503 366.342 52.268 366.342 47.7234H363.576ZM359.622 56.4284C357 58.4931 353.197 59.617 348.031 59.617V62.383C353.561 62.383 358.055 61.1835 361.333 58.6014L359.622 56.4284ZM348.031 59.617H343.605V62.383H348.031V59.617ZM342.223 61V70.4043H344.988V61H342.223ZM343.605 69.0213H338.295V71.7872H343.605V69.0213ZM339.678 70.4043V61H336.912V70.4043H339.678ZM338.295 59.617H333.869V62.383H338.295V59.617ZM333.869 59.617C328.705 59.617 324.878 58.4937 322.216 56.4232L320.518 58.6066C323.831 61.1829 328.338 62.383 333.869 62.383V59.617ZM322.231 56.435C319.646 54.3665 318.325 51.52 318.325 47.7234H315.559C315.559 52.2616 317.188 55.9427 320.503 58.5948L322.231 56.435ZM318.325 47.7234V46.9489H315.559V47.7234H318.325ZM318.325 46.9489C318.325 43.0694 319.651 40.2136 322.223 38.1886L320.512 36.0156C317.182 38.6375 315.559 42.3462 315.559 46.9489H318.325ZM322.223 38.1886C324.843 36.1251 328.664 35 333.869 35V32.234C328.306 32.234 323.792 33.4324 320.512 36.0156L322.223 38.1886ZM333.869 35H338.295V32.234H333.869V35ZM339.678 33.617V22.4979H336.912V33.617H339.678ZM338.295 23.8808H343.605V21.1149H338.295V23.8808ZM342.223 22.4979V33.617H344.988V22.4979H342.223ZM343.605 35H348.031V32.234H343.605V35ZM339.678 56.2979V38.2638H336.912V56.2979H339.678ZM338.295 36.8808H333.593V39.6468H338.295V36.8808ZM333.593 36.8808C329.842 36.8808 326.733 37.671 324.449 39.438L326.141 41.6258C327.766 40.3687 330.189 39.6468 333.593 39.6468V36.8808ZM324.449 39.438C322.107 41.2495 320.98 43.8387 320.98 47.0043H323.746C323.746 44.5641 324.574 42.8384 326.141 41.6258L324.449 39.438ZM320.98 47.0043V47.6681H323.746V47.0043H320.98ZM320.98 47.6681C320.98 50.7939 322.086 53.3598 324.383 55.1711L326.096 52.9991C324.558 51.7863 323.746 50.0742 323.746 47.6681H320.98ZM324.406 55.189C326.691 56.9133 329.815 57.6809 333.593 57.6809V54.9149C330.142 54.9149 327.697 54.2072 326.073 52.9812L324.406 55.189ZM333.593 57.6809H338.295V54.9149H333.593V57.6809ZM360.92 47.0043C360.92 43.8387 359.793 41.2495 357.452 39.438L355.759 41.6258C357.327 42.8384 358.154 44.5641 358.154 47.0043H360.92ZM357.452 39.438C355.168 37.671 352.059 36.8808 348.308 36.8808V39.6468C351.711 39.6468 354.134 40.3687 355.759 41.6258L357.452 39.438ZM348.308 36.8808H343.605V39.6468H348.308V36.8808ZM342.223 38.2638V56.2979H344.988V38.2638H342.223ZM343.605 57.6809H348.308V54.9149H343.605V57.6809ZM348.308 57.6809C352.083 57.6809 355.196 56.9143 357.449 55.1813L355.762 52.9889C354.18 54.2062 351.761 54.9149 348.308 54.9149V57.6809ZM357.452 55.179C359.788 53.3713 360.92 50.8038 360.92 47.6681H358.154C358.154 50.0643 357.332 51.7748 355.759 52.9912L357.452 55.179ZM360.92 47.6681V47.0043H358.154V47.6681H360.92ZM378.001 60.0043L377.421 61.2594L377.428 61.263L377.436 61.2665L378.001 60.0043ZM372.304 55.1915L371.134 55.93L371.14 55.9393L372.304 55.1915ZM372.304 39.4808L371.134 38.7423L372.304 39.4808ZM378.001 34.6681L378.567 35.9303L378.574 35.9268L378.582 35.9232L378.001 34.6681ZM395.372 34.6681L394.784 35.9199L394.795 35.9252L394.806 35.9303L395.372 34.6681ZM401.014 39.4808L399.836 40.2045L399.84 40.212L399.845 40.2193L401.014 39.4808ZM401.014 55.1915L399.845 54.453L399.841 54.4585L401.014 55.1915ZM395.372 60.0043L395.944 61.2633L395.952 61.2594L395.372 60.0043ZM394.653 54.417L393.771 53.3512L394.653 54.417ZM394.653 40.2553L393.759 41.3111L393.765 41.3161L393.771 41.3211L394.653 40.2553ZM378.61 40.2L377.729 39.1342L377.719 39.1427L378.61 40.2ZM378.665 54.417L377.784 55.4829L377.794 55.491L378.665 54.417ZM386.742 60.2808C383.535 60.2808 380.823 59.7521 378.567 58.742L377.436 61.2665C380.122 62.4691 383.236 63.0468 386.742 63.0468V60.2808ZM378.582 58.7491C376.323 57.7038 374.637 56.2642 373.467 54.4436L371.14 55.9393C372.625 58.2492 374.738 60.0182 377.421 61.2594L378.582 58.7491ZM373.473 54.453C372.302 52.5991 371.695 50.4097 371.695 47.834H368.929C368.929 50.8641 369.65 53.5796 371.134 55.93L373.473 54.453ZM371.695 47.834V46.8936H368.929V47.834H371.695ZM371.695 46.8936C371.695 44.2772 372.304 42.0703 373.473 40.2193L371.134 38.7423C369.648 41.0956 368.929 43.8306 368.929 46.8936H371.695ZM373.473 40.2193C374.642 38.3679 376.321 36.9357 378.567 35.9303L377.436 33.4059C374.74 34.6132 372.62 36.3895 371.134 38.7423L373.473 40.2193ZM378.582 35.9232C380.834 34.8814 383.541 34.3362 386.742 34.3362V31.5702C383.231 31.5702 380.111 32.1682 377.421 33.4129L378.582 35.9232ZM386.742 34.3362C389.904 34.3362 392.572 34.8808 394.784 35.9199L395.96 33.4163C393.304 32.1688 390.218 31.5702 386.742 31.5702V34.3362ZM394.806 35.9303C397.049 36.9346 398.705 38.3626 399.836 40.2045L402.193 38.7572C400.742 36.3949 398.636 34.6144 395.937 33.4059L394.806 35.9303ZM399.845 40.2193C401.014 42.0703 401.623 44.2772 401.623 46.8936H404.389C404.389 43.8306 403.67 41.0956 402.184 38.7423L399.845 40.2193ZM401.623 46.8936V47.834H404.389V46.8936H401.623ZM401.623 47.834C401.623 50.4097 401.016 52.5991 399.845 54.453L402.184 55.93C403.668 53.5796 404.389 50.8641 404.389 47.834H401.623ZM399.841 54.4585C398.71 56.2696 397.048 57.7049 394.791 58.7491L395.952 61.2594C398.637 60.0171 400.737 58.2439 402.187 55.9245L399.841 54.4585ZM394.799 58.7452C392.583 59.7527 389.91 60.2808 386.742 60.2808V63.0468C390.212 63.0468 393.292 62.4686 395.944 61.2633L394.799 58.7452ZM386.687 58.1787C390.285 58.1787 393.291 57.3374 395.534 55.4828L393.771 53.3512C392.178 54.6683 389.874 55.4128 386.687 55.4128V58.1787ZM395.534 55.4828C397.812 53.599 398.912 50.9905 398.912 47.834H396.146C396.146 50.2833 395.329 52.0634 393.771 53.3512L395.534 55.4828ZM398.912 47.834V46.8936H396.146V47.834H398.912ZM398.912 46.8936C398.912 43.7069 397.816 41.077 395.534 39.1895L393.771 41.3211C395.324 42.6052 396.146 44.4009 396.146 46.8936H398.912ZM395.546 39.1996C393.303 37.3015 390.291 36.4383 386.687 36.4383V39.2043C389.867 39.2043 392.167 39.9637 393.759 41.3111L395.546 39.1996ZM386.687 36.4383C383.023 36.4383 379.976 37.2757 377.729 39.1342L379.491 41.2658C381.079 39.9526 383.416 39.2043 386.687 39.2043V36.4383ZM377.719 39.1427C375.472 41.0369 374.406 43.686 374.406 46.8936H377.172C377.172 44.3481 377.986 42.5347 379.501 41.2573L377.719 39.1427ZM374.406 46.8936V47.834H377.172V46.8936H374.406ZM374.406 47.834C374.406 50.9905 375.506 53.599 377.784 55.4828L379.547 53.3512C377.989 52.0634 377.172 50.2833 377.172 47.834H374.406ZM377.794 55.491C380.069 57.3366 383.087 58.1787 386.687 58.1787V55.4128C383.501 55.4128 381.171 54.6691 379.537 53.3431L377.794 55.491ZM434.569 34.6681L433.988 35.9232L434.569 34.6681ZM440.267 39.5362L439.098 40.2747L439.104 40.284L440.267 39.5362ZM440.267 55.0808L439.098 54.3424L440.267 55.0808ZM434.569 59.9489L435.15 61.2041L434.569 59.9489ZM420.242 60.7234L419.78 62.027L420.242 60.7234ZM415.595 58.0128L416.514 56.9791L414.212 54.9331V58.0128H415.595ZM415.595 70.4043V71.7872H416.978V70.4043H415.595ZM410.284 70.4043H408.901V71.7872H410.284V70.4043ZM410.284 33.617V32.234H408.901V33.617H410.284ZM415.207 33.617L416.587 33.5202L416.497 32.234H415.207V33.617ZM415.429 36.7702L414.049 36.867L414.246 39.6778L416.349 37.8023L415.429 36.7702ZM420.186 33.9489L419.709 32.6508L420.186 33.9489ZM433.85 40.2553L432.957 41.3111L432.968 41.3203L432.979 41.3293L433.85 40.2553ZM419.854 38.983L419.319 37.7079L419.31 37.7118L419.854 38.983ZM415.595 42.1362L414.503 41.2871L414.212 41.6617V42.1362H415.595ZM415.595 52.4255H414.212V52.9L414.503 53.2746L415.595 52.4255ZM419.854 55.634L419.288 56.8957L419.303 56.9026L419.319 56.9091L419.854 55.634ZM433.85 54.3617L432.967 53.2976L432.957 53.306L433.85 54.3617ZM425.939 34.3362C429.062 34.3362 431.733 34.8797 433.988 35.9232L435.15 33.4129C432.464 32.17 429.382 31.5702 425.939 31.5702V34.3362ZM433.988 35.9232C436.241 36.9656 437.926 38.4191 439.098 40.2747L441.436 38.7977C439.953 36.4489 437.839 34.6571 435.15 33.4129L433.988 35.9232ZM439.104 40.284C440.268 42.0959 440.876 44.2621 440.876 46.8383H443.642C443.642 43.8088 442.921 41.107 441.43 38.7883L439.104 40.284ZM440.876 46.8383V47.7234H443.642V46.8383H440.876ZM440.876 47.7234C440.876 50.2991 440.269 52.4885 439.098 54.3424L441.436 55.8194C442.921 53.4689 443.642 50.7534 443.642 47.7234H440.876ZM439.098 54.3424C437.926 56.1979 436.241 57.6514 433.988 58.6938L435.15 61.2041C437.839 59.96 439.953 58.1681 441.436 55.8194L439.098 54.3424ZM433.988 58.6938C431.733 59.7373 429.062 60.2808 425.939 60.2808V63.0468C429.382 63.0468 432.464 62.4471 435.15 61.2041L433.988 58.6938ZM425.939 60.2808C424.056 60.2808 422.314 59.9902 420.703 59.4198L419.78 62.027C421.71 62.7106 423.766 63.0468 425.939 63.0468V60.2808ZM420.703 59.4198C419.092 58.849 417.7 58.0339 416.514 56.9791L414.676 59.0464C416.145 60.3519 417.851 61.3439 419.78 62.027L420.703 59.4198ZM414.212 58.0128V70.4043H416.978V58.0128H414.212ZM415.595 69.0213H410.284V71.7872H415.595V69.0213ZM411.667 70.4043V33.617H408.901V70.4043H411.667ZM410.284 35H415.207V32.234H410.284V35ZM413.828 33.7138L414.049 36.867L416.808 36.6734L416.587 33.5202L413.828 33.7138ZM416.349 37.8023C417.577 36.7071 419.011 35.8542 420.663 35.2471L419.709 32.6508C417.748 33.3714 416.009 34.3992 414.508 35.7381L416.349 37.8023ZM420.663 35.2471C422.309 34.6423 424.065 34.3362 425.939 34.3362V31.5702C423.757 31.5702 421.677 31.9279 419.709 32.6508L420.663 35.2471ZM438.165 46.8383C438.165 43.6723 437.039 41.0618 434.721 39.1813L432.979 41.3293C434.57 42.6205 435.399 44.3986 435.399 46.8383H438.165ZM434.743 39.1996C432.5 37.3015 429.489 36.4383 425.884 36.4383V39.2043C429.065 39.2043 431.364 39.9637 432.957 41.3111L434.743 39.1996ZM425.884 36.4383C423.541 36.4383 421.347 36.8562 419.319 37.7079L420.39 40.2581C422.05 39.5609 423.876 39.2043 425.884 39.2043V36.4383ZM419.31 37.7118C417.324 38.5628 415.702 39.7457 414.503 41.2871L416.686 42.9852C417.553 41.8713 418.771 40.9521 420.399 40.2541L419.31 37.7118ZM414.212 42.1362V52.4255H416.978V42.1362H414.212ZM414.503 53.2746C415.697 54.8098 417.311 56.0082 419.288 56.8957L420.421 54.3724C418.783 53.6372 417.558 52.6965 416.686 51.5765L414.503 53.2746ZM419.319 56.9091C421.347 57.7609 423.541 58.1787 425.884 58.1787V55.4128C423.876 55.4128 422.05 55.0562 420.39 54.359L419.319 56.9091ZM425.884 58.1787C429.489 58.1787 432.5 57.3155 434.743 55.4174L432.957 53.306C431.364 54.6533 429.065 55.4128 425.884 55.4128V58.1787ZM434.733 55.4258C437.04 53.5111 438.165 50.8895 438.165 47.7234H435.399C435.399 50.163 434.57 51.9669 432.967 53.2976L434.733 55.4258ZM438.165 47.7234V46.8383H435.399V47.7234H438.165ZM490.661 33.617H492.044V32.234H490.661V33.617ZM490.661 61V62.383H492.044V61H490.661ZM485.571 61H484.188V62.383H485.571V61ZM485.571 39.0936H486.954V33.8016L484.365 38.417L485.571 39.0936ZM484.299 41.3617L485.483 42.0757L485.495 42.0572L485.505 42.0383L484.299 41.3617ZM472.461 61V62.383H473.242L473.645 61.714L472.461 61ZM467.759 61L466.574 61.714L466.977 62.383H467.759V61ZM455.92 41.3617L454.714 42.0383L454.725 42.0572L454.736 42.0757L455.92 41.3617ZM454.648 39.0936L455.854 38.417L453.265 33.8016V39.0936H454.648ZM454.648 61V62.383H456.031V61H454.648ZM449.559 61H448.176V62.383H449.559V61ZM449.559 33.617V32.234H448.176V33.617H449.559ZM457.082 33.617L458.269 32.9077L457.867 32.234H457.082V33.617ZM470.137 55.4681L468.95 56.1774L470.14 58.1687L471.326 56.1752L470.137 55.4681ZM483.137 33.617V32.234H482.351L481.949 32.9099L483.137 33.617ZM489.278 33.617V61H492.044V33.617H489.278ZM490.661 59.617H485.571V62.383H490.661V59.617ZM486.954 61V39.0936H484.188V61H486.954ZM484.365 38.417L483.093 40.6851L485.505 42.0383L486.777 39.7702L484.365 38.417ZM483.115 40.6477L471.276 60.286L473.645 61.714L485.483 42.0757L483.115 40.6477ZM472.461 59.617H467.759V62.383H472.461V59.617ZM468.943 60.286L457.105 40.6477L454.736 42.0757L466.574 61.714L468.943 60.286ZM457.126 40.6851L455.854 38.417L453.442 39.7702L454.714 42.0383L457.126 40.6851ZM453.265 39.0936V61H456.031V39.0936H453.265ZM454.648 59.617H449.559V62.383H454.648V59.617ZM450.941 61V33.617H448.176V61H450.941ZM449.559 35H457.082V32.234H449.559V35ZM455.895 34.3263L468.95 56.1774L471.324 54.7588L458.269 32.9077L455.895 34.3263ZM471.326 56.1752L484.326 34.3241L481.949 32.9099L468.949 54.761L471.326 56.1752ZM483.137 35H490.661V32.234H483.137V35ZM531.878 33.617H533.261V32.234H531.878V33.617ZM531.878 34.3915L533.102 35.0354L533.261 34.7331V34.3915H531.878ZM516.278 64.0426L517.499 64.6924L517.502 64.6865L516.278 64.0426ZM512.019 68.9106L511.315 67.72L511.299 67.7295L511.283 67.7394L512.019 68.9106ZM499.959 70.4043H498.576V71.7872H499.959V70.4043ZM499.959 65.7021V64.3191H498.576V65.7021H499.959ZM508.976 64.983L508.29 63.7822L508.269 63.7943L508.248 63.8071L508.976 64.983ZM511.189 62.2723L509.983 61.5943L509.971 61.6172L509.959 61.6406L511.189 62.2723ZM511.687 61.3872L512.892 62.0653L513.262 61.4078L512.909 60.7408L511.687 61.3872ZM497.414 34.3915H496.031V34.7346L496.192 35.0379L497.414 34.3915ZM497.414 33.617V32.234H496.031V33.617H497.414ZM503.057 33.617L504.287 32.9841L503.901 32.234H503.057V33.617ZM514.674 56.1872L513.444 56.8201L514.677 59.2149L515.905 56.8178L514.674 56.1872ZM526.236 33.617V32.234H525.39L525.005 32.9865L526.236 33.617ZM530.495 33.617V34.3915H533.261V33.617H530.495ZM530.654 33.7476L515.054 63.3986L517.502 64.6865L533.102 35.0354L530.654 33.7476ZM515.057 63.3928C513.917 65.5356 512.652 66.9302 511.315 67.72L512.722 70.1013C514.631 68.9734 516.206 67.1225 517.499 64.6923L515.057 63.3928ZM511.283 67.7394C509.999 68.5457 508.113 69.0213 505.491 69.0213V71.7872C508.401 71.7872 510.867 71.267 512.754 70.0819L511.283 67.7394ZM505.491 69.0213H499.959V71.7872H505.491V69.0213ZM501.342 70.4043V65.7021H498.576V70.4043H501.342ZM499.959 67.0851H505.491V64.3191H499.959V67.0851ZM505.491 67.0851C507.138 67.0851 508.606 66.8383 509.704 66.1589L508.248 63.8071C507.797 64.0865 506.942 64.3191 505.491 64.3191V67.0851ZM509.662 66.1837C510.783 65.5434 511.674 64.3553 512.419 62.9041L509.959 61.6406C509.302 62.9185 508.718 63.5375 508.29 63.7822L509.662 66.1837ZM512.394 62.9504L512.892 62.0653L510.481 60.7092L509.983 61.5943L512.394 62.9504ZM512.909 60.7408L498.637 33.7451L496.192 35.0379L510.464 62.0336L512.909 60.7408ZM498.797 34.3915V33.617H496.031V34.3915H498.797ZM497.414 35H503.057V32.234H497.414V35ZM501.827 34.2499L513.444 56.8201L515.904 55.5543L504.287 32.9841L501.827 34.2499ZM515.905 56.8178L527.467 34.2475L525.005 32.9865L513.443 55.5567L515.905 56.8178ZM526.236 35H531.878V32.234H526.236V35Z" fill="black" mask="url(#path-2-outside-1_53_3)"/>
<path d="M613.5 0.5H588C563.423 0.5 543.5 20.4233 543.5 45C543.5 69.5767 563.423 89.5 588 89.5H613.5V0.5Z" fill="#D4FF73" stroke="black"/>
<mask id="path-5-outside-2_53_3" maskUnits="userSpaceOnUse" x="566" y="23" width="38" height="41" fill="black">
<rect fill="white" x="566" y="23" width="38" height="41"/>
<path d="M601.735 57.0766V62H568.046V57.5745L584.033 48.3362C587.168 46.5291 589.491 45.0723 591.003 43.966C592.515 42.8227 593.529 41.7716 594.046 40.8128C594.599 39.8539 594.876 38.7106 594.876 37.383V36.8298C594.876 34.6908 593.972 33.0496 592.165 31.9064C590.395 30.7631 587.832 30.1915 584.476 30.1915C581.009 30.1915 578.372 30.8 576.565 32.017C574.795 33.234 573.91 35.0043 573.91 37.3277V38.434H568.378V37.2723C568.378 33.3262 569.761 30.3021 572.527 28.2C575.293 26.0979 579.239 25.0468 584.365 25.0468C589.381 25.0468 593.308 26.0794 596.148 28.1447C598.988 30.2099 600.407 33.0496 600.407 36.6638V37.217C600.407 39.1716 600.02 40.8865 599.246 42.3617C598.471 43.8369 597.125 45.3305 595.207 46.8426C593.327 48.3546 590.561 50.1617 586.91 52.2638L578.501 57.0766H601.735Z"/>
</mask>
<path d="M601.735 57.0766V62H568.046V57.5745L584.033 48.3362C587.168 46.5291 589.491 45.0723 591.003 43.966C592.515 42.8227 593.529 41.7716 594.046 40.8128C594.599 39.8539 594.876 38.7106 594.876 37.383V36.8298C594.876 34.6908 593.972 33.0496 592.165 31.9064C590.395 30.7631 587.832 30.1915 584.476 30.1915C581.009 30.1915 578.372 30.8 576.565 32.017C574.795 33.234 573.91 35.0043 573.91 37.3277V38.434H568.378V37.2723C568.378 33.3262 569.761 30.3021 572.527 28.2C575.293 26.0979 579.239 25.0468 584.365 25.0468C589.381 25.0468 593.308 26.0794 596.148 28.1447C598.988 30.2099 600.407 33.0496 600.407 36.6638V37.217C600.407 39.1716 600.02 40.8865 599.246 42.3617C598.471 43.8369 597.125 45.3305 595.207 46.8426C593.327 48.3546 590.561 50.1617 586.91 52.2638L578.501 57.0766H601.735Z" fill="#FF003D"/>
<path d="M601.735 57.0766H603.118V55.6936H601.735V57.0766ZM601.735 62V63.383H603.118V62H601.735ZM568.046 62H566.663V63.383H568.046V62ZM568.046 57.5745L567.354 56.377L566.663 56.7764V57.5745H568.046ZM584.033 48.3362L583.342 47.138L583.341 47.1387L584.033 48.3362ZM591.003 43.966L591.82 45.0821L591.829 45.0756L591.837 45.0691L591.003 43.966ZM594.046 40.8128L592.848 40.1217L592.838 40.1392L592.828 40.1571L594.046 40.8128ZM592.165 31.9064L591.415 33.0682L591.426 33.0751L592.165 31.9064ZM576.565 32.017L575.792 30.8699L575.781 30.8774L576.565 32.017ZM573.91 38.434V39.817H575.293V38.434H573.91ZM568.378 38.434H566.995V39.817H568.378V38.434ZM572.527 28.2L573.363 29.3011L572.527 28.2ZM596.148 28.1447L595.334 29.2631V29.2631L596.148 28.1447ZM599.246 42.3617L600.47 43.0046V43.0046L599.246 42.3617ZM595.207 46.8426L594.351 45.7565L594.341 45.7647L595.207 46.8426ZM586.91 52.2638L587.597 53.4641L587.6 53.4623L586.91 52.2638ZM578.501 57.0766L577.814 55.8763L573.301 58.4596H578.501V57.0766ZM600.352 57.0766V62H603.118V57.0766H600.352ZM601.735 60.617H568.046V63.383H601.735V60.617ZM569.429 62V57.5745H566.663V62H569.429ZM568.738 58.7719L584.725 49.5336L583.341 47.1387L567.354 56.377L568.738 58.7719ZM584.724 49.5343C587.87 47.7207 590.246 46.2339 591.82 45.0821L590.187 42.8498C588.737 43.9108 586.466 45.3375 583.342 47.138L584.724 49.5343ZM591.837 45.0691C593.407 43.882 594.607 42.6869 595.263 41.4684L592.828 40.1571C592.452 40.8564 591.623 41.7634 590.169 42.8628L591.837 45.0691ZM595.244 41.5039C595.94 40.2966 596.259 38.9048 596.259 37.383H593.493C593.493 38.5164 593.258 39.4112 592.848 40.1217L595.244 41.5039ZM596.259 37.383V36.8298H593.493V37.383H596.259ZM596.259 36.8298C596.259 34.2168 595.112 32.1345 592.904 30.7377L591.426 33.0751C592.832 33.9648 593.493 35.1647 593.493 36.8298H596.259ZM592.915 30.7446C590.825 29.3948 587.954 28.8085 584.476 28.8085V31.5745C587.709 31.5745 589.964 32.1314 591.415 33.0681L592.915 30.7446ZM584.476 28.8085C580.883 28.8085 577.926 29.4328 575.792 30.8699L577.337 33.1641C578.818 32.1672 581.135 31.5745 584.476 31.5745V28.8085ZM575.781 30.8774C573.601 32.3763 572.527 34.5926 572.527 37.3277H575.293C575.293 35.4159 575.988 34.0918 577.348 33.1566L575.781 30.8774ZM572.527 37.3277V38.434H575.293V37.3277H572.527ZM573.91 37.0511H568.378V39.817H573.91V37.0511ZM569.761 38.434V37.2723H566.995V38.434H569.761ZM569.761 37.2723C569.761 33.6915 570.992 31.1037 573.363 29.3011L571.69 27.0989C568.53 29.5006 566.995 32.961 566.995 37.2723H569.761ZM573.363 29.3011C575.798 27.4506 579.403 26.4298 584.365 26.4298V23.6638C579.074 23.6638 574.787 24.7452 571.69 27.0989L573.363 29.3011ZM584.365 26.4298C589.209 26.4298 592.813 27.4294 595.334 29.2631L596.961 27.0262C593.803 24.7295 589.552 23.6638 584.365 23.6638V26.4298ZM595.334 29.2631C597.804 31.0593 599.025 33.4768 599.025 36.6638H601.79C601.79 32.6225 600.171 29.3606 596.961 27.0262L595.334 29.2631ZM599.025 36.6638V37.217H601.79V36.6638H599.025ZM599.025 37.217C599.025 38.9865 598.675 40.4737 598.021 41.7188L600.47 43.0046C601.365 41.2994 601.79 39.3568 601.79 37.217H599.025ZM598.021 41.7188C597.369 42.9613 596.182 44.3134 594.351 45.7565L596.064 47.9286C598.069 46.3476 599.574 44.7124 600.47 43.0046L598.021 41.7188ZM594.341 45.7647C592.542 47.211 589.847 48.9767 586.22 51.0653L587.6 53.4623C591.274 51.3467 594.111 49.4983 596.074 47.9204L594.341 45.7647ZM586.223 51.0636L577.814 55.8763L579.188 58.2769L587.597 53.4641L586.223 51.0636ZM578.501 58.4596H601.735V55.6936H578.501V58.4596Z" fill="black" mask="url(#path-5-outside-2_53_3)"/>
</svg>
