<svg width="720" height="720" viewBox="0 0 720 720" fill="none" xmlns="http://www.w3.org/2000/svg">
<rect x="0.5" y="0.5" width="719" height="719" fill="#7A61E3" stroke="black"/>
<rect x="719.5" y="136.5" width="43" height="239" transform="rotate(90 719.5 136.5)" fill="#D2CCF4" stroke="black"/>
<rect x="719.5" y="225.5" width="43" height="239" transform="rotate(90 719.5 225.5)" fill="#D2CCF4" stroke="black"/>
<rect x="719.5" y="314.5" width="45" height="239" transform="rotate(90 719.5 314.5)" fill="#D2CCF4" stroke="black"/>
<rect x="239.5" y="136.5" width="43" height="239" transform="rotate(90 239.5 136.5)" fill="#D2CCF4" stroke="black"/>
<rect x="239.5" y="225.5" width="43" height="239" transform="rotate(90 239.5 225.5)" fill="#D2CCF4" stroke="black"/>
<rect x="239.5" y="314.5" width="45" height="239" transform="rotate(90 239.5 314.5)" fill="#D2CCF4" stroke="black"/>
<rect x="719.5" y="45.5" width="45" height="239" transform="rotate(90 719.5 45.5)" fill="#D2CCF4" stroke="black"/>
<rect x="239.5" y="45.5" width="45" height="239" transform="rotate(90 239.5 45.5)" fill="#D2CCF4" stroke="black"/>
<rect x="719.5" y="586.5" width="43" height="239" transform="rotate(90 719.5 586.5)" fill="#D2CCF4" stroke="black"/>
<rect x="719.5" y="675.5" width="44" height="239" transform="rotate(90 719.5 675.5)" fill="#D2CCF4" stroke="black"/>
<rect x="239.5" y="586.5" width="43" height="239" transform="rotate(90 239.5 586.5)" fill="#D2CCF4" stroke="black"/>
<rect x="239.5" y="675.5" width="44" height="239" transform="rotate(90 239.5 675.5)" fill="#D2CCF4" stroke="black"/>
<rect x="719.5" y="405.5" width="44" height="239" transform="rotate(90 719.5 405.5)" fill="#D2CCF4" stroke="black"/>
<rect x="239.5" y="405.5" width="44" height="239" transform="rotate(90 239.5 405.5)" fill="#D2CCF4" stroke="black"/>
<rect x="719.5" y="495.5" width="45" height="239" transform="rotate(90 719.5 495.5)" fill="#D2CCF4" stroke="black"/>
<rect x="239.5" y="495.5" width="45" height="239" transform="rotate(90 239.5 495.5)" fill="#D2CCF4" stroke="black"/>
<rect x="479.5" y="91.5" width="43" height="239" transform="rotate(90 479.5 91.5)" fill="#D2CCF4" stroke="black"/>
<rect x="479.5" y="180.5" width="43" height="239" transform="rotate(90 479.5 180.5)" fill="#D2CCF4" stroke="black"/>
<rect x="479.5" y="269.5" width="45" height="239" transform="rotate(90 479.5 269.5)" fill="#D2CCF4" stroke="black"/>
<rect x="479.5" y="0.5" width="45" height="239" transform="rotate(90 479.5 0.5)" fill="#D2CCF4" stroke="black"/>
<rect x="479.5" y="541.5" width="43" height="239" transform="rotate(90 479.5 541.5)" fill="#D2CCF4" stroke="black"/>
<rect x="479.5" y="630.5" width="44" height="239" transform="rotate(90 479.5 630.5)" fill="#D2CCF4" stroke="black"/>
<rect x="479.5" y="360.5" width="44" height="239" transform="rotate(90 479.5 360.5)" fill="#D2CCF4" stroke="black"/>
<rect x="479.5" y="450.5" width="45" height="239" transform="rotate(90 479.5 450.5)" fill="#D2CCF4" stroke="black"/>
</svg>
