<svg width="180" height="1182" viewBox="0 0 180 1182" fill="none" xmlns="http://www.w3.org/2000/svg">
<mask id="path-1-inside-1_15_4139" fill="white">
<path d="M180 454C180 465.819 177.672 477.522 173.149 488.442C168.626 499.361 161.997 509.282 153.64 517.64C145.282 525.997 135.361 532.626 124.442 537.149C113.522 541.672 101.819 544 90 544C78.181 544 66.4778 541.672 55.5585 537.149C44.6392 532.626 34.7177 525.997 26.3604 517.64C18.0031 509.282 11.3738 499.361 6.85084 488.442C2.32792 477.522 -1.03325e-06 465.819 0 454L90 454H180Z"/>
</mask>
<path d="M180 454C180 465.819 177.672 477.522 173.149 488.442C168.626 499.361 161.997 509.282 153.64 517.64C145.282 525.997 135.361 532.626 124.442 537.149C113.522 541.672 101.819 544 90 544C78.181 544 66.4778 541.672 55.5585 537.149C44.6392 532.626 34.7177 525.997 26.3604 517.64C18.0031 509.282 11.3738 499.361 6.85084 488.442C2.32792 477.522 -1.03325e-06 465.819 0 454L90 454H180Z" fill="#C3A4E3" stroke="black" stroke-width="2" mask="url(#path-1-inside-1_15_4139)"/>
<mask id="path-2-inside-2_15_4139" fill="white">
<path d="M180 363C180 374.819 177.672 386.522 173.149 397.442C168.626 408.361 161.997 418.282 153.64 426.64C145.282 434.997 135.361 441.626 124.442 446.149C113.522 450.672 101.819 453 90 453C78.181 453 66.4778 450.672 55.5585 446.149C44.6392 441.626 34.7177 434.997 26.3604 426.64C18.0031 418.282 11.3738 408.361 6.85084 397.442C2.32792 386.522 -1.03325e-06 374.819 0 363L90 363H180Z"/>
</mask>
<path d="M180 363C180 374.819 177.672 386.522 173.149 397.442C168.626 408.361 161.997 418.282 153.64 426.64C145.282 434.997 135.361 441.626 124.442 446.149C113.522 450.672 101.819 453 90 453C78.181 453 66.4778 450.672 55.5585 446.149C44.6392 441.626 34.7177 434.997 26.3604 426.64C18.0031 418.282 11.3738 408.361 6.85084 397.442C2.32792 386.522 -1.03325e-06 374.819 0 363L90 363H180Z" fill="#C3A4E3" stroke="black" stroke-width="2" mask="url(#path-2-inside-2_15_4139)"/>
<mask id="path-3-inside-3_15_4139" fill="white">
<path d="M180 272C180 283.819 177.672 295.522 173.149 306.442C168.626 317.361 161.997 327.282 153.64 335.64C145.282 343.997 135.361 350.626 124.442 355.149C113.522 359.672 101.819 362 90 362C78.181 362 66.4778 359.672 55.5585 355.149C44.6392 350.626 34.7177 343.997 26.3604 335.64C18.0031 327.282 11.3738 317.361 6.85084 306.442C2.32792 295.522 -1.03325e-06 283.819 0 272L90 272H180Z"/>
</mask>
<path d="M180 272C180 283.819 177.672 295.522 173.149 306.442C168.626 317.361 161.997 327.282 153.64 335.64C145.282 343.997 135.361 350.626 124.442 355.149C113.522 359.672 101.819 362 90 362C78.181 362 66.4778 359.672 55.5585 355.149C44.6392 350.626 34.7177 343.997 26.3604 335.64C18.0031 327.282 11.3738 317.361 6.85084 306.442C2.32792 295.522 -1.03325e-06 283.819 0 272L90 272H180Z" fill="#C3A4E3" stroke="black" stroke-width="2" mask="url(#path-3-inside-3_15_4139)"/>
<mask id="path-4-inside-4_15_4139" fill="white">
<path d="M180 181C180 192.819 177.672 204.522 173.149 215.442C168.626 226.361 161.997 236.282 153.64 244.64C145.282 252.997 135.361 259.626 124.442 264.149C113.522 268.672 101.819 271 90 271C78.181 271 66.4778 268.672 55.5585 264.149C44.6392 259.626 34.7177 252.997 26.3604 244.64C18.0031 236.282 11.3738 226.361 6.85084 215.442C2.32792 204.522 -1.03325e-06 192.819 0 181L90 181H180Z"/>
</mask>
<path d="M180 181C180 192.819 177.672 204.522 173.149 215.442C168.626 226.361 161.997 236.282 153.64 244.64C145.282 252.997 135.361 259.626 124.442 264.149C113.522 268.672 101.819 271 90 271C78.181 271 66.4778 268.672 55.5585 264.149C44.6392 259.626 34.7177 252.997 26.3604 244.64C18.0031 236.282 11.3738 226.361 6.85084 215.442C2.32792 204.522 -1.03325e-06 192.819 0 181L90 181H180Z" fill="#C3A4E3" stroke="black" stroke-width="2" mask="url(#path-4-inside-4_15_4139)"/>
<mask id="path-5-inside-5_15_4139" fill="white">
<path d="M180 90C180 101.819 177.672 113.522 173.149 124.442C168.626 135.361 161.997 145.282 153.64 153.64C145.282 161.997 135.361 168.626 124.442 173.149C113.522 177.672 101.819 180 90 180C78.181 180 66.4778 177.672 55.5585 173.149C44.6392 168.626 34.7177 161.997 26.3604 153.64C18.0031 145.282 11.3738 135.361 6.85084 124.442C2.32792 113.522 -1.03325e-06 101.819 0 90L90 90H180Z"/>
</mask>
<path d="M180 90C180 101.819 177.672 113.522 173.149 124.442C168.626 135.361 161.997 145.282 153.64 153.64C145.282 161.997 135.361 168.626 124.442 173.149C113.522 177.672 101.819 180 90 180C78.181 180 66.4778 177.672 55.5585 173.149C44.6392 168.626 34.7177 161.997 26.3604 153.64C18.0031 145.282 11.3738 135.361 6.85084 124.442C2.32792 113.522 -1.03325e-06 101.819 0 90L90 90H180Z" fill="#C3A4E3" stroke="black" stroke-width="2" mask="url(#path-5-inside-5_15_4139)"/>
<mask id="path-6-inside-6_15_4139" fill="white">
<path d="M180 727C180 738.819 177.672 750.522 173.149 761.442C168.626 772.361 161.997 782.282 153.64 790.64C145.282 798.997 135.361 805.626 124.442 810.149C113.522 814.672 101.819 817 90 817C78.181 817 66.4778 814.672 55.5585 810.149C44.6392 805.626 34.7177 798.997 26.3604 790.64C18.0031 782.282 11.3738 772.361 6.85084 761.442C2.32792 750.522 -1.03325e-06 738.819 0 727L90 727H180Z"/>
</mask>
<path d="M180 727C180 738.819 177.672 750.522 173.149 761.442C168.626 772.361 161.997 782.282 153.64 790.64C145.282 798.997 135.361 805.626 124.442 810.149C113.522 814.672 101.819 817 90 817C78.181 817 66.4778 814.672 55.5585 810.149C44.6392 805.626 34.7177 798.997 26.3604 790.64C18.0031 782.282 11.3738 772.361 6.85084 761.442C2.32792 750.522 -1.03325e-06 738.819 0 727L90 727H180Z" fill="#C3A4E3" stroke="black" stroke-width="2" mask="url(#path-6-inside-6_15_4139)"/>
<mask id="path-7-inside-7_15_4139" fill="white">
<path d="M180 636C180 647.819 177.672 659.522 173.149 670.442C168.626 681.361 161.997 691.282 153.64 699.64C145.282 707.997 135.361 714.626 124.442 719.149C113.522 723.672 101.819 726 90 726C78.181 726 66.4778 723.672 55.5585 719.149C44.6392 714.626 34.7177 707.997 26.3604 699.64C18.0031 691.282 11.3738 681.361 6.85084 670.442C2.32792 659.522 -1.03325e-06 647.819 0 636L90 636H180Z"/>
</mask>
<path d="M180 636C180 647.819 177.672 659.522 173.149 670.442C168.626 681.361 161.997 691.282 153.64 699.64C145.282 707.997 135.361 714.626 124.442 719.149C113.522 723.672 101.819 726 90 726C78.181 726 66.4778 723.672 55.5585 719.149C44.6392 714.626 34.7177 707.997 26.3604 699.64C18.0031 691.282 11.3738 681.361 6.85084 670.442C2.32792 659.522 -1.03325e-06 647.819 0 636L90 636H180Z" fill="#C3A4E3" stroke="black" stroke-width="2" mask="url(#path-7-inside-7_15_4139)"/>
<mask id="path-8-inside-8_15_4139" fill="white">
<path d="M180 545C180 556.819 177.672 568.522 173.149 579.442C168.626 590.361 161.997 600.282 153.64 608.64C145.282 616.997 135.361 623.626 124.442 628.149C113.522 632.672 101.819 635 90 635C78.181 635 66.4778 632.672 55.5585 628.149C44.6392 623.626 34.7177 616.997 26.3604 608.64C18.0031 600.282 11.3738 590.361 6.85084 579.442C2.32792 568.522 -1.03325e-06 556.819 0 545L90 545H180Z"/>
</mask>
<path d="M180 545C180 556.819 177.672 568.522 173.149 579.442C168.626 590.361 161.997 600.282 153.64 608.64C145.282 616.997 135.361 623.626 124.442 628.149C113.522 632.672 101.819 635 90 635C78.181 635 66.4778 632.672 55.5585 628.149C44.6392 623.626 34.7177 616.997 26.3604 608.64C18.0031 600.282 11.3738 590.361 6.85084 579.442C2.32792 568.522 -1.03325e-06 556.819 0 545L90 545H180Z" fill="#C3A4E3" stroke="black" stroke-width="2" mask="url(#path-8-inside-8_15_4139)"/>
<mask id="path-9-inside-9_15_4139" fill="white">
<path d="M180 1092C180 1103.82 177.672 1115.52 173.149 1126.44C168.626 1137.36 161.997 1147.28 153.64 1155.64C145.282 1164 135.361 1170.63 124.442 1175.15C113.522 1179.67 101.819 1182 90 1182C78.181 1182 66.4778 1179.67 55.5585 1175.15C44.6392 1170.63 34.7177 1164 26.3604 1155.64C18.0031 1147.28 11.3738 1137.36 6.85084 1126.44C2.32792 1115.52 -1.03325e-06 1103.82 0 1092L90 1092H180Z"/>
</mask>
<path d="M180 1092C180 1103.82 177.672 1115.52 173.149 1126.44C168.626 1137.36 161.997 1147.28 153.64 1155.64C145.282 1164 135.361 1170.63 124.442 1175.15C113.522 1179.67 101.819 1182 90 1182C78.181 1182 66.4778 1179.67 55.5585 1175.15C44.6392 1170.63 34.7177 1164 26.3604 1155.64C18.0031 1147.28 11.3738 1137.36 6.85084 1126.44C2.32792 1115.52 -1.03325e-06 1103.82 0 1092L90 1092H180Z" fill="#C3A4E3" stroke="black" stroke-width="2" mask="url(#path-9-inside-9_15_4139)"/>
<mask id="path-10-inside-10_15_4139" fill="white">
<path d="M180 1001C180 1012.82 177.672 1024.52 173.149 1035.44C168.626 1046.36 161.997 1056.28 153.64 1064.64C145.282 1073 135.361 1079.63 124.442 1084.15C113.522 1088.67 101.819 1091 90 1091C78.181 1091 66.4778 1088.67 55.5585 1084.15C44.6392 1079.63 34.7177 1073 26.3604 1064.64C18.0031 1056.28 11.3738 1046.36 6.85084 1035.44C2.32792 1024.52 -1.03325e-06 1012.82 0 1001L90 1001H180Z"/>
</mask>
<path d="M180 1001C180 1012.82 177.672 1024.52 173.149 1035.44C168.626 1046.36 161.997 1056.28 153.64 1064.64C145.282 1073 135.361 1079.63 124.442 1084.15C113.522 1088.67 101.819 1091 90 1091C78.181 1091 66.4778 1088.67 55.5585 1084.15C44.6392 1079.63 34.7177 1073 26.3604 1064.64C18.0031 1056.28 11.3738 1046.36 6.85084 1035.44C2.32792 1024.52 -1.03325e-06 1012.82 0 1001L90 1001H180Z" fill="#C3A4E3" stroke="black" stroke-width="2" mask="url(#path-10-inside-10_15_4139)"/>
<mask id="path-11-inside-11_15_4139" fill="white">
<path d="M180 910C180 921.819 177.672 933.522 173.149 944.442C168.626 955.361 161.997 965.282 153.64 973.64C145.282 981.997 135.361 988.626 124.442 993.149C113.522 997.672 101.819 1000 90 1000C78.181 1000 66.4778 997.672 55.5585 993.149C44.6392 988.626 34.7177 981.997 26.3604 973.64C18.0031 965.282 11.3738 955.361 6.85084 944.442C2.32792 933.522 -1.03325e-06 921.819 0 910L90 910H180Z"/>
</mask>
<path d="M180 910C180 921.819 177.672 933.522 173.149 944.442C168.626 955.361 161.997 965.282 153.64 973.64C145.282 981.997 135.361 988.626 124.442 993.149C113.522 997.672 101.819 1000 90 1000C78.181 1000 66.4778 997.672 55.5585 993.149C44.6392 988.626 34.7177 981.997 26.3604 973.64C18.0031 965.282 11.3738 955.361 6.85084 944.442C2.32792 933.522 -1.03325e-06 921.819 0 910L90 910H180Z" fill="#C3A4E3" stroke="black" stroke-width="2" mask="url(#path-11-inside-11_15_4139)"/>
<mask id="path-12-inside-12_15_4139" fill="white">
<path d="M180 819C180 830.819 177.672 842.522 173.149 853.442C168.626 864.361 161.997 874.282 153.64 882.64C145.282 890.997 135.361 897.626 124.442 902.149C113.522 906.672 101.819 909 90 909C78.181 909 66.4778 906.672 55.5585 902.149C44.6392 897.626 34.7177 890.997 26.3604 882.64C18.0031 874.282 11.3738 864.361 6.85084 853.442C2.32792 842.522 -1.03325e-06 830.819 0 819L90 819H180Z"/>
</mask>
<path d="M180 819C180 830.819 177.672 842.522 173.149 853.442C168.626 864.361 161.997 874.282 153.64 882.64C145.282 890.997 135.361 897.626 124.442 902.149C113.522 906.672 101.819 909 90 909C78.181 909 66.4778 906.672 55.5585 902.149C44.6392 897.626 34.7177 890.997 26.3604 882.64C18.0031 874.282 11.3738 864.361 6.85084 853.442C2.32792 842.522 -1.03325e-06 830.819 0 819L90 819H180Z" fill="#C3A4E3" stroke="black" stroke-width="2" mask="url(#path-12-inside-12_15_4139)"/>
</svg>
