<svg width="580" height="580" viewBox="0 0 580 580" fill="none" xmlns="http://www.w3.org/2000/svg">
<path d="M85.3217 85.3217L290 0.541198L494.678 85.3217L579.459 290L494.678 494.678L290 579.459L85.3217 494.678L0.541198 290L85.3217 85.3217Z" fill="#D4FF73" stroke="black"/>
<path d="M312.388 26.8589L360.737 83.2057C367.063 90.5775 376.521 94.4955 386.207 93.7556L460.238 88.1005C478.264 86.7236 493.276 101.736 491.899 119.762L486.244 193.793C485.505 203.479 489.422 212.937 496.794 219.263L553.141 267.612C566.861 279.384 566.861 300.615 553.141 312.388L496.794 360.737C489.422 367.063 485.505 376.521 486.244 386.207L491.899 460.238C493.276 478.264 478.264 493.276 460.238 491.899L386.207 486.244C376.521 485.505 367.063 489.422 360.737 496.794L312.388 553.141C300.616 566.861 279.385 566.861 267.612 553.141L219.263 496.794C212.937 489.422 203.479 485.505 193.793 486.244L119.762 491.899C101.736 493.276 86.7236 478.264 88.1005 460.238L93.7556 386.207C94.4955 376.521 90.5775 367.063 83.2057 360.737L26.8589 312.388C13.1392 300.615 13.1392 279.385 26.8589 267.612L83.2057 219.263C90.5775 212.937 94.4955 203.479 93.7556 193.793L88.1005 119.762C86.7236 101.736 101.736 86.7236 119.762 88.1005L193.793 93.7556C203.479 94.4955 212.937 90.5775 219.263 83.2057L267.612 26.8589C279.385 13.1392 300.615 13.1392 312.388 26.8589Z" fill="#D2CCF4" stroke="black"/>
<path d="M319.26 147.104L374.324 87.1315L370.853 168.475L370.818 169.296L371.563 168.95L445.386 134.614L411.05 208.437L410.704 209.182L411.525 209.147L492.868 205.676L432.896 260.74L432.29 261.296L433.062 261.578L509.542 289.5L433.062 317.422L432.29 317.704L432.896 318.26L492.868 373.324L411.525 369.853L410.704 369.818L411.05 370.563L445.386 444.386L371.563 410.05L370.818 409.704L370.853 410.525L374.324 491.868L319.26 431.896L318.704 431.29L318.422 432.062L290.5 508.542L262.578 432.062L262.296 431.29L261.74 431.896L206.676 491.868L210.147 410.525L210.182 409.704L209.437 410.05L135.614 444.386L169.95 370.563L170.296 369.818L169.475 369.853L88.1315 373.324L148.104 318.26L148.71 317.704L147.938 317.422L71.458 289.5L147.938 261.578L148.71 261.296L148.104 260.74L88.1315 205.676L169.475 209.147L170.296 209.182L169.95 208.437L135.614 134.614L209.437 168.95L210.182 169.296L210.147 168.475L206.676 87.1315L261.74 147.104L262.296 147.71L262.578 146.938L290.5 70.458L318.422 146.938L318.704 147.71L319.26 147.104Z" fill="#7A61E3" stroke="black"/>
<path d="M263.644 160.606L270.952 166.372C282.086 175.157 297.806 175.109 308.885 166.255L316.157 160.444C334.24 145.994 361.16 157.047 363.87 180.035L364.96 189.28C366.621 203.364 377.771 214.446 391.866 216.02L401.117 217.053C424.121 219.621 435.34 246.473 421.002 264.644L415.236 271.952C406.451 283.085 406.499 298.806 415.353 309.885L421.164 317.157C435.614 335.24 424.56 362.16 401.573 364.87L392.328 365.96C378.243 367.621 367.162 378.771 365.588 392.866L364.555 402.117C361.986 425.121 335.135 436.34 316.963 422.002L309.656 416.236C298.522 407.45 282.802 407.499 271.723 416.353L264.451 422.164C246.368 436.614 219.448 425.56 216.738 402.572L215.648 393.328C213.987 379.243 202.837 368.162 188.742 366.588L179.491 365.555C156.487 362.986 145.268 336.135 159.606 317.963L165.372 310.656C174.157 299.522 174.109 283.802 165.255 272.722L159.444 265.451C144.994 247.368 156.047 220.448 179.035 217.737L188.28 216.648C202.365 214.987 213.446 203.837 215.02 189.742L216.053 180.491C218.621 157.487 245.473 146.267 263.644 160.606Z" fill="#D2CCF4" stroke="black"/>
<path d="M211.666 272.544C220.426 267.679 224.676 257.417 221.922 247.783C217.491 232.281 231.824 217.947 247.327 222.378C256.961 225.132 267.222 220.882 272.087 212.122C279.916 198.027 300.187 198.027 308.015 212.122C312.88 220.882 323.141 225.132 332.776 222.378C348.278 217.947 362.612 232.281 358.18 247.783C355.427 257.417 359.677 267.679 368.437 272.544C382.532 280.372 382.532 300.643 368.437 308.471C359.677 313.337 355.427 323.598 358.18 333.232C362.612 348.734 348.278 363.068 332.776 358.637C323.141 355.883 312.88 360.133 308.015 368.893C300.187 382.988 279.916 382.988 272.087 368.893C267.222 360.133 256.961 355.883 247.327 358.637C231.824 363.068 217.491 348.734 221.922 333.232C224.676 323.598 220.426 313.337 211.666 308.471C197.571 300.643 197.571 280.372 211.666 272.544Z" fill="#D4FF73" stroke="black"/>
<path d="M290 1V580" stroke="black"/>
<path d="M494 85L86.2792 494.135" stroke="black"/>
<path d="M579.5 290L2 290" stroke="black"/>
<path d="M496 495L85.3666 85.7808" stroke="black"/>
</svg>
