<svg width="584" height="584" viewBox="0 0 584 584" fill="none" xmlns="http://www.w3.org/2000/svg">
<path d="M85.9075 85.9075L292 0.541198L498.092 85.9075L583.459 292L498.092 498.092L292 583.459L85.9075 498.092L0.541198 292L85.9075 85.9075Z" fill="url(#paint0_radial_7_3429)" stroke="black"/>
<path d="M292 3.5V581" stroke="black"/>
<path d="M496.176 88.0732L87.8216 496.427" stroke="black"/>
<path d="M580.75 292.25L3.25 292.25" stroke="black"/>
<path d="M496.176 496.427L87.8216 88.0726" stroke="black"/>
<mask id="path-6-inside-1_7_3429" fill="white">
<path fill-rule="evenodd" clip-rule="evenodd" d="M366.274 72.7991C370.172 63.0871 365.829 51.9124 356.227 47.4455C346.295 42.8253 334.499 47.1309 329.878 57.0625C326.166 65.0416 328.216 74.2246 334.316 79.9227C326.028 78.9278 317.684 83.2756 313.972 91.2547C309.352 101.186 313.657 112.983 323.589 117.603C333.52 122.223 345.317 117.918 349.937 107.986C350.141 107.548 350.327 107.106 350.497 106.662C350.523 106.684 350.55 106.707 350.576 106.73C350.35 107.138 350.137 107.557 349.937 107.986C345.317 117.918 349.623 129.714 359.554 134.335C369.486 138.955 381.283 134.649 385.903 124.718C385.959 124.597 386.014 124.476 386.067 124.355C386.07 124.356 386.072 124.356 386.075 124.357C386.017 124.476 385.959 124.597 385.903 124.718C381.283 134.649 385.588 146.446 395.52 151.066C405.452 155.686 417.248 151.381 421.868 141.449C425.511 133.619 423.606 124.63 417.77 118.912C417.826 118.823 417.882 118.734 417.936 118.643C426.056 119.406 434.138 115.074 437.775 107.257C442.395 97.3252 438.089 85.5287 428.158 80.9084C418.867 76.5862 407.944 80.0755 402.791 88.6746C402.73 88.6288 402.669 88.5831 402.608 88.5374C405.837 79.0681 401.468 68.4923 392.192 64.177C382.595 59.7124 371.257 63.5823 366.335 72.8092C366.315 72.8058 366.295 72.8025 366.274 72.7991Z"/>
</mask>
<path fill-rule="evenodd" clip-rule="evenodd" d="M366.274 72.7991C370.172 63.0871 365.829 51.9124 356.227 47.4455C346.295 42.8253 334.499 47.1309 329.878 57.0625C326.166 65.0416 328.216 74.2246 334.316 79.9227C326.028 78.9278 317.684 83.2756 313.972 91.2547C309.352 101.186 313.657 112.983 323.589 117.603C333.52 122.223 345.317 117.918 349.937 107.986C350.141 107.548 350.327 107.106 350.497 106.662C350.523 106.684 350.55 106.707 350.576 106.73C350.35 107.138 350.137 107.557 349.937 107.986C345.317 117.918 349.623 129.714 359.554 134.335C369.486 138.955 381.283 134.649 385.903 124.718C385.959 124.597 386.014 124.476 386.067 124.355C386.07 124.356 386.072 124.356 386.075 124.357C386.017 124.476 385.959 124.597 385.903 124.718C381.283 134.649 385.588 146.446 395.52 151.066C405.452 155.686 417.248 151.381 421.868 141.449C425.511 133.619 423.606 124.63 417.77 118.912C417.826 118.823 417.882 118.734 417.936 118.643C426.056 119.406 434.138 115.074 437.775 107.257C442.395 97.3252 438.089 85.5287 428.158 80.9084C418.867 76.5862 407.944 80.0755 402.791 88.6746C402.73 88.6288 402.669 88.5831 402.608 88.5374C405.837 79.0681 401.468 68.4923 392.192 64.177C382.595 59.7124 371.257 63.5823 366.335 72.8092C366.315 72.8058 366.295 72.8025 366.274 72.7991Z" fill="#FF003D"/>
<path d="M366.274 72.7991L365.346 72.4267L364.883 73.5821L366.111 73.7856L366.274 72.7991ZM334.316 79.9227L334.196 80.9156L337.234 81.2802L334.998 79.192L334.316 79.9227ZM350.497 106.662L351.146 105.901L350.067 104.98L349.562 106.306L350.497 106.662ZM350.576 106.73L351.451 107.214L351.847 106.498L351.225 105.968L350.576 106.73ZM386.067 124.355L386.291 123.38L385.486 123.196L385.152 123.951L386.067 124.355ZM386.075 124.357L386.973 124.796L387.528 123.664L386.299 123.382L386.075 124.357ZM417.77 118.912L416.926 118.375L416.49 119.059L417.07 119.627L417.77 118.912ZM417.936 118.643L418.029 117.647L417.401 117.588L417.077 118.13L417.936 118.643ZM402.791 88.6746L402.188 89.4728L403.077 90.1431L403.648 89.1886L402.791 88.6746ZM402.608 88.5374L401.662 88.2147L401.428 88.9019L402.008 89.3375L402.608 88.5374ZM366.335 72.8092L366.171 73.7956L366.879 73.9137L367.217 73.2799L366.335 72.8092ZM367.203 73.1715C371.297 62.9691 366.735 51.2311 356.649 46.5388L355.805 48.3522C364.922 52.5937 369.047 63.2052 365.346 72.4267L367.203 73.1715ZM356.649 46.5388C346.216 41.6856 333.825 46.2084 328.972 56.6407L330.785 57.4843C335.172 48.0535 346.374 43.9649 355.805 48.3522L356.649 46.5388ZM328.972 56.6407C325.072 65.0235 327.227 74.6688 333.633 80.6535L334.998 79.192C329.205 73.7804 327.261 65.0597 330.785 57.4843L328.972 56.6407ZM334.435 78.9298C325.73 77.8849 316.965 82.4501 313.065 90.8329L314.879 91.6765C318.403 84.1011 326.326 79.9707 334.196 80.9156L334.435 78.9298ZM313.065 90.8329C308.212 101.265 312.735 113.657 323.167 118.51L324.011 116.696C314.58 112.309 310.491 101.107 314.879 91.6765L313.065 90.8329ZM323.167 118.51C333.599 123.363 345.991 118.84 350.844 108.408L349.031 107.564C344.643 116.995 333.442 121.084 324.011 116.696L323.167 118.51ZM350.844 108.408C351.058 107.948 351.254 107.485 351.431 107.018L349.562 106.306C349.401 106.728 349.224 107.148 349.031 107.564L350.844 108.408ZM351.225 105.968C351.198 105.946 351.172 105.924 351.146 105.901L349.847 107.422C349.874 107.445 349.901 107.468 349.928 107.491L351.225 105.968ZM350.844 108.408C351.034 108 351.237 107.602 351.451 107.214L349.701 106.245C349.464 106.674 349.24 107.114 349.031 107.564L350.844 108.408ZM359.976 133.428C350.545 129.041 346.457 117.839 350.844 108.408L349.031 107.564C344.178 117.997 348.7 130.388 359.133 135.241L359.976 133.428ZM384.996 124.296C380.609 133.727 369.407 137.815 359.976 133.428L359.133 135.241C369.565 140.094 381.956 135.572 386.809 125.139L384.996 124.296ZM385.152 123.951C385.102 124.066 385.049 124.181 384.996 124.296L386.809 125.139C386.868 125.013 386.926 124.886 386.982 124.759L385.152 123.951ZM386.299 123.382C386.298 123.382 386.297 123.382 386.296 123.382C386.295 123.381 386.293 123.381 386.291 123.38L385.844 125.33C385.844 125.33 385.845 125.33 385.847 125.33C385.848 125.331 385.85 125.331 385.852 125.332L386.299 123.382ZM385.177 123.917C385.116 124.043 385.055 124.169 384.996 124.296L386.81 125.139C386.863 125.024 386.918 124.91 386.973 124.796L385.177 123.917ZM384.996 124.296C380.143 134.728 384.666 147.119 395.098 151.973L395.942 150.159C386.511 145.772 382.422 134.57 386.81 125.139L384.996 124.296ZM395.098 151.973C405.53 156.826 417.922 152.303 422.775 141.871L420.962 141.027C416.574 150.458 405.373 154.547 395.942 150.159L395.098 151.973ZM422.775 141.871C426.602 133.645 424.599 124.203 418.469 118.198L417.07 119.627C422.612 125.057 424.42 133.594 420.962 141.027L422.775 141.871ZM417.077 118.13C417.028 118.213 416.978 118.294 416.926 118.375L418.613 119.45C418.675 119.353 418.735 119.255 418.795 119.155L417.077 118.13ZM417.842 119.638C426.37 120.44 434.861 115.891 438.682 107.679L436.868 106.835C433.416 114.257 425.741 118.372 418.029 117.647L417.842 119.638ZM438.682 107.679C443.535 97.2463 439.012 84.8549 428.58 80.0017L427.736 81.8151C437.167 86.2024 441.255 97.4042 436.868 106.835L438.682 107.679ZM428.58 80.0017C418.82 75.4613 407.346 79.127 401.933 88.1606L403.648 89.1886C408.541 81.024 418.914 77.7111 427.736 81.8151L428.58 80.0017ZM402.008 89.3375C402.069 89.3826 402.129 89.4277 402.188 89.4728L403.393 87.8764C403.332 87.83 403.27 87.7836 403.208 87.7373L402.008 89.3375ZM391.771 65.0837C400.578 69.1812 404.727 79.2239 401.662 88.2147L403.555 88.8601C406.946 78.9124 402.359 67.8035 392.614 63.2703L391.771 65.0837ZM367.217 73.2799C371.891 64.519 382.658 60.8444 391.771 65.0837L392.614 63.2703C382.533 58.5805 370.623 62.6457 365.453 72.3385L367.217 73.2799ZM366.111 73.7856C366.131 73.789 366.151 73.7923 366.171 73.7956L366.5 71.8228C366.479 71.8194 366.459 71.816 366.438 71.8126L366.111 73.7856Z" fill="black" mask="url(#path-6-inside-1_7_3429)"/>
<mask id="path-8-inside-2_7_3429" fill="white">
<path fill-rule="evenodd" clip-rule="evenodd" d="M199.668 459.719C203.566 450.007 199.222 438.833 189.62 434.366C179.689 429.745 167.892 434.051 163.272 443.983C159.56 451.962 161.61 461.145 167.709 466.843C159.422 465.848 151.077 470.196 147.366 478.175C142.745 488.106 147.051 499.903 156.982 504.523C166.914 509.143 178.711 504.838 183.331 494.906C183.535 494.468 183.721 494.027 183.89 493.582C183.917 493.605 183.943 493.627 183.97 493.65C183.744 494.058 183.531 494.477 183.331 494.906C178.711 504.838 183.016 516.634 192.948 521.255C202.88 525.875 214.676 521.569 219.296 511.638C219.352 511.517 219.407 511.396 219.461 511.275C219.463 511.276 219.466 511.276 219.469 511.277C219.41 511.396 219.353 511.517 219.297 511.638C214.676 521.569 218.982 533.366 228.914 537.986C238.845 542.606 250.642 538.301 255.262 528.369C258.904 520.539 256.999 511.55 251.163 505.833C251.22 505.744 251.275 505.654 251.329 505.563C259.449 506.326 267.532 501.994 271.168 494.177C275.789 484.245 271.483 472.449 261.551 467.829C252.26 463.506 241.337 466.996 236.184 475.595C236.124 475.549 236.063 475.503 236.002 475.458C239.23 465.988 234.862 455.412 225.586 451.097C215.989 446.633 204.651 450.503 199.729 459.729C199.708 459.726 199.688 459.723 199.668 459.719Z"/>
</mask>
<path fill-rule="evenodd" clip-rule="evenodd" d="M199.668 459.719C203.566 450.007 199.222 438.833 189.62 434.366C179.689 429.745 167.892 434.051 163.272 443.983C159.56 451.962 161.61 461.145 167.709 466.843C159.422 465.848 151.077 470.196 147.366 478.175C142.745 488.106 147.051 499.903 156.982 504.523C166.914 509.143 178.711 504.838 183.331 494.906C183.535 494.468 183.721 494.027 183.89 493.582C183.917 493.605 183.943 493.627 183.97 493.65C183.744 494.058 183.531 494.477 183.331 494.906C178.711 504.838 183.016 516.634 192.948 521.255C202.88 525.875 214.676 521.569 219.296 511.638C219.352 511.517 219.407 511.396 219.461 511.275C219.463 511.276 219.466 511.276 219.469 511.277C219.41 511.396 219.353 511.517 219.297 511.638C214.676 521.569 218.982 533.366 228.914 537.986C238.845 542.606 250.642 538.301 255.262 528.369C258.904 520.539 256.999 511.55 251.163 505.833C251.22 505.744 251.275 505.654 251.329 505.563C259.449 506.326 267.532 501.994 271.168 494.177C275.789 484.245 271.483 472.449 261.551 467.829C252.26 463.506 241.337 466.996 236.184 475.595C236.124 475.549 236.063 475.503 236.002 475.458C239.23 465.988 234.862 455.412 225.586 451.097C215.989 446.633 204.651 450.503 199.729 459.729C199.708 459.726 199.688 459.723 199.668 459.719Z" fill="#FF003D"/>
<path d="M199.668 459.719L198.74 459.347L198.276 460.502L199.504 460.706L199.668 459.719ZM167.709 466.843L167.59 467.836L170.627 468.2L168.392 466.112L167.709 466.843ZM183.89 493.582L184.54 492.822L183.461 491.9L182.956 493.226L183.89 493.582ZM183.97 493.65L184.845 494.134L185.241 493.419L184.618 492.888L183.97 493.65ZM219.461 511.275L219.684 510.301L218.879 510.116L218.546 510.871L219.461 511.275ZM219.469 511.277L220.367 511.717L220.921 510.584L219.692 510.302L219.469 511.277ZM251.163 505.833L250.32 505.295L249.884 505.979L250.463 506.547L251.163 505.833ZM251.329 505.563L251.423 504.567L250.794 504.508L250.471 505.05L251.329 505.563ZM236.184 475.595L235.582 476.393L236.47 477.063L237.042 476.109L236.184 475.595ZM236.002 475.458L235.055 475.135L234.821 475.822L235.402 476.258L236.002 475.458ZM199.729 459.729L199.564 460.716L200.273 460.834L200.611 460.2L199.729 459.729ZM200.596 460.092C204.69 449.889 200.128 438.151 190.042 433.459L189.199 435.272C198.316 439.514 202.441 450.125 198.74 459.347L200.596 460.092ZM190.042 433.459C179.61 428.606 167.219 433.129 162.365 443.561L164.179 444.404C168.566 434.974 179.768 430.885 189.199 435.272L190.042 433.459ZM162.365 443.561C158.466 451.944 160.62 461.589 167.026 467.574L168.392 466.112C162.599 460.701 160.655 451.98 164.179 444.404L162.365 443.561ZM167.828 465.85C159.124 464.805 150.359 469.37 146.459 477.753L148.272 478.597C151.796 471.021 159.719 466.891 167.59 467.836L167.828 465.85ZM146.459 477.753C141.606 488.185 146.128 500.577 156.561 505.43L157.404 503.617C147.973 499.229 143.885 488.027 148.272 478.597L146.459 477.753ZM156.561 505.43C166.993 510.283 179.384 505.76 184.238 495.328L182.424 494.484C178.037 503.915 166.835 508.004 157.404 503.617L156.561 505.43ZM184.238 495.328C184.451 494.868 184.647 494.405 184.825 493.938L182.956 493.226C182.795 493.648 182.618 494.068 182.424 494.484L184.238 495.328ZM184.618 492.888C184.592 492.866 184.566 492.844 184.54 492.822L183.241 494.342C183.268 494.365 183.295 494.388 183.322 494.411L184.618 492.888ZM184.238 495.328C184.428 494.92 184.63 494.522 184.845 494.134L183.095 493.166C182.858 493.594 182.634 494.034 182.424 494.485L184.238 495.328ZM193.37 520.348C183.939 515.961 179.85 504.759 184.238 495.328L182.424 494.485C177.571 504.917 182.094 517.308 192.526 522.161L193.37 520.348ZM218.39 511.216C214.002 520.647 202.801 524.735 193.37 520.348L192.526 522.161C202.959 527.015 215.35 522.492 220.203 512.06L218.39 511.216ZM218.546 510.871C218.495 510.986 218.443 511.101 218.39 511.216L220.203 512.06C220.262 511.933 220.319 511.806 220.375 511.679L218.546 510.871ZM219.692 510.302C219.692 510.302 219.691 510.302 219.689 510.302C219.688 510.301 219.686 510.301 219.684 510.301L219.237 512.25C219.238 512.25 219.239 512.25 219.24 512.251C219.241 512.251 219.243 512.251 219.245 512.252L219.692 510.302ZM218.571 510.837C218.509 510.963 218.449 511.089 218.39 511.216L220.203 512.06C220.257 511.944 220.311 511.83 220.367 511.717L218.571 510.837ZM218.39 511.216C213.537 521.648 218.059 534.04 228.492 538.893L229.335 537.079C219.905 532.692 215.816 521.49 220.203 512.06L218.39 511.216ZM228.492 538.893C238.924 543.746 251.315 539.223 256.169 528.791L254.355 527.947C249.968 537.378 238.766 541.467 229.335 537.079L228.492 538.893ZM256.169 528.791C259.995 520.565 257.992 511.123 251.863 505.118L250.463 506.547C256.006 511.977 257.813 520.514 254.355 527.947L256.169 528.791ZM250.471 505.05C250.422 505.133 250.371 505.214 250.32 505.295L252.006 506.37C252.068 506.273 252.129 506.175 252.188 506.075L250.471 505.05ZM251.236 506.559C259.764 507.36 268.254 502.812 272.075 494.599L270.262 493.755C266.809 501.177 259.135 505.292 251.423 504.567L251.236 506.559ZM272.075 494.599C276.928 484.166 272.405 471.775 261.973 466.922L261.13 468.735C270.56 473.123 274.649 484.324 270.262 493.755L272.075 494.599ZM261.973 466.922C252.213 462.381 240.74 466.047 235.327 475.081L237.042 476.109C241.935 467.944 252.308 464.631 261.13 468.735L261.973 466.922ZM235.402 476.258C235.462 476.303 235.522 476.348 235.582 476.393L236.787 474.797C236.725 474.75 236.664 474.704 236.602 474.658L235.402 476.258ZM225.164 452.004C233.972 456.101 238.121 466.144 235.055 475.135L236.948 475.78C240.34 465.833 235.752 454.724 226.008 450.19L225.164 452.004ZM200.611 460.2C205.284 451.439 216.051 447.765 225.164 452.004L226.008 450.19C215.927 445.501 204.017 449.566 198.846 459.259L200.611 460.2ZM199.504 460.706C199.524 460.709 199.544 460.712 199.564 460.716L199.893 458.743C199.873 458.74 199.852 458.736 199.832 458.733L199.504 460.706Z" fill="black" mask="url(#path-8-inside-2_7_3429)"/>
<mask id="path-10-inside-3_7_3429" fill="white">
<path fill-rule="evenodd" clip-rule="evenodd" d="M70.3494 226.281C60.5146 222.704 49.4887 227.413 45.3398 237.156C41.0486 247.234 45.7397 258.883 55.8178 263.174C63.9146 266.622 73.0253 264.272 78.5198 257.988C77.7978 266.304 82.4176 274.501 90.5144 277.948C100.592 282.24 112.241 277.548 116.532 267.47C120.824 257.392 116.133 245.744 106.054 241.452C105.61 241.263 105.162 241.091 104.713 240.937C104.734 240.909 104.756 240.882 104.778 240.855C105.193 241.067 105.619 241.267 106.055 241.452C116.133 245.743 127.781 241.052 132.073 230.974C136.364 220.896 131.673 209.248 121.595 204.956C121.472 204.904 121.35 204.853 121.227 204.804C121.227 204.801 121.228 204.799 121.228 204.796C121.35 204.85 121.472 204.904 121.595 204.956C131.673 209.247 143.321 204.556 147.613 194.478C151.904 184.4 147.213 172.751 137.135 168.46C129.189 165.077 120.268 167.277 114.745 173.298C114.654 173.244 114.563 173.191 114.47 173.14C114.966 165 110.371 157.064 102.438 153.686C92.36 149.395 80.7114 154.086 76.4201 164.164C72.4056 173.592 76.2521 184.395 85.016 189.262C84.9722 189.324 84.9285 189.387 84.8848 189.449C75.3145 186.534 64.8881 191.247 60.88 200.66C56.7333 210.399 60.9739 221.604 70.3575 226.22C70.3548 226.24 70.3521 226.26 70.3494 226.281Z"/>
</mask>
<path fill-rule="evenodd" clip-rule="evenodd" d="M70.3494 226.281C60.5146 222.704 49.4887 227.413 45.3398 237.156C41.0486 247.234 45.7397 258.883 55.8178 263.174C63.9146 266.622 73.0253 264.272 78.5198 257.988C77.7978 266.304 82.4176 274.501 90.5144 277.948C100.592 282.24 112.241 277.548 116.532 267.47C120.824 257.392 116.133 245.744 106.054 241.452C105.61 241.263 105.162 241.091 104.713 240.937C104.734 240.909 104.756 240.882 104.778 240.855C105.193 241.067 105.619 241.267 106.055 241.452C116.133 245.743 127.781 241.052 132.073 230.974C136.364 220.896 131.673 209.248 121.595 204.956C121.472 204.904 121.35 204.853 121.227 204.804C121.227 204.801 121.228 204.799 121.228 204.796C121.35 204.85 121.472 204.904 121.595 204.956C131.673 209.247 143.321 204.556 147.613 194.478C151.904 184.4 147.213 172.751 137.135 168.46C129.189 165.077 120.268 167.277 114.745 173.298C114.654 173.244 114.563 173.191 114.47 173.14C114.966 165 110.371 157.064 102.438 153.686C92.36 149.395 80.7114 154.086 76.4201 164.164C72.4056 173.592 76.2521 184.395 85.016 189.262C84.9722 189.324 84.9285 189.387 84.8848 189.449C75.3145 186.534 64.8881 191.247 60.88 200.66C56.7333 210.399 60.9739 221.604 70.3575 226.22C70.3548 226.24 70.3521 226.26 70.3494 226.281Z" fill="#7A61E3"/>
<path d="M70.3494 226.281L70.0077 227.22L71.1777 227.646L71.3408 226.412L70.3494 226.281ZM78.5198 257.988L79.516 258.075L79.7806 255.027L77.767 257.33L78.5198 257.988ZM104.713 240.937L103.931 240.312L103.046 241.421L104.387 241.882L104.713 240.937ZM104.778 240.855L105.233 239.965L104.505 239.592L103.995 240.232L104.778 240.855ZM121.227 204.804L120.245 204.612L120.087 205.423L120.853 205.732L121.227 204.804ZM121.228 204.796L121.638 203.884L120.488 203.367L120.247 204.604L121.228 204.796ZM114.745 173.298L114.235 174.158L114.934 174.571L115.482 173.974L114.745 173.298ZM114.47 173.14L113.472 173.079L113.434 173.71L113.986 174.015L114.47 173.14ZM85.016 189.262L85.8336 189.838L86.4743 188.928L85.5015 188.388L85.016 189.262ZM84.8848 189.449L84.5934 190.406L85.288 190.617L85.7042 190.022L84.8848 189.449ZM70.3575 226.22L71.3488 226.352L71.4436 225.639L70.7989 225.322L70.3575 226.22ZM70.6912 225.341C60.3596 221.584 48.7779 226.529 44.4198 236.765L46.2599 237.548C50.1994 228.296 60.6695 223.825 70.0077 227.22L70.6912 225.341ZM44.4198 236.765C39.9122 247.351 44.8398 259.587 55.426 264.094L56.2095 262.254C46.6396 258.179 42.185 247.118 46.2599 237.548L44.4198 236.765ZM55.426 264.094C63.9325 267.716 73.5017 265.246 79.2726 258.646L77.767 257.33C72.5488 263.298 63.8967 265.527 56.2095 262.254L55.426 264.094ZM77.5235 257.902C76.7653 266.636 81.6161 275.246 90.1227 278.868L90.9062 277.028C83.219 273.755 78.8304 265.972 79.516 258.075L77.5235 257.902ZM90.1227 278.868C100.709 283.376 112.945 278.448 117.452 267.862L115.612 267.079C111.537 276.648 100.476 281.103 90.9062 277.028L90.1227 278.868ZM117.452 267.862C121.96 257.276 117.032 245.04 106.446 240.532L105.663 242.372C115.233 246.447 119.687 257.509 115.612 267.079L117.452 267.862ZM106.446 240.532C105.98 240.334 105.51 240.153 105.038 239.991L104.387 241.882C104.815 242.029 105.24 242.192 105.663 242.372L106.446 240.532ZM103.995 240.232C103.974 240.259 103.953 240.286 103.931 240.312L105.494 241.561C105.516 241.533 105.538 241.506 105.56 241.478L103.995 240.232ZM106.446 240.532C106.032 240.356 105.627 240.166 105.233 239.965L104.323 241.745C104.759 241.968 105.205 242.177 105.663 242.372L106.446 240.532ZM131.152 230.582C127.078 240.152 116.016 244.607 106.446 240.532L105.663 242.372C116.249 246.88 128.485 241.952 132.993 231.366L131.152 230.582ZM121.203 205.876C130.773 209.951 135.227 221.013 131.152 230.582L132.993 231.366C137.5 220.78 132.573 208.544 121.986 204.036L121.203 205.876ZM120.853 205.732C120.97 205.779 121.087 205.827 121.203 205.876L121.986 204.036C121.858 203.982 121.729 203.928 121.6 203.876L120.853 205.732ZM120.247 204.604C120.247 204.605 120.247 204.606 120.246 204.607C120.246 204.609 120.246 204.611 120.245 204.612L122.208 204.995C122.209 204.995 122.209 204.994 122.209 204.992C122.209 204.991 122.21 204.989 122.21 204.987L120.247 204.604ZM120.819 205.708C120.946 205.765 121.074 205.821 121.203 205.876L121.986 204.036C121.87 203.986 121.754 203.935 121.638 203.884L120.819 205.708ZM121.203 205.876C131.789 210.384 144.025 205.456 148.533 194.87L146.693 194.086C142.618 203.656 131.556 208.111 121.986 204.036L121.203 205.876ZM148.533 194.87C153.04 184.284 148.113 172.048 137.526 167.54L136.743 169.38C146.313 173.455 150.767 184.516 146.693 194.086L148.533 194.87ZM137.526 167.54C129.179 163.986 119.809 166.298 114.008 172.622L115.482 173.974C120.727 168.255 129.2 166.168 136.743 169.38L137.526 167.54ZM113.986 174.015C114.07 174.062 114.153 174.109 114.235 174.158L115.255 172.437C115.155 172.378 115.055 172.321 114.954 172.265L113.986 174.015ZM115.468 173.201C115.989 164.652 111.164 156.315 102.83 152.766L102.046 154.606C109.577 157.813 113.943 165.348 113.472 173.079L115.468 173.201ZM102.83 152.766C92.2436 148.259 80.0077 153.186 75.5 163.772L77.3402 164.556C81.4151 154.986 92.4764 150.531 102.046 154.606L102.83 152.766ZM75.5 163.772C71.2829 173.676 75.3238 185.023 84.5304 190.136L85.5015 188.388C77.1805 183.766 73.5284 173.508 77.3402 164.556L75.5 163.772ZM85.7042 190.022C85.7473 189.961 85.7904 189.899 85.8336 189.838L84.1984 188.686C84.154 188.749 84.1097 188.813 84.0655 188.876L85.7042 190.022ZM61.8 201.052C65.6058 192.114 75.5067 187.638 84.5934 190.406L85.1763 188.493C75.1224 185.43 64.1703 190.38 59.9599 200.268L61.8 201.052ZM70.7989 225.322C61.8892 220.939 57.8626 210.299 61.8 201.052L59.9599 200.268C55.604 210.498 60.0585 222.268 69.9161 227.117L70.7989 225.322ZM71.3408 226.412C71.3435 226.392 71.3461 226.372 71.3488 226.352L69.3663 226.088C69.3635 226.108 69.3608 226.129 69.3581 226.15L71.3408 226.412Z" fill="black" mask="url(#path-10-inside-3_7_3429)"/>
<mask id="path-12-inside-4_7_3429" fill="white">
<path fill-rule="evenodd" clip-rule="evenodd" d="M462.537 380.078C452.703 376.502 441.677 381.21 437.528 390.953C433.237 401.032 437.928 412.68 448.006 416.971C456.103 420.419 465.213 418.069 470.708 411.785C469.986 420.101 474.606 428.298 482.702 431.745C492.78 436.037 504.429 431.345 508.72 421.267C513.012 411.189 508.321 399.541 498.242 395.249C497.798 395.06 497.35 394.888 496.901 394.734C496.922 394.707 496.944 394.679 496.966 394.652C497.381 394.864 497.807 395.064 498.243 395.249C508.321 399.541 519.969 394.849 524.261 384.771C528.552 374.693 523.861 363.045 513.783 358.753C513.66 358.701 513.538 358.65 513.415 358.601C513.415 358.598 513.416 358.596 513.416 358.593C513.538 358.647 513.66 358.701 513.783 358.753C523.861 363.044 535.509 358.353 539.801 348.275C544.092 338.197 539.401 326.549 529.323 322.257C521.377 318.874 512.456 321.074 506.933 327.095C506.842 327.041 506.751 326.988 506.658 326.937C507.154 318.797 502.559 310.861 494.626 307.483C484.548 303.192 472.899 307.883 468.608 317.961C464.594 327.389 468.44 338.192 477.204 343.059C477.16 343.122 477.116 343.184 477.073 343.246C467.503 340.331 457.076 345.044 453.068 354.457C448.921 364.196 453.162 375.401 462.546 380.017C462.543 380.037 462.54 380.057 462.537 380.078Z"/>
</mask>
<path fill-rule="evenodd" clip-rule="evenodd" d="M462.537 380.078C452.703 376.502 441.677 381.21 437.528 390.953C433.237 401.032 437.928 412.68 448.006 416.971C456.103 420.419 465.213 418.069 470.708 411.785C469.986 420.101 474.606 428.298 482.702 431.745C492.78 436.037 504.429 431.345 508.72 421.267C513.012 411.189 508.321 399.541 498.242 395.249C497.798 395.06 497.35 394.888 496.901 394.734C496.922 394.707 496.944 394.679 496.966 394.652C497.381 394.864 497.807 395.064 498.243 395.249C508.321 399.541 519.969 394.849 524.261 384.771C528.552 374.693 523.861 363.045 513.783 358.753C513.66 358.701 513.538 358.65 513.415 358.601C513.415 358.598 513.416 358.596 513.416 358.593C513.538 358.647 513.66 358.701 513.783 358.753C523.861 363.044 535.509 358.353 539.801 348.275C544.092 338.197 539.401 326.549 529.323 322.257C521.377 318.874 512.456 321.074 506.933 327.095C506.842 327.041 506.751 326.988 506.658 326.937C507.154 318.797 502.559 310.861 494.626 307.483C484.548 303.192 472.899 307.883 468.608 317.961C464.594 327.389 468.44 338.192 477.204 343.059C477.16 343.122 477.116 343.184 477.073 343.246C467.503 340.331 457.076 345.044 453.068 354.457C448.921 364.196 453.162 375.401 462.546 380.017C462.543 380.037 462.54 380.057 462.537 380.078Z" fill="#7A61E3"/>
<path d="M462.537 380.078L462.196 381.018L463.366 381.443L463.529 380.209L462.537 380.078ZM470.708 411.785L471.704 411.872L471.969 408.824L469.955 411.127L470.708 411.785ZM496.901 394.734L496.119 394.11L495.234 395.218L496.575 395.679L496.901 394.734ZM496.966 394.652L497.421 393.762L496.693 393.389L496.183 394.029L496.966 394.652ZM513.415 358.601L512.433 358.41L512.275 359.22L513.041 359.529L513.415 358.601ZM513.416 358.593L513.826 357.681L512.676 357.164L512.435 358.402L513.416 358.593ZM506.933 327.095L506.423 327.955L507.121 328.369L507.67 327.771L506.933 327.095ZM506.658 326.937L505.66 326.877L505.622 327.507L506.174 327.812L506.658 326.937ZM477.204 343.059L478.022 343.635L478.662 342.725L477.69 342.185L477.204 343.059ZM477.073 343.246L476.781 344.203L477.476 344.414L477.892 343.82L477.073 343.246ZM462.546 380.017L463.537 380.149L463.632 379.437L462.987 379.119L462.546 380.017ZM462.879 379.138C452.548 375.381 440.966 380.327 436.608 390.562L438.448 391.345C442.387 382.093 452.858 377.622 462.196 381.018L462.879 379.138ZM436.608 390.562C432.1 401.148 437.028 413.384 447.614 417.892L448.398 416.051C438.828 411.976 434.373 400.915 438.448 391.345L436.608 390.562ZM447.614 417.892C456.121 421.514 465.69 419.043 471.461 412.444L469.955 411.127C464.737 417.095 456.085 419.325 448.398 416.051L447.614 417.892ZM469.712 411.699C468.953 420.433 473.804 429.043 482.311 432.665L483.094 430.825C475.407 427.552 471.018 419.769 471.704 411.872L469.712 411.699ZM482.311 432.665C492.897 437.173 505.133 432.245 509.64 421.659L507.8 420.876C503.725 430.446 492.664 434.9 483.094 430.825L482.311 432.665ZM509.64 421.659C514.148 411.073 509.22 398.837 498.634 394.329L497.851 396.17C507.421 400.244 511.875 411.306 507.8 420.876L509.64 421.659ZM498.634 394.329C498.168 394.131 497.698 393.95 497.226 393.788L496.575 395.679C497.003 395.826 497.428 395.99 497.851 396.17L498.634 394.329ZM496.183 394.029C496.162 394.056 496.141 394.083 496.119 394.11L497.682 395.358C497.704 395.33 497.726 395.303 497.748 395.275L496.183 394.029ZM498.634 394.329C498.22 394.153 497.815 393.963 497.421 393.762L496.51 395.542C496.947 395.765 497.393 395.975 497.851 396.169L498.634 394.329ZM523.34 384.38C519.266 393.95 508.204 398.404 498.634 394.329L497.851 396.169C508.437 400.677 520.673 395.749 525.181 385.163L523.34 384.38ZM513.391 359.673C522.961 363.748 527.415 374.81 523.34 384.38L525.181 385.163C529.688 374.577 524.761 362.341 514.174 357.833L513.391 359.673ZM513.041 359.529C513.158 359.576 513.275 359.624 513.391 359.673L514.174 357.833C514.046 357.779 513.917 357.725 513.788 357.673L513.041 359.529ZM512.435 358.402C512.435 358.402 512.435 358.403 512.434 358.405C512.434 358.406 512.434 358.408 512.433 358.41L514.396 358.792C514.396 358.792 514.397 358.791 514.397 358.789C514.397 358.788 514.398 358.786 514.398 358.784L512.435 358.402ZM513.007 359.505C513.134 359.562 513.262 359.618 513.391 359.673L514.174 357.833C514.058 357.783 513.942 357.733 513.826 357.681L513.007 359.505ZM513.391 359.673C523.977 364.181 536.213 359.253 540.721 348.667L538.881 347.883C534.806 357.453 523.744 361.908 514.174 357.833L513.391 359.673ZM540.721 348.667C545.228 338.081 540.301 325.845 529.714 321.337L528.931 323.177C538.501 327.252 542.955 338.314 538.881 347.883L540.721 348.667ZM529.714 321.337C521.367 317.783 511.997 320.095 506.196 326.419L507.67 327.771C512.915 322.052 521.388 319.965 528.931 323.177L529.714 321.337ZM506.174 327.812C506.258 327.859 506.341 327.906 506.423 327.955L507.443 326.234C507.343 326.176 507.243 326.118 507.142 326.062L506.174 327.812ZM507.656 326.998C508.177 318.449 503.352 310.112 495.018 306.563L494.234 308.403C501.765 311.61 506.131 319.145 505.66 326.877L507.656 326.998ZM495.018 306.563C484.432 302.056 472.196 306.983 467.688 317.57L469.528 318.353C473.603 308.783 484.664 304.329 494.234 308.403L495.018 306.563ZM467.688 317.57C463.471 327.473 467.512 338.82 476.718 343.934L477.69 342.185C469.368 337.563 465.716 327.305 469.528 318.353L467.688 317.57ZM477.892 343.82C477.935 343.758 477.978 343.696 478.022 343.635L476.386 342.484C476.342 342.547 476.298 342.61 476.253 342.673L477.892 343.82ZM453.988 354.849C457.794 345.911 467.695 341.435 476.781 344.203L477.364 342.29C467.31 339.227 456.358 344.177 452.148 354.066L453.988 354.849ZM462.987 379.119C454.077 374.737 450.051 364.096 453.988 354.849L452.148 354.066C447.792 364.295 452.247 376.065 462.104 380.914L462.987 379.119ZM463.529 380.209C463.531 380.189 463.534 380.169 463.537 380.149L461.554 379.885C461.552 379.906 461.549 379.926 461.546 379.947L463.529 380.209Z" fill="black" mask="url(#path-12-inside-4_7_3429)"/>
<mask id="path-14-inside-5_7_3429" fill="white">
<path fill-rule="evenodd" clip-rule="evenodd" d="M182.712 323.978C182.779 323.953 182.846 323.926 182.913 323.899C188.398 321.683 191.048 315.44 188.832 309.956C186.616 304.471 180.373 301.821 174.888 304.037C170.564 305.784 168.002 310.034 168.197 314.442C168.142 314.456 168.087 314.471 168.032 314.487C165.109 311.192 160.322 309.922 156.005 311.666C150.52 313.882 147.87 320.125 150.086 325.61C152.159 330.741 157.756 333.391 162.96 331.897C162.967 331.938 162.974 331.978 162.982 332.019C158.216 334.565 156.041 340.349 158.111 345.472C160.252 350.772 166.154 353.425 171.498 351.599C171.505 351.607 171.511 351.616 171.518 351.625C166.399 354.021 163.994 360.032 166.136 365.335C168.352 370.82 174.595 373.47 180.08 371.254C184.486 369.473 187.063 365.094 186.757 360.596C189.66 364.044 194.556 365.405 198.963 363.624C204.448 361.408 207.098 355.165 204.882 349.681C202.666 344.196 196.423 341.546 190.938 343.762C190.696 343.86 190.46 343.965 190.229 344.078C190.227 344.059 190.225 344.041 190.222 344.022C190.462 343.944 190.701 343.858 190.938 343.762C196.423 341.546 199.073 335.303 196.857 329.818C194.641 324.333 188.398 321.683 182.913 323.899C182.846 323.926 182.78 323.954 182.714 323.982C182.714 323.981 182.713 323.979 182.712 323.978Z"/>
</mask>
<path fill-rule="evenodd" clip-rule="evenodd" d="M182.712 323.978C182.779 323.953 182.846 323.926 182.913 323.899C188.398 321.683 191.048 315.44 188.832 309.956C186.616 304.471 180.373 301.821 174.888 304.037C170.564 305.784 168.002 310.034 168.197 314.442C168.142 314.456 168.087 314.471 168.032 314.487C165.109 311.192 160.322 309.922 156.005 311.666C150.52 313.882 147.87 320.125 150.086 325.61C152.159 330.741 157.756 333.391 162.96 331.897C162.967 331.938 162.974 331.978 162.982 332.019C158.216 334.565 156.041 340.349 158.111 345.472C160.252 350.772 166.154 353.425 171.498 351.599C171.505 351.607 171.511 351.616 171.518 351.625C166.399 354.021 163.994 360.032 166.136 365.335C168.352 370.82 174.595 373.47 180.08 371.254C184.486 369.473 187.063 365.094 186.757 360.596C189.66 364.044 194.556 365.405 198.963 363.624C204.448 361.408 207.098 355.165 204.882 349.681C202.666 344.196 196.423 341.546 190.938 343.762C190.696 343.86 190.46 343.965 190.229 344.078C190.227 344.059 190.225 344.041 190.222 344.022C190.462 343.944 190.701 343.858 190.938 343.762C196.423 341.546 199.073 335.303 196.857 329.818C194.641 324.333 188.398 321.683 182.913 323.899C182.846 323.926 182.78 323.954 182.714 323.982C182.714 323.981 182.713 323.979 182.712 323.978Z" fill="#FF003D"/>
<path d="M182.712 323.978L182.356 323.044L181.178 323.493L181.883 324.537L182.712 323.978ZM168.197 314.442L168.446 315.41L169.232 315.208L169.196 314.398L168.197 314.442ZM168.032 314.487L167.284 315.151L167.703 315.623L168.309 315.448L168.032 314.487ZM162.96 331.897L163.945 331.725L163.754 330.629L162.684 330.936L162.96 331.897ZM162.982 332.019L163.453 332.901L164.093 332.558L163.966 331.844L162.982 332.019ZM171.498 351.599L172.291 350.99L171.854 350.42L171.174 350.652L171.498 351.599ZM171.518 351.625L171.942 352.531L173.07 352.003L172.311 351.016L171.518 351.625ZM186.757 360.596L187.522 359.952L185.551 357.612L185.759 360.664L186.757 360.596ZM190.229 344.078L189.235 344.19L189.394 345.6L190.669 344.976L190.229 344.078ZM190.222 344.022L189.914 343.071L189.136 343.323L189.229 344.136L190.222 344.022ZM182.714 323.982L181.885 324.541L182.347 325.226L183.107 324.901L182.714 323.982ZM183.068 324.913C183.141 324.885 183.215 324.856 183.288 324.826L182.538 322.972C182.478 322.997 182.417 323.021 182.356 323.044L183.068 324.913ZM183.288 324.826C189.284 322.404 192.182 315.578 189.759 309.581L187.904 310.33C189.914 315.303 187.511 320.963 182.538 322.972L183.288 324.826ZM189.759 309.581C187.336 303.584 180.51 300.687 174.513 303.11L175.263 304.964C180.235 302.955 185.895 305.357 187.904 310.33L189.759 309.581ZM174.513 303.11C169.784 305.02 166.985 309.668 167.198 314.486L169.196 314.398C169.019 310.4 171.344 306.547 175.263 304.964L174.513 303.11ZM168.309 315.448C168.355 315.434 168.4 315.422 168.446 315.41L167.948 313.473C167.883 313.49 167.818 313.508 167.754 313.526L168.309 315.448ZM168.78 313.823C165.585 310.222 160.352 308.831 155.63 310.739L156.379 312.593C160.292 311.013 164.633 312.162 167.284 315.151L168.78 313.823ZM155.63 310.739C149.633 313.162 146.736 319.988 149.159 325.984L151.013 325.235C149.004 320.262 151.407 314.602 156.379 312.593L155.63 310.739ZM149.159 325.984C151.426 331.595 157.545 334.492 163.236 332.858L162.684 330.936C157.967 332.29 152.892 329.887 151.013 325.235L149.159 325.984ZM163.966 331.844C163.959 331.804 163.952 331.765 163.945 331.725L161.975 332.069C161.982 332.111 161.99 332.152 161.997 332.194L163.966 331.844ZM159.038 345.098C157.162 340.454 159.134 335.209 163.453 332.901L162.51 331.137C157.299 333.922 154.921 340.245 157.184 345.847L159.038 345.098ZM171.174 350.652C166.33 352.308 160.98 349.903 159.038 345.098L157.184 345.847C159.525 351.642 165.977 354.542 171.821 352.545L171.174 350.652ZM172.311 351.016C172.304 351.007 172.298 350.999 172.291 350.99L170.704 352.207C170.711 352.216 170.718 352.225 170.725 352.234L172.311 351.016ZM171.094 350.719C165.497 353.339 162.866 359.911 165.209 365.709L167.063 364.96C165.121 360.153 167.302 354.702 171.942 352.531L171.094 350.719ZM165.209 365.709C167.632 371.706 174.457 374.604 180.454 372.181L179.705 370.326C174.732 372.336 169.072 369.933 167.063 364.96L165.209 365.709ZM180.454 372.181C185.274 370.234 188.089 365.444 187.754 360.528L185.759 360.664C186.037 364.743 183.699 368.713 179.705 370.326L180.454 372.181ZM185.992 361.24C189.166 365.009 194.518 366.499 199.338 364.551L198.588 362.697C194.595 364.311 190.155 363.079 187.522 359.952L185.992 361.24ZM199.338 364.551C205.334 362.128 208.232 355.303 205.809 349.306L203.955 350.055C205.964 355.028 203.561 360.688 198.588 362.697L199.338 364.551ZM205.809 349.306C203.386 343.309 196.56 340.412 190.563 342.835L191.313 344.689C196.285 342.68 201.945 345.082 203.955 350.055L205.809 349.306ZM190.563 342.835C190.299 342.941 190.041 343.057 189.789 343.18L190.669 344.976C190.878 344.874 191.093 344.778 191.313 344.689L190.563 342.835ZM189.229 344.136C189.231 344.154 189.233 344.172 189.235 344.19L191.223 343.966C191.22 343.947 191.218 343.928 191.216 343.908L189.229 344.136ZM190.563 342.835C190.348 342.922 190.131 343 189.914 343.071L190.531 344.973C190.793 344.888 191.054 344.794 191.313 344.689L190.563 342.835ZM195.93 330.193C197.939 335.165 195.536 340.825 190.563 342.835L191.313 344.689C197.309 342.266 200.207 335.44 197.784 329.443L195.93 330.193ZM183.288 324.826C188.26 322.817 193.92 325.22 195.93 330.193L197.784 329.443C195.361 323.447 188.535 320.549 182.538 322.972L183.288 324.826ZM183.107 324.901C183.167 324.876 183.227 324.851 183.288 324.826L182.538 322.972C182.466 323.001 182.393 323.032 182.322 323.062L183.107 324.901ZM181.883 324.537C181.883 324.538 181.884 324.539 181.884 324.54C181.885 324.54 181.885 324.541 181.885 324.541L183.544 323.423C183.543 323.422 183.542 323.421 183.542 323.42C183.542 323.42 183.541 323.419 183.541 323.419L181.883 324.537Z" fill="black" mask="url(#path-14-inside-5_7_3429)"/>
<mask id="path-16-inside-6_7_3429" fill="white">
<path fill-rule="evenodd" clip-rule="evenodd" d="M405.761 235.238C405.828 235.212 405.895 235.186 405.962 235.159C411.447 232.943 414.097 226.7 411.881 221.215C409.664 215.73 403.422 213.081 397.937 215.297C393.613 217.044 391.051 221.293 391.246 225.702C391.19 225.716 391.135 225.731 391.081 225.747C388.157 222.452 383.371 221.182 379.054 222.926C373.569 225.142 370.919 231.385 373.135 236.87C375.208 242.001 380.805 244.651 386.009 243.157C386.016 243.197 386.023 243.238 386.031 243.278C381.265 245.825 379.09 251.609 381.16 256.732C383.301 262.032 389.203 264.685 394.547 262.858C394.554 262.867 394.56 262.876 394.567 262.885C389.448 265.28 387.042 271.292 389.185 276.595C391.401 282.08 397.644 284.729 403.129 282.513C407.535 280.733 410.112 276.353 409.805 271.856C412.709 275.304 417.605 276.664 422.012 274.884C427.497 272.668 430.147 266.425 427.931 260.94C425.715 255.455 419.472 252.806 413.987 255.022C413.745 255.119 413.509 255.225 413.278 255.338C413.276 255.319 413.274 255.3 413.271 255.282C413.511 255.204 413.75 255.117 413.987 255.021C419.472 252.805 422.122 246.563 419.906 241.078C417.689 235.593 411.447 232.943 405.962 235.159C405.895 235.186 405.829 235.213 405.763 235.242C405.763 235.24 405.762 235.239 405.761 235.238Z"/>
</mask>
<path fill-rule="evenodd" clip-rule="evenodd" d="M405.761 235.238C405.828 235.212 405.895 235.186 405.962 235.159C411.447 232.943 414.097 226.7 411.881 221.215C409.664 215.73 403.422 213.081 397.937 215.297C393.613 217.044 391.051 221.293 391.246 225.702C391.19 225.716 391.135 225.731 391.081 225.747C388.157 222.452 383.371 221.182 379.054 222.926C373.569 225.142 370.919 231.385 373.135 236.87C375.208 242.001 380.805 244.651 386.009 243.157C386.016 243.197 386.023 243.238 386.031 243.278C381.265 245.825 379.09 251.609 381.16 256.732C383.301 262.032 389.203 264.685 394.547 262.858C394.554 262.867 394.56 262.876 394.567 262.885C389.448 265.28 387.042 271.292 389.185 276.595C391.401 282.08 397.644 284.729 403.129 282.513C407.535 280.733 410.112 276.353 409.805 271.856C412.709 275.304 417.605 276.664 422.012 274.884C427.497 272.668 430.147 266.425 427.931 260.94C425.715 255.455 419.472 252.806 413.987 255.022C413.745 255.119 413.509 255.225 413.278 255.338C413.276 255.319 413.274 255.3 413.271 255.282C413.511 255.204 413.75 255.117 413.987 255.021C419.472 252.805 422.122 246.563 419.906 241.078C417.689 235.593 411.447 232.943 405.962 235.159C405.895 235.186 405.829 235.213 405.763 235.242C405.763 235.24 405.762 235.239 405.761 235.238Z" fill="#FF003D"/>
<path d="M405.761 235.238L405.405 234.303L404.227 234.752L404.932 235.797L405.761 235.238ZM391.246 225.702L391.495 226.67L392.281 226.468L392.245 225.657L391.246 225.702ZM391.081 225.747L390.332 226.41L390.752 226.883L391.358 226.707L391.081 225.747ZM386.009 243.157L386.994 242.985L386.803 241.889L385.733 242.196L386.009 243.157ZM386.031 243.278L386.502 244.16L387.142 243.818L387.015 243.103L386.031 243.278ZM394.547 262.858L395.34 262.25L394.903 261.68L394.223 261.912L394.547 262.858ZM394.567 262.885L394.991 263.79L396.118 263.263L395.36 262.275L394.567 262.885ZM409.805 271.856L410.57 271.212L408.6 268.872L408.808 271.924L409.805 271.856ZM413.278 255.338L412.284 255.45L412.443 256.86L413.718 256.236L413.278 255.338ZM413.271 255.282L412.963 254.331L412.185 254.583L412.278 255.396L413.271 255.282ZM405.763 235.242L404.934 235.801L405.396 236.486L406.156 236.161L405.763 235.242ZM406.117 236.172C406.19 236.144 406.263 236.116 406.336 236.086L405.587 234.232C405.526 234.256 405.466 234.28 405.405 234.303L406.117 236.172ZM406.336 236.086C412.333 233.663 415.231 226.838 412.808 220.841L410.953 221.59C412.962 226.563 410.56 232.223 405.587 234.232L406.336 236.086ZM412.808 220.841C410.385 214.844 403.559 211.946 397.562 214.369L398.311 216.224C403.284 214.215 408.944 216.617 410.953 221.59L412.808 220.841ZM397.562 214.369C392.833 216.28 390.033 220.928 390.247 225.746L392.245 225.657C392.068 221.659 394.392 217.807 398.311 216.224L397.562 214.369ZM391.358 226.707C391.403 226.694 391.449 226.682 391.495 226.67L390.997 224.733C390.932 224.75 390.867 224.767 390.803 224.786L391.358 226.707ZM391.829 225.083C388.634 221.482 383.401 220.091 378.679 221.999L379.428 223.853C383.341 222.272 387.681 223.422 390.332 226.41L391.829 225.083ZM378.679 221.999C372.682 224.422 369.785 231.247 372.208 237.244L374.062 236.495C372.053 231.522 374.455 225.862 379.428 223.853L378.679 221.999ZM372.208 237.244C374.475 242.855 380.594 245.752 386.285 244.118L385.733 242.196C381.016 243.55 375.941 241.146 374.062 236.495L372.208 237.244ZM387.015 243.103C387.008 243.064 387.001 243.024 386.994 242.985L385.024 243.329C385.031 243.37 385.039 243.412 385.046 243.453L387.015 243.103ZM382.087 256.358C380.211 251.713 382.182 246.469 386.502 244.16L385.559 242.396C380.348 245.181 377.969 251.505 380.233 257.107L382.087 256.358ZM394.223 261.912C389.379 263.568 384.028 261.162 382.087 256.358L380.233 257.107C382.574 262.902 389.026 265.802 394.87 263.805L394.223 261.912ZM395.36 262.275C395.353 262.267 395.347 262.258 395.34 262.25L393.753 263.467C393.76 263.476 393.767 263.485 393.774 263.494L395.36 262.275ZM394.143 261.979C388.546 264.599 385.915 271.171 388.258 276.969L390.112 276.22C388.17 271.413 390.351 265.962 394.991 263.79L394.143 261.979ZM388.258 276.969C390.681 282.966 397.506 285.863 403.503 283.441L402.754 281.586C397.781 283.595 392.121 281.193 390.112 276.22L388.258 276.969ZM403.503 283.441C408.323 281.493 411.138 276.704 410.803 271.788L408.808 271.924C409.086 276.002 406.748 279.973 402.754 281.586L403.503 283.441ZM409.041 272.5C412.215 276.269 417.567 277.758 422.386 275.811L421.637 273.957C417.643 275.57 413.204 274.339 410.57 271.212L409.041 272.5ZM422.386 275.811C428.383 273.388 431.281 266.563 428.858 260.566L427.003 261.315C429.012 266.288 426.61 271.948 421.637 273.957L422.386 275.811ZM428.858 260.566C426.435 254.569 419.609 251.671 413.612 254.094L414.361 255.949C419.334 253.94 424.994 256.342 427.003 261.315L428.858 260.566ZM413.612 254.094C413.348 254.201 413.09 254.316 412.838 254.44L413.718 256.236C413.927 256.133 414.142 256.038 414.361 255.949L413.612 254.094ZM412.278 255.396C412.28 255.414 412.282 255.432 412.284 255.45L414.272 255.226C414.269 255.206 414.267 255.187 414.265 255.168L412.278 255.396ZM413.612 254.094C413.397 254.181 413.18 254.26 412.963 254.331L413.58 256.233C413.842 256.148 414.103 256.053 414.361 255.949L413.612 254.094ZM418.978 241.452C420.987 246.425 418.585 252.085 413.612 254.094L414.361 255.949C420.358 253.526 423.256 246.7 420.833 240.703L418.978 241.452ZM406.336 236.086C411.309 234.077 416.969 236.48 418.978 241.452L420.833 240.703C418.41 234.706 411.584 231.809 405.587 234.232L406.336 236.086ZM406.156 236.161C406.216 236.136 406.276 236.111 406.336 236.086L405.587 234.232C405.515 234.261 405.442 234.291 405.371 234.322L406.156 236.161ZM404.932 235.797C404.932 235.798 404.933 235.799 404.933 235.799C404.934 235.8 404.934 235.8 404.934 235.801L406.593 234.682C406.592 234.682 406.591 234.681 406.591 234.68C406.591 234.68 406.59 234.679 406.59 234.679L404.932 235.797Z" fill="black" mask="url(#path-16-inside-6_7_3429)"/>
<mask id="path-18-inside-7_7_3429" fill="white">
<path fill-rule="evenodd" clip-rule="evenodd" d="M256.48 187.523C256.507 187.59 256.534 187.656 256.562 187.723C258.873 193.169 265.16 195.711 270.606 193.401C276.052 191.091 278.594 184.803 276.284 179.357C274.463 175.064 270.169 172.575 265.765 172.846C265.75 172.791 265.734 172.736 265.717 172.682C268.961 169.702 270.149 164.895 268.33 160.608C266.02 155.162 259.733 152.62 254.287 154.93C249.192 157.091 246.639 162.733 248.222 167.911C248.182 167.918 248.141 167.926 248.101 167.934C245.473 163.214 239.652 161.138 234.566 163.296C229.303 165.528 226.752 171.474 228.671 176.786C228.662 176.793 228.653 176.8 228.645 176.807C226.161 171.73 220.109 169.428 214.844 171.662C209.398 173.972 206.856 180.259 209.166 185.705C211.022 190.081 215.446 192.582 219.937 192.198C216.54 195.16 215.264 200.079 217.12 204.454C219.43 209.9 225.717 212.442 231.163 210.132C236.609 207.822 239.151 201.535 236.841 196.089C236.739 195.848 236.629 195.614 236.512 195.385C236.531 195.383 236.55 195.38 236.568 195.378C236.65 195.616 236.741 195.853 236.841 196.089C239.151 201.534 245.439 204.077 250.884 201.766C256.33 199.456 258.872 193.169 256.562 187.723C256.534 187.657 256.506 187.591 256.476 187.526C256.478 187.525 256.479 187.524 256.48 187.523Z"/>
</mask>
<path fill-rule="evenodd" clip-rule="evenodd" d="M256.48 187.523C256.507 187.59 256.534 187.656 256.562 187.723C258.873 193.169 265.16 195.711 270.606 193.401C276.052 191.091 278.594 184.803 276.284 179.357C274.463 175.064 270.169 172.575 265.765 172.846C265.75 172.791 265.734 172.736 265.717 172.682C268.961 169.702 270.149 164.895 268.33 160.608C266.02 155.162 259.733 152.62 254.287 154.93C249.192 157.091 246.639 162.733 248.222 167.911C248.182 167.918 248.141 167.926 248.101 167.934C245.473 163.214 239.652 161.138 234.566 163.296C229.303 165.528 226.752 171.474 228.671 176.786C228.662 176.793 228.653 176.8 228.645 176.807C226.161 171.73 220.109 169.428 214.844 171.662C209.398 173.972 206.856 180.259 209.166 185.705C211.022 190.081 215.446 192.582 219.937 192.198C216.54 195.16 215.264 200.079 217.12 204.454C219.43 209.9 225.717 212.442 231.163 210.132C236.609 207.822 239.151 201.535 236.841 196.089C236.739 195.848 236.629 195.614 236.512 195.385C236.531 195.383 236.55 195.38 236.568 195.378C236.65 195.616 236.741 195.853 236.841 196.089C239.151 201.534 245.439 204.077 250.884 201.766C256.33 199.456 258.872 193.169 256.562 187.723C256.534 187.657 256.506 187.591 256.476 187.526C256.478 187.525 256.479 187.524 256.48 187.523Z" fill="#D4FF73"/>
<path d="M256.48 187.523L257.408 187.151L256.939 185.982L255.907 186.704L256.48 187.523ZM265.765 172.846L264.801 173.112L265.017 173.894L265.827 173.844L265.765 172.846ZM265.717 172.682L265.041 171.945L264.576 172.372L264.761 172.976L265.717 172.682ZM248.222 167.911L248.411 168.893L249.504 168.682L249.178 167.618L248.222 167.911ZM248.101 167.934L247.227 168.421L247.581 169.055L248.293 168.916L248.101 167.934ZM228.671 176.786L229.293 177.569L229.855 177.122L229.611 176.447L228.671 176.786ZM228.645 176.807L227.746 177.246L228.293 178.365L229.267 177.589L228.645 176.807ZM219.937 192.198L220.594 192.951L222.9 190.941L219.852 191.201L219.937 192.198ZM236.512 195.385L236.383 194.393L234.976 194.577L235.622 195.84L236.512 195.385ZM236.568 195.378L237.514 195.053L237.248 194.279L236.437 194.386L236.568 195.378ZM256.476 187.526L255.903 186.706L255.226 187.18L255.564 187.934L256.476 187.526ZM255.552 187.895C255.581 187.968 255.611 188.041 255.642 188.113L257.483 187.332C257.457 187.272 257.432 187.212 257.408 187.151L255.552 187.895ZM255.642 188.113C258.168 194.068 265.042 196.847 270.996 194.321L270.215 192.48C265.278 194.575 259.577 192.27 257.483 187.332L255.642 188.113ZM270.996 194.321C276.951 191.795 279.73 184.921 277.204 178.967L275.363 179.748C277.458 184.685 275.153 190.386 270.215 192.48L270.996 194.321ZM277.204 178.967C275.212 174.271 270.518 171.552 265.704 171.848L265.827 173.844C269.821 173.599 273.713 175.857 275.363 179.748L277.204 178.967ZM264.761 172.976C264.775 173.021 264.789 173.066 264.801 173.112L266.729 172.58C266.711 172.516 266.693 172.452 266.673 172.388L264.761 172.976ZM266.394 173.418C269.939 170.162 271.24 164.906 269.251 160.218L267.41 160.999C269.058 164.883 267.983 169.243 265.041 171.945L266.394 173.418ZM269.251 160.218C266.725 154.263 259.851 151.484 253.896 154.01L254.677 155.851C259.615 153.756 265.315 156.061 267.41 160.999L269.251 160.218ZM253.896 154.01C248.326 156.373 245.535 162.541 247.266 168.203L249.178 167.618C247.743 162.925 250.059 157.81 254.677 155.851L253.896 154.01ZM248.293 168.916C248.333 168.908 248.372 168.9 248.411 168.893L248.033 166.929C247.992 166.937 247.95 166.945 247.909 166.953L248.293 168.916ZM234.956 164.217C239.567 162.261 244.845 164.142 247.227 168.421L248.975 167.448C246.101 162.285 239.737 160.016 234.175 162.375L234.956 164.217ZM229.611 176.447C227.872 171.631 230.185 166.24 234.956 164.217L234.175 162.375C228.421 164.816 225.632 171.317 227.73 177.126L229.611 176.447ZM229.267 177.589C229.276 177.583 229.284 177.576 229.293 177.569L228.049 176.003C228.04 176.01 228.031 176.017 228.022 176.025L229.267 177.589ZM229.543 176.367C226.827 170.816 220.211 168.299 214.454 170.741L215.235 172.582C220.008 170.558 225.495 172.644 227.746 177.246L229.543 176.367ZM214.454 170.741C208.499 173.267 205.72 180.141 208.246 186.096L210.087 185.315C207.992 180.377 210.297 174.677 215.235 172.582L214.454 170.741ZM208.246 186.096C210.276 190.881 215.113 193.614 220.022 193.194L219.852 191.201C215.779 191.549 211.769 189.28 210.087 185.315L208.246 186.096ZM219.28 191.444C215.566 194.683 214.169 200.06 216.199 204.845L218.04 204.064C216.358 200.098 217.513 195.638 220.594 192.951L219.28 191.444ZM216.199 204.845C218.725 210.799 225.599 213.579 231.554 211.053L230.773 209.212C225.835 211.306 220.135 209.001 218.04 204.064L216.199 204.845ZM231.554 211.053C237.508 208.527 240.287 201.652 237.762 195.698L235.92 196.479C238.015 201.417 235.71 207.117 230.773 209.212L231.554 211.053ZM237.762 195.698C237.65 195.436 237.531 195.18 237.403 194.93L235.622 195.84C235.728 196.048 235.828 196.261 235.92 196.479L237.762 195.698ZM236.437 194.386C236.419 194.389 236.401 194.391 236.383 194.393L236.642 196.377C236.661 196.374 236.68 196.372 236.699 196.369L236.437 194.386ZM237.762 195.698C237.671 195.484 237.588 195.269 237.514 195.053L235.623 195.703C235.712 195.963 235.811 196.222 235.92 196.479L237.762 195.698ZM250.494 200.846C245.557 202.94 239.856 200.636 237.762 195.698L235.92 196.479C238.446 202.433 245.321 205.213 251.275 202.687L250.494 200.846ZM255.642 188.113C257.736 193.051 255.431 198.751 250.494 200.846L251.275 202.687C257.229 200.161 260.009 193.287 257.483 187.332L255.642 188.113ZM255.564 187.934C255.59 187.994 255.616 188.053 255.642 188.113L257.483 187.332C257.452 187.26 257.421 187.188 257.389 187.117L255.564 187.934ZM255.907 186.704C255.906 186.705 255.905 186.705 255.904 186.706C255.904 186.706 255.903 186.706 255.903 186.706L257.05 188.345C257.051 188.345 257.051 188.344 257.052 188.344C257.053 188.343 257.053 188.343 257.053 188.343L255.907 186.704Z" fill="black" mask="url(#path-18-inside-7_7_3429)"/>
<mask id="path-20-inside-8_7_3429" fill="white">
<path fill-rule="evenodd" clip-rule="evenodd" d="M349.047 409.011C349.073 409.078 349.101 409.145 349.129 409.211C351.439 414.657 357.726 417.199 363.172 414.889C368.618 412.579 371.16 406.291 368.85 400.845C367.029 396.552 362.736 394.063 358.332 394.334C358.316 394.279 358.3 394.224 358.284 394.17C361.527 391.19 362.715 386.383 360.897 382.096C358.587 376.65 352.299 374.108 346.853 376.418C341.759 378.579 339.205 384.221 340.789 389.399C340.748 389.407 340.708 389.414 340.668 389.422C338.039 384.702 332.219 382.626 327.132 384.784C321.87 387.016 319.319 392.962 321.237 398.274C321.228 398.281 321.22 398.288 321.211 398.295C318.728 393.218 312.676 390.916 307.41 393.15C301.965 395.46 299.423 401.747 301.733 407.193C303.589 411.569 308.012 414.07 312.504 413.686C309.106 416.648 307.83 421.567 309.686 425.942C311.996 431.388 318.284 433.93 323.729 431.62C329.175 429.31 331.717 423.023 329.407 417.577C329.305 417.337 329.196 417.102 329.079 416.873C329.098 416.871 329.116 416.868 329.135 416.866C329.217 417.104 329.308 417.341 329.407 417.577C331.718 423.023 338.005 425.565 343.451 423.254C348.897 420.944 351.439 414.657 349.129 409.211C349.101 409.145 349.072 409.079 349.043 409.014C349.044 409.013 349.045 409.012 349.047 409.011Z"/>
</mask>
<path fill-rule="evenodd" clip-rule="evenodd" d="M349.047 409.011C349.073 409.078 349.101 409.145 349.129 409.211C351.439 414.657 357.726 417.199 363.172 414.889C368.618 412.579 371.16 406.291 368.85 400.845C367.029 396.552 362.736 394.063 358.332 394.334C358.316 394.279 358.3 394.224 358.284 394.17C361.527 391.19 362.715 386.383 360.897 382.096C358.587 376.65 352.299 374.108 346.853 376.418C341.759 378.579 339.205 384.221 340.789 389.399C340.748 389.407 340.708 389.414 340.668 389.422C338.039 384.702 332.219 382.626 327.132 384.784C321.87 387.016 319.319 392.962 321.237 398.274C321.228 398.281 321.22 398.288 321.211 398.295C318.728 393.218 312.676 390.916 307.41 393.15C301.965 395.46 299.423 401.747 301.733 407.193C303.589 411.569 308.012 414.07 312.504 413.686C309.106 416.648 307.83 421.567 309.686 425.942C311.996 431.388 318.284 433.93 323.729 431.62C329.175 429.31 331.717 423.023 329.407 417.577C329.305 417.337 329.196 417.102 329.079 416.873C329.098 416.871 329.116 416.868 329.135 416.866C329.217 417.104 329.308 417.341 329.407 417.577C331.718 423.023 338.005 425.565 343.451 423.254C348.897 420.944 351.439 414.657 349.129 409.211C349.101 409.145 349.072 409.079 349.043 409.014C349.044 409.013 349.045 409.012 349.047 409.011Z" fill="#D4FF73"/>
<path d="M349.047 409.011L349.975 408.639L349.506 407.47L348.473 408.192L349.047 409.011ZM358.332 394.334L357.368 394.6L357.583 395.382L358.393 395.332L358.332 394.334ZM358.284 394.17L357.607 393.433L357.142 393.86L357.328 394.464L358.284 394.17ZM340.789 389.399L340.978 390.381L342.07 390.171L341.745 389.106L340.789 389.399ZM340.668 389.422L339.794 389.909L340.147 390.543L340.86 390.404L340.668 389.422ZM321.237 398.274L321.859 399.057L322.422 398.61L322.178 397.935L321.237 398.274ZM321.211 398.295L320.313 398.735L320.86 399.853L321.834 399.078L321.211 398.295ZM312.504 413.686L313.161 414.439L315.467 412.429L312.419 412.689L312.504 413.686ZM329.079 416.873L328.95 415.882L327.543 416.065L328.189 417.329L329.079 416.873ZM329.135 416.866L330.08 416.541L329.815 415.767L329.004 415.875L329.135 416.866ZM349.043 409.014L348.47 408.195L347.793 408.668L348.13 409.423L349.043 409.014ZM348.118 409.384C348.148 409.456 348.177 409.529 348.208 409.601L350.049 408.82C350.024 408.76 349.999 408.7 349.975 408.639L348.118 409.384ZM348.208 409.601C350.734 415.556 357.608 418.335 363.563 415.809L362.782 413.968C357.844 416.063 352.144 413.758 350.049 408.82L348.208 409.601ZM363.563 415.809C369.517 413.284 372.297 406.409 369.771 400.455L367.93 401.236C370.024 406.173 367.719 411.874 362.782 413.968L363.563 415.809ZM369.771 400.455C367.779 395.759 363.084 393.04 358.27 393.336L358.393 395.332C362.387 395.087 366.279 397.345 367.93 401.236L369.771 400.455ZM357.328 394.464C357.342 394.509 357.355 394.554 357.368 394.6L359.296 394.068C359.278 394.004 359.259 393.94 359.239 393.876L357.328 394.464ZM358.96 394.906C362.506 391.65 363.806 386.394 361.817 381.706L359.976 382.487C361.624 386.371 360.549 390.731 357.607 393.433L358.96 394.906ZM361.817 381.706C359.292 375.751 352.417 372.972 346.463 375.498L347.244 377.339C352.181 375.244 357.882 377.549 359.976 382.487L361.817 381.706ZM346.463 375.498C340.892 377.861 338.101 384.029 339.832 389.691L341.745 389.106C340.31 384.413 342.625 379.298 347.244 377.339L346.463 375.498ZM340.86 390.404C340.899 390.396 340.938 390.388 340.978 390.381L340.6 388.417C340.558 388.425 340.517 388.433 340.476 388.441L340.86 390.404ZM327.522 385.705C332.134 383.749 337.411 385.63 339.794 389.909L341.541 388.936C338.667 383.774 332.303 381.504 326.741 383.863L327.522 385.705ZM322.178 397.935C320.439 393.12 322.752 387.728 327.522 385.705L326.741 383.863C320.987 386.304 318.199 392.805 320.297 398.614L322.178 397.935ZM321.834 399.078C321.842 399.071 321.851 399.064 321.859 399.057L320.615 397.491C320.606 397.499 320.597 397.506 320.588 397.513L321.834 399.078ZM322.109 397.856C319.394 392.304 312.777 389.787 307.02 392.229L307.801 394.07C312.574 392.045 318.062 394.132 320.313 398.735L322.109 397.856ZM307.02 392.229C301.066 394.755 298.286 401.629 300.812 407.584L302.653 406.803C300.559 401.865 302.864 396.165 307.801 394.07L307.02 392.229ZM300.812 407.584C302.842 412.369 307.679 415.102 312.589 414.682L312.419 412.689C308.345 413.037 304.335 410.768 302.653 406.803L300.812 407.584ZM311.846 412.932C308.132 416.171 306.736 421.548 308.765 426.333L310.607 425.552C308.924 421.586 310.08 417.126 313.161 414.439L311.846 412.932ZM308.765 426.333C311.291 432.287 318.166 435.067 324.12 432.541L323.339 430.7C318.402 432.794 312.701 430.489 310.607 425.552L308.765 426.333ZM324.12 432.541C330.074 430.015 332.854 423.141 330.328 417.186L328.487 417.967C330.581 422.905 328.276 428.605 323.339 430.7L324.12 432.541ZM330.328 417.186C330.217 416.924 330.097 416.668 329.969 416.418L328.189 417.329C328.295 417.536 328.394 417.749 328.487 417.967L330.328 417.186ZM329.004 415.875C328.986 415.877 328.968 415.879 328.95 415.882L329.208 417.865C329.227 417.862 329.247 417.86 329.266 417.857L329.004 415.875ZM330.328 417.186C330.237 416.972 330.155 416.757 330.08 416.541L328.189 417.191C328.279 417.451 328.378 417.71 328.487 417.967L330.328 417.186ZM343.06 422.334C338.123 424.428 332.422 422.124 330.328 417.186L328.487 417.967C331.013 423.921 337.887 426.701 343.841 424.175L343.06 422.334ZM348.208 409.601C350.303 414.539 347.998 420.239 343.06 422.334L343.841 424.175C349.796 421.649 352.575 414.775 350.049 408.82L348.208 409.601ZM348.13 409.423C348.157 409.482 348.183 409.541 348.208 409.601L350.049 408.82C350.019 408.748 349.987 408.677 349.956 408.605L348.13 409.423ZM348.473 408.192C348.472 408.193 348.472 408.193 348.471 408.194C348.47 408.194 348.47 408.194 348.47 408.195L349.616 409.833C349.617 409.833 349.618 409.832 349.618 409.832C349.619 409.831 349.619 409.831 349.62 409.831L348.473 408.192Z" fill="black" mask="url(#path-20-inside-8_7_3429)"/>
<defs>
<radialGradient id="paint0_radial_7_3429" cx="0" cy="0" r="1" gradientUnits="userSpaceOnUse" gradientTransform="translate(292 292) rotate(90) scale(292)">
<stop stop-color="#7A61E3"/>
<stop offset="0.53" stop-color="#D2CCF4"/>
<stop offset="0.935" stop-color="#D4FF73"/>
</radialGradient>
</defs>
</svg>
